<?xml version="1.0" encoding="UTF-8" standalone="no"?>
<svg
   viewBox="0 0 269.99411 269.99411"
   x="0px"
   y="0px"
   version="1.1"
   id="svg2"
   sodipodi:docname="a11y.svg"
   width="269.99411"
   height="269.99411"
   inkscape:version="1.3.2 (091e20ef0f, 2023-11-25)"
   xmlns:inkscape="http://www.inkscape.org/namespaces/inkscape"
   xmlns:sodipodi="http://sodipodi.sourceforge.net/DTD/sodipodi-0.dtd"
   xmlns="http://www.w3.org/2000/svg"
   xmlns:svg="http://www.w3.org/2000/svg">
  <defs
     id="defs2" />
  <sodipodi:namedview
     id="namedview2"
     pagecolor="#ffffff"
     bordercolor="#000000"
     borderopacity="0.25"
     inkscape:showpageshadow="2"
     inkscape:pageopacity="0.0"
     inkscape:pagecheckerboard="0"
     inkscape:deskcolor="#d1d1d1"
     showgrid="false"
     inkscape:zoom="2.1448449"
     inkscape:cx="164.11443"
     inkscape:cy="138.00532"
     inkscape:window-width="1549"
     inkscape:window-height="1216"
     inkscape:window-x="26"
     inkscape:window-y="23"
     inkscape:window-maximized="0"
     inkscape:current-layer="layer1" />
  <path
     style="stroke-width:16.8746"
     d="M 132.54297,2.0234375 C 112.07853,2.3930874 91.715563,7.5572808 73.573076,17.038967 52.244497,28.147398 33.976549,45.111392 21.498751,65.683783 10.593889,83.529481 3.9627533,103.97151 2.3948528,124.83095 c -1.72885927,22.47293 2.3549291,45.37029 11.8281562,65.8277 8.334337,18.13831 20.834156,34.3325 36.250836,47.01042 17.320717,14.28028 38.312741,24.06758 60.398225,28.10639 21.26598,3.93661 43.49345,2.60497 64.11058,-3.9481 19.39827,-6.10915 37.37295,-16.71026 52.0341,-30.81307 16.7129,-15.99185 29.13895,-36.41723 35.61047,-58.62789 C 270.38935,146.046 269.711,117.2901 260.6613,91.360478 253.18579,69.689071 239.89758,50.096857 222.66646,34.993671 206.96135,21.167282 187.93496,11.153282 167.64539,6.037346 156.19261,3.1417667 144.35191,1.8189801 132.54297,2.0234375 Z M 135.00977,14.875 c 24.27118,-0.03118 48.49263,7.524857 68.41361,21.396598 7.73784,5.360289 14.82826,11.646817 21.11178,18.654183 0.58876,0.676771 1.38033,1.557711 2.02569,2.331607 14.05955,16.463625 23.44078,36.833612 26.95046,58.188952 0.57627,3.48162 0.99529,6.98859 1.26994,10.50678 0.0638,0.98316 0.15934,2.23855 0.20182,3.32767 0.11908,2.42789 0.16875,5.08609 0.12069,7.62062 -0.0235,1.36789 -0.0646,2.75396 -0.13624,4.02638 -1.16976,24.26652 -9.92448,48.1103 -24.78535,67.33528 -0.70431,0.91437 -1.61166,2.05741 -2.42161,3.03955 -14.34651,17.45052 -33.69505,30.75367 -55.17479,37.778 -10.56537,3.47621 -21.61487,5.46363 -32.72639,5.92915 -0.66708,0.0212 -1.65528,0.0601 -2.44646,0.0746 -20.24087,0.45887 -40.553135,-4.38864 -58.448076,-13.84609 -0.593386,-0.32855 -1.473094,-0.78556 -2.171768,-1.17808 -2.42064,-1.33053 -4.945116,-2.86473 -7.168076,-4.29067 -15.800021,-10.20995 -29.099091,-24.22557 -38.522985,-40.50235 -0.527787,-0.93563 -1.215884,-2.12854 -1.776224,-3.17988 -9.482736,-17.45986 -14.495732,-37.31259 -14.435511,-57.18143 -0.0037,-1.7088 0.04612,-3.41715 0.10972,-5.12462 0.03304,-0.55898 0.0907,-1.64285 0.117188,-2.20117 1.090886,-17.89371 6.243254,-35.531623 15.045371,-51.153832 10.704116,-19.117304 26.701879,-35.24189 45.794312,-46.003687 7.825687,-4.430727 16.154935,-7.965343 24.767739,-10.549514 0.74034,-0.206577 1.76247,-0.519461 2.62071,-0.744497 7.33796,-2.028745 14.9812,-3.327431 22.50624,-3.896128 3.04711,-0.233992 6.10255,-0.336627 9.15821,-0.357422 z"
     id="path1"
     sodipodi:nodetypes="cccccccccccccccccccccccccccccccccccccccccc" />
  <g
     inkscape:groupmode="layer"
     id="layer1"
     inkscape:label="Layer 1"
     transform="translate(3.7590771e-4)">
    <path
       id="path1-3"
       style="fill:#d40000;fill-opacity:1;stroke-width:21.6016"
       d="m 135.95444,49.064761 c -7.19729,0.03299 -14.1944,5.184075 -15.87391,12.270188 -1.59904,6.066049 0.52312,12.974643 5.42702,16.939561 5.47725,4.613738 14.06248,5.133089 19.91581,0.924742 5.419,-3.693773 8.19989,-10.770078 6.76534,-17.166282 -1.52543,-7.362874 -8.68805,-13.169109 -16.23426,-12.968209 z" />
  </g>
  <g
     inkscape:groupmode="layer"
     id="layer2"
     inkscape:label="Layer 2">
    <path
       d="m 43.489029,75.986245 c -3.940626,0.08728 -7.055178,3.738546 -7.339154,7.525094 -0.350053,2.708396 1.015311,5.479936 3.346283,6.893824 1.946781,1.173108 4.164485,1.794043 6.237565,2.708287 22.178479,8.78115 45.60243,14.38051 69.346547,16.64375 1.14062,0.11198 2.28022,0.23184 3.42247,0.32532 v 41.80611 c -13.56397,24.43331 -27.18669,48.83625 -40.674416,73.31021 -1.50293,3.16776 -0.263646,7.24627 2.663656,9.13936 2.838569,2.12083 7.299358,2.35443 9.886016,-0.29497 2.133777,-2.2487 3.180616,-5.24058 4.811521,-7.83197 13.819503,-24.87825 27.639013,-49.75649 41.458513,-74.63474 14.99295,26.97607 29.94755,53.97474 44.98917,80.92236 2.52834,3.8891 8.71365,4.54737 11.94786,1.19124 2.66613,-2.5815 3.20036,-7.08246 1.00447,-10.12232 -13.22747,-23.91699 -26.53432,-47.79159 -39.79621,-71.6887 v -41.80611 c 21.94642,-1.83332 43.67235,-6.42728 64.41868,-13.831743 4.84165,-1.718588 9.66875,-3.524212 14.32605,-5.690645 3.8825,-2.36472 4.80235,-8.336883 1.71304,-11.705331 -2.3617,-2.779176 -6.69357,-3.574381 -9.86446,-1.751589 -5.82161,2.480782 -11.81119,4.764437 -17.7323,6.752504 -4.5588,1.522577 -9.35554,2.966982 -14.08109,4.204022 -19.10453,5.016376 -39.09682,7.523585 -58.93743,7.331849 -3.14554,-0.02696 -6.34217,-0.117106 -9.38276,-0.278017 -4.71185,-0.232406 -9.41462,-0.628906 -14.10277,-1.153577 -1.46124,-0.182745 -3.23262,-0.384253 -4.80871,-0.610255 -3.00993,-0.407613 -5.80703,-0.845885 -8.793141,-1.376973 C 79.970518,88.87238 62.811833,83.559443 46.438592,76.479427 45.490855,76.152513 44.492963,75.96864 43.489029,75.986245 Z"
       style="stroke-width:20.5845"
       id="path1-36" />
  </g>
</svg>
