<?xml version="1.0" encoding="UTF-8" standalone="no"?>
<svg
   xml:space="preserve"
   version="1.1"
   style="image-rendering:optimizeQuality;shape-rendering:geometricPrecision;text-rendering:geometricPrecision"
   viewBox="0 0 2932.8513 2930.3342"
   x="0px"
   y="0px"
   fill-rule="evenodd"
   clip-rule="evenodd"
   id="svg2"
   sodipodi:docname="bicep.svg"
   inkscape:version="1.3.2 (091e20ef0f, 2023-11-25)"
   width="2932.8513"
   height="2930.3342"
   xmlns:inkscape="http://www.inkscape.org/namespaces/inkscape"
   xmlns:sodipodi="http://sodipodi.sourceforge.net/DTD/sodipodi-0.dtd"
   xmlns="http://www.w3.org/2000/svg"
   xmlns:svg="http://www.w3.org/2000/svg"><sodipodi:namedview
     id="namedview2"
     pagecolor="#ffffff"
     bordercolor="#000000"
     borderopacity="0.25"
     inkscape:showpageshadow="2"
     inkscape:pageopacity="0.0"
     inkscape:pagecheckerboard="0"
     inkscape:deskcolor="#d1d1d1"
     showgrid="false"
     inkscape:zoom="0.22200138"
     inkscape:cx="880.62516"
     inkscape:cy="966.21021"
     inkscape:window-width="2560"
     inkscape:window-height="1371"
     inkscape:window-x="0"
     inkscape:window-y="0"
     inkscape:window-maximized="1"
     inkscape:current-layer="svg2" /><defs
     id="defs1"><inkscape:path-effect
       effect="fillet_chamfer"
       id="path-effect19"
       is_visible="true"
       lpeversion="1"
       nodesatellites_param="F,0,0,1,0,22.914738,0,1 @ F,0,0,1,0,22.214435,0,1 @ F,0,0,1,0,33.377481,0,1 @ F,0,0,1,0,25.609727,0,1"
       radius="0"
       unit="px"
       method="auto"
       mode="F"
       chamfer_steps="1"
       flexible="false"
       use_knot_distance="true"
       apply_no_radius="true"
       apply_with_radius="true"
       only_selected="false"
       hide_knots="false" /><inkscape:path-effect
       effect="fillet_chamfer"
       id="path-effect18"
       is_visible="true"
       lpeversion="1"
       nodesatellites_param="F,0,0,1,0,31.462398,0,1 @ F,0,0,1,0,26.92406,0,1 @ F,0,0,1,0,25.964722,0,1 @ F,0,0,1,0,27.896243,0,1"
       radius="0"
       unit="px"
       method="auto"
       mode="F"
       chamfer_steps="1"
       flexible="false"
       use_knot_distance="true"
       apply_no_radius="true"
       apply_with_radius="true"
       only_selected="false"
       hide_knots="false" /><inkscape:path-effect
       effect="fillet_chamfer"
       id="path-effect17"
       is_visible="true"
       lpeversion="1"
       nodesatellites_param="F,0,0,1,0,28.987047,0,1 @ F,0,0,1,0,25.653537,0,1 @ F,0,0,1,0,27.265111,0,1 @ F,0,0,1,0,27.853817,0,1"
       radius="0"
       unit="px"
       method="auto"
       mode="F"
       chamfer_steps="1"
       flexible="false"
       use_knot_distance="true"
       apply_no_radius="true"
       apply_with_radius="true"
       only_selected="false"
       hide_knots="false" /><inkscape:path-effect
       effect="fillet_chamfer"
       id="path-effect16"
       is_visible="true"
       lpeversion="1"
       nodesatellites_param="F,0,0,1,0,27.513343,0,1 @ F,0,0,1,0,24.525274,0,1 @ F,0,0,1,0,28.466541,0,1 @ F,0,0,1,0,24.681706,0,1"
       radius="0"
       unit="px"
       method="auto"
       mode="F"
       chamfer_steps="1"
       flexible="false"
       use_knot_distance="true"
       apply_no_radius="true"
       apply_with_radius="true"
       only_selected="false"
       hide_knots="false" /><inkscape:path-effect
       effect="fillet_chamfer"
       id="path-effect15"
       is_visible="true"
       lpeversion="1"
       nodesatellites_param="F,0,0,1,0,0,0,1 @ F,0,0,1,0,0,0,1 @ F,0,0,1,0,0,0,1 @ F,0,0,1,0,0,0,1"
       radius="9"
       unit="px"
       method="auto"
       mode="F"
       chamfer_steps="1"
       flexible="false"
       use_knot_distance="true"
       apply_no_radius="true"
       apply_with_radius="true"
       only_selected="false"
       hide_knots="false" /><inkscape:path-effect
       effect="fillet_chamfer"
       id="path-effect14"
       is_visible="true"
       lpeversion="1"
       nodesatellites_param="F,0,0,1,0,0,0,1 @ F,0,0,1,0,0,0,1 @ F,0,0,1,0,0,0,1 @ F,0,0,1,0,0,0,1"
       radius="0"
       unit="px"
       method="auto"
       mode="F"
       chamfer_steps="1"
       flexible="false"
       use_knot_distance="true"
       apply_no_radius="true"
       apply_with_radius="true"
       only_selected="false"
       hide_knots="false" /><inkscape:path-effect
       effect="fillet_chamfer"
       id="path-effect13"
       is_visible="true"
       lpeversion="1"
       nodesatellites_param="F,1,0,1,0,0,0,1 @ F,1,0,1,0,0.06,0,1 @ F,1,0,1,0,0.06,0,1 @ F,0,0,1,0,0.06,0,1"
       radius="6"
       unit="px"
       method="arc"
       mode="F"
       chamfer_steps="1"
       flexible="true"
       use_knot_distance="true"
       apply_no_radius="true"
       apply_with_radius="true"
       only_selected="true"
       hide_knots="false" /><inkscape:path-effect
       effect="fillet_chamfer"
       id="path-effect12"
       is_visible="true"
       lpeversion="1"
       nodesatellites_param="F,0,0,1,0,0,0,1 @ F,0,0,1,0,24.190852,0,1 @ F,0,0,1,0,26.874208,0,1 @ F,0,0,1,0,0,0,1"
       radius="0"
       unit="px"
       method="auto"
       mode="F"
       chamfer_steps="1"
       flexible="false"
       use_knot_distance="true"
       apply_no_radius="true"
       apply_with_radius="true"
       only_selected="false"
       hide_knots="false" /><inkscape:path-effect
       effect="fillet_chamfer"
       id="path-effect11"
       is_visible="true"
       lpeversion="1"
       nodesatellites_param="F,0,0,1,0,0,0,1 @ F,0,0,1,0,24.986971,0,1 @ F,0,0,1,0,26.433116,0,1 @ F,0,0,1,0,0,0,1"
       radius="0"
       unit="px"
       method="auto"
       mode="F"
       chamfer_steps="1"
       flexible="false"
       use_knot_distance="true"
       apply_no_radius="true"
       apply_with_radius="true"
       only_selected="false"
       hide_knots="false" /><inkscape:path-effect
       effect="fillet_chamfer"
       id="path-effect10"
       is_visible="true"
       lpeversion="1"
       nodesatellites_param="F,0,0,1,0,0,0,1 @ F,0,0,1,0,0,0,1 @ F,0,0,1,0,0,0,1 @ F,0,0,1,0,0,0,1"
       radius="0"
       unit="px"
       method="auto"
       mode="F"
       chamfer_steps="1"
       flexible="false"
       use_knot_distance="true"
       apply_no_radius="true"
       apply_with_radius="true"
       only_selected="false"
       hide_knots="false" /><inkscape:path-effect
       effect="fillet_chamfer"
       id="path-effect9"
       is_visible="true"
       lpeversion="1"
       nodesatellites_param="F,0,0,1,0,0,0,1 @ F,0,0,1,0,0,0,1 @ F,0,0,1,0,0,0,1 @ F,0,0,1,0,0,0,1"
       radius="0"
       unit="px"
       method="auto"
       mode="F"
       chamfer_steps="1"
       flexible="false"
       use_knot_distance="true"
       apply_no_radius="true"
       apply_with_radius="true"
       only_selected="false"
       hide_knots="false" /><inkscape:path-effect
       effect="fillet_chamfer"
       id="path-effect8"
       is_visible="true"
       lpeversion="1"
       nodesatellites_param="F,0,0,1,0,0,0,1 @ F,0,0,1,0,0,0,1 @ F,0,0,1,0,0,0,1 @ F,0,0,1,0,0,0,1"
       radius="0"
       unit="px"
       method="auto"
       mode="F"
       chamfer_steps="1"
       flexible="false"
       use_knot_distance="true"
       apply_no_radius="true"
       apply_with_radius="true"
       only_selected="false"
       hide_knots="false" /><inkscape:path-effect
       effect="fillet_chamfer"
       id="path-effect7"
       is_visible="true"
       lpeversion="1"
       nodesatellites_param="F,0,0,1,0,0,0,1 @ F,0,0,1,0,0,0,1 @ F,0,0,1,0,0,0,1 @ F,0,0,1,0,0,0,1"
       radius="0"
       unit="px"
       method="auto"
       mode="F"
       chamfer_steps="1"
       flexible="false"
       use_knot_distance="true"
       apply_no_radius="true"
       apply_with_radius="true"
       only_selected="false"
       hide_knots="false" /><inkscape:path-effect
       effect="fillet_chamfer"
       id="path-effect6"
       is_visible="true"
       lpeversion="1"
       nodesatellites_param="F,0,0,1,0,0,0,1 @ F,0,0,1,0,0,0,1 @ F,0,0,1,0,0,0,1 @ F,0,0,1,0,0,0,1"
       radius="0"
       unit="px"
       method="auto"
       mode="F"
       chamfer_steps="1"
       flexible="false"
       use_knot_distance="true"
       apply_no_radius="true"
       apply_with_radius="true"
       only_selected="false"
       hide_knots="false" /><style
       type="text/css"
       id="style1">
   
    .fil0 {fill:black;fill-rule:nonzero}
   
  </style></defs><g
     id="g1"
     transform="matrix(-0.04921758,0,0,0.04921758,2932.8539,-11.64882)"><path
       class="fil0"
       d="m 23066.88,3012.06 c -220.05,14.66 -410.34,-151.83 -425,-371.88 -7.83,-117.48 35.99,-226.46 112.01,-304.78 -848.45,-93.17 -1906.05,540.61 -2855.98,1109.97 -341.39,204.62 -669.99,401.58 -976.83,559.28 -1121.75,576.51 -1063.99,863.07 -835.03,1999.01 36.76,182.4 76.22,378.12 83.51,415.91 38.75,200.74 56.3,1519.26 -0.48,3217.43 -37.68,1127.25 -107.03,2433.62 -222.62,3706.14 -23.14,254.73 -54.07,669 53.11,1117.53 99.83,417.76 323.62,879.02 796.71,1293.74 218.64,106.25 465.8,150.41 775.9,109.07 l 1097.73,-146.36 c 218.32,-28.47 418.4,125.43 446.87,343.75 28.47,218.32 -125.43,418.4 -343.75,446.87 l -695.64,92.75 139.37,1522.46 c 127.99,402.55 410.37,676.43 752.58,831.55 272.14,123.34 581.61,174.57 885.38,158.45 301.99,-16.02 594.33,-98.06 834.38,-241.36 277.16,-165.45 483.2,-415.11 542.26,-739.14 l 126.86,-2033.16 c 12.94,-220.05 201.83,-387.94 421.88,-375 220.05,12.94 387.94,201.83 375,421.88 l -128.03,2051.9 -0.44,-0.03 c -0.77,12.96 -2.17,26 -4.25,39.09 -95.58,590.87 -448.56,1035.09 -923.9,1318.84 -353.24,210.87 -774.55,331.12 -1203.14,353.86 -426.81,22.65 -864.97,-50.83 -1254.12,-227.21 -549.5,-249.08 -1001.89,-697.89 -1198.37,-1364.75 l -2,-6.71 c -6.94,-24.07 -11.73,-49.13 -14.07,-75 L 19284.42,16681 c -929.07,-2.26 -1391.03,-529.99 -2004.96,-1231.63 -75.44,-86.22 -153.41,-175.32 -207.75,-236.15 l -2711.19,-3034.73 c -8.22,-8.47 -16.16,-17.34 -23.75,-26.67 -426.25,-525.85 -687.96,-947.36 -779.18,-1422.86 -92.79,-483.7 -2.66,-978.4 278.31,-1636.27 l 1246.68,-2919.05 c 20.2,-47.48 48.52,-89.02 82.65,-123.69 -361.65,-1794.86 -397.74,-2070.04 1945.51,-3155.93 200.2,-92.33 437.36,-4.89 529.69,195.31 92.33,200.2 4.89,437.36 -195.31,529.69 -1789.95,829.48 -1751.37,1020.86 -1490.36,2315.73 90.62,449.6 203.15,1007.84 295.15,1725.42 27.61,218.32 -126.99,417.7 -345.31,445.31 -218.32,27.61 -417.7,-126.99 -445.31,-345.31 -14.63,-114.09 -29.82,-224.09 -45.39,-330.27 l -843.62,1975.29 c -215.15,503.76 -288.55,859.76 -228.31,1173.77 61.77,322.01 269.46,645.15 612.89,1068.92 l 2183.44,2444 c -26.06,-334.32 -3.88,-619.35 14.4,-820.62 113.78,-1252.5 182.19,-2543.27 219.5,-3659.26 54.83,-1640.02 45.09,-2876.09 12.98,-3042.43 -49.58,-256.85 -65.46,-335.57 -80.39,-409.65 -324.06,-1607.74 -405.81,-2013.32 1250.67,-2864.65 292.45,-150.31 606.64,-338.63 933.07,-534.28 1093.58,-655.46 2314.58,-1387.27 3460.29,-1203.79 336.38,53.87 682.56,122.04 1044.07,193.22 748.22,147.32 1562.78,307.69 2101.52,325.13 116.98,-4.76 231.58,-9.76 344.22,-15.16 15.48,-1.63 30.86,-2.37 46.08,-2.21 1786.12,-87.86 3068.97,-287.31 5135.45,-1350.78 380.41,-195.77 722.92,-319.59 1048.17,-390.99 327.82,-71.97 637.38,-90.14 949.75,-74.56 2201.78,109.83 3383.83,1713.91 4757.05,3577.42 867.3,1176.95 1815.85,2464.18 3143.2,3491.27 762.44,589.98 1498.64,1095.94 2234.81,1601.87 3794.97,2608.1 7589.98,5216.24 12663.53,17023.16 275.98,642.24 504.99,1050.24 750.59,1361.06 242.61,307.03 517.56,538.35 879.99,819.67 2413.52,1873.38 1619.86,4082.1 162.46,5959.72 -767.94,989.36 -1713.96,1870.33 -2439.13,2545.65 l -134.83,125.69 -2.41,25.5 c -265.56,2754.66 -2588.06,5544.02 -5627.6,8027.31 -4438.5,3626.24 -10432.17,6631.15 -13668.99,7865.78 -206.24,78.52 -437.11,-25.01 -515.63,-231.25 -78.52,-206.24 25.01,-437.11 231.25,-515.63 3187.23,-1215.72 9086.53,-4172.52 13450.25,-7737.66 2890.36,-2361.41 5095.11,-4974.91 5336.96,-7483.55 64.48,-668.8 61.92,-1487.37 58.47,-2596.08 -1.59,-512.24 -3.3,-664.53 -3.3,-863.55 0,-220.91 179.09,-400 400,-400 220.91,0 400,179.09 400,400 0,811.65 0.1,835.62 0.18,863.55 1.77,568.12 3.29,1061.64 -4.16,1501.13 616.01,-582.5 1313.38,-1274.5 1887.68,-2014.39 1205.78,-1553.44 1884.67,-3363.56 -18.7,-4840.96 -407.45,-316.26 -720.24,-580.98 -1017.49,-957.17 -294.25,-372.4 -557.33,-834.93 -859.97,-1539.2 C 50697.29,14650.32 47000.19,12109.47 43303.14,9568.67 42543.75,9046.78 41784.35,8524.88 41030.83,7941.8 39613.17,6844.83 38630.17,5510.86 37731.37,4291.15 36479.34,2592.09 35401.59,1129.57 33580.58,1038.73 c -243.19,-12.13 -485.32,2.26 -743.49,58.94 -260.75,57.24 -538.67,158.22 -851.31,319.11 -2214.39,1139.59 -3567.74,1346.47 -5460.65,1438.02 -123.95,17.3 -266.45,22.64 -423.02,18.51 -203.26,8.13 -413.21,15.68 -631.56,23.51 -687.9,24.68 -1461.61,52.43 -2403.67,115.24 z m 9195.22,6096.15 c -66.87,120.27 -218.59,163.55 -338.86,96.68 -120.27,-66.87 -163.55,-218.59 -96.68,-338.86 102.84,-184.72 214.87,-402.49 340.43,-646.58 299.5,-582.18 675.77,-1313.6 1263.45,-2241.23 73.89,-116.49 228.24,-151.04 344.73,-77.15 116.49,73.89 151.04,228.24 77.15,344.73 -580.31,915.99 -948.72,1632.13 -1241.97,2202.17 -124.18,241.41 -234.97,456.77 -348.25,660.24 z m -3245.91,3611.73 c -218.32,29.34 -419.1,-123.86 -448.44,-342.18 -29.34,-218.32 123.86,-419.1 342.18,-448.44 1300.89,-177.83 2072.21,-347.16 2581.87,-606.39 464.83,-236.43 722.68,-571.46 1012.5,-1092 99.86,-179.38 212.17,-397.67 338.05,-642.39 301.36,-585.83 679.99,-1321.82 1269.93,-2253.02 118.22,-186.39 365.17,-241.66 551.56,-123.44 186.39,118.22 241.66,365.17 123.44,551.56 -578.09,912.49 -944.17,1624.1 -1235.55,2190.52 -123.83,240.73 -234.34,455.53 -350.55,664.27 -266.72,479.04 -517.93,837.15 -880.55,1122.2 221.22,116.15 415.21,270.25 594.57,464.12 348.68,376.89 620.17,887.88 931.84,1561.67 296,639.92 460.91,992.87 620.22,1333.83 1285.74,2751.8 2293.59,4908.82 3055.23,7747.13 55.53,206.95 101.01,655.84 164.43,1282.16 143.27,1414.58 383.2,3782.95 999.67,6013.15 8.62,22.53 15.24,46 19.67,70.13 450.95,1608.49 1099.68,3138.98 2052.02,4180 148.42,162.23 137.23,414.08 -25,562.5 -162.23,148.42 -414.08,137.23 -562.5,-25 -998.83,-1091.83 -1684.23,-2643.75 -2163.28,-4272.13 -615.91,-45.73 -1226.74,-30.13 -1837.54,-14.55 -527.04,13.46 -1054.09,26.9 -1588.38,3.91 553.65,296.86 1131.73,600.31 1743.51,901.46 197.61,97.51 278.76,336.76 181.25,534.37 -97.51,197.61 -336.76,278.76 -534.37,181.25 -925.78,-455.71 -1758.77,-907.15 -2547.91,-1334.83 -2284.48,-1238.08 -4195.29,-2273.65 -6683.33,-2496.93 -5535.93,-496.8 -7849.1,2663.63 -10684.99,6538.27 -679.96,929.04 -1389.23,1898.09 -2187.48,2880.56 -138.93,170.86 -390.08,196.75 -560.94,57.82 -170.86,-138.93 -196.75,-390.08 -57.82,-560.94 776.73,-955.98 1484.22,-1922.6 2162.48,-2849.32 208.71,-285.15 414.67,-566.47 619.4,-843.17 -1249.17,-421.98 -2147.72,-695.35 -2910.05,-801.97 -762.96,-106.7 -1403.78,-45.87 -2161.65,199.99 -2034.61,660.01 -3792.6,1613.18 -5394.18,2756.95 -1609.83,1149.66 -3065.13,2494.81 -4485.12,3929.97 -155.33,156.19 -407.87,156.89 -564.06,1.56 -156.19,-155.33 -156.89,-407.87 -1.56,-564.06 1447.05,-1462.52 2933.78,-2835.94 4588.24,-4017.47 1662.68,-1187.4 3491.31,-2178.1 5612.92,-2866.33 879.52,-285.33 1625.01,-355.66 2514.79,-231.23 859.4,120.19 1837.85,422.17 3211.09,888.55 30.77,10.43 59.42,24.27 85.71,40.91 2539.82,-3347.93 5056.79,-5822.77 10281.98,-5353.85 1934.72,173.63 3507.04,787.65 5129.51,1602.12 1461.59,675.71 2836.91,640.64 4212.2,605.53 541.84,-13.82 1083.71,-27.64 1635.09,-1.27 -538.64,-2139.31 -757.71,-4300.71 -893.13,-5637.83 -59.01,-582.72 -101.32,-1000.34 -142.55,-1154.02 -746.37,-2781.39 -1738.96,-4905.76 -3005.23,-7615.89 -241.51,-516.89 -491.06,-1050.98 -623.34,-1336.95 -281.18,-607.87 -517.82,-1059.91 -791.22,-1355.43 -243.07,-262.74 -534.93,-412.43 -955.09,-460.23 -30.08,-3.32 -59.02,-9.91 -86.48,-19.36 -546.81,179.37 -1266.63,316.59 -2273.06,454.16 z M 26567.38,7678.42 c -7.76,-220.05 164.33,-404.74 384.38,-412.5 220.05,-7.76 404.74,164.33 412.5,384.38 l 137.74,3856.77 c 7.76,220.05 -164.33,404.74 -384.38,412.5 -220.05,7.76 -404.74,-164.33 -412.5,-384.38 z M 24543.33,3598.48 c 200.2,-92.33 437.36,-4.89 529.69,195.31 92.33,200.2 4.89,437.36 -195.31,529.69 -1728.15,800.83 -1658.94,1134.23 -1404.15,2361.52 33.26,160.22 68.62,330.46 86.98,423.61 37.38,189.59 22.83,924.21 3.93,1878.43 -18.86,952.64 -42.21,2131.18 -26.38,3152.6 2.72,175.95 171.07,601.79 573.55,971.8 127.91,117.59 279.27,226.04 456.23,314.37 8.9,3.96 17.62,8.24 26.14,12.81 185.88,89.42 399.34,156.69 642.86,189.6 563.14,76.11 907.77,-215.58 1244.53,-500.62 114.31,-96.77 227.97,-192.96 348.52,-280.38 178.63,-129.44 428.38,-89.57 557.82,89.06 129.44,178.63 89.57,428.38 -89.06,557.82 -102.71,74.48 -201.89,158.43 -301.66,242.88 -470.34,398.1 -951.64,805.5 -1866.41,681.86 -161.36,-21.81 -313.33,-54.75 -456.28,-96.89 -167.64,425 -462.88,771.41 -819.97,1025.37 -529.4,376.51 -1203.03,548.93 -1794.52,468.99 -675.96,-91.36 -1187.38,-377.71 -1559.6,-719.9 -580.7,-533.85 -824.97,-1238.37 -829.8,-1549.92 -15.41,-994.76 5.75,-2499.92 24.26,-3816.23 18.98,-1350.39 35.12,-2498.07 10.69,-2622.01 -40.33,-204.56 -62.82,-312.86 -83.86,-414.19 -356.14,-1715.43 -452.9,-2181.42 1851.02,-3249.07 200.2,-92.33 437.36,-4.89 529.69,195.31 92.33,200.2 4.89,437.36 -195.31,529.69 -1728.16,800.84 -1658.94,1134.25 -1404.14,2361.57 33.27,160.24 68.63,330.48 86.98,423.57 38.24,193.94 21.5,1384.11 1.81,2784.51 -18.44,1311.73 -39.54,2811.63 -24.26,3797.47 2.72,175.95 171.06,601.79 573.54,971.8 266.64,245.13 635.06,450.53 1125.24,516.78 398.13,53.81 858.19,-66.96 1225.76,-328.37 247.32,-175.9 448.94,-415.85 553.92,-708.31 -137.99,-89.1 -262.69,-187.05 -374.76,-290.07 -580.7,-533.85 -824.98,-1238.39 -829.81,-1549.92 -16.04,-1035.45 7.43,-2220.05 26.38,-3177.6 17.83,-900.13 31.56,-1593.1 8.57,-1709.69 -40.33,-204.55 -62.82,-312.87 -83.86,-414.23 -356.12,-1715.4 -452.86,-2181.39 1851.03,-3249.02 z m -3439.79,44258.27 c 15.53,-220.05 206.52,-385.84 426.57,-370.31 220.05,15.53 385.84,206.52 370.31,426.57 -109.5,1543.98 -131.98,2939.63 -152.98,4244.64 -11.47,712.69 -22.54,1398.92 -46.41,2064.82 l 11357.89,-1728.38 c 218.32,-32.79 421.9,117.61 454.69,335.93 32.79,218.32 -117.61,421.9 -335.93,454.69 L 21663.99,55036.8 c -88.3,1564.22 -282.41,3024.9 -766.86,4465.95 -69.89,208.83 -295.86,321.46 -504.69,251.57 -208.83,-69.89 -321.46,-295.86 -251.57,-504.69 730.27,-2172.29 766.97,-4450.62 809.69,-7104.48 21.45,-1332.36 44.39,-2757.27 152.98,-4288.4 z m 18081.3,-20698.77 c -70.65,-118.11 -32.17,-271.15 85.94,-341.8 118.11,-70.65 271.15,-32.17 341.8,85.94 628.32,1049.14 1301.52,2071.7 1977.48,2973.41 609.4,812.93 1221.61,1528.32 1805.54,2076.65 100.31,94.38 105.12,252.23 10.74,352.54 -94.38,100.31 -252.23,105.12 -352.54,10.74 -603.45,-566.65 -1234.76,-1304.14 -1862.18,-2141.11 -688.24,-918.09 -1371.21,-1955.12 -2006.78,-3016.37 z M 37944.21,22281.4 c -59.86,-124.04 -7.83,-273.15 116.21,-333.01 124.04,-59.86 273.15,-7.83 333.01,116.21 256,526.95 541.69,1082.53 850.8,1652.71 301.8,556.69 616.58,1110.41 937.81,1646.77 628.3,1049.11 1301.48,2071.66 1977.44,2973.37 609.41,812.95 1221.63,1528.37 1805.57,2076.7 100.31,94.38 105.12,252.23 10.74,352.54 -94.38,100.31 -252.23,105.12 -352.54,10.74 -603.47,-566.67 -1234.78,-1304.17 -1862.21,-2141.16 -688.23,-918.08 -1371.18,-1955.11 -2006.74,-3016.33 -336.84,-562.43 -655.15,-1121.34 -949.53,-1664.35 -304.75,-562.14 -593.88,-1125.27 -860.56,-1674.19 z m 15521.09,9437.85 c 0,-138.07 111.93,-250 250,-250 138.07,0 250,111.93 250,250 0,623.83 0.4,745.64 0.76,863.62 3.52,1128.01 6.11,1960.83 -60.99,2656.96 -12.94,136.99 -134.5,237.55 -271.49,224.61 -136.99,-12.94 -237.55,-134.5 -224.61,-271.49 65.08,-675.16 62.52,-1496.98 59.05,-2610.08 z"
       id="path1" /></g><text
     x="-2894.804"
     y="2230.7927"
     fill="#000000"
     font-size="0.186836px"
     font-weight="bold"
     font-family="'Helvetica Neue', Helvetica, Arial-Unicode, Arial, Sans-serif"
     id="text1"
     transform="scale(-1.0131442,0.98702634)"
     style="stroke-width:0.0373672">Created by Olena Panasovska</text><text
     x="-2894.804"
     y="2230.9795"
     fill="#000000"
     font-size="0.186836px"
     font-weight="bold"
     font-family="'Helvetica Neue', Helvetica, Arial-Unicode, Arial, Sans-serif"
     id="text2"
     transform="scale(-1.0131442,0.98702634)"
     style="stroke-width:0.0373672">from the Noun Project</text><path
     style="fill:#000000"
     d="M 656.68079,1135.5619 910.145,1391.3036 a 23.360211,23.360211 1.6964169 0 0 32.18149,0.9531 28.477212,28.477212 84.368959 0 0 -4.05456,-41.1221 L 685.95848,1097.8279 a 21.300153,21.300153 174.86357 0 0 -32.62089,2.9323 27.378666,27.378666 84.512757 0 0 3.3432,34.8017 z"
     id="path3"
     sodipodi:nodetypes="ccccc"
     inkscape:path-effect="#path-effect19"
     inkscape:original-d="m 640.55026,1119.2864 285.2323,287.7953 36.04441,-32.2993 -293.94169,-295.0988 z"
     transform="matrix(-1,0,0,1,2932.8512,0)" /><path
     style="fill:#000000"
     d="m 1545.1185,1206.7094 -45.3366,93.1065 a 26.907516,26.907516 72.329643 0 0 11.2718,35.3825 25.28533,25.28533 161.01416 0 0 34.8057,-11.975 l 47.1923,-99.9151 a 25.549082,25.549082 67.811283 0 0 -14.2211,-34.8676 28.547803,28.547803 151.54667 0 0 -33.7121,18.2687 z"
     id="path6"
     sodipodi:nodetypes="ccccc"
     inkscape:path-effect="#path-effect17"
     inkscape:original-d="m 1557.8087,1180.6478 -69.2577,142.2326 45.664,24.9965 70.7326,-149.7544 z"
     transform="matrix(-1,0,0,1,2932.8512,0)" /><path
     style="fill:#000000"
     d="m 1012.37,1087.683 75.6232,207.9292 a 27.337118,27.337118 25.449985 0 0 34.6422,16.4864 25.490071,25.490071 114.97051 0 0 15.2592,-32.7674 l -76.113,-215.8349 a 26.505027,26.505027 24.110164 0 0 -35.0772,-15.6982 30.608138,30.608138 109.76803 0 0 -14.3344,39.8849 z"
     id="path4"
     sodipodi:nodetypes="ccccc"
     inkscape:path-effect="#path-effect18"
     inkscape:original-d="m 1001.6164,1058.1154 95.5793,262.7994 49.334,-17.0968 -94.0256,-266.63 z"
     transform="matrix(-1,0,0,1,2932.8512,0)" /><path
     style="fill:#000000"
     d="m 1349.0686,1008.5747 -33.7831,262.5592 a 24.844441,24.844441 52.702266 0 0 21.1524,27.7688 27.17993,27.17993 140.61819 0 0 29.8635,-24.5143 l 34.6247,-263.7035 a 23.825826,23.825826 51.469408 0 0 -21.3566,-26.8195 28.221694,28.221694 140.98859 0 0 -30.5009,24.7093 z"
     id="path5"
     sodipodi:nodetypes="ccccc"
     inkscape:path-effect="#path-effect16"
     inkscape:original-d="m 1352.5797,981.28627 -40.424,314.17233 50.4398,7.1541 41.5438,-316.39943 z"
     transform="matrix(-1,0,0,1,2932.8512,0)" /><circle
     style="fill:#d40000;stroke-width:1.70961"
     id="path19"
     cx="-1544.7799"
     cy="905.32996"
     r="42.415211"
     transform="scale(-1,1)" /><circle
     style="fill:#d40000;stroke-width:1.78398"
     id="path20"
     cx="-2342.3691"
     cy="1040.7607"
     r="50.721291"
     transform="scale(-1,1)" /></svg>
