<?xml version="1.0" encoding="UTF-8" standalone="no"?>
<svg
   version="1.1"
   x="0px"
   y="0px"
   viewBox="0 0 142.21864 151.89999"
   enable-background="new 0 0 164 164"
   xml:space="preserve"
   id="svg12"
   sodipodi:docname="rocket.svg"
   inkscape:version="1.3.2 (091e20ef0f, 2023-11-25)"
   width="142.21864"
   height="151.89999"
   xmlns:inkscape="http://www.inkscape.org/namespaces/inkscape"
   xmlns:sodipodi="http://sodipodi.sourceforge.net/DTD/sodipodi-0.dtd"
   xmlns="http://www.w3.org/2000/svg"
   xmlns:svg="http://www.w3.org/2000/svg"><defs
     id="defs12" /><sodipodi:namedview
     id="namedview12"
     pagecolor="#ffffff"
     bordercolor="#000000"
     borderopacity="0.25"
     inkscape:showpageshadow="2"
     inkscape:pageopacity="0.0"
     inkscape:pagecheckerboard="0"
     inkscape:deskcolor="#d1d1d1"
     showgrid="false"
     inkscape:zoom="4"
     inkscape:cx="94.25"
     inkscape:cy="61.125"
     inkscape:window-width="2560"
     inkscape:window-height="1371"
     inkscape:window-x="0"
     inkscape:window-y="0"
     inkscape:window-maximized="1"
     inkscape:current-layer="g1" /><g
     id="g11"
     transform="translate(-14.1625,-0.99999998)"><g
       id="g1"><path
         id="path1"
         d="M 81.699219,1 C 81.599219,1 81.6,0.99960968 81.5,1.0996094 80.900004,1.3996082 73.200367,5.8992531 67.400391,14.699219 l -1.201172,2.101562 C 66.099219,17.000781 66,17.099219 66,17.199219 66,17.299219 65.900391,17.4 65.900391,17.5 62.600403,23.599976 60.500004,31.299649 62,40.599609 c 0,0.2 0.400793,3.500435 2.800781,14.400391 -2.799988,0.699996 -7.000402,2.700801 -9.90039,7.800781 -4.99998,8.799964 -4.100754,23.198905 2.699218,42.798829 0.1,0.4 0.500391,0.59961 0.900391,0.59961 h 0.09961 c 0.4,0 0.800782,-0.39883 0.800782,-0.79883 0,-0.2 2.400426,-20.399629 11.40039,-25.599609 0.2,0.6 0.3,1.298438 0.5,1.898438 0.1,0.399996 0.498438,0.701172 0.898438,0.701172 H 73.5 v 7.298828 C 73.5,89.999215 73.7,90.3 74,90.5 c -0.899996,2.299992 -1.099996,5.100793 -0.5,8.300781 -3.399988,1.699999 -5.599219,5.098439 -5.699219,8.898439 -3.699984,-0.2 -7.00157,1.8 -8.601562,5 -1.499996,-0.7 -3.098836,-1 -4.798828,-1 -3.999984,0 -7.60079,2.00117 -9.800782,5.20117 -2.899988,-3.9 -7.50041,-6.09961 -12.40039,-6.09961 -7.099972,0 -13.100008,4.79926 -15,11.19922 l -0.5,2.80078 c 0,0.5 -0.09961,1 -0.09961,1.5 0,7.69996 6.740818,14.17187 13,15.39844 H 134.30078 c 5.37095,-0.56982 13,-7.59848 13,-15.39844 0,-0.5 -0.002,-1 -0.10156,-1.5 l -0.5,-2.90039 c -1.9,-6.49996 -7.90004,-11.20117 -15,-11.20117 -4.9,0 -9.39844,2.3016 -12.39844,6.10156 -2.2,-3.2 -5.80078,-5.20117 -9.80078,-5.20117 -1.6,0 -3.30078,0.3 -4.80078,1 -1.6,-3.2 -4.899623,-5.2 -8.599611,-5 -0.1,-3.9 -2.299234,-7.30039 -5.699218,-8.900391 0.499996,-3.199988 0.399996,-5.99884 -0.5,-8.298828 0.299996,-0.2 0.5,-0.400782 0.5,-0.800782 v -7.298828 h 1.298828 c 0.399996,0 0.80039,-0.301172 0.90039,-0.701172 0.2,-0.699996 0.300004,-1.300394 0.5,-1.90039 C 101.99957,84.899199 104.5,105.10078 104.5,105.30078 c 0,0.4 0.40078,0.79883 0.80078,0.79883 h 0.0996 c 0.4,0 0.70039,-0.19961 0.90039,-0.59961 6.79998,-19.59992 7.69921,-34.000817 2.69922,-42.800781 -2.9,-5.09998 -7.10039,-6.998832 -9.900391,-7.798828 2.400001,-10.899956 2.800781,-14.100782 2.800781,-14.300782 1.5,-9.39996 -0.60039,-17.099242 -3.90039,-23.199218 0,-0.1 3.94e-4,-0.200782 -0.09961,-0.300782 -0.1,-0.1 -0.101172,-0.198828 -0.201172,-0.298828 l -1.298828,-2 C 90.800424,5.9008174 83.099996,1.4996078 82.5,1.0996094 82.4,1.0996094 82.400781,1.0999996 82.300781,1 Z M 82,3 c 1.799992,1.0999956 8.699629,5.6992499 13.599609,13.699219 H 68.400391 C 73.300371,8.6992499 80.200008,4.0999956 82,3 Z M 67.400391,18.5 h 29.298828 c 3.099988,5.699976 5.001561,13.000817 3.601561,21.800781 0,0.1 -0.901593,7.999738 -9.101561,40.09961 h -5 c 1.199996,-9.299964 2.201172,-17.900786 2.201172,-19.300782 0,-3.699984 -2.800794,-6.699218 -6.300782,-6.699218 -3.499984,0 -6.298828,2.999234 -6.298828,6.699218 0,1.399996 0.999223,10.100818 2.199219,19.300782 H 73 C 64.700032,48.400519 63.800781,40.500781 63.800781,40.300781 62.400789,31.500817 64.300403,24.199976 67.400391,18.5 Z m 71.963069,15.916901 c -0.42405,0.08953 -0.7045,0.309954 -0.8045,0.609954 l -0.89844,2.900391 -0.60156,1.90039 -2,6.199219 L 123,46 c -0.4,-8.91e-4 -0.80039,0.299613 -0.90039,0.599609 -0.1,0.4 7.8e-4,0.800004 0.30078,1 l 9.5,6.900391 -3.59961,11.199219 c -0.1,0.399996 -0.001,0.8 0.29883,1 0.3,0.2 0.79961,0.2 1.09961,0 l 9.5,-6.898438 9.5,6.898438 c 0.2,0.1 0.4,0.201172 0.5,0.201172 0.2,0 0.4,-0.101172 0.5,-0.201172 0.3,-0.2 0.50078,-0.700004 0.30078,-1 L 146.40039,54.5 l 0.29883,-0.199219 1.60156,-1 L 156,47.699219 c 0.3,-0.2 0.50078,-0.700004 0.30078,-1 -0.1,-0.4 -0.50039,-0.59961 -0.90039,-0.59961 h -11.5 c -0.1,-0.199996 -0.39595,-0.553294 -0.59595,-0.753294 L 140.46019,35 c -0.1,-0.4 -0.70535,-0.665728 -1.09673,-0.583099 z m 0.15925,3.359344 2.27807,8.422974 0.29883,1 c 0.1,0.399996 0.50039,0.601562 0.90039,0.601562 h 9.59961 l -7.69922,5.59961 c -0.3,0.199996 -0.50078,0.7 -0.30078,1 l 3,9.099609 -7.69922,-5.599609 c -0.2,-0.1 -0.4,-0.201172 -0.5,-0.201172 -0.2,0 -0.4,0.101172 -0.5,0.201172 L 131.19922,63.5 l 3,-9.099609 c 0.1,-0.4 0.001,-0.800004 -0.29883,-1 l -7.70117,-5.59961 h 9.60156 c 0.4,0 0.79844,-0.301566 0.89844,-0.601562 z M 82,56.400391 c 2.399992,0 4.400391,2.198836 4.400391,4.798828 0,1.299992 -1.001176,9.700821 -2.201172,19.300781 h -4.398438 c -1.199996,-9.69996 -2.201172,-18.000789 -2.201172,-19.300781 0,-2.699992 2.000399,-4.798828 4.400391,-4.798828 z m -16.900391,0.40039 c 1.299996,5.29998 3.00118,12.199646 5.201172,21.09961 -7.599968,3.999984 -10.901176,16.900027 -12.201172,23.499999 -5.499976,-16.999928 -5.999202,-30.001203 -1.699218,-37.701171 2.599988,-4.499984 6.29923,-6.198438 8.699218,-6.898438 z m 33.701172,0 c 2.399999,0.7 6.099219,2.398454 8.699219,6.898438 4.4,7.699968 3.80078,20.701243 -1.69922,37.701171 -1.2,-6.499972 -4.50121,-19.500015 -12.201171,-23.499999 2.299992,-8.899964 4.001176,-15.79963 5.201172,-21.09961 z m -23.5,25.5 h 2.798828 c 0.3,2.099992 0.500782,4.298446 0.800782,6.398438 h -3.59961 z m 4.699219,0 h 4 C 83.300004,87.600761 82.599996,93.10002 82,98 81.400004,93.10002 80.699996,87.600761 80,82.300781 Z m 5.900391,0 h 2.798828 v 6.398438 h -3.59961 c 0.2,-2.099992 0.500782,-4.198446 0.800782,-6.398438 z M 75.800781,90.5 h 3.298828 C 80.099605,98.199968 80.9,104.60078 81,105.30078 c 0.1,0.5 0.500391,0.79883 0.900391,0.79883 0.499996,0 0.90039,-0.29883 0.90039,-0.79883 0.1,-0.7 0.898442,-7.000812 1.898438,-14.80078 H 88 c 1.299996,2.699988 1.299996,6.299626 0,10.59961 l -0.5,-0.79883 c -0.1,-0.3 -0.6,-0.50078 -1,-0.30078 -0.4,0.2 -0.7,0.69961 -0.5,1.09961 0,0.1 1.699976,5.60043 -4,19.90039 -5.699976,-14.29996 -4,-19.90039 -4,-19.90039 0.2,-0.5 -0.1,-0.89961 -0.5,-1.09961 -0.4,-0.2 -0.899219,3.9e-4 -1.199219,0.40039 l -0.5,0.79883 c -1.299992,-4.399988 -1.199996,-7.899232 0,-10.69922 z M 74,100.59961 c 0.3,1 0.6,2.10117 1,3.20117 0.1,0.3 0.400785,0.59961 0.800781,0.59961 h 0.398438 c 0.1,1.8 0.301176,4.39922 1.201172,7.69922 -0.899996,0.8 -1.39961,1.9 -1.59961,3 -2.899988,0.7 -5,3.30078 -5,6.30078 -1.799992,0.5 -3.400004,1.5 -4.5,3 -1.099996,-0.5 -2.300004,-0.70117 -3.5,-0.70117 -4.99998,0 -9.101562,4.1016 -9.101562,9.10156 0,2.9 1.40157,5.59922 3.601562,7.19922 h -25 C 24.700813,140.1 18.5,133.90035 18.5,126.40039 c 0,-7.59996 6.199247,-13.70117 13.699219,-13.70117 4.79998,0 9.10118,2.4 11.701172,6.5 0.199996,0.3 0.498828,0.50039 0.798828,0.40039 0.299996,0 0.600781,-0.2 0.800781,-0.5 1.699992,-3.4 5.100403,-5.5 8.900391,-5.5 1.699992,0 3.298832,0.40117 4.798828,1.20117 0.2,0.1 0.500781,0.19964 0.800781,0.0996 0.3,-0.1 0.5,-0.29961 0.5,-0.59961 0.999996,-2.8 3.700793,-4.80078 6.800781,-4.80078 0.4,0 0.798832,-3.6e-4 1.298828,0.0996 0.3,0.1 0.600782,7.8e-4 0.800782,-0.19922 0.199996,-0.2 0.298828,-0.50078 0.298828,-0.80078 v -0.79883 c 0,-3 1.600793,-5.80117 4.300781,-7.20117 z m 16.300781,0.0996 c 2.599992,1.4 4.298828,4.20117 4.298828,7.20117 v 0.79883 c 0,0.3 0.100782,0.60117 0.300782,0.70117 0.199996,0.2 0.498828,0.29922 0.798828,0.19922 0.399996,-0.1 0.800782,-0.0996 1.300781,-0.0996 2.999988,0 5.70078,1.90078 6.80078,4.80078 0.1,0.3 0.3,0.49961 0.5,0.59961 0.3,0.1 0.49883,0.10036 0.79883,-0.0996 1.5,-0.8 3.10078,-1.20117 4.80078,-1.20117 3.8,0 7.20039,2.1 8.90039,5.5 0.1,0.3 0.39883,0.5 0.79883,0.5 0.4,0 0.70078,-0.10039 0.80078,-0.40039 2.5,-4.1 6.89922,-6.5 11.69922,-6.5 7.59996,0 13.70117,6.20121 13.70117,13.70117 -0.3,7.49996 -6.5016,13.69922 -14.10156,13.69922 H 107 c 2.2,-1.7 3.59961,-4.29922 3.59961,-7.19922 0,-4.99996 -4.09962,-9.09961 -9.09961,-9.09961 -1.2,0 -2.400004,0.19922 -3.5,0.69922 -1.099996,-1.5 -2.700008,-2.5 -4.5,-3 0,-3.1 -2.100012,-5.70078 -5,-6.30078 -0.2,-1.2 -0.799613,-2.2 -1.599609,-3 0.799996,-3.4 1.099218,-5.89922 1.199218,-7.69922 0.1,0 0.200391,0.1 0.400391,0 0.4,0 0.700781,-0.29961 0.800781,-0.59961 0.4,-1.1 0.700004,-2.20117 1,-3.20117 z m -12.601562,13.70117 c 0.799996,2.7 1.900398,5.89961 3.40039,9.59961 0.1,0.3 0.500391,0.59961 0.900391,0.59961 0.4,0 0.700391,-0.19961 0.900391,-0.59961 1.599992,-3.7 2.700394,-6.79961 3.40039,-9.59961 0.3,0.4 0.398438,0.99961 0.398438,1.59961 0,0.5 0.400781,0.90039 0.800781,0.90039 2.399992,0.3 4.199219,2.29961 4.199219,4.59961 v 0.59961 c -0.1,0.5 0.300782,1 0.800781,1 1.899992,0.3 3.500004,1.4 4.5,3 0.3,0.4 0.799219,0.60078 1.199219,0.30078 0.999996,-0.6 2.200391,-0.90039 3.400391,-0.90039 4,0 7.20117,3.19922 7.20117,7.19922 0,3.99996 -3.20117,7.20117 -7.20117,7.20117 H 62.400391 c -3.999984,0 -7.201172,-3.20121 -7.201172,-7.20117 0,-4 3.201188,-7.19922 7.201172,-7.19922 1.199992,0 2.400394,0.30039 3.40039,0.90039 0.4,0.2 0.999219,0.0992 1.199219,-0.30078 0.999996,-1.6 2.700008,-2.7 4.5,-3 0.5,-0.1 0.800781,-0.5 0.800781,-1 V 121.5 c 0,-2.4 1.799227,-4.39961 4.199219,-4.59961 0.5,-0.1 0.800781,-0.40039 0.800781,-0.90039 0,-0.6 0.198438,-1.09961 0.398438,-1.59961 z"
         sodipodi:nodetypes="scccscccccsssccscsccccscsccsccsccscsccccscsccssscccccsccccscccccccccsssccccsccccsccccccccscccccccscccscccscccccscccccsccssccsscccccccccccccccccccccccccccscccccscccscccscscccccssccsscccscccscssscssssccscccscscscscsscccccccssscsccscsccccsssssscccsscsss" /></g><g
       id="g2"><path
         d="m 79.9,147.5 c 0,-0.5 -0.4,-0.9 -0.9,-0.9 H 56.5 c -0.5,0 -0.9,0.4 -0.9,0.9 0,0.5 0.4,0.9 0.9,0.9 h 22.4 c 0.5,0.1 1,-0.3 1,-0.9 z"
         id="path2" /></g><g
       id="g3"><path
         d="m 87.1,147.5 c 0,-0.5 -0.4,-0.9 -0.9,-0.9 h -3.7 c -0.5,0 -0.9,0.4 -0.9,0.9 0,0.5 0.4,0.9 0.9,0.9 h 3.7 c 0.5,0.1 0.9,-0.3 0.9,-0.9 z"
         id="path3" /></g><g
       id="g4"><path
         d="m 89.4,148.5 h 2.4 c 0.5,0 0.9,-0.4 0.9,-0.9 0,-0.5 -0.4,-0.9 -0.9,-0.9 h -2.4 c -0.5,0 -0.9,0.4 -0.9,0.9 0,0.5 0.4,0.9 0.9,0.9 z"
         id="path4" /></g><g
       id="g5"><path
         d="M 107.5,151.1 H 85.1 c -0.5,0 -0.9,0.4 -0.9,0.9 0,0.5 0.4,0.9 0.9,0.9 h 22.4 c 0.5,0 0.9,-0.4 0.9,-0.9 0,-0.5 -0.4,-0.9 -0.9,-0.9 z"
         id="path5" /></g><g
       id="g6"><path
         d="m 81.5,151.1 h -3.7 c -0.5,0 -0.9,0.4 -0.9,0.9 0,0.5 0.4,0.9 0.9,0.9 h 3.7 c 0.5,0 0.9,-0.4 0.9,-0.9 0,-0.5 -0.4,-0.9 -0.9,-0.9 z"
         id="path6" /></g><g
       id="g7"><path
         d="m 74.6,151.1 h -2.4 c -0.5,0 -0.9,0.4 -0.9,0.9 0,0.5 0.4,0.9 0.9,0.9 h 2.4 c 0.5,0 0.9,-0.4 0.9,-0.9 0,-0.5 -0.4,-0.9 -0.9,-0.9 z"
         id="path7" /></g><g
       id="g8"><path
         d="m 82,50.5 c 7,0 12.6,-5.7 12.6,-12.6 0,-7 -5.7,-12.6 -12.6,-12.6 -7,0 -12.6,5.7 -12.6,12.6 0,6.9 5.6,12.6 12.6,12.6 z m 0,-23.4 c 5.9,0 10.8,4.8 10.8,10.8 0,6 -4.9,10.7 -10.8,10.7 -5.9,0 -10.8,-4.8 -10.8,-10.8 0,-6 4.9,-10.7 10.8,-10.7 z"
         id="path8" /></g><g
       id="g9"><path
         d="m 82,47.6 c 3.4,0 6.5,-1.7 8.3,-4.6 1.8,-2.9 2,-6.4 0.5,-9.4 -2.3,-4.8 -7.1,-6 -10.9,-5.2 -3.8,0.9 -7.5,4.1 -7.5,9.4 -0.1,5.4 4.2,9.8 9.6,9.8 z M 80.2,30.2 c 0.6,-0.1 1.2,-0.2 1.9,-0.2 2.5,0 5.4,1.1 7,4.4 1.2,2.4 1.1,5.3 -0.4,7.6 -1.4,2.3 -3.9,3.7 -6.7,3.7 -4.3,0 -7.9,-3.5 -7.9,-7.9 0,-4.5 3.3,-6.9 6.1,-7.6 z"
         id="path9" /></g><g
       id="g10"><path
         d="m 35.7,84.5 c 0.2,0.1 0.4,0.2 0.5,0.2 0.2,0 0.4,-0.1 0.5,-0.2 0.3,-0.2 0.5,-0.7 0.3,-1 l -2.9,-8.8 7.5,-5.5 c 0.3,-0.2 0.5,-0.7 0.3,-1 C 41.8,67.8 41.4,67.6 41,67.6 H 32 L 29.1,58.8 C 29,58.3 28.6,58 28.2,58 c -0.4,0 -0.8,0.3 -0.9,0.6 l -2.9,8.8 h -9.3 c -0.4,0 -0.8,0.3 -0.9,0.6 -0.1,0.4 0,0.8 0.3,1 l 7.5,5.5 -2.9,8.8 c -0.1,0.4 0,0.8 0.3,1 0.3,0.2 0.8,0.2 1.1,0 L 28,78.8 Z m -13.8,-3.2 2.2,-6.8 c 0.1,-0.4 0,-0.8 -0.3,-1 L 18,69.4 h 7.1 c 0.4,0 0.8,-0.3 0.9,-0.6 l 2.2,-6.8 2.2,6.8 c 0.1,0.4 0.5,0.6 0.9,0.6 h 7.1 l -5.8,4.2 c -0.3,0.2 -0.5,0.7 -0.3,1 l 2.2,6.8 -5.8,-4.2 C 28.6,77 28.4,77 28.2,77 28,77 27.8,77.1 27.7,77.2 Z"
         id="path10" /></g></g></svg>
