<?xml version="1.0" encoding="UTF-8" standalone="no"?>
<svg
   viewBox="0 0 292.37679 292.72718"
   x="0px"
   y="0px"
   version="1.1"
   id="svg8"
   sodipodi:docname="rocket.svg"
   width="292.37683"
   height="292.72717"
   inkscape:version="1.3.2 (091e20ef0f, 2023-11-25)"
   xmlns:inkscape="http://www.inkscape.org/namespaces/inkscape"
   xmlns:sodipodi="http://sodipodi.sourceforge.net/DTD/sodipodi-0.dtd"
   xmlns="http://www.w3.org/2000/svg"
   xmlns:svg="http://www.w3.org/2000/svg">
  <defs
     id="defs8" />
  <sodipodi:namedview
     id="namedview8"
     pagecolor="#ffffff"
     bordercolor="#000000"
     borderopacity="0.25"
     inkscape:showpageshadow="2"
     inkscape:pageopacity="0.0"
     inkscape:pagecheckerboard="0"
     inkscape:deskcolor="#d1d1d1"
     showgrid="false"
     inkscape:zoom="3.1071381"
     inkscape:cx="146.27609"
     inkscape:cy="146.91977"
     inkscape:window-width="2560"
     inkscape:window-height="1371"
     inkscape:window-x="0"
     inkscape:window-y="0"
     inkscape:window-maximized="1"
     inkscape:current-layer="svg8" />
  <path
     id="path1"
     style="stroke-width:4.62676"
     d="m 140.21134,13.85564 c -0.56254,1.391337 -0.16389,2.913678 -0.41658,4.358323 -0.39368,4.76089 -1.88609,9.762592 -5.5459,13.045042 -2.26393,2.031277 -5.29082,3.112378 -8.31914,3.145547 -1.21232,0.549514 -1.99043,1.944508 -1.59099,3.253795 0.3299,1.31399 1.71463,2.095754 3.0198,1.915416 3.49989,0.12302 6.58526,2.430941 8.32742,5.372638 2.73931,4.559498 3.68958,9.930908 4.12943,15.16111 0.20381,1.313691 -0.1798,2.927183 0.96938,3.893604 1.28537,1.221454 3.77941,0.663939 4.20093,-1.124469 0.28215,-0.589712 -0.12996,-1.189264 0.12732,-1.793538 0.22427,-1.619156 0.14526,-3.273356 0.40271,-4.895501 0.56939,-4.636298 1.96967,-9.426185 5.22898,-12.907192 2.14785,-2.264014 5.1664,-3.728535 8.30855,-3.779723 1.3435,-0.486182 2.17049,-2.061429 1.64762,-3.420909 -0.37488,-1.238636 -1.71276,-1.929996 -2.95549,-1.762243 -3.99844,-0.08794 -7.656,-2.711388 -9.4344,-6.229614 -2.31355,-4.133839 -2.95494,-8.936424 -3.18718,-13.598376 -0.25054,-1.696616 -2.32707,-2.682408 -3.81116,-1.844408 -0.44873,0.292965 -0.97521,0.65819 -1.1013,1.210496 z m 3.48995,16.839366 c 1.41814,2.35475 3.18156,4.507964 5.34552,6.214748 0.24079,0.186482 0.53168,0.477232 0.17186,0.733398 -2.53627,2.047709 -4.5144,4.703109 -6.15176,7.506252 -0.33541,0.658585 -0.66717,1.180522 -0.95882,0.197227 -1.51312,-2.717519 -3.13214,-5.438412 -5.44517,-7.560749 -0.18863,-0.367417 -1.16096,-0.764536 -0.7246,-1.095665 2.20729,-1.784863 4.2793,-3.786334 5.77436,-6.21972 0.35802,-0.315659 0.73639,-1.436675 1.08065,-1.207257 0.30265,0.477254 0.60531,0.954509 0.90796,1.431763 z" />
  <path
     style="fill:#d40000;fill-opacity:1;stroke-width:0.45515;stroke-dasharray:none"
     d="m 184.7626,125.9873 c -4.35767,0.88419 -7.60783,4.40183 -11.14317,6.88947 -9.95319,7.99482 -17.50623,18.54722 -23.15475,29.91958 -3.86396,7.63342 -8.32754,15.07082 -11.15573,23.16317 -0.97424,3.98221 4.20445,6.60237 7.13572,4.06345 9.35566,-7.10281 18.24148,-14.87096 26.67961,-23.0464 9.17348,-9.11603 15.98557,-20.59226 19.86214,-32.90147 0.71535,-4.01109 -3.39794,-6.7968 -6.67702,-7.97846 -0.50707,-0.10915 -1.02942,-0.14556 -1.5468,-0.10934 z"
     id="path13" />
  <path
     style="fill:#d40000;fill-opacity:1;stroke-width:0.45515;stroke-dasharray:none"
     d="m 229.14061,146.41126 c -7.17271,5.83431 -15.32104,10.22265 -23.46867,14.50257 -5.37919,2.3004 -6.56878,8.61147 -9.58522,13.07625 -4.89646,9.13255 -10.10162,18.11973 -14.74485,27.37697 -1.46219,3.73623 3.34923,7.16664 6.50722,4.84042 12.07405,-7.66192 24.16179,-15.34696 35.87417,-23.54601 9.41083,-8.45859 13.06572,-22.10497 11.42711,-34.34706 -0.7006,-2.52 -3.91844,-3.25556 -6.00976,-1.90314 z"
     id="path14" />
  <path
     style="fill:#d40000;fill-opacity:1;stroke-width:0.45515;stroke-dasharray:none"
     d="m 158.14611,88.489883 c -11.60037,1.810226 -23.03246,8.127821 -29.03625,18.471797 -5.49295,14.0227 -10.66265,28.20085 -15.23507,42.54851 -0.92188,3.91679 4.39789,6.58991 7.08327,3.68654 10.84481,-9.59073 21.64671,-19.28095 31.77781,-29.62475 1.95075,-4.07253 2.30786,-8.80921 3.8274,-13.09159 1.4426,-6.02719 4.20047,-11.637496 5.94652,-17.539697 0.22838,-2.361974 -1.95032,-4.680381 -4.36368,-4.45081 z"
     id="path15" />
  <path
     id="path2"
     style="stroke-width:4.62676"
     d="m 219.26569,223.52694 c -1.53846,-0.047 -2.76431,1.4324 -2.65039,2.92773 0.0371,2.01236 0.005,4.02755 0.0156,6.04102 -2.41163,-0.011 -4.82441,-0.04 -7.23437,0.0684 -1.17934,0.53437 -1.97875,1.85398 -1.64899,3.14932 0.2712,1.35819 1.67895,2.2218 3.01969,2.0235 1.95651,0.004 3.91302,0.0118 5.86953,0.007 -0.008,2.41484 -0.0448,4.83114 0.0723,7.24415 0.54831,1.21208 1.92938,1.99894 3.24414,1.61914 1.32492,-0.32462 2.13151,-1.72179 1.92655,-3.03867 0.004,-1.94349 0.009,-3.88698 0.005,-5.83047 2.41294,0.0111 4.82701,0.0398 7.23828,-0.0684 1.20434,-0.54709 2.00169,-1.91449 1.625,-3.22657 -0.30452,-1.31399 -1.67643,-2.14099 -2.98398,-1.94802 -1.96172,-0.004 -3.92344,-0.01 -5.88516,-0.005 -0.0214,-2.38852 0.0948,-4.808 -0.0993,-7.17638 -0.41403,-1.02559 -1.37771,-1.8042 -2.51397,-1.78651 z" />
  <path
     id="path3"
     style="stroke-width:4.62676"
     d="m 260.38483,35.198817 c -1.38586,0.02705 -2.31327,1.29704 -3.02344,2.349609 -3.92318,4.925122 -7.78293,9.903823 -11.68164,14.84961 -3.60059,-1.960876 -7.52499,-3.462719 -11.64789,-3.744353 -8.92227,-0.800158 -17.87035,2.43649 -24.92702,7.794204 -9.96129,7.518621 -16.78725,19.36072 -17.47069,31.90466 -0.37261,6.978851 1.35009,14.227173 5.65997,19.823953 3.49466,4.65564 8.68541,7.96627 14.36445,9.22512 7.72079,1.81935 15.93886,0.1518 22.88191,-3.48985 12.18623,-6.40695 21.14536,-18.803675 23.02738,-32.483375 1.01809,-7.37628 -0.2185,-15.237923 -4.36467,-21.520593 -0.93826,-1.456885 -2.08533,-2.77453 -3.24414,-4.046876 -0.18362,-0.707141 0.67033,-1.037321 0.93431,-1.595435 4.0461,-5.152319 8.09861,-10.295184 12.10475,-15.478783 0.30692,-1.261997 -0.166,-2.752609 -1.39309,-3.331512 -0.36226,-0.172252 -0.81344,-0.313999 -1.22019,-0.256379 z M 231.336,53.691005 c 5.17267,-0.04365 10.32559,1.820106 14.26527,5.174305 0.50071,0.424448 1.18289,0.690929 1.35582,1.374523 0.60509,0.849375 1.35814,1.594021 1.90384,2.497309 3.77857,5.65904 4.58081,12.870866 3.3327,19.452788 -1.59493,8.714567 -6.53147,16.611144 -13.13534,22.43212 -0.42904,0.64467 -0.79219,0.57439 -1.08707,-0.10752 -2.26824,-3.17034 -4.16472,-6.807318 -4.19381,-10.773135 -0.0656,-2.923671 1.0855,-5.675264 1.47573,-8.541869 0.59755,-3.380007 0.27047,-7.144148 -1.9221,-9.921302 -2.77317,-3.661169 -7.66588,-5.347074 -12.14738,-4.642497 -4.08884,0.530015 -7.70983,2.725015 -10.92774,5.184184 -1.40914,1.003441 -3.03663,2.063899 -4.85467,1.727877 -1.90832,-0.177899 -3.71399,-0.861912 -5.56525,-1.311862 2.19734,-4.253144 4.66739,-8.445605 8.11952,-11.814114 6.11443,-6.254372 14.49865,-10.685048 23.38048,-10.730807 z m -7.57226,22.0625 c 2.82748,0.146047 5.86569,1.999846 6.36141,4.958133 0.53596,3.38511 -0.85677,6.649559 -1.38658,9.944524 -0.89555,5.689202 1.13052,11.491468 4.43194,16.084728 0.26184,0.4739 0.82688,0.88095 0.87643,1.43058 -0.25427,0.55004 -1.01136,0.49356 -1.44065,0.8749 -5.93846,3.16114 -12.9663,4.8569 -19.62915,3.30056 -1.4148,-0.31663 -2.77938,-0.8151 -4.11184,-1.38054 -0.42433,0.14517 -0.89159,0.24282 -1.19576,-0.17358 -2.58628,-2.13665 -5.43809,-4.26583 -7.16557,-7.13892 -3.73887,-5.825226 -4.37562,-13.184267 -2.98284,-19.847498 0.18738,-0.905573 0.36887,-1.812372 0.56096,-2.71695 3.33955,1.055974 6.89841,2.229168 10.42651,1.457423 4.02568,-1.043515 6.75203,-4.573978 10.61933,-5.973116 1.47035,-0.579749 3.05287,-0.886093 4.63581,-0.820244 z" />
  <path
     id="path4"
     style="stroke-width:4.62676"
     d="M 270.46447,4.1284004 C 257.17041,10.277329 243.78108,16.220729 230.60726,22.624048 218.6883,28.532618 207.15327,35.429987 197.14065,44.2493 c -7.07606,6.131872 -13.38872,13.074543 -19.46315,20.182578 -5.97473,6.803899 -10.97093,14.402725 -15.41572,22.274752 -11.75058,0.35701 -23.4281,5.55754 -31.09561,14.55005 -2.47892,2.89986 -4.57639,6.41304 -5.67197,9.94799 -5.8377,16.6565 -11.73799,33.29096 -17.53711,49.96094 -0.0211,1.41014 1.08545,2.77837 2.54102,2.80273 1.22164,0.15839 2.12092,-0.79016 2.91543,-1.56575 11.13294,-10.19128 22.26227,-20.37195 33.40098,-30.55534 l -4.03125,14.19531 c -2.98148,3.67848 -6.00813,7.31625 -8.9375,11.03711 -0.28627,1.2423 0.13822,2.61829 1.22656,3.33594 1.35645,0.98742 2.63699,2.08163 3.96875,3.10547 -25.0013,25.10482 -50.002609,50.20963 -75.003912,75.31445 -1.996348,-3.5495 -4.284111,-7.08897 -7.674046,-9.4639 -5.124649,-3.75665 -11.799995,-4.88337 -18.005949,-3.98749 -1.444099,0.18338 -2.880749,0.42062 -4.316098,0.66233 0.192797,-4.15799 0.09963,-8.47296 -1.603516,-12.34766 -2.172474,-5.20955 -6.715726,-9.20762 -11.939203,-11.213 -5.74241,-2.34494 -12.0217863,-2.95171 -18.1740784,-2.93934 -1.48035563,0.14604 -2.42068573,1.64516 -2.31640633,3.05469 0.067702,23.93203 0.029518,47.86462 0.068696,71.79687 0.00752,5.4655 0.01923,10.93099 0.030913,16.39649 0.4932287,1.18775 1.69191633,2.02874 2.99804693,1.92382 6.7503305,-0.0559 13.5089488,-0.007 20.2625008,-0.0234 73.459375,0.003 146.918752,-0.003 220.378132,-0.0117 1.40237,-0.31966 2.35822,-1.77455 2.06445,-3.1875 -1.70214,-7.61908 -5.50205,-14.95487 -11.49805,-20.06641 -4.09212,-3.38121 -9.39631,-5.31573 -14.72265,-5.09971 -10.14717,0.0187 -20.27755,1.40874 -30.09961,3.9376 -1.61859,-3.48551 -3.7053,-6.90331 -6.89257,-9.16601 -4.80644,-3.60044 -11.00906,-4.72591 -16.90055,-4.48469 -8.52391,0.26025 -16.81386,2.67582 -24.75423,5.63704 -4.07572,1.5536 -8.06655,3.31628 -12.06398,5.05858 12.77018,-26.53385 25.54036,-53.0677 38.31055,-79.60156 1.55272,1.24432 3.10804,2.48639 4.72265,3.65039 1.23246,0.15736 2.53932,-0.30106 3.23047,-1.37109 2.66464,-3.40181 5.42124,-6.74143 8.11914,-10.1211 4.31511,-2.44791 8.63021,-4.89583 12.94531,-7.34374 -7.58321,13.85875 -15.16588,27.71406 -22.70703,41.5957 -0.25605,1.38328 0.60902,2.91864 2.03711,3.17969 1.17295,0.35628 2.21308,-0.42069 3.11665,-1.05644 14.86648,-9.71559 29.7524,-19.40475 44.60796,-29.13497 7.31255,-5.82527 11.79029,-14.67151 13.31985,-23.79766 0.95086,-5.42976 0.74943,-11.02563 -0.31594,-16.42304 7.30704,-6.82955 14.08614,-14.28424 19.63474,-22.62714 6.60785,-9.25811 12.69963,-18.96096 17.16122,-29.452559 4.31104,-9.942183 7.24015,-20.417591 9.52821,-30.991777 2.1872,-10.061502 4.00764,-20.198759 6.0101,-30.29825 1.12694,-5.886309 2.31985,-11.761997 3.38978,-17.657478 0.44098,-2.442792 0.92548,-9.5293247 -1.13636,-12.0324277 -2.53179,-3.0736385 -6.38758,-2.2500099 -20.38891,2.2997121 z m 12.64692,0.2208076 c -3.50561,4.8708662 -7.20893,9.59332 -10.93882,14.292927 -0.96553,1.290727 -2.05012,2.548272 -2.87693,3.9085 -0.27279,1.350369 0.49572,2.855462 1.86653,3.218495 1.21589,0.411724 2.52493,-0.267705 3.1484,-1.334844 4.38474,-5.568475 8.68938,-11.204757 13.30863,-16.5831249 -1.24685,8.1975309 -2.95265,16.2324419 -4.50687,24.3925459 -2.07215,10.551739 -3.99026,21.136788 -6.36227,31.626985 -0.6125,2.62406 -1.30528,5.408271 -2.04366,8.070044 -0.67491,2.469265 -1.37891,4.805531 -2.17118,7.265894 -2.75944,8.565121 -6.40494,16.844643 -10.91211,24.63476 -0.95895,1.66852 -2.05972,3.48979 -3.13009,5.18337 -3.25329,5.21689 -6.97865,10.30553 -10.52096,15.40402 -1.51019,2.15902 -3.02039,4.31804 -4.53059,6.47706 -0.76508,0.20424 -1.47037,0.55295 -1.92714,1.22523 -6.70844,7.35592 -14.12772,14.12705 -22.42702,19.65261 -2.66944,1.7576 -5.52932,3.20067 -8.43895,4.50795 l -28.88853,16.3857 c -2.22201,-1.73698 -4.44401,-3.47396 -6.66602,-5.21094 4.60583,-5.04828 8.82968,-10.47734 12.1861,-16.44376 3.405,-5.98927 6.15539,-12.37417 7.99172,-19.01758 0.2059,-1.20788 -0.61201,-2.27508 -1.58211,-2.88827 -2.39587,-1.84407 -4.71163,-3.80981 -7.19532,-5.53515 -1.13079,-0.57321 -2.38412,-0.0528 -3.31836,0.64648 -11.15628,6.60688 -20.73866,15.81442 -27.85199,26.64992 -0.29276,0.84779 -0.75119,0.61805 -1.25802,0.0734 -1.96398,-1.5458 -3.92796,-3.09159 -5.89194,-4.63738 3.14478,-11.16852 6.3489,-22.32125 9.41428,-33.51052 0.59793,-3.59059 1.75155,-7.23544 3.06033,-10.51487 1.98176,-4.914419 4.34489,-9.669007 6.93945,-14.287108 0.35427,-0.626879 0.79326,-1.40493 1.17111,-2.038815 3.91728,-6.719201 8.444,-13.089942 13.62096,-18.898927 5.28632,-6.177078 10.80538,-12.289916 16.96122,-17.692164 6.67547,-5.951375 14.02521,-11.235005 21.8637,-15.722529 12.8175,-7.416431 26.49147,-13.163732 39.8842,-19.429037 7.3094,-3.345491 14.61787,-6.8086175 22.02225,-9.870872 z m -124.66992,89.75 c -2.62655,5.839676 -5.09406,11.835832 -6.12848,18.192072 -0.65997,2.89165 -1.60527,5.71094 -2.37318,8.57586 -0.22803,0.6587 -0.22814,1.4583 -0.90562,1.83913 -10.74142,9.79512 -21.38869,19.66142 -32.22553,29.33434 4.73161,-13.98469 9.71593,-27.83514 14.58188,-41.7846 0.11797,-0.66495 0.53182,-1.11956 0.92025,-1.63619 3.90762,-6.69103 10.52266,-11.481883 17.69773,-14.180833 3.04057,-1.167069 6.24517,-1.812341 9.41342,-2.527279 -0.32682,0.729166 -0.65365,1.458333 -0.98047,2.1875 z M 185.086,129.18319 c 0.95923,0.3753 1.62037,1.27054 2.49616,1.80776 0.69854,0.54585 1.39709,1.0917 2.09564,1.63755 -3.49329,10.75334 -9.10384,20.84905 -16.67107,29.27192 -3.20707,3.62126 -6.74562,6.93211 -10.46415,10.02112 -5.09054,4.34973 -10.1302,8.7659 -15.28618,13.03461 -1.61256,1.08848 -3.31978,2.30248 -4.87352,3.31298 1.0888,-2.80737 2.06487,-5.78945 3.45312,-8.39258 3.52052,-6.91051 6.95677,-13.86619 10.57997,-20.72335 1.81103,-3.11148 3.76527,-6.19791 5.8504,-9.04514 3.44188,-4.7447 7.60861,-9.17048 11.94072,-12.93854 3.3929,-2.93612 7.03411,-5.60849 10.83008,-7.98047 l 0.043,-0.006 z m 46.71875,19.79101 c 0.27909,0.51459 0.0291,1.24412 0.13711,1.83719 0.0902,3.55934 0.015,7.15107 -0.69766,10.6511 -0.13369,0.62267 -0.32746,1.56715 -0.52665,2.30243 -1.66002,6.39419 -4.96782,12.54937 -10.13498,16.77567 -2.46563,1.87183 -5.18166,3.37851 -7.72865,5.13405 -9.70851,6.32401 -19.39199,12.68727 -29.16831,18.90699 6.94358,-13.0206 14.1375,-25.99247 21.21094,-38.97852 3.77745,-2.08674 7.39172,-4.39095 11.35739,-6.13928 5.63879,-2.74607 10.60051,-6.6526 15.51565,-10.48767 l 0.0254,-0.006 z m -85.47851,2.75 c 1.10045,0.42205 1.84684,1.43132 2.83341,2.05271 0.97545,0.76759 1.9509,1.53518 2.92635,2.30276 -1.39689,2.59192 -2.72425,5.22023 -4.05273,7.84766 -2.64811,-2.08796 -5.29432,-4.17833 -7.94141,-6.26758 1.61068,-1.97461 3.22135,-3.94922 4.83203,-5.92383 0.46736,-0.004 0.9353,-0.0165 1.40235,-0.0117 z m 1.43554,12.74024 c -0.92842,0.42109 0.48506,-0.63074 0,0 z m -1.69922,1.02734 c -0.45147,0.88925 -0.53288,1.90705 -0.87348,2.84466 -0.43294,1.66274 -0.94586,3.30866 -1.82121,4.79845 -4.69814,9.30251 -9.40888,18.59785 -14.06117,27.9233 -0.2075,1.37949 0.68644,2.87587 2.10963,3.10043 1.15541,0.31191 2.2183,-0.41121 2.98427,-1.20257 8.30032,-7.10074 16.56428,-14.24726 24.91481,-21.28718 1.67405,-1.19073 3.34936,-2.37968 5.02254,-3.57162 -1.27042,3.57457 -2.60465,7.13648 -4.36844,10.5021 -13.22196,27.47139 -26.45114,54.93913 -39.64523,82.42368 -0.20402,1.40863 0.73506,2.88303 2.17232,3.11902 1.44712,0.29235 2.56006,-0.86796 3.77927,-1.42262 4.7251,-2.56446 9.71453,-4.88114 14.64607,-6.83116 7.2844,-2.8532 14.85222,-5.23027 22.67578,-5.94727 5.05905,-0.40007 10.47953,-0.0475 14.88672,2.71289 3.09137,1.94544 5.25787,5.09905 6.3694,8.54312 0.29143,0.72314 0.4836,1.5373 0.86993,2.18723 0.99576,0.81822 2.39767,1.01297 3.56505,0.44959 1.98578,-0.57246 4.1739,-1.11196 6.08234,-1.54713 6.76243,-1.50075 13.66204,-2.35948 20.58203,-2.63671 0.59013,-0.0181 1.53815,-0.0552 2.15737,-0.0639 3.67659,-0.21443 7.50686,0.35661 10.66894,2.34564 4.91258,2.91851 8.07531,7.98159 10.19075,13.1575 0.40693,0.57344 -0.28702,1.11288 -0.4498,1.66845 -0.12977,0.80126 -0.79276,0.73975 -1.44656,0.69312 H 5.3457619 c -0.00781,-13.60808 -0.015625,-27.21615 -0.023437,-40.82422 4.7784901,-0.33886 9.7307811,-0.22568 14.2254261,1.61584 6.198346,2.45653 11.00322,7.99083 12.736024,14.41053 0.337718,0.7896 0.286375,1.83549 1.104956,2.30957 1.378002,1.22619 3.818248,0.4041 4.214844,-1.38477 0.279888,-1.2027 -0.328848,-2.38721 -0.609087,-3.54139 -2.72164,-8.58294 -10.010601,-15.6213 -18.791478,-17.7672 -4.136149,-1.09056 -8.4716653,-1.21926 -12.7127164,-0.89063 -0.4172786,-0.55486 -0.080301,-1.33274 -0.1872732,-1.97891 0.00499,-11.54479 0.0033,-23.08958 -0.00804,-34.63437 5.6609506,0.45771 11.5533826,1.19336 16.4760176,4.25205 3.505366,2.18239 6.11238,5.82951 6.772178,9.9336 0.715135,3.68101 0.202975,7.48439 -0.810695,11.05849 0.163571,1.2879 1.185698,2.48453 2.539063,2.51367 1.237527,0.0645 2.335189,-0.65221 3.533203,-0.87109 5.242533,-1.43033 11.034066,-1.99117 16.179306,0.10943 4.987035,2.09681 8.586301,6.74183 10.064654,11.87119 0.280533,0.63269 0.310056,1.44518 0.753543,1.95953 0.950719,0.92931 2.525285,1.13022 3.594573,0.28879 1.734788,-1.59901 3.339122,-3.34667 5.029945,-4.99684 l 71.735402,-72.03288 c 1.64906,-1.13872 3.29836,-2.27709 4.94727,-3.41602 z m 31.75196,10.76953 c -1.82878,2.27279 -3.65756,4.54558 -5.48633,6.81836 -2.53657,-2.00702 -5.07401,-4.01294 -7.60938,-6.02148 -0.0629,-0.12632 0.69792,-0.75075 1.02861,-0.9832 1.8993,-1.53784 3.76525,-3.21663 5.60811,-4.8586 2.153,1.68164 4.30599,3.36328 6.45899,5.04492 z"
     sodipodi:nodetypes="ccccccccccccccccccccccccccccccccccccccccccccccccccccscccccccccccccccccccccccccccccccccccccccccccccccccccccccccccccccccccccccccscccccssccccccccccccccccccccccccccccccccccccccccccccccccccccccccc" />
  <path
     id="path5"
     style="stroke-width:4.62676"
     d="m 131.02936,215.18709 c -1.45539,-0.007 -2.43798,1.33533 -2.89062,2.58399 -5.74608,10.83076 -11.45409,21.68244 -17.13672,32.54687 -0.2918,1.43355 0.6816,2.9667 2.14453,3.21094 1.29771,0.28009 2.57005,-0.58838 3.0088,-1.79764 5.82099,-11.01539 11.62691,-22.03796 17.42089,-33.06759 0.57132,-1.6608 -0.77747,-3.55371 -2.54688,-3.47657 z" />
  <path
     id="path6"
     style="stroke-width:4.62676"
     d="m 105.66217,222.23397 c -1.27413,-0.0501 -2.24003,1.02873 -3.0044,1.92981 -11.497836,12.33543 -22.168245,25.45258 -31.871964,39.24885 -0.486807,0.71662 -1.112228,1.45141 -1.267109,2.30638 -0.185576,1.62179 1.330814,3.1373 2.954018,2.89387 1.307321,-0.0701 2.003102,-1.27913 2.653736,-2.24487 8.234816,-11.72827 17.383043,-23.14326 27.037199,-33.89498 1.90292,-2.13027 3.84321,-4.22672 5.78759,-6.31914 0.59468,-1.2719 0.16081,-2.93412 -1.0994,-3.62055 -0.35803,-0.16337 -0.78681,-0.34475 -1.18967,-0.29937 z" />
  <path
     id="path7"
     style="stroke-width:4.62676"
     d="m 105.75397,171.86092 c -1.10545,0.10092 -1.95792,0.97838 -2.75209,1.68888 -4.917234,4.31486 -9.872023,8.59521 -14.749868,12.95761 -0.759424,1.23675 -0.386851,2.99425 0.884766,3.73437 1.102109,0.71092 2.587886,0.36761 3.423653,-0.59431 5.201553,-4.52525 10.384229,-9.07198 15.556819,-13.6303 0.76089,-1.21957 0.4679,-2.99066 -0.78703,-3.76117 -0.44089,-0.30422 -1.04237,-0.44481 -1.57625,-0.39508 z" />
</svg>
