<?xml version="1.0" encoding="UTF-8" standalone="no"?>
<svg
   data-name="Layer 1"
   viewBox="0 0 171.89092 370.43081"
   x="0px"
   y="0px"
   version="1.1"
   id="svg29"
   sodipodi:docname="tower.svg"
   width="171.89091"
   height="370.43082"
   inkscape:version="1.3.2 (091e20ef0f, 2023-11-25)"
   xmlns:inkscape="http://www.inkscape.org/namespaces/inkscape"
   xmlns:sodipodi="http://sodipodi.sourceforge.net/DTD/sodipodi-0.dtd"
   xmlns="http://www.w3.org/2000/svg"
   xmlns:svg="http://www.w3.org/2000/svg">
  <defs
     id="defs29" />
  <sodipodi:namedview
     id="namedview29"
     pagecolor="#ffffff"
     bordercolor="#000000"
     borderopacity="0.25"
     inkscape:showpageshadow="2"
     inkscape:pageopacity="0.0"
     inkscape:pagecheckerboard="0"
     inkscape:deskcolor="#d1d1d1"
     inkscape:zoom="6.5902352"
     inkscape:cx="-28.602925"
     inkscape:cy="75.035258"
     inkscape:window-width="2560"
     inkscape:window-height="1371"
     inkscape:window-x="0"
     inkscape:window-y="0"
     inkscape:window-maximized="1"
     inkscape:current-layer="svg29" />
  <path
     style="fill:#d40000;stroke-width:0.11256"
     d="m 85.925991,8.52014 c -1.133539,0.69392 -1.048787,2.09943 -1.009741,3.25699 0.03735,5.45995 -0.08141,10.92352 0.08023,16.38122 -0.02518,1.4518 1.518787,2.6613 2.909958,2.12321 10.106856,-3.04748 20.230612,-6.03892 30.335272,-9.09357 1.38513,-0.43503 1.9313,-2.38184 0.86487,-3.40166 -0.8805,-0.89317 -2.26507,-0.89423 -3.38446,-1.3415 C 106.33744,13.7151 96.966631,10.92984 87.559316,8.28246 86.987998,8.17842 86.445815,8.26216 85.925989,8.52014 Z"
     id="path29" />
  <path
     d="m 169.79207,321.82983 a 2.0960216,2.0960216 0 0 1 -1.9998,-1.46705 c -0.26634,-0.84416 -26.72233,-85.08039 -31.4718,-134.94351 a 2.0993786,2.0993786 0 0 1 4.17987,-0.39751 c 4.70436,49.42058 31.02922,133.23677 31.29136,134.07887 a 2.0948886,2.0948886 0 0 1 -1.99976,2.7292 z"
     id="path1"
     style="stroke-width:4.19624" />
  <path
     d="m 2.0981722,321.84422 a 2.0692496,2.0692496 0 0 1 -0.840045,-0.17624 2.0974063,2.0974063 0 0 1 -1.08183302,-2.76201 C 18.366992,277.23249 29.197486,185.89462 29.30407,184.9767 a 2.1000272,2.1000272 0 0 1 4.171649,0.48764 C 33.365107,186.38839 22.464787,278.34097 4.0200912,320.5861 a 2.0960216,2.0960216 0 0 1 -1.921919,1.25812 z"
     id="path2"
     style="stroke-width:4.19624" />
  <path
     d="m 84.900254,195.0903 c -43.585162,0 -77.7287868,-14.18282 -77.7287868,-32.28934 a 2.0981197,2.0981197 0 1 1 4.1962388,0 c 0,15.22777 33.672344,28.0931 73.532548,28.0931 39.860206,0 73.532506,-12.86533 73.532506,-28.0931 a 2.0981197,2.0981197 0 0 1 4.19624,0 c -8e-5,18.10652 -34.14367,32.28934 -77.728746,32.28934 z"
     id="path3"
     style="stroke-width:4.19624" />
  <path
     d="m 99.243,161.21096 a 2.0981197,2.0981197 0 0 1 -0.159835,-4.19007 144.97059,144.97059 0 0 0 33.389475,-6.27594 2.0967349,2.0967349 0 1 1 1.31133,3.98315 149.05198,149.05198 0 0 1 -34.37312,6.47673 c -0.05745,0.004 -0.110697,0.006 -0.16785,0.006 z"
     id="path4"
     style="stroke-width:4.19624" />
  <path
     d="m 18.038972,145.6349 a 2.0890558,2.0890558 0 0 1 -1.253963,-0.41594 20.330402,20.330402 0 0 1 -9.6135838,-15.76661 c 0,-11.4823 13.8918598,-21.81717 37.1637408,-27.64235 a 2.0971126,2.0971126 0 1 1 1.016287,4.06922 c -20.960718,5.2495 -33.983789,14.28115 -33.983789,23.57313 a 16.209695,16.209695 0 0 0 7.925312,12.40224 2.0989589,2.0989589 0 0 1 -1.253962,3.78031 z"
     id="path5"
     style="stroke-width:4.19624" />
  <path
     d="m 66.668643,160.84626 c -0.06966,0 -0.139315,-0.004 -0.208973,-0.0101 a 138.39042,138.39042 0 0 1 -33.975606,-7.36188 2.0993084,2.0993084 0 1 1 1.467047,-3.93397 134.1129,134.1129 0 0 0 32.918322,7.12009 2.0979099,2.0979099 0 0 1 -0.20079,4.186 z"
     id="path6"
     style="stroke-width:4.19624" />
  <path
     d="m 147.90931,148.22481 a 2.0981197,2.0981197 0 0 1 -1.07365,-3.9012 c 5.29036,-3.15137 11.59702,-8.29206 11.59702,-14.87122 0,-9.29198 -13.02307,-18.32372 -33.98379,-23.57313 a 2.0971126,2.0971126 0 1 1 1.01641,-4.06905 c 23.27192,5.82518 37.16374,16.16005 37.16374,27.64235 0,6.76765 -4.71657,13.15626 -13.64617,18.47738 a 2.0803276,2.0803276 0 0 1 -1.07356,0.29487 z"
     id="path7"
     style="stroke-width:4.19624" />
  <path
     d="m 9.2695032,164.89907 a 2.0969028,2.0969028 0 0 1 -2.09812,-2.09811 v -33.34861 a 2.0981197,2.0981197 0 1 1 4.1962388,0 v 33.34861 a 2.0969028,2.0969028 0 0 1 -2.0981188,2.09811 z"
     id="path8"
     style="stroke-width:4.19624" />
  <path
     d="m 160.5308,164.89907 a 2.0969447,2.0969447 0 0 1 -2.09812,-2.09811 v -33.34861 a 2.09812,2.09812 0 0 1 4.19624,0 v 33.34861 a 2.0969028,2.0969028 0 0 1 -2.09812,2.09811 z"
     id="path9"
     style="stroke-width:4.19624" />
  <path
     d="m 13.654237,140.21751 a 2.0990009,2.0990009 0 0 1 -1.356392,-3.70041 c 0.05736,-0.0471 5.687876,-4.8232 13.752503,-12.83664 1.557224,-1.5101 3.142983,-3.14298 4.823241,-4.92155 3.302902,-3.40538 6.57299,-6.93572 9.740689,-10.51519 2.622648,-2.91362 5.236905,-6.00956 7.896607,-9.199796 A 251.56845,251.56845 0 0 0 65.004918,76.41948 158.17808,158.17808 0 0 0 77.167424,54.118775 c 0.479462,-0.960939 0.840087,-1.858388 1.1966,-2.729192 l 0.196677,-0.487645 a 103.84131,103.84131 0 0 0 4.015801,-11.373698 2.0009768,2.0009768 0 0 1 0.163905,-0.40569 l 0.147498,-0.53477 a 2.0968305,2.0968305 0 1 1 3.991379,1.28673 c -0.127062,0.48971 -0.180438,0.69658 -0.24997,0.90564 a 2.1713021,2.1713021 0 0 1 -0.139357,0.323737 107.7888,107.7888 0 0 1 -4.052812,11.400301 l -0.188495,0.467168 c -0.393397,0.971219 -0.803202,1.966987 -1.282622,2.927968 A 161.39505,161.39505 0 0 1 68.533032,78.687673 255.264,255.264 0 0 1 51.748074,101.70963 c -2.708714,3.25372 -5.355954,6.39066 -8.007306,9.32882 -3.196357,3.61229 -6.507442,7.19181 -9.834934,10.62379 -1.712905,1.80514 -3.339787,3.48322 -4.917447,5.01174 -8.175281,8.12811 -13.748433,12.85098 -13.98187,13.04766 a 2.078817,2.078817 0 0 1 -1.35228,0.49587 z"
     id="path10"
     style="stroke-width:4.19624" />
  <path
     d="m 156.15836,140.23387 a 2.0972385,2.0972385 0 0 1 -1.35639,-0.49582 C 152.46617,137.76082 97.386416,90.745693 82.884003,39.79869 a 2.0962044,2.0962044 0 1 1 4.032334,-1.14742 c 14.158113,49.725855 70.032933,97.40684 70.598413,97.88223 a 2.0989589,2.0989589 0 0 1 -1.35639,3.70037 z"
     id="path11"
     style="stroke-width:4.19624" />
  <path
     d="M 84.900254,42.025885 A 2.0969028,2.0969028 0 0 1 82.802134,39.92776 V 2.09812 a 2.09812,2.09812 0 0 1 4.19624,0 v 37.82964 a 2.0969447,2.0969447 0 0 1 -2.09812,2.098125 z"
     id="path12"
     style="stroke-width:4.19624" />
  <path
     d="M 85.961525,33.01257 A 2.0981197,2.0981197 0 0 1 85.359113,28.90445 L 117.90456,19.18424 84.314165,9.41695 a 2.0977032,2.0977032 0 1 1 1.171968,-4.02839 l 40.425687,11.75497 a 2.0979099,2.0979099 0 0 1 0.0164,4.02419 L 86.563858,32.92458 a 2.1330744,2.1330744 0 0 1 -0.60237,0.088 z"
     id="path13"
     style="stroke-width:4.19624" />
  <path
     d="m 32.787159,171.54176 a 2.1796107,2.1796107 0 0 1 -0.381103,-0.0348 49.600515,49.600515 0 0 1 -15.66624,-8.58714 2.1007633,2.1007633 0 0 1 -0.79909,-1.64736 v -17.73565 a 2.0981197,2.0981197 0 0 1 4.196239,0 v 16.703 a 55.290615,55.290615 0 0 0 10.552074,6.36813 v -14.83438 a 2.098875,2.098875 0 0 1 0.995809,-1.78462 l 0.430283,-0.26637 a 2.0986652,2.0986652 0 0 1 2.770147,3.05905 v 16.66201 a 2.1017285,2.1017285 0 0 1 -2.098119,2.09812 z"
     id="path14"
     style="stroke-width:4.19624" />
  <path
     d="m 133.12822,171.54176 a 2.1017285,2.1017285 0 0 1 -2.09812,-2.09812 v -16.70711 a 2.0981197,2.0981197 0 1 1 4.19624,0 v 13.87344 a 55.520863,55.520863 0 0 0 10.58485,-6.37225 v -14.11103 a 2.09812,2.09812 0 0 1 4.19624,0 v 15.14579 a 2.1017285,2.1017285 0 0 1 -0.79909,1.64941 49.939445,49.939445 0 0 1 -15.69902,8.58509 2.1796107,2.1796107 0 0 1 -0.3811,0.0348 z"
     id="path15"
     style="stroke-width:4.19624" />
  <path
     d="m 98.816578,177.55338 -0.07784,-0.002 -32.152048,-1.1966 a 2.0971546,2.0971546 0 0 1 -2.020279,-2.09602 v -15.51052 a 2.0981197,2.0981197 0 1 1 4.196239,0 v 13.48823 l 28.013171,1.04289 0.37292,-14.22173 a 2.1370188,2.1370188 0 0 1 2.151412,-2.04281 2.1019802,2.1019802 0 0 1 2.044827,2.15347 l -0.43028,16.34238 a 2.1008473,2.1008473 0 0 1 -2.098122,2.04281 z"
     id="path16"
     style="stroke-width:4.19624" />
  <path
     d="m 46.986476,364.19586 h -0.0084 a 2.0969028,2.0969028 0 0 1 -2.089727,-2.10652 l 0.06559,-18.7007 c 0,-10.96394 -3.142981,-18.11064 -9.605484,-21.83971 a 4.5511154,4.5511154 0 0 0 -4.745359,-0.29508 8.2277764,8.2277764 0 0 0 -3.364335,7.12828 l -0.06559,23.31699 a 2.0995884,2.0995884 0 0 1 -2.09812,2.09199 h -0.0042 a 2.0986652,2.0986652 0 0 1 -2.093924,-2.10429 l 0.06559,-23.3313 a 12.261621,12.261621 0 0 1 5.482974,-10.74656 8.6844112,8.6844112 0 0 1 8.921205,0.30527 c 7.765517,4.4831 11.703603,13.05589 11.703603,25.48276 l -0.06559,18.70889 a 2.097784,2.097784 0 0 1 -2.098245,2.08998 z"
     id="path17"
     style="stroke-width:4.19624" />
  <path
     d="m 31.3776,356.32178 a 2.1218704,2.1218704 0 0 1 -2.09812,-2.10651 l 0.08195,-23.33948 a 11.00938,11.00938 0 0 1 9.09325,-11.79983 2.0554439,2.0554439 0 0 1 2.221028,1.96699 2.097784,2.097784 0 0 1 -1.966987,2.22107 c -2.87262,0.17414 -5.085465,3.46269 -5.151052,7.6528 l -0.08195,23.31494 a 2.097784,2.097784 0 0 1 -2.098119,2.09002 z"
     id="path18"
     style="stroke-width:4.19624" />
  <path
     d="m 71.598385,123.12711 a 2.1183456,2.1183456 0 0 1 -0.372878,-0.0327 80.897579,80.897579 0 0 1 -26.087181,-9.05633 48.630974,48.630974 0 0 1 -4.192042,-2.70871 2.0982889,2.0982889 0 0 1 2.475109,-3.38897 43.89321,43.89321 0 0 0 3.819249,2.46487 76.708683,76.708683 0 0 0 24.722564,8.55844 2.0981197,2.0981197 0 0 1 -0.364737,4.16347 z"
     id="path19"
     style="stroke-width:4.19624" />
  <path
     d="m 84.682973,42.785908 h -0.04112 a 2.0981197,2.0981197 0 1 1 0.04112,0 z"
     id="path20"
     style="stroke-width:4.19624" />
  <path
     d="m 70.381266,137.94932 a 2.1822963,2.1822963 0 0 1 -0.258195,-0.0143 110.13102,110.13102 0 0 1 -41.302618,-12.97394 2.0964128,2.0964128 0 1 1 2.089937,-3.63482 105.96684,105.96684 0 0 0 39.720846,12.44122 2.0987491,2.0987491 0 0 1 -0.24997,4.18189 z"
     id="path21"
     style="stroke-width:4.19624" />
  <path
     d="M 86.207382,370.40415 A 122.72657,122.72657 0 0 1 25.820898,355.89968 C 9.2490252,346.32907 0.07793418,333.49449 5.2182785e-5,319.75835 A 2.0956439,2.0956439 0 0 1 2.0858772,317.64794 h 0.01217 a 2.0981197,2.0981197 0 0 1 2.09812,2.08582 c 0.0697,12.18508 8.4949498,23.73909 23.7227248,32.5311 a 118.5057,118.5057 0 0 0 58.288366,13.94305 117.69734,117.69734 0 0 0 58.169532,-13.93894 c 15.12941,-8.7941 23.41128,-20.34194 23.31703,-32.52086 a 2.0969447,2.0969447 0 0 1 2.08171,-2.11452 2.0351761,2.0351761 0 0 1 2.11453,2.08171 c 0.10243,13.75049 -8.91701,26.59942 -25.40693,36.18027 a 121.89723,121.89723 0 0 1 -60.275747,14.50858 z"
     id="path22"
     style="stroke-width:4.19624" />
  <path
     d="m 137.6605,280.21371 a 2.0981197,2.0981197 0 0 1 -1.28267,-3.75983 c 4.84783,-3.73315 12.96575,-11.64415 12.92475,-22.6777 a 2.098136,2.098136 0 1 1 4.19624,-0.0164 c 0.0492,12.83868 -9.10139,21.811 -14.5557,26.01752 a 2.1008473,2.1008473 0 0 1 -1.28262,0.43641 z"
     id="path23"
     style="stroke-width:4.19624" />
  <path
     d="m 152.31045,306.72097 a 2.0997562,2.0997562 0 0 1 -1.28262,-3.75983 18.184949,18.184949 0 0 0 7.84335,-13.67672 2.0968608,2.0968608 0 0 1 2.08973,-2.1063 h 0.008 a 2.097784,2.097784 0 0 1 2.09812,2.08973 22.247748,22.247748 0 0 1 -9.47435,17.01671 2.0837686,2.0837686 0 0 1 -1.28262,0.43641 z"
     id="path24"
     style="stroke-width:4.19624" />
  <path
     d="m 137.69314,297.60103 a 2.0981197,2.0981197 0 0 1 -1.11053,-3.87862 c 6.21652,-3.86843 16.63746,-12.20967 16.63746,-24.59555 a 2.0981197,2.0981197 0 0 1 4.19624,0 c 0,14.41434 -11.66261,23.82717 -18.61263,28.15677 a 2.100008,2.100008 0 0 1 -1.11054,0.3174 z"
     id="path25"
     style="stroke-width:4.19624" />
  <path
     d="m 121.61315,271.83558 a 2.0971965,2.0971965 0 0 1 -0.79497,-4.03846 c 7.5565,-3.09804 25.13643,-12.01094 25.14462,-27.81444 a 2.0964832,2.0964832 0 0 1 2.09812,-2.09606 v 0 a 2.0986232,2.0986232 0 0 1 2.09812,2.10013 c -0.008,18.34218 -19.41181,28.27342 -27.75091,31.69105 a 2.0451212,2.0451212 0 0 1 -0.79498,0.15778 z"
     id="path26"
     style="stroke-width:4.19624" />
  <path
     d="m 37.821794,299.29511 c -7.83696,0.7683 -9.075366,-19.37371 -1.651019,-20.05897 7.522131,-0.63049 8.944816,19.54118 1.651019,20.05897 z m -1.306801,-15.87687 c -1.935843,0.15946 -3.409944,3.03142 -3.153462,6.14759 0.256307,3.11411 2.180182,5.70653 4.116029,5.54719 1.935842,-0.15946 3.405844,-3.03109 3.149529,-6.1452 -0.256474,-3.11617 -2.176249,-5.70892 -4.112096,-5.54958 z"
     id="path27"
     sodipodi:nodetypes="cccsssss"
     style="stroke-width:4.19624" />
  <path
     d="m 73.43424,107.87285 a 2.1471737,2.1471737 0 0 1 -0.504011,-0.0615 63.463505,63.463505 0 0 1 -16.264623,-6.35172 35.785194,35.785194 0 0 1 -4.733065,-3.141051 2.0969906,2.0969906 0 1 1 2.589877,-3.29879 31.941397,31.941397 0 0 0 4.208535,2.786555 59.249893,59.249893 0 0 0 15.207171,5.931716 2.0981197,2.0981197 0 0 1 -0.504052,4.13477 z"
     id="path28"
     style="stroke-width:4.19624" />
</svg>
