<?xml version="1.0" encoding="UTF-8" standalone="no"?>
<svg
   version="1.1"
   x="0px"
   y="0px"
   viewBox="0 0 427.70691 427.75073"
   xml:space="preserve"
   id="svg3"
   sodipodi:docname="trusted.svg"
   width="427.70691"
   height="427.75073"
   inkscape:version="1.3.2 (091e20ef0f, 2023-11-25)"
   xmlns:inkscape="http://www.inkscape.org/namespaces/inkscape"
   xmlns:sodipodi="http://sodipodi.sourceforge.net/DTD/sodipodi-0.dtd"
   xmlns="http://www.w3.org/2000/svg"
   xmlns:svg="http://www.w3.org/2000/svg"><defs
     id="defs3" /><sodipodi:namedview
     id="namedview3"
     pagecolor="#ffffff"
     bordercolor="#000000"
     borderopacity="0.25"
     inkscape:showpageshadow="2"
     inkscape:pageopacity="0.0"
     inkscape:pagecheckerboard="0"
     inkscape:deskcolor="#d1d1d1"
     showgrid="false"
     inkscape:zoom="1.8203125"
     inkscape:cx="213.42489"
     inkscape:cy="277.69957"
     inkscape:window-width="2560"
     inkscape:window-height="1371"
     inkscape:window-x="0"
     inkscape:window-y="0"
     inkscape:window-maximized="1"
     inkscape:current-layer="g2" /><g
     id="g2"
     transform="translate(-42.14594,-42.124346)"><path
       id="path1"
       d="m 275.62305,42.136719 c -16.24386,0.234017 -32.65564,2.379098 -48.469,6.433328 -4.86478,1.235637 -9.65886,2.731758 -14.38382,4.422098 -3.95914,1.296878 -7.92379,2.596822 -11.89124,3.855434 -1.47625,0.185798 -2.90329,-0.397887 -4.35852,-0.555889 -9.16113,-1.624849 -18.30864,-3.333915 -27.48432,-4.871201 -7.86777,-1.087937 -15.93758,-0.267907 -23.52081,2.038028 -4.54529,1.238601 -9.07958,2.536842 -13.50948,4.146952 -0.37568,0.148323 -1.12263,0.425886 -1.64042,0.623679 -2.56567,0.89847 -5.32875,0.126792 -7.83828,-0.608776 -3.88528,-1.158727 -7.43518,-3.163175 -11.01497,-5.015802 -3.03592,-1.188256 -6.80586,0.268879 -8.26024,3.190352 -2.99266,5.045899 -3.17656,11.70865 -0.16729,16.792354 2.7335,4.985205 7.66925,8.414435 12.9568,10.254909 3.95141,1.364525 7.9387,2.621197 11.88823,3.993753 -16.56948,6.941919 -33.163812,13.826462 -49.712501,20.815982 -5.083083,2.45067 -8.167982,8.4224 -7.167447,13.98751 0.228859,1.73753 0.88917,3.42227 2.065758,4.73878 1.152653,1.54565 2.314579,3.08438 3.470438,4.62765 -3.093474,1.4327 -6.333398,2.53444 -9.375,4.07812 -3.612815,2.07224 -5.916036,6.35573 -5.38086,10.52344 0.09806,1.06792 0.463057,2.35002 0.814453,3.46094 0.332059,0.57768 0.177694,1.10766 -0.197643,1.61548 -3.33958,6.16105 -6.314448,12.64102 -8.817982,19.11304 -1.669002,4.33363 -3.143526,8.74078 -4.455078,13.19531 -0.197411,0.72081 -0.487174,1.73305 -0.72004,2.56574 -2.026613,7.35746 -3.530946,14.85469 -4.578788,22.41277 -0.103369,0.85106 -0.270279,2.06101 -0.374223,2.92498 -0.433282,3.56916 -0.757332,7.15089 -0.983199,10.73909 -0.07691,1.39619 -0.181552,3.0269 -0.227366,4.51616 -0.180117,4.67078 -0.191601,9.62852 -0.03435,14.29829 0.134764,3.80642 0.362766,7.5928 0.702783,11.33385 0.366481,4.13338 0.856515,8.20932 1.46892,12.35137 1.478846,9.78123 3.624558,19.65957 6.614801,29.16904 1.687332,5.00531 3.416248,9.99522 4.970506,15.02082 0.307731,1.08581 0.791021,2.14868 1.043822,3.23118 -1.856065,10.46748 -3.806106,20.91946 -5.574918,31.40153 -1.091826,7.76201 -0.307304,15.72998 1.965966,23.21592 1.464015,5.449 3.084365,10.86588 5.085189,16.14073 0.581662,3.22133 -0.569887,6.41362 -1.63375,9.40662 -1.127255,3.00865 -2.717353,5.80898 -4.187897,8.65397 -1.26521,3.10612 0.258715,7.00576 3.288727,8.44646 5.026834,2.88908 11.597505,3.0496 16.628451,0.0793 4.941411,-2.71575 8.275542,-7.6499 10.106797,-12.87939 1.395955,-4.05773 2.664702,-8.15767 4.067478,-12.214 6.977238,16.66059 13.900223,33.34499 20.919203,49.9871 2.42023,4.99282 8.2374,8.04518 13.7235,7.17663 1.83354,-0.20935 3.63269,-0.88378 5.01194,-2.13589 1.53176,-1.16036 3.06352,-2.32071 4.59535,-3.48096 1.40703,3.03364 2.48991,6.20944 3.9847,9.20187 2.36778,4.40083 8.05389,6.93554 12.84102,5.18563 0.92249,-0.29512 1.84488,-0.59056 2.76803,-0.8836 1.07728,0.93439 2.10019,1.98357 3.45911,2.50057 2.51771,1.29403 4.95596,2.4677 7.55764,3.63477 19.76635,8.88596 41.27531,13.68549 62.89927,14.6713 1.66361,0.0717 3.54529,0.14352 5.29485,0.17278 4.4461,0.0893 8.88202,0.0203 13.27598,-0.18675 3.99808,-0.18643 7.974,-0.49659 11.99753,-0.91571 5.91181,-0.62372 11.81911,-1.50849 17.7016,-2.64535 3.86865,-0.74584 7.89752,-1.63755 11.69813,-2.62046 2.95793,-0.74934 6.16173,-1.6835 9.03777,-2.59162 4.40346,-1.49668 8.80281,-3.0089 13.23897,-4.40771 1.48298,-0.44632 2.93435,-1.01737 4.42119,-1.42627 1.38669,-0.16646 2.72583,0.38995 4.09388,0.53505 9.24157,1.64198 18.46799,3.3771 27.72454,4.92984 7.6259,1.06456 15.46025,0.35231 22.82078,-1.87761 5.56485,-1.50063 11.11593,-3.10993 16.48896,-5.19799 3.41983,-0.61528 6.79675,0.64459 9.94777,1.83306 2.85497,1.12764 5.51528,2.67591 8.24594,4.05764 3.10812,1.18762 6.92639,-0.37717 8.35586,-3.37569 2.92078,-5.11337 3.03377,-11.80898 -0.084,-16.86371 -2.68251,-4.70313 -7.39285,-7.89762 -12.40144,-9.71038 -3.99677,-1.41521 -8.06,-2.63324 -12.0688,-4.01644 -1.07583,-0.17479 0.32253,-0.44208 0.69103,-0.67086 16.29048,-6.82628 32.60611,-13.59507 48.87405,-20.47352 4.96518,-2.41076 8.006,-8.20526 7.12027,-13.6633 -0.21492,-1.83051 -0.87365,-3.63037 -2.11536,-5.01743 -1.15341,-1.54735 -2.31808,-3.08632 -3.47476,-4.63124 3.08863,-1.43007 6.32509,-2.52452 9.36132,-4.06641 4.34169,-2.48577 6.42401,-8.13445 4.91818,-12.87755 -0.14401,-0.69287 -0.51565,-1.39571 -0.5452,-2.07215 5.83419,-10.73451 10.52371,-22.09201 13.87363,-33.84359 1.93475,-6.78109 3.44999,-13.68071 4.54832,-20.64616 0.11646,-0.82365 0.29162,-1.89527 0.40597,-2.73558 0.95531,-6.71354 1.51989,-13.47993 1.74832,-20.25661 0.18185,-6.04786 0.10767,-12.2734 -0.26492,-18.37834 -0.15639,-2.6472 -0.38956,-5.49243 -0.65695,-8.21345 -0.19285,-1.9015 -0.42681,-4.0021 -0.68571,-5.9749 -1.00203,-7.7859 -2.46475,-15.6938 -4.39232,-23.38251 -0.60916,-2.45121 -1.22542,-4.72939 -1.93963,-7.15486 -1.37262,-4.72218 -3.17243,-9.30452 -4.59823,-14.01017 -0.72846,-2.28641 -1.46845,-4.56921 -2.25911,-6.83499 1.85551,-10.42706 3.8026,-20.83917 5.57435,-31.28016 1.11833,-7.9217 0.31844,-16.05629 -2.01564,-23.69268 -0.67594,-2.46804 -1.39326,-5.02059 -2.09387,-7.34551 -0.84125,-2.82093 -1.83315,-5.59652 -2.85937,-8.35157 -0.6708,-2.9244 0.33044,-5.87968 1.22755,-8.64084 1.17867,-3.35876 2.92273,-6.47452 4.56319,-9.61814 1.22325,-3.07767 -0.26051,-6.91452 -3.22883,-8.38375 -5.06027,-2.95409 -11.71326,-3.11852 -16.78229,-0.0917 -4.88268,2.71214 -8.1887,7.59283 -10.01216,12.77248 -1.38464,3.97433 -2.61057,8.00279 -3.98252,11.98237 -0.18788,0.70576 -0.45828,-0.80576 -0.68241,-1.07402 -6.79977,-16.21195 -13.53437,-32.452265 -20.38489,-48.641956 -2.42535,-4.998511 -8.27378,-8.05383 -13.76398,-7.134396 -1.78677,0.22353 -3.53974,0.869124 -4.89851,2.07604 -1.55316,1.163715 -3.10744,2.327577 -4.66062,3.492216 -1.4177,-3.05856 -2.50375,-6.262734 -4.02344,-9.273437 -2.50828,-4.446875 -8.30589,-6.550105 -13.12076,-4.946131 -0.62229,0.129028 -1.26007,0.47929 -1.868,0.487222 -8.61294,-4.671261 -17.61333,-8.635767 -26.91358,-11.726638 -0.67303,-0.220836 -1.64968,-0.53278 -2.43924,-0.788586 -3.13201,-0.99026 -6.31482,-1.901489 -9.4344,-2.687061 -2.87651,-0.726853 -5.78858,-1.385361 -8.63026,-1.952464 -7.08669,-1.415506 -14.26207,-2.372322 -21.46485,-2.946889 -0.97508,-0.06384 -2.22092,-0.150571 -3.29883,-0.220703 -4.70954,-0.277793 -9.42723,-0.38055 -14.14453,-0.330078 z m 2.92578,5.693359 c 25.37799,0.02107 50.93201,5.133443 73.81043,16.287768 1.68497,0.807631 3.35009,1.656373 5.02746,2.47981 -0.91696,3.130005 -2.07431,6.498 -1.02055,9.749157 0.67948,1.967333 1.58485,3.848187 2.35844,5.78014 -1.9164,0.487044 -3.8683,0.84467 -5.77652,1.350107 -4.68359,2.152992 -7.27941,7.994039 -5.60764,12.896956 0.68842,2.070357 1.67356,4.031334 2.46987,6.056194 0.66647,1.03991 0.62355,2.58163 -0.44086,3.34107 -0.56042,0.49093 -1.42437,0.41784 -2.11148,0.67337 -0.99633,0.29709 -2.12865,0.24472 -2.9279,1.00262 -1.05848,0.82392 -2.09189,1.67987 -3.17188,2.47656 -11.29484,-5.54028 -23.36759,-9.49361 -35.76692,-11.63315 -2.63851,-0.465456 -5.28944,-0.846601 -7.88525,-1.154117 -2.02967,-0.237665 -3.99212,-0.428759 -5.97377,-0.5823 -1.9534,-0.153501 -3.78197,-0.259186 -5.77054,-0.33356 -5.95539,-0.229792 -12.08554,-0.112456 -18.10176,0.346896 -3.91137,0.295891 -8.07041,0.756142 -12.07787,1.362919 -3.92806,0.592285 -7.85545,1.338612 -11.77282,2.251792 -3.67316,0.87034 -7.47818,1.78288 -10.9784,3.42468 -4.48975,1.94343 -9.07857,3.75701 -13.23126,6.37153 -1.6402,1.33811 -2.94921,3.02395 -4.47303,4.48739 -5.33045,5.50515 -10.59566,11.07137 -15.9849,16.51835 -4.8956,4.59137 -10.80661,7.99203 -17.05409,10.38628 -21.04891,8.79169 -42.08908,17.60924 -63.14814,26.3736 -3.13096,1.10174 -6.87785,-1.17737 -7.36328,-4.45508 -0.60135,-2.84095 1.36114,-5.81928 4.10641,-6.62203 14.03719,-5.87736 28.09438,-11.71137 42.11342,-17.62842 1.69515,-0.90999 1.8213,-3.66234 0.13375,-4.65218 -1.02977,-0.68583 -2.35635,-0.51837 -3.38669,0.0667 -19.90063,8.32279 -39.80401,16.639 -59.709076,24.95118 -2.981096,0.95025 -6.525501,-1.27103 -6.822068,-4.41662 -0.352667,-2.57208 1.487399,-5.08965 3.937303,-5.79432 19.877371,-8.31583 39.761751,-16.61669 59.630861,-24.95117 1.68088,-0.89171 1.85991,-3.5827 0.23395,-4.62299 -1.01885,-0.73012 -2.38118,-0.59089 -3.42525,0.004 -24.5237,10.24983 -49.04015,20.52013 -73.57628,30.73826 -3.31003,1.0953 -7.367283,-1.3723 -7.603516,-4.92578 -0.229311,-2.81873 1.708504,-5.60855 4.438433,-6.36034 23.743297,-9.92918 47.494613,-19.84222 71.225973,-29.79805 1.74281,-0.87829 1.89416,-3.68123 0.18716,-4.68341 -1.00939,-0.67699 -2.31335,-0.52978 -3.32803,0.0469 -17.74353,7.40373 -35.4657,14.8608 -53.225806,22.22282 -3.851156,1.37115 -8.528458,-0.96623 -9.725464,-4.88102 -1.366199,-3.75146 0.776174,-8.33149 4.532183,-9.68846 21.773717,-9.10204 43.547917,-18.202934 65.321337,-27.305679 2.4196,-0.385967 4.88797,-0.603468 7.24023,-1.310547 1.74919,-0.822685 2.04045,-3.564219 0.40625,-4.658203 -0.91713,-0.720076 -2.12373,-0.608053 -3.17555,-0.318887 -7.9785,1.439036 -16.17139,1.929939 -24.24086,1.025316 -5.43639,-0.64758 -11.03018,-2.078756 -15.36332,-5.585455 -3.14011,-2.545481 -5.47415,-6.50487 -5.04305,-10.653938 0.28679,-2.224988 0.81918,-4.41127 1.14895,-6.631098 5.87368,2.984939 11.78616,6.403631 18.45027,7.167381 2.62363,0.300855 5.33425,-0.05426 7.7284,-1.193391 5.92502,-2.143333 12.01282,-3.808206 18.12434,-5.322645 6.84202,-1.489694 13.98414,-1.334415 20.81842,0.118763 8.7587,1.554731 17.51011,3.1754 26.27544,4.676468 2.95858,-0.08516 5.7805,-1.112183 8.61485,-1.864545 6.0077,-1.818184 11.86903,-4.101091 17.95209,-5.671637 16.14828,-4.339362 32.84313,-6.608014 49.55687,-6.906708 1.14018,-0.02014 2.28039,-0.02627 3.42073,-0.02908 z m 88.90429,19.306641 c 2.58783,0.06781 4.79757,2.094208 5.48681,4.524833 9.93147,23.726502 19.81645,47.473278 29.79249,71.180248 0.93587,1.73686 3.79218,1.82777 4.73633,0.0469 0.61543,-1.00193 0.42533,-2.24491 -0.12698,-3.2245 -7.40573,-17.73908 -14.85767,-35.46036 -22.2204,-53.216201 -1.37914,-3.875727 0.99657,-8.592406 4.95294,-9.753723 3.74567,-1.347215 8.30918,0.816892 9.62112,4.580998 9.11116,21.768916 18.21821,43.539566 27.3241,65.310696 0.34025,2.2589 0.613,4.53951 1.09508,6.76963 0.497,1.6609 2.67002,2.54075 4.11756,1.50187 1.23045,-0.69307 1.4791,-2.25573 1.11063,-3.51391 -0.74123,-3.57785 -1.09609,-7.22806 -1.36841,-10.8687 -0.40424,-6.62334 -0.22716,-13.36774 1.42216,-19.82594 1.25018,-4.76487 3.65572,-9.54111 7.87584,-12.31725 2.49354,-1.7 5.66228,-2.42595 8.62477,-1.73532 1.7331,0.32096 3.4641,0.65468 5.19659,0.97985 -2.98202,5.90333 -6.40521,11.84428 -7.15039,18.53711 -0.29343,2.58613 0.0912,5.24385 1.19917,7.60457 2.13053,5.83728 3.75981,11.84442 5.27887,17.86476 1.54894,6.95296 1.40081,14.22041 -0.0726,21.17274 -1.55441,8.72655 -3.17276,17.44615 -4.66642,26.18059 0.10164,3.04713 1.16947,5.94984 1.94266,8.8707 1.87529,6.14911 4.20525,12.14991 5.76582,18.401 4.48535,16.91619 6.70231,34.42249 6.75282,51.91814 0.0189,23.7316 -4.37955,47.60489 -14.03817,69.34492 -1.47127,3.33233 -3.0819,6.60001 -4.72266,9.85157 -3.11047,-0.9061 -6.44984,-2.09452 -9.68386,-1.04867 -1.99683,0.69381 -3.90691,1.61738 -5.87278,2.39437 -0.47275,-1.93345 -0.83609,-3.90188 -1.33594,-5.82227 -2.19309,-4.65657 -8.02018,-7.22674 -12.91808,-5.55627 -2.63941,0.94355 -5.17553,2.15253 -7.78158,3.18426 -0.46478,0.0335 -1.38979,0.97363 -1.42898,0.16864 -0.47355,-1.88142 -0.88452,-3.79565 -1.34792,-5.66772 -0.87373,-1.37827 -2.01431,-2.56207 -2.94922,-3.89844 1.22878,-2.57323 2.43768,-5.17782 3.4973,-7.74941 3.50824,-8.43242 6.11859,-17.23408 7.80348,-26.20957 0.4586,-2.48175 0.91003,-5.23216 1.24805,-7.86215 0.40799,-3.15498 0.72641,-6.37309 0.92644,-9.46822 0.13121,-1.85118 0.21102,-3.90308 0.27083,-5.84932 0.0487,-1.9667 0.0711,-4.13423 0.0426,-6.17924 -0.0484,-3.99381 -0.24374,-7.82007 -0.58412,-11.81878 -0.41304,-4.78975 -1.03756,-9.61703 -1.8628,-14.293 -0.27394,-1.54227 -0.61059,-3.2989 -0.95454,-4.91526 -0.93028,-4.14807 -1.80195,-8.3428 -3.36382,-12.30934 -2.09835,-4.83156 -4.02197,-9.77086 -6.70117,-14.32032 -1.03272,-1.64649 -2.65586,-2.77462 -3.97682,-4.16938 -5.80534,-5.62169 -11.6741,-11.17878 -17.41919,-16.86115 -4.55811,-4.8795 -7.9729,-10.74352 -10.35405,-16.96339 -8.80038,-21.07394 -17.64825,-42.13052 -26.40275,-63.22182 -1.03965,-3.21106 1.31806,-7.08802 4.73289,-7.4073 2.8236,-0.31027 5.67233,1.62596 6.43656,4.36028 5.8561,13.9817 11.68332,27.97613 17.57516,41.94245 0.96687,1.67204 3.72329,1.7269 4.67789,0.0111 0.63875,-1.00353 0.45468,-2.26758 -0.10574,-3.25704 -8.31593,-19.89241 -16.66391,-39.77267 -24.93739,-59.681784 -0.93714,-2.562951 0.56367,-5.587728 3.04492,-6.611328 1.02994,-0.673439 2.30121,-0.317239 3.30274,0.21289 1.19765,0.499705 2.70416,0.846702 3.23496,2.185774 1.08295,2.114998 1.84416,4.376448 2.81667,6.54323 7.58256,18.117638 15.13231,36.249768 22.7472,54.353028 0.9268,1.71891 3.72569,1.81257 4.69531,0.082 0.63595,-0.98917 0.47973,-2.2435 -0.0762,-3.22647 -10.26153,-24.56198 -20.55145,-49.114541 -30.77632,-73.690318 -0.87547,-2.775214 0.75916,-5.994827 3.36739,-7.150819 0.7835,-0.320123 1.63967,-0.449531 2.48314,-0.414814 z m -86.99414,34.599611 c 19.12387,0.0637 38.37638,3.77151 55.73102,11.93938 0.75576,0.34619 1.51143,0.69258 2.26703,1.03913 -0.0285,2.59467 0.0388,5.30011 1.25193,7.66007 9.18436,21.9386 18.31849,43.89879 27.54613,65.81855 3.13946,6.96724 7.80277,13.21202 13.47643,18.32062 5.60346,5.38573 11.22124,10.75171 16.79582,16.16756 2.4273,4.13232 4.17757,8.61078 6.10264,12.98696 1.59193,3.5891 2.31731,7.46869 3.19811,11.27299 2.77733,13.15652 3.86672,26.67302 3.24517,40.10491 -0.80149,16.91131 -4.56191,33.76549 -11.78773,49.11545 -0.33809,0.73699 -0.67609,1.47403 -1.01405,2.2111 -2.58132,-0.0274 -5.27527,0.0431 -7.62249,1.25047 -21.92743,9.17915 -43.87457,18.31269 -65.78466,27.53149 -6.95852,3.1351 -13.21562,7.76704 -18.31702,13.43792 -5.38955,5.61217 -10.77843,11.22499 -16.1684,16.83676 -4.04429,2.37426 -8.42239,4.09269 -12.70276,5.97965 -3.68603,1.70118 -7.69903,2.45689 -11.62732,3.37582 -13.67686,2.89924 -27.74543,3.98521 -41.70411,3.1818 -16.42074,-0.96 -32.743,-4.75444 -47.64542,-11.78644 -0.69595,-0.31937 -1.39196,-0.63863 -2.08797,-0.95786 0.0437,-2.57387 -0.0503,-5.25234 -1.2368,-7.59711 -9.19777,-21.97381 -18.34982,-43.96753 -27.59076,-65.92243 -3.12539,-6.923 -7.74245,-13.14565 -13.3866,-18.22207 -5.63402,-5.41282 -11.2829,-10.80737 -16.8874,-16.25058 -2.38408,-4.06885 -4.11315,-8.47218 -6.0121,-12.7775 -1.6845,-3.71094 -2.43626,-7.7419 -3.35276,-11.68786 -2.86013,-13.56836 -3.9233,-27.52083 -3.13796,-41.36531 0.95368,-16.49906 4.76727,-32.90178 11.84785,-47.8678 0.30414,-0.66372 0.60846,-1.32735 0.91278,-1.99098 2.60355,0.0359 5.31155,-0.0643 7.6796,-1.27147 21.93779,-9.18473 43.89733,-18.31884 65.81659,-27.54612 6.9409,-3.1288 13.17556,-7.75892 18.26497,-13.41413 5.37461,-5.59977 10.74861,-11.20013 16.1236,-16.79953 4.17473,-2.47704 8.721,-4.22398 13.14143,-6.19976 3.30485,-1.46297 6.87782,-2.14305 10.37416,-2.98365 11.25092,-2.44113 22.78112,-3.60909 34.29105,-3.59003 z m -197.701168,53.8457 c 0.322174,1.18528 0.420514,2.43518 0.84807,3.58424 1.679461,3.51988 5.419691,5.84747 9.295141,5.97036 2.852405,0.19592 5.419175,-1.25429 7.982237,-2.27694 1.55492,-0.66159 3.12146,-1.2955 4.68119,-1.94563 0.51005,1.97661 0.98548,3.97216 1.43218,5.95719 0.861,1.41355 2.00712,2.62582 2.97798,3.96273 -5.12393,10.48139 -8.91525,21.61774 -11.126802,33.07673 -0.493298,2.5585 -0.922917,5.10604 -1.268827,7.615 -0.303621,2.19139 -0.582417,4.58897 -0.789272,6.86999 -0.288455,3.15708 -0.484519,6.64246 -0.567053,9.81133 -0.09151,3.67507 -0.05297,7.51552 0.107422,11.08399 0.507672,10.74373 1.985042,21.46062 4.656442,31.88497 0.64939,2.46314 1.30841,4.93418 2.38923,7.2499 1.94551,4.64512 3.8795,9.32655 6.4572,13.66369 1.34148,1.78222 3.1491,3.13649 4.6856,4.74097 5.53572,5.36219 11.13776,10.65861 16.61178,16.08284 4.55738,4.88054 7.92594,10.76875 10.30867,16.98335 8.77471,21.00463 17.58057,41.99857 26.32272,63.01537 1.12707,3.25395 -1.27268,7.24466 -4.74984,7.56516 -2.23255,0.28232 -4.51257,-0.90031 -5.69551,-2.77457 -6.0579,-14.4888 -12.08873,-29.00476 -18.19408,-43.47813 -0.81665,-1.59539 -3.23764,-1.88538 -4.40908,-0.52545 -0.91258,0.97351 -0.91582,2.47883 -0.25614,3.58787 8.33638,19.9485 16.70019,39.887 24.99113,59.85325 1.09303,3.02367 -1.30982,6.64816 -4.51656,6.83632 -2.57593,0.34767 -5.0285,-1.59309 -5.70994,-4.02437 -8.29513,-19.83797 -16.57534,-39.68335 -24.89736,-59.50934 -0.82172,-1.64123 -3.33715,-1.92288 -4.4884,-0.47996 -0.85656,0.97925 -0.83208,2.42933 -0.19533,3.51358 10.42186,24.92973 20.84389,49.85938 31.26564,74.78915 -0.74572,1.82461 -1.48836,3.65048 -2.23047,5.47657 -1.80351,0.95733 -4.02444,1.45342 -5.95898,0.57617 -1.96457,-0.72151 -3.18452,-2.59623 -3.79486,-4.5136 -9.86243,-23.57352 -19.68338,-47.16556 -29.58641,-70.721 -0.83018,-1.64922 -3.37737,-1.88255 -4.49797,-0.41417 -0.80565,0.945 -0.81787,2.33628 -0.20682,3.38309 7.42288,17.80717 14.90049,35.59251 22.2936,53.41118 1.40444,3.93252 -1.06855,8.74023 -5.12262,9.81172 -3.73883,1.21015 -8.17391,-0.98038 -9.4799,-4.69105 -9.10556,-21.79072 -18.214375,-43.58008 -27.317914,-65.37164 -0.373274,-2.3106 -0.603703,-4.66253 -1.178354,-6.92961 -0.737083,-1.76388 -3.444563,-2.29984 -4.628021,-0.69329 -0.783424,0.84686 -0.761757,2.05825 -0.462748,3.09992 1.474516,7.93935 1.966752,16.09712 1.118701,24.13791 -0.616302,5.42272 -2.004365,10.99357 -5.40909,15.37645 -2.450773,3.0995 -6.202117,5.52471 -10.270566,5.36018 -2.409614,-0.18015 -4.750135,-0.84493 -7.136547,-1.19944 -0.03666,-0.40213 0.528584,-1.10173 0.725231,-1.61916 1.339003,-2.60383 2.774916,-5.38667 3.858582,-7.97632 1.627587,-3.98652 2.987273,-8.30811 2.447001,-12.66293 -0.244397,-2.20898 -1.386895,-4.15968 -2.001987,-6.26831 -1.763207,-5.23825 -3.217238,-10.57741 -4.533697,-15.94324 -1.476867,-6.78095 -1.281076,-13.85611 0.153899,-20.6266 1.552632,-8.73176 3.165096,-17.45601 4.667395,-26.1946 -0.0266,-2.80352 -1.005163,-5.48052 -1.696196,-8.16792 -1.850744,-6.29035 -4.273708,-12.40054 -5.895058,-18.76032 -4.179673,-15.59812 -6.406469,-31.70821 -6.820845,-47.84595 -0.561439,-23.71223 3.191526,-47.66959 12.202189,-69.67222 1.941138,-4.79261 4.175149,-9.45948 6.514408,-14.06885 2.231357,0.54323 4.387586,1.53757 6.707396,1.62274 3.045901,-0.0926 5.724467,-1.72351 8.499302,-2.7918 0.680279,-0.47814 0.440107,0.82627 0.67627,1.20821 0.07221,0.3281 0.144428,0.65619 0.216641,0.98429 z M 394.66406,343.93359 c 3.14196,-0.0732 6.15934,2.74115 5.9043,5.95508 -0.0355,2.55468 -2.03185,4.75651 -4.42474,5.44829 -13.96648,5.85585 -27.95363,11.66709 -41.90257,17.56183 -1.69064,0.91266 -1.7976,3.63389 -0.14144,4.64223 0.98482,0.6937 2.27764,0.55532 3.27524,-0.0255 19.95103,-8.33646 39.88218,-16.72737 59.85953,-24.99596 2.99253,-1.01077 6.57767,1.29482 6.78831,4.47207 0.36647,2.5509 -1.49704,5.02646 -3.90839,5.73592 -19.89205,8.32293 -39.79931,16.61391 -59.67489,24.97348 -1.69567,0.90652 -1.80969,3.6291 -0.15621,4.64275 0.98445,0.69748 2.28163,0.56235 3.28116,-0.0195 24.92724,-10.42027 49.85347,-20.84298 74.78134,-31.26173 1.66577,0.79851 3.53611,1.22606 5.04102,2.32422 1.59538,1.42094 1.81083,3.91836 1.09353,5.83288 -0.71373,1.8909 -2.47972,3.15538 -4.35757,3.73499 -23.64411,9.89484 -47.30332,19.75602 -70.93176,29.68595 -1.72611,0.83885 -1.92759,3.5594 -0.31574,4.62354 0.95011,0.7208 2.26764,0.67767 3.26487,0.0811 17.79662,-7.4296 35.57332,-14.90936 53.38842,-22.29253 3.94521,-1.4014 8.74206,1.09265 9.82505,5.14657 1.20712,3.74747 -1.00987,8.17516 -4.72554,9.46973 -21.76005,9.09942 -43.52055,18.19777 -65.28032,27.29785 -1.46041,0.21668 -2.95867,0.41679 -4.31877,0.645 -1.30988,0.30215 -2.96723,0.17905 -3.8034,1.44062 -1.09457,1.34402 -0.48945,3.56436 1.13389,4.16828 1.31303,0.56513 2.68788,-0.15846 4.02295,-0.26552 7.6859,-1.27654 15.56149,-1.67336 23.30908,-0.73643 5.33099,0.69037 10.80406,2.17459 15.00586,5.68164 3.06365,2.56978 5.34554,6.50749 4.86965,10.61226 -0.28078,2.19342 -0.77456,4.35445 -1.10208,6.54204 -5.92887,-2.98633 -11.88847,-6.41689 -18.60156,-7.18946 -2.5501,-0.30645 -5.17314,0.0764 -7.50095,1.17015 -5.87279,2.15358 -11.9228,3.78237 -17.9793,5.32425 -6.97525,1.57997 -14.27165,1.38288 -21.24658,-0.093 -8.73393,-1.55218 -17.45992,-3.17966 -26.20126,-4.67022 -3.01455,0.15223 -5.88823,1.19323 -8.77998,1.97223 -6.33333,1.93646 -12.52256,4.34373 -18.96767,5.9081 -19.08951,4.96271 -38.90095,7.15424 -58.61332,6.48614 -22.42345,-0.80864 -44.81391,-5.68296 -65.15523,-15.26517 -2.28492,-1.06995 -4.53484,-2.2114 -6.79399,-3.33444 0.93558,-3.11356 2.10052,-6.4624 1.08148,-9.70972 -0.67112,-2.00785 -1.60614,-3.91665 -2.3764,-5.88794 1.92503,-0.47862 3.89155,-0.82363 5.80116,-1.33873 4.63033,-2.16461 7.21391,-7.93021 5.60028,-12.80933 -0.68119,-2.10095 -1.69121,-4.08177 -2.49106,-6.1337 -0.67994,-1.05685 -0.619,-2.64647 0.4983,-3.37883 0.73496,-0.47372 1.71072,-0.49302 2.5503,-0.75151 0.89832,-0.19521 1.85247,-0.27715 2.55274,-0.94532 1.06597,-0.82656 2.10392,-1.68447 3.18554,-2.49218 11.08005,5.43609 22.89227,9.37837 35.03431,11.60296 4.53445,0.84608 9.16872,1.45783 13.69428,1.84645 5.79118,0.50246 11.73379,0.62883 17.46477,0.43926 11.80406,-0.41085 23.58249,-2.03362 35.00586,-5.05664 0.63128,-0.17842 1.56492,-0.43204 2.31248,-0.65904 2.83114,-0.86627 5.50765,-2.16467 8.23796,-3.29898 3.30565,-1.51112 6.71777,-2.87487 9.74058,-4.92089 1.54351,-1.36925 2.89988,-2.95259 4.37028,-4.40548 5.34337,-5.50378 10.60973,-11.08464 16.01019,-16.53196 4.90117,-4.59018 10.81209,-8.00036 17.06268,-10.39853 21.04448,-8.803 42.09199,-17.59879 63.14279,-26.38669 0.51367,-0.1175 1.03045,-0.22673 1.56054,-0.21289 z" /><path
       id="path2"
       d="m 214.32685,191.45035 c -1.18098,0.0354 -2.44561,0.11016 -3.52831,0.22881 -9.17766,0.92241 -18.08514,4.70565 -24.95332,10.89237 -5.37165,4.78414 -9.59629,10.82111 -12.36094,17.45567 -0.11504,0.28401 -0.35148,0.85489 -0.50037,1.25574 -2.10537,5.42011 -3.16915,11.23058 -3.14883,17.04418 -0.14822,0.76785 -0.24037,1.75567 -0.26517,2.4035 -0.13428,5.30421 1.13514,10.5398 2.82941,15.53162 0.27583,0.79753 0.50689,1.42127 0.81254,2.22519 0.30248,0.77199 0.71617,1.79672 1.0903,2.6588 0.98215,2.28825 2.14192,4.63274 3.27223,6.76292 6.9185,12.81593 16.29911,24.12136 26.41865,34.5243 6.48253,6.61429 13.37903,12.89786 20.43499,18.83683 3.77172,3.16587 7.58112,6.22964 11.43956,9.22163 5.09339,3.94195 10.30355,7.7878 15.61211,11.54272 1.19264,0.74433 2.21605,1.82005 3.56827,2.26848 1.13378,0.24954 2.11656,-0.4873 2.9661,-1.12627 9.05613,-6.21669 17.91349,-12.72814 26.4645,-19.62485 12.55006,-10.14115 24.59336,-21.17947 35.04812,-33.55457 7.23815,-8.60534 13.77503,-17.91994 18.39292,-28.2102 2.4201,-5.49264 4.31075,-11.3084 4.76488,-17.323 0.12484,-1.5153 0.006,-3.03554 -0.16161,-4.53898 0.0151,-3.29285 -0.29579,-6.58581 -0.91373,-9.81998 -0.0916,-0.43581 -0.22849,-1.13969 -0.35514,-1.67389 -0.27377,-1.21517 -0.62255,-2.50688 -0.96349,-3.6043 -2.22453,-7.32944 -6.21117,-14.11717 -11.55453,-19.60784 -0.31695,-0.31513 -0.81755,-0.82348 -1.2167,-1.19909 -6.21853,-5.95419 -14.18741,-10.1225 -22.70477,-11.51857 -9.87501,-1.67243 -20.32113,0.28346 -28.89479,5.47081 -0.87824,0.5192 -1.73112,1.07955 -2.57219,1.65666 -0.2419,0.17086 -0.70963,0.50353 -1.0139,0.73455 -5.93796,4.34643 -10.67091,10.21458 -14.02555,16.74074 -0.69808,1.26837 -1.39659,2.53651 -2.09494,3.80472 -2.34209,-4.45639 -4.59435,-9.01889 -7.81967,-12.9228 -6.59614,-8.24179 -16.16612,-14.16101 -26.61337,-15.92302 -2.12989,-0.37391 -4.35921,-0.57721 -6.4459,-0.61591 -0.33582,-0.009 -0.67154,-0.002 -1.00736,0.003 z m 0.44401,5.04288 c 9.3417,0.0229 18.54887,3.7919 25.39552,10.1152 7.3137,6.67364 12.02694,15.99779 13.47726,25.76002 0.12123,1.25485 1.2444,2.30572 2.51892,2.25375 1.27083,0.0536 2.37789,-0.9963 2.51902,-2.23795 1.6766,-10.50091 7.16279,-20.45979 15.53687,-27.08936 7.17323,-5.7595 16.48833,-8.82765 25.68674,-8.26668 8.56611,0.46933 16.87532,4.05641 23.21377,9.81663 6.53409,5.85327 11.09595,13.79827 13.07113,22.33078 1.12127,4.74478 1.47375,9.64572 1.37673,14.51043 -0.31789,5.21907 -1.94019,10.26361 -3.91819,15.07015 -3.65682,8.66198 -8.88237,16.57095 -14.66828,23.94705 -9.29456,11.77633 -20.16269,22.21814 -31.58628,31.90544 -10.17455,8.60965 -20.88517,16.56471 -31.83923,24.15057 -16.87339,-11.98155 -33.20689,-24.85517 -47.74099,-39.62669 -9.06721,-9.26203 -17.49834,-19.2702 -24.03627,-30.50046 -4.06164,-7.04267 -7.43486,-14.63028 -8.72573,-22.70663 -0.41475,-2.56515 -0.46045,-5.17561 -0.25796,-7.76196 0.24364,-10.62877 4.30424,-21.19725 11.55438,-29.01705 5.75391,-6.28139 13.60011,-10.63394 22.01285,-12.04266 2.1161,-0.37292 4.26201,-0.56663 6.40974,-0.61058 z"
       style="stroke-width:0.789348" /><path
       style="fill:#d40000;stroke-width:0.433633"
       d="m 214.5981,196.52478 c -15.97384,-0.34332 -30.65394,10.87547 -36.48531,25.42513 -4.94584,12.08734 -4.60098,26.16428 1.0578,37.95186 7.34031,15.80813 18.60292,29.44206 31.08495,41.46614 13.74768,13.92889 29.14861,26.08283 45.07358,37.41052 4.15769,-2.18578 7.95066,-5.51315 11.90373,-8.23225 21.65479,-16.23222 42.93293,-33.93976 58.15001,-56.59334 6.88965,-10.87131 13.58823,-23.26415 12.17814,-36.58694 -0.86338,-13.9732 -8.19909,-27.81401 -20.49,-34.93795 -11.78518,-7.76792 -27.92633,-7.24769 -39.57277,0.50282 -9.83856,6.2079 -16.37189,16.73411 -18.72728,28.0209 -0.29614,1.64921 -1.50294,4.4438 -3.62139,3.26276 -2.34568,-3.18758 -2.19514,-7.56444 -3.88999,-11.12883 -4.9348,-13.7362 -17.70272,-24.9229 -32.42085,-26.427 -1.41063,-0.10873 -2.82601,-0.14719 -4.24062,-0.13382 z"
       id="path3" /></g></svg>
