<?xml version="1.0" encoding="UTF-8" standalone="no"?>
<svg
   version="1.1"
   x="0px"
   y="0px"
   viewBox="0 0 92.412994 91.046356"
   enable-background="new 0 0 128 128"
   xml:space="preserve"
   id="svg75"
   sodipodi:docname="atom.svg"
   width="92.412994"
   height="91.046356"
   inkscape:version="1.3.2 (091e20ef0f, 2023-11-25)"
   xmlns:inkscape="http://www.inkscape.org/namespaces/inkscape"
   xmlns:sodipodi="http://sodipodi.sourceforge.net/DTD/sodipodi-0.dtd"
   xmlns="http://www.w3.org/2000/svg"
   xmlns:svg="http://www.w3.org/2000/svg"><defs
     id="defs75" /><sodipodi:namedview
     id="namedview75"
     pagecolor="#ffffff"
     bordercolor="#000000"
     borderopacity="0.25"
     inkscape:showpageshadow="2"
     inkscape:pageopacity="0.0"
     inkscape:pagecheckerboard="0"
     inkscape:deskcolor="#d1d1d1"
     inkscape:zoom="6.8767257"
     inkscape:cx="46.170229"
     inkscape:cy="45.733975"
     inkscape:window-width="2560"
     inkscape:window-height="1371"
     inkscape:window-x="0"
     inkscape:window-y="0"
     inkscape:window-maximized="1"
     inkscape:current-layer="g74"
     showgrid="false" /><g
     id="g74"
     transform="translate(-19.678618,-19.182477)"><path
       style="fill:#d40000;fill-opacity:1;stroke-width:0.102826"
       d="m 58.276612,63.353376 c -0.717485,3.236857 0.975154,6.721383 3.813019,8.362158 2.593131,1.626856 6.115332,1.396758 8.549714,-0.427426 3.043302,-1.988553 4.149405,-6.245797 2.682258,-9.529229 -1.333381,-3.277901 -5.057932,-5.284985 -8.528821,-4.686015 -3.194068,0.473347 -5.947628,3.091098 -6.51617,6.280512 z"
       id="path78" /><path
       d="m 80.286753,49.55151 c -2.051295,-4.976162 -4.213057,-9.464679 -6.582813,-13.487645 1.076599,-0.678922 2.033576,-1.282407 3.088082,-1.8638 0,0 0.07544,0.119622 0.07544,0.119622 0.09753,0.02209 0.07543,0.119622 0.172964,0.141716 0.2484,0.261337 0.399272,0.500581 0.647672,0.761919 2.377319,2.179072 6.087199,2.096667 8.266271,-0.280651 0.141716,-0.172965 0.305524,-0.443458 0.447239,-0.616423 0.02209,-0.09753 0.141716,-0.172964 0.163809,-0.270493 0.141715,-0.172965 0.163808,-0.270494 0.305524,-0.443459 0.02209,-0.09753 0.04419,-0.195057 0.163808,-0.270493 0.02209,-0.09753 0.163809,-0.270494 0.185902,-0.368023 0.02209,-0.09753 0.06628,-0.292586 0.08837,-0.390115 0.02209,-0.09753 0.04419,-0.195058 0.06628,-0.292587 0,0 0,0 0,0 0.04419,-0.195058 0.08837,-0.390116 0.132559,-0.585174 0.02209,-0.09753 0.02209,-0.09753 0.04419,-0.195057 0.04419,-0.195058 0.01294,-0.509738 -0.04041,-0.726889 0,0 0,0 0,0 0.01294,-0.509738 -0.169184,-1.063662 -0.253776,-1.595493 0,0 0,0 0,0 0,0 0,0 0,0 -0.310899,-0.890698 -0.838949,-1.728053 -1.606243,-2.414536 -2.377318,-2.179073 -6.087198,-2.096668 -8.266271,0.280651 -1.492589,1.610024 -1.903204,3.875282 -1.228063,5.873828 -1.054506,0.581393 -2.131105,1.260314 -3.207704,1.939236 C 66.03159,23.764879 58.203995,17.582747 51.915771,19.541888 c -4.865696,1.563651 -7.906403,7.744598 -8.564417,17.438772 -0.118029,2.331538 -0.160621,4.782698 -0.03025,7.375574 -0.119622,0.07543 -0.163808,0.270493 -0.110466,0.487644 -0.04419,0.195058 0.128779,0.336773 0.204214,0.456395 0.251589,4.773542 1.044164,9.874702 2.107233,15.139669 -3.325732,4.270774 -6.119633,8.456955 -8.262081,12.483109 -1.104068,-0.557705 -2.186042,-1.212939 -3.19258,-1.748551 0.02209,-0.09753 0.02209,-0.09753 0.04419,-0.195058 0.02209,-0.09753 0.02209,-0.09753 0.04419,-0.195058 0.163808,-0.270494 0.252181,-0.660609 0.318461,-0.953196 0.706982,-3.120925 -1.254346,-6.231101 -4.375272,-6.938083 -2.048107,-0.463958 -4.263804,0.264525 -5.756393,1.874549 0,0 0,0 0,0 0,0 0,0 0,0 -0.588955,0.789388 -1.08038,1.600869 -1.301312,2.576158 -0.706983,3.120925 1.254346,6.2311 4.375271,6.938083 2.145636,0.486051 4.263804,-0.264526 5.658864,-1.896643 1.081975,0.655234 2.186042,1.212939 3.268016,1.868174 -6.077634,11.439946 -7.365008,21.196619 -2.632464,25.652293 3.716849,3.507851 10.693151,3.037521 19.377599,-1.352284 6.11904,-3.022803 12.591572,-7.60607 18.917014,-13.350527 5.279498,0.683295 10.33269,1.007724 14.844895,1.004536 0.04956,1.139098 0.09912,2.278196 0.05116,3.3952 -0.09753,-0.02209 -0.09753,-0.02209 -0.217151,0.05334 -0.09753,-0.02209 -0.09753,-0.02209 -0.217151,0.05334 -0.31468,0.03125 -0.62936,0.0625 -0.966133,0.191277 -1.542151,0.470927 -2.685029,1.442435 -3.428636,2.914525 -0.721514,1.374561 -0.879947,2.97921 -0.386928,4.423831 0.653047,2.096075 2.360601,3.610763 4.430801,3.977183 0,0 0,0 0,0 0,0 0,0 0,0 0.975289,0.22093 1.919329,0.12718 2.810027,-0.18371 1.54215,-0.47093 2.685029,-1.442437 3.428636,-2.914527 0.207995,-0.465551 0.41599,-0.931102 0.526456,-1.418747 0.220932,-0.975289 0.149277,-2.016858 -0.139529,-3.005084 -0.653047,-2.096075 -2.3606,-3.610757 -4.4308,-3.977186 0.04797,-1.117004 0.0205,-2.353631 -0.02906,-3.492729 C 101.29989,85.789447 110.45905,82.019848 111.8951,75.680469 113.35326,69.24356 106.5931,61.970297 95.055633,55.87057 94.980203,55.750948 94.926855,55.533797 94.731797,55.489611 94.558819,55.3479 94.341668,55.401243 94.124517,55.454585 90.240078,53.139172 85.442849,51.232188 80.286753,49.55151 Z M 78.476481,28.122023 c 1.634304,-1.782989 4.422237,-1.869175 6.107697,-0.256964 0.496801,0.522675 0.873979,1.120786 1.131536,1.794332 0.182121,0.553924 0.266712,1.085755 0.253775,1.595493 0,0 -0.02209,0.09753 -0.02209,0.09753 -0.02209,0.09753 -0.04419,0.195058 -0.06628,0.292587 -0.02209,0.09753 -0.04419,0.195058 -0.06628,0.292587 -0.02209,0.09753 -0.02209,0.09753 -0.04419,0.195057 -0.02209,0.09753 -0.06628,0.292587 -0.08837,0.390116 0,0 0,0 -0.02209,0.09753 -0.230088,0.56308 -0.535612,1.006539 -0.841136,1.449997 -1.634304,1.782989 -4.422237,1.869174 -6.107697,0.256963 -0.421365,-0.403052 -0.745201,-0.784012 -0.927322,-1.337936 -0.838949,-1.728053 -0.516707,-3.603195 0.692452,-4.86729 z m -50.684343,44.50188 c -2.340695,-0.530237 -3.773973,-2.803057 -3.243736,-5.143751 0.154652,-0.682702 0.504363,-1.321218 0.951602,-1.937641 1.089536,-1.18866 2.65378,-1.757115 4.214243,-1.403624 2.340694,0.530237 3.773972,2.803058 3.243735,5.143752 -0.132559,0.585173 -0.340554,1.050725 -0.646078,1.494183 -0.960758,1.525432 -2.764246,2.244759 -4.519766,1.847081 z m 63.864131,21.336886 c 0.70639,2.313226 -0.550736,4.694326 -2.863962,5.400715 -0.673546,0.257557 -1.400435,0.297962 -2.083137,0.14331 -1.560463,-0.353492 -2.846651,-1.465121 -3.317578,-3.007272 -0.364241,-1.107848 -0.196652,-2.300288 0.33896,-3.306827 0.535612,-1.006538 1.439247,-1.827175 2.525002,-2.093888 0.553924,-0.18212 1.085755,-0.266712 1.5734,-0.156246 1.724271,0.083 3.280953,1.358436 3.827315,3.020208 z m 1.737578,-37.543852 c -2.076169,3.733568 -4.564546,7.476291 -7.367603,11.250264 -0.693453,-2.822964 -1.386906,-5.645928 -2.275416,-8.513078 -0.835168,-2.649999 -1.767865,-5.322091 -2.744748,-7.799125 4.570922,1.548118 8.707542,3.202922 12.387767,5.061939 z M 62.127692,81.734868 c -3.218454,-0.729076 -6.317286,-1.533588 -9.274403,-2.511064 -1.256533,-3.053052 -2.393444,-6.181539 -3.313203,-9.363369 -0.941853,-3.084301 -1.808271,-6.04898 -2.457537,-9.067002 1.908579,-2.541127 3.990123,-4.940538 6.288817,-7.393292 2.179073,-2.377319 4.553203,-4.710451 6.883147,-6.848525 3.187205,0.414396 6.330224,1.023849 9.548678,1.752925 3.218455,0.729076 6.414816,1.555681 9.371933,2.533157 1.105661,2.813807 2.167136,5.822673 3.131082,8.809445 1.017289,3.203923 1.817427,6.461189 2.520035,9.696361 -2.006108,2.519034 -3.990122,4.940539 -6.266724,7.295764 -2.179072,2.377319 -4.553203,4.710451 -6.883146,6.848525 -3.067583,-0.489832 -6.232695,-1.001756 -9.548679,-1.752925 z m 16.252669,-32.82028 c -2.686623,-0.813668 -5.39534,-1.529806 -8.321207,-2.192603 -2.828339,-0.640703 -5.678771,-1.183877 -8.453767,-1.607429 3.570351,-3.087489 7.194046,-5.957827 10.68518,-8.242992 2.14345,3.6641 4.198526,7.718315 6.089794,12.043024 z M 44.783038,36.997378 c 0.600891,-8.989379 3.358167,-14.824396 7.550317,-16.13049 5.41962,-1.745772 12.75957,4.325894 19.224948,14.710926 -3.872094,2.609001 -7.854654,5.705646 -11.828059,9.2145 -5.279499,-0.683295 -10.33269,-1.007724 -15.062046,-0.951193 -0.09912,-2.278196 -0.07862,-4.631827 0.11484,-6.843743 z m 0.01931,8.514671 c 4.219618,-0.06947 8.785165,0.144496 13.457397,0.792761 -2.068606,1.889674 -4.061777,3.898969 -5.979512,6.027888 -2.015264,2.106825 -3.857563,4.355365 -5.58024,6.528469 C 45.699425,54.22556 45.08897,49.678325 44.802351,45.512049 Z m 1.124382,16.76263 c 0.64011,2.605813 1.355656,5.331248 2.190824,7.981247 0.888511,2.86715 1.896643,5.658864 2.926869,8.353049 C 46.57103,77.08295 42.336881,75.406053 38.656656,73.547036 40.613202,69.888904 43.004051,66.124088 45.92673,62.274679 Z M 34.822598,98.61953 c -4.160307,-3.813377 -2.57119,-13.091561 3.037112,-23.817555 4.145776,2.067012 8.845476,3.951904 13.904043,5.610488 1.975859,4.85654 4.23515,9.367151 6.724528,13.314681 -2.033576,1.282407 -3.925437,2.391849 -5.87064,3.284141 -8.10843,4.110155 -14.574994,4.593425 -17.795043,1.608245 z m 24.861905,-5.646743 c -2.165543,-3.566571 -4.220619,-7.620786 -6.111887,-11.945495 2.686623,0.813668 5.39534,1.529806 8.223678,2.170509 2.828339,0.640703 5.678771,1.183877 8.453767,1.607429 -3.472823,3.109583 -7.074423,5.882392 -10.565558,8.167557 z m 13.986632,-9.238188 c 2.068607,-1.889674 4.061778,-3.89897 5.979513,-6.027888 1.917735,-2.128918 3.83547,-4.257836 5.558147,-6.43094 0.903041,4.613514 1.53559,9.06322 1.724679,13.207402 -4.099995,-0.006 -8.568013,-0.197838 -13.262339,-0.748574 z M 110.6935,75.100675 c -1.25931,5.559149 -9.99332,8.809853 -22.208719,9.32378 -0.273682,-4.676013 -0.990821,-9.65755 -2.000548,-14.705366 3.20611,-4.195338 6.000011,-8.381519 8.284175,-12.580638 10.823522,5.630395 17.206492,12.305547 15.925092,17.962224 z"
       id="path25" /><path
       d="m 23.472396,62.724922 c 0.04419,-0.195058 -0.0092,-0.412209 -0.160028,-0.651453 -0.150871,-0.239244 -0.399272,-0.500582 -0.52805,-0.837355 -0.226307,-0.358866 -0.713952,-0.469332 -1.072818,-0.243025 -0.358866,0.226307 -0.469332,0.713952 -0.243025,1.072818 0.150871,0.239244 0.377178,0.598111 0.625579,0.859448 0.226307,0.358866 0.736045,0.371804 1.094911,0.145496 0.09753,0.02209 0.239244,-0.150871 0.283431,-0.345929 z"
       id="path26" /><path
       d="m 22.294078,51.179292 c 0.248401,0.261338 0.758138,0.274275 1.019476,0.02588 0.403053,-0.421365 0.881541,-0.723108 1.382123,-1.12238 0.119622,-0.07544 0.261337,-0.2484 0.305524,-0.443458 0.04419,-0.195058 -0.0092,-0.412209 -0.0625,-0.62936 -0.226307,-0.358867 -0.713952,-0.469333 -1.094911,-0.145497 -0.598111,0.377179 -1.098692,0.776451 -1.523838,1.295345 -0.261338,0.2484 -0.274275,0.758138 -0.02588,1.019475 z"
       id="path27" /><path
       d="m 37.630992,45.938197 c 0.31468,-0.03125 0.576017,-0.27965 0.642297,-0.572237 0.02209,-0.09753 0.04419,-0.195058 0.06628,-0.292587 -0.0092,-0.412208 -0.452614,-0.717732 -0.886916,-0.611047 -0.62936,0.0625 -1.25872,0.124997 -1.910173,0.285024 -0.434302,0.106685 -0.717733,0.452615 -0.611048,0.886917 0.106685,0.434302 0.452615,0.717733 0.886917,0.611048 0.531831,-0.08459 1.161191,-0.147091 1.812643,-0.307118 z"
       id="path28" /><path
       d="m 19.718922,57.568234 c 0.0625,0.62936 0.222526,1.280813 0.480083,1.954359 0.128778,0.336773 0.594329,0.544768 0.931103,0.41599 0.217151,-0.05334 0.380959,-0.323836 0.425146,-0.518894 0.02209,-0.09753 0.06628,-0.292587 -0.0092,-0.412209 -0.18212,-0.553924 -0.364241,-1.107848 -0.448833,-1.639679 -0.106685,-0.434302 -0.452614,-0.717733 -0.886916,-0.611048 -0.31468,0.03125 -0.598111,0.377179 -0.491426,0.811481 z"
       id="path29" /><path
       d="m 33.039571,46.743709 c 0.314679,-0.03125 0.478488,-0.301743 0.544768,-0.594329 0.02209,-0.09753 0.04419,-0.195058 -0.03125,-0.31468 -0.106685,-0.434302 -0.474707,-0.620204 -0.886916,-0.611048 -0.651453,0.160027 -1.302906,0.320055 -1.856831,0.502176 -0.434302,0.106685 -0.642297,0.572236 -0.513518,0.909009 0.106685,0.434302 0.572236,0.642297 0.909009,0.513519 0.62936,-0.0625 1.280813,-0.222526 1.834738,-0.404647 z"
       id="path30" /><path
       d="m 21.259479,54.841205 c 0.110466,-0.487645 0.340554,-1.050725 0.548549,-1.516276 0.02209,-0.09753 0.02209,-0.09753 0.04419,-0.195058 0.06628,-0.292587 -0.0625,-0.62936 -0.430521,-0.815262 -0.368022,-0.185902 -0.802324,-0.07922 -0.988226,0.288806 -0.34971,0.638516 -0.601892,1.299125 -0.734451,1.884299 0,0 0,0 0,0 -0.08837,0.390115 0.115841,0.846511 0.505957,0.934883 0.607266,0.03503 0.966133,-0.191276 1.054506,-0.581392 z"
       id="path31" /><path
       d="m 26.431291,47.399945 c -0.358866,0.226307 -0.544768,0.594329 -0.340554,1.050725 0.226307,0.358866 0.59433,0.544768 1.050725,0.340554 0.576017,-0.27965 1.032413,-0.483864 1.705959,-0.74142 0.217151,-0.05334 0.38096,-0.323836 0.425146,-0.518894 0.02209,-0.09753 0.06628,-0.292587 -0.0092,-0.412209 -0.128778,-0.336773 -0.59433,-0.544768 -0.931103,-0.41599 -0.771075,0.235463 -1.347093,0.515113 -1.901017,0.697234 z"
       id="path32" /><path
       d="m 41.385058,45.660734 c 0.31468,-0.03125 0.576018,-0.27965 0.642297,-0.572236 0.02209,-0.09753 0.02209,-0.09753 0.04419,-0.195058 -0.0092,-0.412209 -0.355086,-0.69564 -0.767295,-0.686484 -0.31468,0.03125 -0.726888,0.04041 -1.041568,0.07165 -0.412209,0.0092 -0.69564,0.355085 -0.686484,0.767294 0.0092,0.412209 0.355085,0.69564 0.767294,0.686484 0.31468,-0.03125 0.62936,-0.0625 1.041569,-0.07165 z"
       id="path33" /><path
       d="m 89.584027,27.972337 c -0.412209,0.0092 -0.717732,0.452614 -0.708576,0.864823 0.0092,0.412209 0.452614,0.717733 0.864823,0.708577 0.31468,-0.03125 0.62936,-0.0625 0.94404,-0.09375 0.31468,-0.03125 0.673546,-0.257556 0.739826,-0.550143 0.02209,-0.09753 0.02209,-0.09753 0.04419,-0.195058 -0.0092,-0.412209 -0.355085,-0.695639 -0.767294,-0.686483 -0.390116,-0.08837 -0.704796,-0.05712 -1.117005,-0.04797 z"
       id="path34" /><path
       d="m 100.15796,44.209697 c 0,0 0,0 0,0 0.0884,-0.390116 -0.11584,-0.846511 -0.505952,-0.934884 -0.390116,-0.08837 -0.846511,0.115841 -0.934884,0.505957 -0.13256,0.585174 -0.265119,1.170347 -0.495207,1.733427 -0.08837,0.390116 0.115841,0.846511 0.505957,0.934884 0.390116,0.08837 0.846511,-0.115841 0.934884,-0.505957 0.110466,-0.487644 0.362652,-1.148253 0.495202,-1.733427 z"
       id="path35" /><path
       d="m 97.310721,48.178728 c -0.230089,0.56308 -0.460177,1.12616 -0.690265,1.68924 -0.185902,0.368023 0.01831,0.824418 0.386335,1.01032 0.368022,0.185902 0.824417,-0.01831 1.010319,-0.386335 0.230088,-0.56308 0.48227,-1.223689 0.712358,-1.78677 0,0 0.02209,-0.09753 0.02209,-0.09753 0.08837,-0.390116 -0.137934,-0.748983 -0.430521,-0.815262 -0.465551,-0.207995 -0.824418,0.01831 -1.010319,0.386335 z"
       id="path36" /><path
       d="m 99.176299,34.964356 c 0.08459,0.531831 0.266712,1.085755 0.329211,1.715115 0.0092,0.412209 0.452614,0.717733 0.76729,0.686484 0.31468,-0.03125 0.57602,-0.27965 0.6423,-0.572237 0.0221,-0.09753 0.0442,-0.195058 0.0442,-0.195058 -0.0404,-0.726889 -0.20044,-1.378342 -0.28503,-1.910173 -0.10668,-0.434302 -0.4747,-0.620204 -0.909007,-0.513519 -0.509737,-0.01294 -0.695639,0.355086 -0.588954,0.789388 z"
       id="path37" /><path
       d="m 98.177322,32.58485 c 0.226308,0.358867 0.713952,0.469333 1.072819,0.243026 0.119622,-0.07544 0.261337,-0.248401 0.305523,-0.443458 0.04419,-0.195058 -0.0092,-0.412209 -0.08459,-0.531831 -0.377179,-0.598111 -0.776451,-1.098693 -1.273251,-1.621368 -0.34593,-0.28343 -0.758139,-0.274274 -1.041569,0.07165 -0.283431,0.345929 -0.274275,0.758138 0.07165,1.041569 0.323836,0.380959 0.647673,0.761919 0.949415,1.240407 z"
       id="path38" /><path
       d="m 99.418731,39.325689 c -0.03503,0.607267 -0.167589,1.19244 -0.20262,1.799707 -0.08837,0.390116 0.235464,0.771075 0.625579,0.859448 0.39012,0.08837 0.77108,-0.235463 0.85945,-0.625579 0,0 0,0 0.0221,-0.09753 0.15465,-0.682702 0.18968,-1.289969 0.22471,-1.897236 -0.009,-0.412209 -0.23546,-0.771075 -0.7452,-0.784012 -0.33677,0.128778 -0.695636,0.355085 -0.784009,0.745201 z"
       id="path39" /><path
       d="m 95.97675,29.625547 c 0,0 0.02209,-0.09753 0.02209,-0.09753 0.08837,-0.390116 -0.137935,-0.748982 -0.430521,-0.815262 -0.465552,-0.207995 -0.855667,-0.296368 -1.343312,-0.406834 -0.195058,-0.04419 -0.390116,-0.08837 -0.585173,-0.132559 -0.390116,-0.08837 -0.771076,0.235463 -0.859449,0.625579 -0.08837,0.390116 0.235464,0.771075 0.625579,0.859448 0.195058,0.04419 0.292587,0.06628 0.487645,0.110466 0.390116,0.08837 0.780231,0.176746 1.148254,0.362647 0.390115,0.08837 0.748982,-0.137934 0.934884,-0.505956 z"
       id="path40" /><path
       d="m 96.955042,52.917239 c 0.06628,-0.292587 -0.04041,-0.726889 -0.430521,-0.815261 -0.368022,-0.185902 -0.824418,0.01831 -1.010319,0.386334 -0.163809,0.270494 -0.230088,0.563081 -0.41599,0.931103 -0.185902,0.368022 0.01831,0.824418 0.386334,1.01032 0.368023,0.185901 0.824418,-0.01831 1.01032,-0.386335 0.163808,-0.270494 0.34971,-0.638516 0.41599,-0.931103 0.02209,-0.09753 0.02209,-0.09753 0.04419,-0.195058 z"
       id="path41" /><path
       d="m 84.283291,103.8769 c -0.185902,0.36802 -0.07922,0.80232 0.288806,0.98822 0.368022,0.1859 0.802324,0.0792 0.988226,-0.2888 0.163808,-0.2705 0.34971,-0.63852 0.41599,-0.93111 0,0 0.02209,-0.0975 0.02209,-0.0975 0.08837,-0.39012 -0.04041,-0.72689 -0.430521,-0.81527 -0.368023,-0.1859 -0.824418,0.0183 -1.01032,0.38634 0.05334,0.21715 -0.110466,0.48764 -0.274274,0.75814 z"
       id="path42" /><path
       d="m 65.445085,103.30069 c 0.399272,0.50059 0.918166,0.92573 1.339531,1.32879 0.345929,0.28343 0.758138,0.27427 1.019475,0.0259 0.119623,-0.0754 0.163809,-0.27049 0.185902,-0.36802 0.06628,-0.29259 0.01294,-0.50974 -0.257556,-0.67355 -0.421365,-0.40305 -0.84273,-0.8061 -1.242002,-1.30669 -0.2484,-0.26133 -0.758138,-0.27427 -1.019476,-0.0259 -0.261337,0.2484 -0.274274,0.75814 -0.02587,1.01947 z"
       id="path43" /><path
       d="m 81.644042,107.38038 c -0.358866,0.2263 -0.371803,0.73604 -0.145496,1.09491 0.226307,0.35886 0.736045,0.3718 1.094911,0.14549 0.500582,-0.39927 1.023257,-0.89607 1.448403,-1.41496 0.04419,-0.19506 0.06628,-0.29259 0.08837,-0.39012 0.06628,-0.29259 -0.08459,-0.53183 -0.235463,-0.77107 -0.345929,-0.28343 -0.780231,-0.17675 -1.041569,0.0717 -0.305523,0.44346 -0.806105,0.84273 -1.209158,1.2641 z"
       id="path44" /><path
       d="m 68.841879,105.50564 c -0.28343,0.34593 -0.176745,0.78023 0.07165,1.04157 0.518894,0.42515 1.037788,0.85029 1.578775,1.17791 0.345929,0.28343 0.780231,0.17675 1.063662,-0.16918 0.02209,-0.0975 0.141715,-0.17297 0.163808,-0.2705 0.06628,-0.29258 -0.0625,-0.62936 -0.332992,-0.79317 -0.443458,-0.30552 -0.962352,-0.73067 -1.503339,-1.05828 -0.345929,-0.28343 -0.780231,-0.17675 -1.041569,0.0717 z"
       id="path45" /><path
       d="m 77.842008,108.77484 c -0.412209,0.009 -0.695639,0.35509 -0.686483,0.7673 0.0092,0.41221 0.355085,0.69564 0.767294,0.68648 0.726889,-0.0404 1.356249,-0.1029 2.029795,-0.36046 0.217151,-0.0533 0.478489,-0.30174 0.544768,-0.59433 0.02209,-0.0975 0.06628,-0.29259 -0.0092,-0.41221 -0.106685,-0.4343 -0.572236,-0.6423 -0.909009,-0.51352 -0.69564,0.35509 -1.227471,0.43968 -1.737209,0.42674 z"
       id="path46" /><path
       d="m 73.02428,109.22149 c 0.660609,0.25218 1.223689,0.48227 1.884299,0.73445 0.390115,0.0884 0.846511,-0.11584 0.934883,-0.50596 0,0 0,0 0,0 0.08837,-0.39011 -0.137934,-0.74898 -0.505956,-0.93488 -0.585174,-0.13256 -1.050725,-0.34055 -1.613806,-0.57064 -0.368022,-0.1859 -0.824417,0.0183 -1.010319,0.38633 -0.261338,0.2484 -0.05712,0.7048 0.310899,0.8907 z"
       id="path47" /><path
       d="m 62.357596,99.730343 c 0.399272,0.500587 0.798544,1.001167 1.197815,1.501747 0.226307,0.35886 0.736045,0.3718 1.094912,0.14549 0.119622,-0.0754 0.261337,-0.2484 0.305524,-0.44345 0.04419,-0.19506 -0.0092,-0.41221 -0.160028,-0.65146 -0.399272,-0.500578 -0.798544,-1.00116 -1.100286,-1.479648 -0.226308,-0.358867 -0.736045,-0.371804 -1.094912,-0.145497 -0.358866,0.226307 -0.469332,0.713952 -0.243025,1.072818 z"
       id="path48" /><path
       d="m 61.947574,96.56145 c -0.150871,-0.239244 -0.399272,-0.500581 -0.52805,-0.837354 -0.226307,-0.358867 -0.713952,-0.469333 -1.072818,-0.243026 -0.358866,0.226307 -0.469332,0.713952 -0.243025,1.072818 0.150871,0.239245 0.377178,0.598111 0.52805,0.837355 0.226307,0.358867 0.713951,0.469333 1.072818,0.243026 0.119622,-0.07544 0.261337,-0.248401 0.305524,-0.443459 0.163808,-0.270493 0.110466,-0.487644 -0.0625,-0.62936 z"
       id="path49" /><path
       d="m 74.337304,66.76238 c 1.038381,-4.583859 -1.903612,-9.249122 -6.487471,-10.287503 -4.583859,-1.03838 -9.249122,1.903612 -10.287503,6.487472 -1.038381,4.583859 1.903612,9.249122 6.487471,10.287503 4.703482,0.962945 9.249123,-1.903613 10.287503,-6.487472 z M 59.122793,63.31584 c 0.861635,-3.803628 4.689543,-6.217571 8.493171,-5.355936 3.803628,0.861635 6.21757,4.689543 5.355935,8.493171 -0.861635,3.803628 -4.689543,6.217571 -8.493171,5.355936 -3.879063,-0.981257 -6.21757,-4.689543 -5.355935,-8.493171 z"
       id="path74" /></g></svg>
