<?xml version="1.0" encoding="UTF-8" standalone="no"?>
<!-- Created with Inkscape (http://www.inkscape.org/) -->

<svg
   width="250.84412mm"
   height="52.091759mm"
   viewBox="0 0 250.84411 52.091758"
   version="1.1"
   id="svg1"
   sodipodi:docname="logo.svg"
   inkscape:version="1.3.2 (091e20ef0f, 2023-11-25)"
   xmlns:inkscape="http://www.inkscape.org/namespaces/inkscape"
   xmlns:sodipodi="http://sodipodi.sourceforge.net/DTD/sodipodi-0.dtd"
   xmlns="http://www.w3.org/2000/svg"
   xmlns:svg="http://www.w3.org/2000/svg">
  <sodipodi:namedview
     id="namedview1"
     pagecolor="#ffffff"
     bordercolor="#000000"
     borderopacity="0.25"
     inkscape:showpageshadow="2"
     inkscape:pageopacity="0.0"
     inkscape:pagecheckerboard="0"
     inkscape:deskcolor="#d1d1d1"
     inkscape:document-units="mm"
     inkscape:zoom="2.1401323"
     inkscape:cx="474.03613"
     inkscape:cy="98.358407"
     inkscape:window-width="2560"
     inkscape:window-height="1371"
     inkscape:window-x="0"
     inkscape:window-y="0"
     inkscape:window-maximized="1"
     inkscape:current-layer="g11" />
  <defs
     id="defs1" />
  <g
     id="layer1"
     transform="translate(26.358303,-108.1275)"
     style="opacity:1">
    <g
       id="g11"
       transform="matrix(0.26458333,0,0,0.26458333,53.900327,137.0968)">
      <path
         style="font-size:192px;font-family:MuseoModerno;-inkscape-font-specification:'MuseoModerno, Normal';letter-spacing:25.3932px;fill:#000000;fill-opacity:1;stroke-width:2.64788"
         d="m 540.35298,37.359703 v -56.64 q 0,-13.056 5.76,-22.848 5.952,-9.792 16.32,-15.168 10.368,-5.568 23.616,-5.568 13.44,0 23.616,5.568 10.368,5.376 16.128,15.168 5.952,9.792 5.952,22.848 v 56.64 h -17.664 v -56.448 q 0,-8.832 -4.032,-15.168 -3.84,-6.528 -10.368,-9.984 -6.336,-3.456 -13.632,-3.456 -7.296,0 -13.824,3.456 -6.336,3.456 -10.368,9.984 -3.84,6.336 -3.84,15.168 v 56.448 z"
         id="path19" />
      <path
         style="font-size:192px;font-family:MuseoModerno;-inkscape-font-specification:'MuseoModerno, Normal';letter-spacing:25.3932px;fill:#000000;fill-opacity:1;stroke-width:2.64788"
         d="m 440.84789,39.663703 q -14.976,0 -26.496,-6.72 -11.52,-6.912 -18.24,-18.432 -6.72,-11.7119999 -6.72,-26.112 0,-14.4 6.72,-25.92 6.72,-11.712 18.24,-18.432 11.52,-6.912 26.496,-6.912 14.976,0 26.496,6.912 11.712,6.72 18.24,18.24 6.72,11.52 6.72,26.112 0,14.4000001 -6.72,26.112 -6.528,11.52 -18.24,18.432 -11.52,6.72 -26.496,6.72 z m 0,-15.168 q 10.176,0 17.664,-4.8 7.488,-4.8 11.712,-12.8639999 4.224,-8.256 4.224,-18.4320001 0,-10.176 -4.224,-18.24 -4.224,-8.256 -11.712,-13.056 -7.488,-4.8 -17.664,-4.8 -9.984,0 -17.664,4.8 -7.488,4.8 -11.712,13.056 -4.224,8.064 -4.224,18.24 0,10.1760001 4.224,18.4320001 4.224,8.0639999 11.712,12.8639999 7.68,4.8 17.664,4.8 z"
         id="path18" />
      <path
         style="font-size:192px;font-family:MuseoModerno;-inkscape-font-specification:'MuseoModerno, Normal';letter-spacing:25.3932px;fill:#000000;fill-opacity:1;stroke-width:2.64788"
         d="m 305.05456,37.359703 v -70.08 q 0,-13.056 7.296,-20.352 7.488,-7.488 20.544,-7.488 h 20.16 v 15.168 h -16.896 q -6.336,0 -9.984,3.648 -3.456,3.648 -3.456,10.176 v 68.928 z"
         id="path17" />
      <path
         style="font-size:192px;font-family:MuseoModerno;-inkscape-font-specification:'MuseoModerno, Normal';letter-spacing:25.3932px;fill:#000000;fill-opacity:1;stroke-width:2.64788"
         d="m 235.50145,37.359703 q -13.056,0 -20.544,-7.488 -7.296,-7.488 -7.296,-20.3519999 V -85.136297 h 17.664 V 8.3677031 q 0,6.3359999 3.456,10.1759999 3.648,3.648 9.984,3.648 h 19.776 v 15.168 z m -44.736,-82.752 v -15.168 h 68.16 v 15.168 z"
         id="path16" />
      <path
         style="font-size:192px;font-family:MuseoModerno;-inkscape-font-specification:'MuseoModerno, Normal';letter-spacing:25.3932px;fill:#d40000;fill-opacity:1;stroke-width:2.64788"
         d="m 140.02807,-76.112297 q -4.8,0 -8.448,-3.456 -3.456,-3.648 -3.456,-8.448 0,-4.8 3.456,-8.256 3.648,-3.648 8.448,-3.648 4.8,0 8.256,3.648 3.648,3.456 3.648,8.256 0,4.8 -3.648,8.448 -3.456,3.456 -8.256,3.456 z"
         id="path15" />
      <path
         style="font-size:192px;font-family:MuseoModerno;-inkscape-font-specification:'MuseoModerno, Normal';letter-spacing:25.3932px;fill:#000000;fill-opacity:1;stroke-width:2.64788"
         d="m 131.00407,37.359703 v -97.92 h 17.856 v 97.92 z"
         id="path14" />
      <path
         style="font-size:192px;font-family:MuseoModerno;-inkscape-font-specification:'MuseoModerno, Normal';letter-spacing:25.3932px;fill:#000000;fill-opacity:1;stroke-width:2.64788"
         d="m 3.0827971,37.359703 v -15.168 H 49.930797 q 4.608,0 7.872,-1.92 3.456,-2.112 5.184,-5.376 1.728,-3.264 1.728,-6.9119999 0,-3.456 -1.536,-6.336 -1.536,-3.072 -4.8,-4.8 -3.072,-1.92 -7.488,-1.92 h -19.776 q -9.408,0 -16.512,-3.072 -6.9119999,-3.2640001 -10.9439999,-9.4080001 -3.83999998,-6.144 -3.83999998,-14.976 0,-7.488 3.64799998,-13.824 3.648,-6.336 10.1759999,-10.176 6.528,-4.032 14.976,-4.032 h 45.12 v 15.168 h -43.392 q -5.952,0 -9.408,3.648 -3.456,3.648 -3.456,8.64 0,4.8 3.456,8.448 3.648,3.456 10.176,3.456 h 18.816 q 10.56,0 17.664,3.456 7.296,3.264 10.944,9.6000001 3.84,6.336 3.84,15.552 0,7.8719999 -3.84,14.7839999 -3.84,6.72 -10.752,10.944 -6.72,4.224 -15.744,4.224 z"
         id="path13" />
      <path
         style="font-size:192px;font-family:MuseoModerno;-inkscape-font-specification:'MuseoModerno, Normal';letter-spacing:25.3932px;fill:#000000;fill-opacity:1;stroke-width:2.64788"
         d="m -95.078301,39.663703 q -14.975999,0 -26.495999,-6.72 -11.52,-6.912 -18.24,-18.432 -6.72,-11.7119999 -6.72,-26.112 0,-14.4 6.72,-25.92 6.72,-11.712 18.24,-18.432 11.52,-6.912 26.495999,-6.912 14.976,0 26.496,6.912 11.712,6.72 18.24,18.24 6.72,11.52 6.72,26.112 0,14.4000001 -6.72,26.112 -6.528,11.52 -18.24,18.432 -11.52,6.72 -26.496,6.72 z m 0,-15.168 q 10.176,0 17.664,-4.8 7.488,-4.8 11.712,-12.8639999 4.224,-8.256 4.224,-18.4320001 0,-10.176 -4.224,-18.24 -4.224,-8.256 -11.712,-13.056 -7.488,-4.8 -17.664,-4.8 -9.983999,0 -17.663999,4.8 -7.488,4.8 -11.712,13.056 -4.224,8.064 -4.224,18.24 0,10.1760001 4.224,18.4320001 4.224,8.0639999 11.712,12.8639999 7.68,4.8 17.663999,4.8 z"
         id="path12" />
      <path
         style="font-size:192px;font-family:MuseoModerno;-inkscape-font-specification:'MuseoModerno, Normal';letter-spacing:25.3932px;fill:#000000;fill-opacity:1;stroke-width:2.64788"
         d="m -239.70349,-62.864297 q 11.136,0 20.352,3.648 9.216,3.456 15.936,10.368 6.72,6.912 10.368,16.704 3.84,9.6 3.84,21.696 0,15.1680001 -6.336,26.496 -6.144,11.328 -16.896,17.472 -10.752,6.144 -24.384,6.144 -7.488,0 -14.4,-2.496 -6.72,-2.496 -12.096,-6.912 -5.184,-4.608 -8.448,-10.368 h -0.384 v 59.712 h -17.664 v -90.624 q 0,-16.512 6.528,-28.032 6.72,-11.52 18.048,-17.664 11.328,-6.144 25.536,-6.144 z m 0,15.168 q -8.832,0 -16.32,4.416 -7.296,4.416 -11.712,12.48 -4.224,8.064 -4.224,19.008 0,11.13600006 4.224,19.3920001 4.416,8.0639999 11.712,12.4799999 7.488,4.416 16.512,4.416 9.216,0 16.512,-4.608 7.296,-4.608 11.52,-12.6719999 4.416,-8.06400004 4.416,-18.8160001 0,-11.136 -4.416,-19.2 -4.416,-8.064 -11.904,-12.48 -7.296,-4.416 -16.32,-4.416 z"
         id="text10" />
    </g>
  </g>
</svg>
