<?xml version="1.0" encoding="UTF-8" standalone="no"?>
<svg
   id="logo"
   viewBox="0 0 478.68756 55.75613"
   version="1.1"
   sodipodi:docname="ansible.svg"
   width="478.68756"
   height="55.75613"
   inkscape:version="1.3.2 (091e20ef0f, 2023-11-25)"
   xmlns:inkscape="http://www.inkscape.org/namespaces/inkscape"
   xmlns:sodipodi="http://sodipodi.sourceforge.net/DTD/sodipodi-0.dtd"
   xmlns="http://www.w3.org/2000/svg"
   xmlns:svg="http://www.w3.org/2000/svg"
   xmlns:rdf="http://www.w3.org/1999/02/22-rdf-syntax-ns#"
   xmlns:cc="http://creativecommons.org/ns#"
   xmlns:dc="http://purl.org/dc/elements/1.1/">
  <sodipodi:namedview
     id="namedview6"
     pagecolor="#ffffff"
     bordercolor="#000000"
     borderopacity="0.25"
     inkscape:showpageshadow="2"
     inkscape:pageopacity="0.0"
     inkscape:pagecheckerboard="0"
     inkscape:deskcolor="#d1d1d1"
     inkscape:zoom="3.295"
     inkscape:cx="239.30197"
     inkscape:cy="32.3217"
     inkscape:window-width="2560"
     inkscape:window-height="1371"
     inkscape:window-x="0"
     inkscape:window-y="0"
     inkscape:window-maximized="1"
     inkscape:current-layer="logo" />
  <defs
     id="defs1">
    <style
       id="style1">.cls-1{fill:#161b1f;}</style>
  </defs>
  <title
     id="title1">Ansible-Wordmark-RGB</title>
  <path
     class="cls-1"
     d="m 126.05226,55.26938 a 3.43056,3.43056 0 0 1 -2.87092,-1.21825 L 90.5984,13.47307 V 54.86329 H 83.16803 V 3.89708 a 3.76836,3.76836 0 0 1 3.80207,-3.65286 3.46193,3.46193 0 0 1 2.95024,1.29946 l 32.49984,40.49684 V 0.81276 h 7.43037 v 50.885 a 3.64592,3.64592 0 0 1 -3.79828,3.57164"
     id="path1" />
  <path
     class="cls-1"
     d="m 187.50902,55.75612 a 67.66519,67.66519 0 0 1 -22.45543,-4.05705 l 1.77353,-5.84381 a 73.16883,73.16883 0 0 0 20.6819,3.49042 c 9.37012,0 14.26577,-3.16556 14.26577,-7.62869 0,-4.05894 -3.80018,-6.08746 -16.88359,-11.93128 C 171.80779,23.94189 166.65903,20.20971 166.65903,12.904 166.65903,3.736 174.08751,0 188.09831,0 a 87.83016,87.83016 0 0 1 19.92451,2.59893 l -1.18238,6.00436 a 89.36194,89.36194 0 0 0 -18.57215,-2.191 c -9.87442,0 -13.92768,1.78487 -13.92768,6.2499 0,4.38192 2.954,6.248 16.7986,12.33547 14.60387,6.41233 18.31716,9.6591 18.31716,16.31131 0,9.6591 -9.62511,14.4471 -21.94735,14.4471"
     id="path2" />
  <rect
     class="cls-1"
     x="244.65919"
     y="0.81216842"
     width="7.6796799"
     height="54.05056"
     id="rect2" />
  <path
     class="cls-1"
     d="m 317.68119,30.35366 h -19.08023 v 18.3436 h 19.08023 c 6.4992,0 10.4656,-3.89651 10.4656,-9.33424 0,-5.11287 -4.13448,-9.00937 -10.4656,-9.00937 M 313.96411,6.98028 h -15.36315 v 17.28779 h 15.36316 c 6.163,0 10.63749,-3.73408 10.63749,-8.92816 0,-5.11286 -3.88328,-8.35964 -10.63749,-8.35964 m 3.8002,47.88377 h -22.95975 a 3.73386,3.73386 0 0 1 -3.88328,-3.65286 V 4.46635 a 3.78454,3.78454 0 0 1 3.88328,-3.65286 h 18.99334 c 11.648,0 18.57026,5.43773 18.57026,13.95981 0,4.62368 -2.87092,8.92627 -7.26227,11.44209 6.503,1.86609 10.89059,6.979 10.89059,13.14764 0,8.6014 -7.5116,15.501 -18.23217,15.501"
     id="path3" />
  <path
     class="cls-1"
     d="M 372.88713,54.86406 A 3.76545,3.76545 0 0 1 369.09071,51.2112 V 0.81349 h 7.6797 v 47.47769 h 30.5582 v 6.57287 h -34.44148 z"
     id="path4" />
  <path
     class="cls-1"
     d="m 459.69232,55.75612 c -15.70124,0 -25.15636,-5.51895 -25.15636,-16.63617 0,-5.2753 3.12589,-10.30695 9.202,-12.66034 -4.89565,-2.92191 -7.42661,-7.06206 -7.42661,-11.60641 0,-10.0633 8.18965,-14.85319 23.55093,-14.85319 a 95.987,95.987 0 0 1 18.48714,1.868 l -0.84426,6.00436 A 121.21837,121.21837 0 0 0 459.27109,6.33303 c -9.96131,0 -15.28,2.59515 -15.28,8.84505 0,4.95043 4.89755,8.84694 11.39863,8.84694 h 13.16654 a 3.12831,3.12831 0 1 1 0,6.248 h -14.17892 c -7.43035,0 -12.156,3.48853 -12.156,8.84694 0,7.87234 7.68155,10.22573 17.30477,10.22573 a 89.05215,89.05215 0 0 0 18.06219,-1.94731 l 1.09926,5.92314 a 78.75064,78.75064 0 0 1 -18.99521,2.43461"
     id="path5" />
  <path
     class="cls-1"
     d="M 26.00441,10.9497 39.45803,42.87158 19.14067,27.48388 Z M 49.90474,50.2264 29.21341,2.3464 A 3.34511,3.34511 0 0 0 26.00441,0.23666 3.45329,3.45329 0 0 0 22.7142,2.3464 L 0,54.86329 h 7.76846 l 8.99237,-21.65082 26.82979,20.83866 a 4.44562,4.44562 0 0 0 2.87091,1.21825 3.64559,3.64559 0 0 0 3.79829,-3.56975 4.62448,4.62448 0 0 0 -0.35509,-1.47323"
     id="path6" />
  <metadata
     id="metadata6">
    <rdf:RDF>
      <cc:Work
         rdf:about="">
        <dc:title>Ansible-Wordmark-RGB</dc:title>
      </cc:Work>
    </rdf:RDF>
  </metadata>
</svg>
