<?xml version="1.0" encoding="UTF-8" standalone="no"?>
<!-- Created with Inkscape (http://www.inkscape.org/) -->

<svg
   width="173.57773mm"
   height="36.782982mm"
   viewBox="0 0 173.57773 36.782982"
   version="1.1"
   id="svg1"
   xml:space="preserve"
   inkscape:version="1.3.2 (091e20ef0f, 2023-11-25)"
   sodipodi:docname="htmx.svg"
   xmlns:inkscape="http://www.inkscape.org/namespaces/inkscape"
   xmlns:sodipodi="http://sodipodi.sourceforge.net/DTD/sodipodi-0.dtd"
   xmlns="http://www.w3.org/2000/svg"
   xmlns:svg="http://www.w3.org/2000/svg"><sodipodi:namedview
     id="namedview1"
     pagecolor="#ffffff"
     bordercolor="#000000"
     borderopacity="0.25"
     inkscape:showpageshadow="2"
     inkscape:pageopacity="0.0"
     inkscape:pagecheckerboard="0"
     inkscape:deskcolor="#d1d1d1"
     inkscape:document-units="mm"
     showgrid="false"
     inkscape:zoom="1.6577393"
     inkscape:cx="429.50058"
     inkscape:cy="69.069967"
     inkscape:window-width="2560"
     inkscape:window-height="1371"
     inkscape:window-x="0"
     inkscape:window-y="0"
     inkscape:window-maximized="1"
     inkscape:current-layer="text1" /><defs
     id="defs1" /><g
     inkscape:label="Layer 1"
     inkscape:groupmode="layer"
     id="layer1"
     transform="translate(-4.2897928,-118.66431)"><g
       id="text1"
       style="font-weight:bold;font-size:6.35px;font-family:Cantarell;-inkscape-font-specification:'Cantarell, Bold';fill:#d40000;stroke-width:0.264583"
       aria-label="&lt;/&gt; htmx"><path
         style="fill:#1a1a1a;stroke-width:1.79464"
         d="m 22.379785,124.95272 -18.0899922,9.90643 v 4.52251 l 18.0899922,10.33713 v -6.03 l -12.059995,-6.67606 12.059995,-6.46071 z"
         id="path5" /><path
         style="fill:#3d72d7;stroke-width:1.79464"
         d="m 26.643863,155.44729 h 5.039354 l 9.518782,-36.78298 h -5.426998 z"
         id="path6" /><path
         style="fill:#1a1a1a;stroke-width:1.79464"
         d="m 45.466035,149.37423 18.089992,-9.90643 v -4.52251 L 45.466035,124.60816 v 6.03 l 12.059995,6.67606 -12.059995,6.46071 z m 47.636947,1.11985 h 5.513142 v -13.13677 c 0,-5.03936 -2.971927,-8.1405 -7.709784,-8.1405 -2.239713,0 -4.393283,0.73221 -6.116139,2.23971 v -12.79221 h -5.426998 v 31.82977 h 5.426998 v -14.81656 c 1.205999,-1.16293 2.670427,-1.67979 4.220998,-1.67979 2.713498,0 4.091783,1.50749 4.091783,4.35021 z m 19.597468,0.30115 c 1.42135,0 2.97193,-0.30115 4.30713,-0.73221 l -1.11985,-3.91948 c -0.603,0.25842 -1.33521,0.38797 -1.98128,0.38797 -1.98128,0 -3.23035,-1.16293 -3.23035,-2.97193 v -9.60492 h 5.2547 v -4.39329 h -5.2547 v -6.07306 h -5.42701 v 6.07306 h -2.92885 v 4.39329 h 2.92885 v 9.9495 c 0,4.221 2.79964,6.89142 7.45136,6.89142 z m 35.57696,-0.30115 h 5.51312 v -12.92142 c 0,-5.16857 -2.92884,-8.35585 -7.62361,-8.35585 -2.79964,0 -5.42701,1.11986 -7.36522,3.27342 -1.24907,-2.11049 -3.44571,-3.27342 -6.28843,-3.27342 -2.49814,0 -4.86706,0.90449 -6.71913,2.58428 l -0.94758,-2.23972 H 120.884 v 20.93271 h 5.51314 v -15.03193 c 1.206,-0.94756 2.62735,-1.46442 4.17792,-1.46442 2.67044,0 4.00565,1.50749 4.00565,4.35021 v 12.14614 h 5.51313 v -12.92142 c 0,-0.68914 -0.0434,-1.33521 -0.17228,-1.98128 1.24907,-1.03372 2.75658,-1.59365 4.35021,-1.59365 2.67043,0 4.00564,1.50749 4.00564,4.35021 z"
         id="path7" /><path
         style="fill:#3d72d7;stroke-width:1.79464"
         d="m 156.63331,150.49408 h 5.94386 l 4.30713,-6.37457 4.221,6.37457 h 6.28843 l -7.5375,-10.50942 8.01129,-10.42329 h -6.11615 l -4.52249,6.63301 -4.35022,-6.63301 h -6.3315 l 7.75287,10.68171 z"
         id="path8" /></g></g></svg>
