<?xml version="1.0" encoding="UTF-8" standalone="no"?>
<svg
   fill="none"
   height="161"
   viewBox="0 0 695 161"
   width="695"
   version="1.1"
   id="svg1"
   sodipodi:docname="ts.svg"
   inkscape:version="1.3.2 (091e20ef0f, 2023-11-25)"
   xmlns:inkscape="http://www.inkscape.org/namespaces/inkscape"
   xmlns:sodipodi="http://sodipodi.sourceforge.net/DTD/sodipodi-0.dtd"
   xmlns="http://www.w3.org/2000/svg"
   xmlns:svg="http://www.w3.org/2000/svg">
  <defs
     id="defs1" />
  <sodipodi:namedview
     id="namedview1"
     pagecolor="#ffffff"
     bordercolor="#000000"
     borderopacity="0.25"
     inkscape:showpageshadow="2"
     inkscape:pageopacity="0.0"
     inkscape:pagecheckerboard="0"
     inkscape:deskcolor="#d1d1d1"
     inkscape:zoom="1.9613095"
     inkscape:cx="238.87102"
     inkscape:cy="51.241275"
     inkscape:window-width="2560"
     inkscape:window-height="1371"
     inkscape:window-x="0"
     inkscape:window-y="0"
     inkscape:window-maximized="1"
     inkscape:current-layer="svg1" />
  <path
     clip-rule="evenodd"
     d="m 350,116.697 v -9.373 c 8.556,5.419 17.222,8.128 26,8.128 9.333,0 16.417,-1.921 21.25,-5.764 4.833,-3.843 7.25,-9.22 7.25,-16.132 0,-6.082 -1.625,-10.934 -4.875,-14.556 -3.134,-3.492 -9.793,-8.205 -19.979,-14.14 L 378.5,64.196 c -12.111,-7.023 -19.778,-12.898 -23,-17.625 -3.222,-4.728 -4.833,-10.188 -4.833,-16.381 0,-8.4045 3.277,-15.5372 9.833,-21.3984 C 367.056,2.9305 375.806,0 386.75,0 c 7.111,0 14.222,1.1888 21.333,3.5664 v 8.6258 c -7,-3.1518 -14.472,-4.7276 -22.416,-4.7276 -8.111,0 -14.542,2.0458 -19.292,6.1376 -4.75,4.0917 -7.125,9.2892 -7.125,15.5928 0,6.082 1.625,10.92 4.875,14.514 3.25,3.594 10.264,8.488 21.042,14.681 11.166,6.303 18.597,11.902 22.291,16.795 3.695,4.894 5.542,10.52 5.542,16.878 0,9.124 -3.181,16.561 -9.542,22.311 -6.361,5.751 -15.347,8.626 -26.958,8.626 -4.111,0 -8.847,-0.636 -14.208,-1.908 -5.361,-1.271 -9.459,-2.737 -12.292,-4.395 z M 53.828,18.7629 H 88 V 2 H 0 V 18.7629 H 34.089 V 121 H 53.828 Z M 119.5,134.606 158,36 h -19.5 l -21.333,61.919 c -0.506,1.898 -0.903,3.443 -1.19,4.636 l -0.31,1.34 h -0.417 c -0.444,-1.897 -0.798,-3.379 -1.061,-4.445 L 113.75,97.753 93.417,36 H 72 l 33.917,84.827 -5.75,13.945 c -3.556,7.082 -8.945,10.624 -16.167,10.624 -2.5,0 -5.278,-0.498 -8.333,-1.494 v 16.019 c 2.722,0.719 6.111,1.079 10.166,1.079 14.445,0 25.667,-8.798 33.667,-26.394 z m 70.147,-26.2 h -0.333 V 160 H 170 V 35.991 h 19.314 v 14.931 h 0.333 C 196.251,39.64 205.908,34 218.618,34 c 10.822,0 19.258,3.788 25.308,11.364 6.049,7.576 9.074,17.751 9.074,30.525 0,14.157 -3.413,25.493 -10.24,34.01 -6.826,8.516 -16.15,12.774 -27.972,12.774 -10.878,0 -19.258,-4.756 -25.141,-14.267 z M 189,85.889 V 75.411 c 0,-7.26 2.093,-13.31 6.28,-18.151 4.186,-4.84 9.717,-7.26 16.593,-7.26 6.488,0 11.631,2.351 15.429,7.054 3.799,4.703 5.698,11.207 5.698,19.512 0,9.901 -2.038,17.615 -6.113,23.142 -4.076,5.528 -9.69,8.292 -16.844,8.292 -6.099,0 -11.131,-2.145 -15.096,-6.435 C 190.982,97.275 189,92.049 189,85.889 Z M 340,83.73 h -57.606 c 0.221,7.86 2.628,13.92 7.222,18.182 4.594,4.262 10.907,6.393 18.94,6.393 9.024,0 17.304,-2.712 24.842,-8.136 v 15.525 C 325.695,120.565 315.516,123 302.862,123 290.427,123 280.675,119.139 273.605,111.418 266.535,103.697 263,92.835 263,78.832 263,65.604 266.893,54.825 274.678,46.495 282.463,38.165 292.133,34 303.687,34 c 11.554,0 20.495,3.736 26.822,11.208 6.327,7.472 9.491,17.85 9.491,31.133 z M 317.146,53.792 c 3.181,3.861 4.799,9.264 4.854,16.208 h -39 c 0.878,-6.556 3.223,-11.861 7.035,-15.917 3.812,-4.055 8.461,-6.083 13.946,-6.083 5.595,0 9.983,1.931 13.165,5.792 z M 461.907,123 c 8.813,0 16.399,-1.934 22.758,-5.801 v -7.955 c -6.359,4.53 -13.833,6.795 -22.423,6.795 -9.372,0 -16.916,-3.342 -22.633,-10.027 -5.718,-6.685 -8.577,-15.524 -8.577,-26.518 0,-11.38 3.124,-20.647 9.372,-27.802 6.247,-7.154 14.391,-10.731 24.431,-10.731 7.308,0 14.029,1.878 20.165,5.635 V 37.978 C 478.864,35.326 472.533,34 466.007,34 453.4,34 443.081,38.295 435.049,46.886 427.016,55.477 423,66.512 423,79.992 c 0,12.817 3.57,23.189 10.71,31.116 7.14,7.928 16.539,11.892 28.197,11.892 z M 535,43.667 c -2.54,-1.834 -5.521,-2.75 -8.944,-2.75 -6.681,0 -12.284,3.472 -16.812,10.416 -4.527,6.945 -6.791,16.806 -6.791,29.584 V 121 H 495 V 35.667 h 7.453 v 18.916 h 0.332 c 1.932,-6.5 4.996,-11.555 9.192,-15.166 4.196,-3.611 9.055,-5.417 14.576,-5.417 3.147,0 5.963,0.5 8.447,1.5 z m 11.942,-30.5486 c 1.294,1.2544 2.785,1.8816 4.474,1.8816 1.8,0 3.348,-0.6557 4.642,-1.9671 C 557.353,11.7215 558,10.1535 558,8.3289 558,6.3903 557.339,4.8509 556.016,3.7105 554.694,2.5702 553.16,2 551.416,2 549.784,2 548.306,2.5844 546.984,3.7533 545.661,4.9222 545,6.4474 545,8.3289 c 0,1.9387 0.647,3.5351 1.942,4.7895 z M 547,121 V 36 h 8 v 85 z m 33.624,-15.13 h 0.331 c 6.077,11.439 15.469,17.159 28.175,17.159 11.38,0 20.537,-4.38 27.47,-13.139 C 643.533,101.131 647,89.65 647,75.447 647,62.682 643.975,52.582 637.926,45.149 631.877,37.716 623.466,34 612.693,34 c -6.795,0 -13.024,1.699 -18.686,5.098 -5.663,3.399 -10.013,8.22 -13.052,14.465 h -0.331 V 36.072 H 573 V 160 h 7.624 z M 581,74.278 v 10.679 c 0,8.499 2.706,15.797 8.118,21.896 5.412,6.098 12.525,9.147 21.34,9.147 8.76,0 15.873,-3.711 21.341,-11.134 C 637.266,97.443 640,87.689 640,75.603 640,65.007 637.489,56.591 632.468,50.354 627.447,44.118 620.752,41 612.383,41 602.396,41 594.669,44.311 589.201,50.934 583.734,57.556 581,65.338 581,74.278 Z M 683.874,123 c 3.461,0 7.17,-0.938 11.126,-2.814 v -7.119 c -3.626,2.042 -7.005,3.063 -10.137,3.063 -4.396,0 -7.514,-1.311 -9.355,-3.932 -1.84,-2.621 -2.761,-6.856 -2.761,-12.706 V 43.537 H 695 V 36.584 H 672.747 V 12 c -1.209,0.4415 -2.472,0.8553 -3.791,1.2416 -1.319,0.4415 -2.582,0.8829 -3.791,1.3244 V 36.584 H 650 v 6.953 h 15.165 v 56.948 c 0,15.01 6.236,22.515 18.709,22.515 z"
     fill="#3178c6"
     fill-rule="evenodd"
     id="path1" />
</svg>
