<?xml version="1.0" encoding="UTF-8" standalone="no"?>
<svg
   viewBox="0 0 1416.323 1428.1257"
   x="0px"
   y="0px"
   version="1.1"
   id="svg9"
   sodipodi:docname="basket.svg"
   width="1416.323"
   height="1428.1257"
   inkscape:version="1.3.2 (091e20ef0f, 2023-11-25)"
   xmlns:inkscape="http://www.inkscape.org/namespaces/inkscape"
   xmlns:sodipodi="http://sodipodi.sourceforge.net/DTD/sodipodi-0.dtd"
   xmlns="http://www.w3.org/2000/svg"
   xmlns:svg="http://www.w3.org/2000/svg">
  <defs
     id="defs9" />
  <sodipodi:namedview
     id="namedview9"
     pagecolor="#ffffff"
     bordercolor="#000000"
     borderopacity="0.25"
     inkscape:showpageshadow="2"
     inkscape:pageopacity="0.0"
     inkscape:pagecheckerboard="0"
     inkscape:deskcolor="#d1d1d1"
     showgrid="false"
     inkscape:zoom="0.508233"
     inkscape:cx="710.30413"
     inkscape:cy="720.14214"
     inkscape:window-width="1549"
     inkscape:window-height="1216"
     inkscape:window-x="26"
     inkscape:window-y="23"
     inkscape:window-maximized="0"
     inkscape:current-layer="svg9" />
  <path
     style="fill:#d40000;fill-opacity:1;stroke-width:1.9676"
     d="m 895.93339,317.26474 c -62.74546,-0.0559 -120.56193,50.40041 -128.85037,112.62302 -10.2852,61.33386 31.55365,125.38518 90.40913,143.8377 59.36048,20.27828 129.28526,-10.67174 156.40745,-66.7144 27.0451,-50.87601 14.1792,-118.41536 -29.57018,-155.87821 -23.98996,-21.60355 -56.01907,-34.29978 -88.39603,-33.86811 z m 0.59951,74.06943 c 16.76344,-5.11412 7.94907,15.34958 10.09548,24.8525 -3.1295,13.70676 8.55624,25.80252 22.36994,22.36994 9.67258,1.97675 29.72218,-6.42353 24.8525,10.09549 5.11412,16.76344 -15.34958,7.94907 -24.8525,10.09548 -13.70676,-3.1295 -25.80252,8.55624 -22.36994,22.36994 -1.97675,9.67258 6.42353,29.72218 -10.09548,24.8525 -16.76345,5.11412 -7.94908,-15.34958 -10.09549,-24.8525 3.1295,-13.70676 -8.55624,-25.80252 -22.36994,-22.36994 -9.67258,-1.97675 -29.72218,6.42353 -24.8525,-10.09548 -5.11412,-16.76345 15.34958,-7.94908 24.8525,-10.09549 13.70676,3.1295 25.80252,-8.55624 22.36994,-22.36994 2.4878,-9.6401 -7.18606,-30.12607 10.09549,-24.8525 z"
     id="path10" />
  <g
     data-name="Buy-Ecommerce-Online Shopping-Purchase-Online"
     id="g8"
     transform="matrix(23.605384,0,0,23.605384,-47.210768,-47.210768)">
    <rect
       x="8"
       y="6"
       width="2"
       height="2"
       id="rect1" />
    <rect
       x="12"
       y="6"
       width="2"
       height="2"
       id="rect2" />
    <rect
       x="16"
       y="6"
       width="2"
       height="2"
       id="rect3" />
    <rect
       x="19"
       y="37"
       width="2"
       height="8"
       id="rect4" />
    <rect
       x="20.469"
       y="40"
       width="8.0620003"
       height="2"
       transform="rotate(-82.875,24.499895,40.999667)"
       id="rect5" />
    <rect
       x="14.5"
       y="36.969002"
       width="2"
       height="8.0620003"
       transform="rotate(-7.125,15.498739,41.002178)"
       id="rect6" />
    <path
       d="m 24,21 h -1 v -7 h -2 v 8 a 1,1 0 0 0 0.649,0.937 L 20,24.586 18.351,22.937 A 1,1 0 0 0 19,22 v -8 h -2 v 7 h -1 a 1,1 0 0 0 -0.707,1.707 l 4,4 a 1,1 0 0 0 1.414,0 l 4,-4 A 1,1 0 0 0 24,21 Z"
       id="path6" />
    <polygon
       points="37,22 39,22 39,24 41,24 41,22 43,22 43,20 41,20 41,18 39,18 39,20 37,20 "
       id="polygon6" />
    <path
       d="m 40,14 a 7,7 0 1 0 7,7 7.008,7.008 0 0 0 -7,-7 z m 0,12 a 5,5 0 1 1 5,-5 5.006,5.006 0 0 1 -5,5 z"
       id="path7" />
    <path
       d="m 58,46 a 3.989,3.989 0 0 0 -2,0.54 V 7 A 5,5 0 0 0 51,2 H 7 A 5,5 0 0 0 2,7 v 44 a 5,5 0 0 0 5,5 h 22.49 l 3.76,6.5 1.73,-1 -4.31,-7.46 a 2,2 0 1 1 3.46,-2 l 2,3.46 A 1,1 0 0 0 38,55 V 38 a 2,2 0 0 1 4,0 v 14 a 1,1 0 0 0 2,0 v -4 a 2,2 0 0 1 4,0 v 4 a 1,1 0 0 0 2,0 v -3 a 2,2 0 0 1 4,0 v 3 a 1,1 0 0 0 2,0 v -2 a 2,2 0 0 1 4,0 v 12 h 2 V 50 A 4,4 0 0 0 58,46 Z M 36,51.27 35.87,51.04 A 3.989,3.989 0 0 0 28.54,54 H 7 A 3.009,3.009 0 0 1 4,51 V 39.69 a 3.028,3.028 0 0 0 0.81,1.51 3.006,3.006 0 0 0 4.21,0.02 l 0.74,5.21 A 3,3 0 0 0 12.73,49 h 14.54 a 3,3 0 0 0 2.97,-2.58 l 0.74,-5.2 A 2.988,2.988 0 0 0 36,39.7 Z M 10.57,34.02 a 3.969,3.969 0 0 0 1.41,1.41 l -4.35,4.35 a 1,1 0 0 1 -1.41,0.01 0.99,0.99 0 0 1 0,-1.42 z M 8,33 v -2 h 2.14 a 3.57,3.57 0 0 0 -0.11,0.74 L 8.76,33 Z m 6.26,2.97 A 3.971,3.971 0 0 0 16.62,35 h 6.76 a 3.971,3.971 0 0 0 2.36,0.97 l 3.47,3.48 -0.95,6.68 A 1,1 0 0 1 27.27,47 H 12.73 A 1,1 0 0 1 11.74,46.14 L 10.79,39.45 Z M 12,32 a 2,2 0 1 1 2,2 2.006,2.006 0 0 1 -2,-2 z m 5.86,-1 h 4.28 a 3.641,3.641 0 0 0 0,2 h -4.28 a 3.641,3.641 0 0 0 0,-2 z M 24,32 a 2,2 0 1 1 2,2 2.006,2.006 0 0 1 -2,-2 z m 9.78,6.37 a 0.987,0.987 0 0 1 0.01,1.41 1.008,1.008 0 0 1 -1.42,0 l -4.35,-4.35 a 3.969,3.969 0 0 0 1.41,-1.41 z M 29.86,31 H 32 v 2 H 31.24 L 29.97,31.74 A 3.673,3.673 0 0 0 29.86,31 Z M 54,45.54 A 3.989,3.989 0 0 0 52,45 3.94,3.94 0 0 0 49.43,45.94 3.993,3.993 0 0 0 44,44.54 V 38 a 4,4 0 0 0 -8,0 v 0.45 a 3.059,3.059 0 0 0 -0.8,-1.5 L 32.98,34.74 A 2.018,2.018 0 0 0 34,33 v -2 a 2.006,2.006 0 0 0 -2,-2 h -3.38 a 3.932,3.932 0 0 0 -5.24,0 h -6.76 a 3.932,3.932 0 0 0 -5.24,0 H 8 a 2.006,2.006 0 0 0 -2,2 v 2 a 1.99,1.99 0 0 0 1.02,1.73 L 4.8,36.95 A 3.059,3.059 0 0 0 4,38.45 V 12 H 54 Z M 54,10 H 4 V 7 A 3.009,3.009 0 0 1 7,4 h 44 a 3.009,3.009 0 0 1 3,3 z"
       id="path8" />
  </g>
</svg>
