<?xml version="1.0" encoding="UTF-8" standalone="no"?>
<svg
   viewBox="0 0 1416.323 1428.1257"
   x="0px"
   y="0px"
   version="1.1"
   id="svg9"
   sodipodi:docname="basket.svg"
   width="1416.323"
   height="1428.1257"
   inkscape:version="1.3.2 (091e20ef0f, 2023-11-25)"
   xmlns:inkscape="http://www.inkscape.org/namespaces/inkscape"
   xmlns:sodipodi="http://sodipodi.sourceforge.net/DTD/sodipodi-0.dtd"
   xmlns="http://www.w3.org/2000/svg"
   xmlns:svg="http://www.w3.org/2000/svg">
  <defs
     id="defs9">
    <inkscape:path-effect
       effect="fillet_chamfer"
       id="path-effect8"
       is_visible="true"
       lpeversion="1"
       nodesatellites_param="F,0,0,1,0,0,0,1 @ F,0,0,1,0,0,0,1 @ F,0,0,1,0,0,0,1 @ F,0,0,1,0,0,0,1 @ F,0,0,1,0,0,0,1 @ F,0,0,1,0,0,0,1 @ F,0,0,1,0,0,0,1 @ F,0,0,1,0,0,0,1 @ F,0,0,1,0,0,0,1 @ F,0,0,1,0,0,0,1 @ F,0,0,1,0,0,0,1 @ F,0,0,1,0,0,0,1 @ F,0,0,1,0,0,0,1 @ F,0,0,1,0,0,0,1 @ F,0,0,1,0,0,0,1 @ F,0,0,1,0,0,0,1 @ F,0,0,1,0,0,0,1 @ F,0,0,1,0,0,0,1 @ F,0,0,1,0,0,0,1 @ F,0,0,1,0,0,0,1 @ F,0,0,1,0,0,0,1 @ F,0,0,1,0,0,0,1 @ F,0,0,1,0,0,0,1 @ F,0,0,1,0,0,0,1 @ F,0,0,1,0,0,0,1 @ F,0,0,1,0,0,0,1 @ F,0,0,1,0,0,0,1 @ F,0,0,1,0,0,0,1 @ F,0,0,1,0,0,0,1 @ F,0,0,1,0,0,0,1 @ F,0,0,1,0,0,0,1 @ F,0,0,1,0,0,0,1 @ F,0,0,1,0,0,0,1 @ F,0,0,1,0,0,0,1 @ F,0,0,1,0,0,0,1 @ F,0,0,1,0,0,0,1 @ F,0,0,1,0,0,0,1 @ F,0,0,1,0,0,0,1 | F,0,0,1,0,0,0,1 @ F,0,0,1,0,0,0,1 @ F,0,0,1,0,0,0,1 @ F,0,0,1,0,0,0,1 @ F,0,0,1,0,0,0,1 @ F,0,0,1,0,0,0,1 @ F,0,0,1,0,0,0,1 | F,0,0,1,0,0,0,1 @ F,0,0,1,0,0,0,1 @ F,0,0,1,0,0,0,1 @ F,0,0,1,0,0,0,1 @ F,0,0,1,0,0,0,1 @ F,0,0,1,0,0,0,1 @ F,0,0,1,0,0,0,1 @ F,0,0,1,0,0,0,1 @ F,0,0,1,0,0,0,1 @ F,0,0,1,0,0,0,1 @ F,0,0,1,0,0,0,1 @ F,0,0,1,0,0,0,1 @ F,0,0,1,0,0,0,1 @ F,0,0,1,0,0,0,1 @ F,0,0,1,0,0,0,1 @ F,0,0,1,0,0,0,1 @ F,0,0,1,0,0,0,1 @ F,0,0,1,0,0,0,1 @ F,0,0,1,0,0,0,1 @ F,0,0,1,0,0,0,1 @ F,0,0,1,0,0,0,1 @ F,0,0,1,0,0,0,1 @ F,0,0,1,0,0,0,1 @ F,0,0,1,0,0,0,1 @ F,0,0,1,0,0,0,1 | F,0,0,1,0,0,0,1 @ F,0,0,1,0,0,0,1 @ F,0,0,1,0,0,0,1 @ F,0,0,1,0,0,0,1 | F,0,0,1,0,0,0,1 @ F,0,0,1,0,0,0,1 @ F,0,0,1,0,0,0,1 | F,0,0,1,0,0,0,1 @ F,0,0,1,0,0,0,1 @ F,0,0,1,0,0,0,1 @ F,0,0,1,0,0,0,1 @ F,0,0,1,0,0,0,1 @ F,0,0,1,0,0,0,1 | F,0,0,1,0,0,0,1 @ F,0,0,1,0,0,0,1 @ F,0,0,1,0,0,0,1 @ F,0,0,1,0,0,0,1 @ F,0,0,1,0,0,0,1 | F,0,0,1,0,0,0,1 @ F,0,0,1,0,0,0,1 @ F,0,0,1,0,0,0,1 @ F,0,0,1,0,0,0,1 @ F,0,0,1,0,0,0,1 @ F,0,0,1,0,0,0,1 | F,0,0,1,0,0,0,1 @ F,0,0,1,0,0,0,1 @ F,0,0,1,0,0,0,1 @ F,0,0,1,0,0,0,1 @ F,0,0,1,0,0,0,1 @ F,0,0,1,0,0,0,1 | F,0,0,1,0,0,0,1 @ F,0,0,1,0,0,0,1 @ F,0,0,1,0,0,0,1 @ F,0,0,1,0,0,0,1 @ F,0,0,1,0,0,0,1 @ F,0,0,1,0,0,0,1 | F,0,0,1,0,0,0,1 @ F,0,0,1,0,0,0,1 @ F,0,0,1,0,0,0,1 @ F,0,0,1,0,0,0,1 @ F,0,0,1,0,0,0,1 @ F,0,0,1,0,0,0,1 @ F,0,0,1,0,0,0,1 @ F,0,0,1,0,0,0,1 @ F,0,0,1,0,0,0,1 @ F,0,0,1,0,0,0,1 @ F,0,0,1,0,0,0,1 @ F,0,0,1,0,0,0,1 | F,0,0,1,0,0,0,1 @ F,0,0,1,0,0,0,1 @ F,0,0,1,0,0,0,1 @ F,0,0,1,0,0,0,1 @ F,0,0,1,0,0,0,1 @ F,0,0,1,0,0,0,1 @ F,0,0,1,0,0,0,1 @ F,0,0,1,0,0,0,1 @ F,0,0,1,0,0,0,1 @ F,0,0,1,0,0,0,1 @ F,0,0,1,0,0,0,1 @ F,0,0,1,0,0,0,1 @ F,0,0,1,0,0,0,1 @ F,0,0,1,0,0,0,1 @ F,0,0,1,0,0,0,1 @ F,0,0,1,0,0,0,1 @ F,0,0,1,0,0,0,1 @ F,0,0,1,0,0,0,1 @ F,0,0,1,0,0,0,1 @ F,0,0,1,0,0,0,1"
       radius="0"
       unit="px"
       method="auto"
       mode="F"
       chamfer_steps="1"
       flexible="false"
       use_knot_distance="true"
       apply_no_radius="true"
       apply_with_radius="true"
       only_selected="false"
       hide_knots="false" />
    <inkscape:path-effect
       effect="fillet_chamfer"
       id="path-effect7"
       is_visible="true"
       lpeversion="1"
       nodesatellites_param="F,0,0,1,0,0,0,1 @ F,0,0,1,0,0,0,1 @ F,0,0,1,0,0,0,1 @ F,0,0,1,0,0,0,1 @ F,0,0,1,0,0,0,1 @ F,0,0,1,0,0,0,1 @ F,0,0,1,0,0,0,1 @ F,0,0,1,0,0,0,1 @ F,0,0,1,0,0,0,1 @ F,0,0,1,0,0,0,1 @ F,0,0,1,0,0,0,1 @ F,0,0,1,0,0,0,1 @ F,0,0,1,0,0,0,1 @ F,0,0,1,0,0,0,1 @ F,0,0,1,0,0,0,1 @ F,0,0,1,0,0,0,1 @ F,0,0,1,0,0,0,1 @ F,0,0,1,0,0,0,1 @ F,0,0,1,0,0,0,1 @ F,0,0,1,0,0,0,1 @ F,0,0,1,0,0,0,1 @ F,0,0,1,0,0,0,1 @ F,0,0,1,0,0,0,1 @ F,0,0,1,0,0,0,1 @ F,0,0,1,0,0,0,1 @ F,0,0,1,0,0,0,1 @ F,0,0,1,0,0,0,1 @ F,0,0,1,0,0,0,1 @ F,0,0,1,0,0,0,1 @ F,0,0,1,0,0,0,1 @ F,0,0,1,0,0,0,1 @ F,0,0,1,0,0.86797324,0,1 @ F,0,0,1,0,0,0,1 @ F,0,0,1,0,0,0,1 @ F,0,0,1,0,0,0,1 @ F,0,0,1,0,0,0,1 @ F,0,0,1,0,0,0,1 @ F,0,0,1,0,0,0,1 | F,0,0,1,0,0,0,1 @ F,0,0,1,0,0,0,1 @ F,0,0,1,0,0,0,1 @ F,0,0,1,0,0,0,1 @ F,0,0,1,0,0,0,1 @ F,0,0,1,0,0,0,1 @ F,0,0,1,0,0,0,1 | F,0,0,1,0,0,0,1 @ F,0,0,1,0,0,0,1 @ F,0,0,1,0,0,0,1 @ F,0,0,1,0,0,0,1 @ F,0,0,1,0,0,0,1 @ F,0,0,1,0,0,0,1 @ F,0,0,1,0,0,0,1 @ F,0,0,1,0,0,0,1 @ F,0,0,1,0,0,0,1 @ F,0,0,1,0,0,0,1 @ F,0,0,1,0,0,0,1 @ F,0,0,1,0,0,0,1 @ F,0,0,1,0,0,0,1 @ F,0,0,1,0,0,0,1 @ F,0,0,1,0,0,0,1 @ F,0,0,1,0,0,0,1 @ F,0,0,1,0,0,0,1 @ F,0,0,1,0,0,0,1 @ F,0,0,1,0,0,0,1 @ F,0,0,1,0,0,0,1 @ F,0,0,1,0,0,0,1 @ F,0,0,1,0,0,0,1 @ F,0,0,1,0,0,0,1 @ F,0,0,1,0,0,0,1 @ F,0,0,1,0,0,0,1 | F,0,0,1,0,0,0,1 @ F,0,0,1,0,0,0,1 @ F,0,0,1,0,0,0,1 @ F,0,0,1,0,0,0,1 | F,0,0,1,0,0,0,1 @ F,0,0,1,0,0,0,1 @ F,0,0,1,0,0,0,1 | F,0,0,1,0,0,0,1 @ F,0,0,1,0,0,0,1 @ F,0,0,1,0,0,0,1 @ F,0,0,1,0,0,0,1 @ F,0,0,1,0,0,0,1 @ F,0,0,1,0,0,0,1 | F,0,0,1,0,0,0,1 @ F,0,0,1,0,0,0,1 @ F,0,0,1,0,0,0,1 @ F,0,0,1,0,0,0,1 @ F,0,0,1,0,0,0,1 | F,0,0,1,0,0,0,1 @ F,0,0,1,0,0,0,1 @ F,0,0,1,0,0,0,1 @ F,0,0,1,0,0,0,1 @ F,0,0,1,0,0,0,1 @ F,0,0,1,0,0,0,1 | F,0,0,1,0,0,0,1 @ F,0,0,1,0,0,0,1 @ F,0,0,1,0,0,0,1 @ F,0,0,1,0,0,0,1 @ F,0,0,1,0,0,0,1 @ F,0,0,1,0,0,0,1 | F,0,0,1,0,0,0,1 @ F,0,0,1,0,0,0,1 @ F,0,0,1,0,0,0,1 @ F,0,0,1,0,0,0,1 @ F,0,0,1,0,0,0,1 @ F,0,0,1,0,0,0,1 | F,0,0,1,0,0,0,1 @ F,0,0,1,0,0,0,1 @ F,0,0,1,0,0,0,1 @ F,0,0,1,0,0,0,1 @ F,0,0,1,0,0,0,1 @ F,0,0,1,0,0,0,1 @ F,0,0,1,0,0,0,1 @ F,0,0,1,0,0,0,1 @ F,0,0,1,0,0,0,1 @ F,0,0,1,0,0,0,1 @ F,0,0,1,0,0,0,1 @ F,0,0,1,0,0,0,1 | F,0,0,1,0,0,0,1 @ F,0,0,1,0,0,0,1 @ F,0,0,1,0,0,0,1 @ F,0,0,1,0,0,0,1 @ F,0,0,1,0,0,0,1 @ F,0,0,1,0,0,0,1 @ F,0,0,1,0,0,0,1 @ F,0,0,1,0,0,0,1 @ F,0,0,1,0,0,0,1 @ F,0,0,1,0,0,0,1 @ F,0,0,1,0,0,0,1 @ F,0,0,1,0,0,0,1 @ F,0,0,1,0,0,0,1 @ F,0,0,1,0,0,0,1 @ F,0,0,1,0,0,0,1 @ F,0,0,1,0,0,0,1 @ F,0,0,1,0,0,0,1 @ F,0,0,1,0,0,0,1 @ F,0,0,1,0,0,0,1 @ F,0,0,1,0,0,0,1"
       radius="0"
       unit="px"
       method="auto"
       mode="F"
       chamfer_steps="1"
       flexible="false"
       use_knot_distance="true"
       apply_no_radius="true"
       apply_with_radius="true"
       only_selected="false"
       hide_knots="false" />
    <inkscape:path-effect
       effect="fillet_chamfer"
       id="path-effect6"
       is_visible="true"
       lpeversion="1"
       nodesatellites_param="F,0,0,1,0,0,0,1 @ F,0,0,1,0,0,0,1 @ F,0,0,1,0,0,0,1 @ F,0,0,1,0,0,0,1 @ F,0,0,1,0,0,0,1 @ F,0,0,1,0,0,0,1 @ F,0,0,1,0,0,0,1 @ F,0,0,1,0,0,0,1 @ F,0,0,1,0,0,0,1 @ F,0,0,1,0,0,0,1 @ F,0,0,1,0,0,0,1 @ F,0,0,1,0,0,0,1 @ F,0,0,1,0,0,0,1 @ F,0,0,1,0,0,0,1 @ F,0,0,1,0,0,0,1 @ F,0,0,1,0,0,0,1 @ F,0,0,1,0,0,0,1 @ F,0,0,1,0,0,0,1 @ F,0,0,1,0,0,0,1 @ F,0,0,1,0,0,0,1 @ F,0,0,1,0,0,0,1 @ F,0,0,1,0,0,0,1 @ F,0,0,1,0,0,0,1 @ F,0,0,1,0,0,0,1 @ F,0,0,1,0,0,0,1 @ F,0,0,1,0,0,0,1 @ F,0,0,1,0,0,0,1 @ F,0,0,1,0,0,0,1 @ F,0,0,1,0,0,0,1 @ F,0,0,1,0,0,0,1 @ F,0,0,1,0,0,0,1 @ F,0,0,1,0,0,0,1 @ F,0,0,1,0,0,0,1 @ F,0,0,1,0,0,0,1 @ F,0,0,1,0,0,0,1 @ F,0,0,1,0,0,0,1 @ F,0,0,1,0,0,0,1 @ F,0,0,1,0,0,0,1 | F,0,0,1,0,0,0,1 @ F,0,0,1,0,0,0,1 @ F,0,0,1,0,0,0,1 @ F,0,0,1,0,0,0,1 @ F,0,0,1,0,0,0,1 @ F,0,0,1,0,0,0,1 @ F,0,0,1,0,0,0,1 | F,0,0,1,0,0,0,1 @ F,0,0,1,0,0,0,1 @ F,0,0,1,0,0,0,1 @ F,0,0,1,0,0,0,1 @ F,0,0,1,0,0,0,1 @ F,0,0,1,0,0,0,1 @ F,0,0,1,0,0,0,1 @ F,0,0,1,0,0,0,1 @ F,0,0,1,0,0,0,1 @ F,0,0,1,0,0,0,1 @ F,0,0,1,0,0,0,1 @ F,0,0,1,0,0,0,1 @ F,0,0,1,0,0,0,1 @ F,0,0,1,0,0,0,1 @ F,0,0,1,0,0,0,1 @ F,0,0,1,0,0,0,1 @ F,0,0,1,0,0,0,1 @ F,0,0,1,0,0,0,1 @ F,0,0,1,0,0,0,1 @ F,0,0,1,0,0,0,1 @ F,0,0,1,0,0,0,1 @ F,0,0,1,0,0,0,1 @ F,0,0,1,0,0,0,1 @ F,0,0,1,0,0,0,1 @ F,0,0,1,0,0,0,1 | F,0,0,1,0,0,0,1 @ F,0,0,1,0,0,0,1 @ F,0,0,1,0,0,0,1 @ F,0,0,1,0,0,0,1 | F,0,0,1,0,0,0,1 @ F,0,0,1,0,0,0,1 @ F,0,0,1,0,0,0,1 | F,0,0,1,0,0,0,1 @ F,0,0,1,0,0,0,1 @ F,0,0,1,0,0,0,1 @ F,0,0,1,0,0,0,1 @ F,0,0,1,0,0,0,1 @ F,0,0,1,0,0,0,1 | F,0,0,1,0,0,0,1 @ F,0,0,1,0,0,0,1 @ F,0,0,1,0,0,0,1 @ F,0,0,1,0,0,0,1 @ F,0,0,1,0,0,0,1 | F,0,0,1,0,0,0,1 @ F,0,0,1,0,0,0,1 @ F,0,0,1,0,0,0,1 @ F,0,0,1,0,0,0,1 @ F,0,0,1,0,0,0,1 @ F,0,0,1,0,0,0,1 | F,0,0,1,0,0,0,1 @ F,0,0,1,0,0,0,1 @ F,0,0,1,0,0,0,1 @ F,0,0,1,0,0,0,1 @ F,0,0,1,0,0,0,1 @ F,0,0,1,0,0,0,1 | F,0,0,1,0,0,0,1 @ F,0,0,1,0,0,0,1 @ F,0,0,1,0,0,0,1 @ F,0,0,1,0,0,0,1 @ F,0,0,1,0,0,0,1 @ F,0,0,1,0,0,0,1 | F,0,0,1,0,0,0,1 @ F,0,0,1,0,0,0,1 @ F,0,0,1,0,0,0,1 @ F,0,0,1,0,0,0,1 @ F,0,0,1,0,0,0,1 @ F,0,0,1,0,0,0,1 @ F,0,0,1,0,0,0,1 @ F,0,0,1,0,0,0,1 @ F,0,0,1,0,0,0,1 @ F,0,0,1,0,0,0,1 @ F,0,0,1,0,0,0,1 @ F,0,0,1,0,0,0,1 | F,0,0,1,0,0,0,1 @ F,0,0,1,0,0,0,1 @ F,0,0,1,0,0,0,1 @ F,0,0,1,0,0,0,1 @ F,0,0,1,0,0,0,1 @ F,0,0,1,0,0,0,1 @ F,0,0,1,0,0,0,1 @ F,0,0,1,0,0,0,1 @ F,0,0,1,0,0,0,1 @ F,0,0,1,0,0,0,1 @ F,0,0,1,0,0,0,1 @ F,0,0,1,0,0,0,1 @ F,0,0,1,0,0,0,1 @ F,0,0,1,0,0,0,1 @ F,0,0,1,0,0,0,1 @ F,0,0,1,0,0,0,1 @ F,0,0,1,0,0,0,1 @ F,0,0,1,0,0,0,1 @ F,0,0,1,0,0,0,1 @ F,0,0,1,0,0,0,1"
       radius="0"
       unit="px"
       method="auto"
       mode="F"
       chamfer_steps="1"
       flexible="false"
       use_knot_distance="true"
       apply_no_radius="true"
       apply_with_radius="true"
       only_selected="false"
       hide_knots="false" />
    <inkscape:path-effect
       effect="fillet_chamfer"
       id="path-effect5"
       is_visible="true"
       lpeversion="1"
       nodesatellites_param="F,0,0,1,0,0,0,1 @ F,0,0,1,0,0,0,1 @ F,0,0,1,0,0,0,1 @ F,0,0,1,0,0,0,1 @ F,0,0,1,0,0,0,1 @ F,0,0,1,0,0,0,1 @ F,0,0,1,0,0.91881679,0,1 @ F,0,0,1,0,0.99951506,0,1 @ F,0,0,1,0,0,0,1 @ F,0,0,1,0,0,0,1 @ F,0,0,1,0,0,0,1 @ F,0,0,1,0,0,0,1 @ F,0,0,1,0,0,0,1 @ F,0,0,1,0,0,0,1 @ F,0,0,1,0,0,0,1 @ F,0,0,1,0,0,0,1 @ F,0,0,1,0,0,0,1 @ F,0,0,1,0,0,0,1 @ F,0,0,1,0,0,0,1 @ F,0,0,1,0,0,0,1 @ F,0,0,1,0,0,0,1 @ F,0,0,1,0,0,0,1 @ F,0,0,1,0,0,0,1 @ F,0,0,1,0,0,0,1 @ F,0,0,1,0,0,0,1 @ F,0,0,1,0,0,0,1 @ F,0,0,1,0,0,0,1 @ F,0,0,1,0,0,0,1 @ F,0,0,1,0,0,0,1 @ F,0,0,1,0,0,0,1 @ F,0,0,1,0,0,0,1 @ F,0,0,1,0,0,0,1 @ F,0,0,1,0,0,0,1 @ F,0,0,1,0,0,0,1 @ F,0,0,1,0,0,0,1 @ F,0,0,1,0,0,0,1 @ F,0,0,1,0,0,0,1 @ F,0,0,1,0,0,0,1 | F,0,0,1,0,0,0,1 @ F,0,0,1,0,0,0,1 @ F,0,0,1,0,0,0,1 @ F,0,0,1,0,0,0,1 @ F,0,0,1,0,0,0,1 @ F,0,0,1,0,0,0,1 @ F,0,0,1,0,0,0,1 | F,0,0,1,0,0,0,1 @ F,0,0,1,0,0,0,1 @ F,0,0,1,0,0,0,1 @ F,0,0,1,0,0,0,1 @ F,0,0,1,0,0,0,1 @ F,0,0,1,0,0,0,1 @ F,0,0,1,0,0,0,1 @ F,0,0,1,0,0,0,1 @ F,0,0,1,0,0,0,1 @ F,0,0,1,0,0,0,1 @ F,0,0,1,0,0,0,1 @ F,0,0,1,0,0,0,1 @ F,0,0,1,0,0,0,1 @ F,0,0,1,0,0,0,1 @ F,0,0,1,0,0,0,1 @ F,0,0,1,0,0,0,1 @ F,0,0,1,0,0,0,1 @ F,0,0,1,0,0,0,1 @ F,0,0,1,0,0,0,1 @ F,0,0,1,0,0,0,1 @ F,0,0,1,0,0,0,1 @ F,0,0,1,0,0,0,1 @ F,0,0,1,0,0,0,1 @ F,0,0,1,0,0,0,1 @ F,0,0,1,0,0,0,1 | F,0,0,1,0,0,0,1 @ F,0,0,1,0,0,0,1 @ F,0,0,1,0,0,0,1 @ F,0,0,1,0,0,0,1 | F,0,0,1,0,0,0,1 @ F,0,0,1,0,0,0,1 @ F,0,0,1,0,0,0,1 | F,0,0,1,0,0,0,1 @ F,0,0,1,0,0,0,1 @ F,0,0,1,0,0,0,1 @ F,0,0,1,0,0,0,1 @ F,0,0,1,0,0,0,1 @ F,0,0,1,0,0,0,1 | F,0,0,1,0,0,0,1 @ F,0,0,1,0,0,0,1 @ F,0,0,1,0,0,0,1 @ F,0,0,1,0,0,0,1 @ F,0,0,1,0,0,0,1 | F,0,0,1,0,0,0,1 @ F,0,0,1,0,0,0,1 @ F,0,0,1,0,0,0,1 @ F,0,0,1,0,0,0,1 @ F,0,0,1,0,0,0,1 @ F,0,0,1,0,0,0,1 | F,0,0,1,0,0,0,1 @ F,0,0,1,0,0,0,1 @ F,0,0,1,0,0,0,1 @ F,0,0,1,0,0,0,1 @ F,0,0,1,0,0,0,1 @ F,0,0,1,0,0,0,1 | F,0,0,1,0,0,0,1 @ F,0,0,1,0,0,0,1 @ F,0,0,1,0,0,0,1 @ F,0,0,1,0,0,0,1 @ F,0,0,1,0,0,0,1 @ F,0,0,1,0,0,0,1 | F,0,0,1,0,0,0,1 @ F,0,0,1,0,0,0,1 @ F,0,0,1,0,0,0,1 @ F,0,0,1,0,0,0,1 @ F,0,0,1,0,0,0,1 @ F,0,0,1,0,0,0,1 @ F,0,0,1,0,0,0,1 @ F,0,0,1,0,0,0,1 @ F,0,0,1,0,0,0,1 @ F,0,0,1,0,0,0,1 @ F,0,0,1,0,0,0,1 @ F,0,0,1,0,0,0,1 | F,0,0,1,0,0,0,1 @ F,0,0,1,0,0,0,1 @ F,0,0,1,0,0,0,1 @ F,0,0,1,0,0,0,1 @ F,0,0,1,0,0,0,1 @ F,0,0,1,0,0,0,1 @ F,0,0,1,0,0,0,1 @ F,0,0,1,0,0,0,1 @ F,0,0,1,0,0,0,1 @ F,0,0,1,0,0,0,1 @ F,0,0,1,0,0,0,1 @ F,0,0,1,0,0,0,1 @ F,0,0,1,0,0,0,1 @ F,0,0,1,0,0,0,1 @ F,0,0,1,0,0,0,1 @ F,0,0,1,0,0,0,1 @ F,0,0,1,0,0,0,1 @ F,0,0,1,0,0,0,1 @ F,0,0,1,0,0,0,1 @ F,0,0,1,0,0,0,1"
       radius="0"
       unit="px"
       method="auto"
       mode="F"
       chamfer_steps="1"
       flexible="false"
       use_knot_distance="true"
       apply_no_radius="true"
       apply_with_radius="true"
       only_selected="false"
       hide_knots="false" />
    <inkscape:path-effect
       effect="fillet_chamfer"
       id="path-effect4"
       is_visible="true"
       lpeversion="1"
       nodesatellites_param="F,0,0,1,0,0,0,1 @ F,0,0,1,0,0,0,1 @ F,0,0,1,0,0,0,1 @ F,0,0,1,0,0,0,1 @ F,0,0,1,0,0,0,1 @ F,0,0,1,0,0,0,1 @ F,0,0,1,0,0,0,1 @ F,0,0,1,0,0,0,1 @ F,0,0,1,0,0,0,1 @ F,0,0,1,0,0,0,1 @ F,0,0,1,0,0,0,1 @ F,0,0,1,0,0,0,1 @ F,0,0,1,0,0,0,1 @ F,0,0,1,0,0,0,1 @ F,0,0,1,0,0,0,1 @ F,0,0,1,0,0,0,1 @ F,0,0,1,0,0,0,1 @ F,0,0,1,0,0,0,1 @ F,0,0,1,0,0,0,1 @ F,0,0,1,0,0,0,1 @ F,0,0,1,0,0,0,1 @ F,0,0,1,0,0,0,1 @ F,0,0,1,0,0,0,1 @ F,0,0,1,0,0,0,1 @ F,0,0,1,0,0,0,1 @ F,0,0,1,0,0,0,1 @ F,0,0,1,0,0,0,1 @ F,0,0,1,0,0,0,1 @ F,0,0,1,0,0,0,1 @ F,0,0,1,0,0,0,1 @ F,0,0,1,0,0,0,1 @ F,0,0,1,0,0,0,1 @ F,0,0,1,0,0,0,1 @ F,0,0,1,0,0,0,1 @ F,0,0,1,0,0,0,1 @ F,0,0,1,0,0,0,1 @ F,0,0,1,0,0,0,1 @ F,0,0,1,0,0,0,1 | F,0,0,1,0,0,0,1 @ F,0,0,1,0,0,0,1 @ F,0,0,1,0,0,0,1 @ F,0,0,1,0,0,0,1 @ F,0,0,1,0,0,0,1 @ F,0,0,1,0,0,0,1 @ F,0,0,1,0,0,0,1 | F,0,0,1,0,0,0,1 @ F,0,0,1,0,0,0,1 @ F,0,0,1,0,0,0,1 @ F,0,0,1,0,0,0,1 @ F,0,0,1,0,0,0,1 @ F,0,0,1,0,0,0,1 @ F,0,0,1,0,0,0,1 @ F,0,0,1,0,0,0,1 @ F,0,0,1,0,0,0,1 @ F,0,0,1,0,0,0,1 @ F,0,0,1,0,0,0,1 @ F,0,0,1,0,0,0,1 @ F,0,0,1,0,0,0,1 @ F,0,0,1,0,0,0,1 @ F,0,0,1,0,0,0,1 @ F,0,0,1,0,0,0,1 @ F,0,0,1,0,0,0,1 @ F,0,0,1,0,0,0,1 @ F,0,0,1,0,0,0,1 @ F,0,0,1,0,0,0,1 @ F,0,0,1,0,0,0,1 @ F,0,0,1,0,0,0,1 @ F,0,0,1,0,0,0,1 @ F,0,0,1,0,0,0,1 @ F,0,0,1,0,0,0,1 | F,0,0,1,0,0,0,1 @ F,0,0,1,0,0,0,1 @ F,0,0,1,0,0,0,1 @ F,0,0,1,0,0,0,1 | F,0,0,1,0,0,0,1 @ F,0,0,1,0,0,0,1 @ F,0,0,1,0,0,0,1 | F,0,0,1,0,0,0,1 @ F,0,0,1,0,0,0,1 @ F,0,0,1,0,0,0,1 @ F,0,0,1,0,0,0,1 @ F,0,0,1,0,0,0,1 @ F,0,0,1,0,0,0,1 | F,0,0,1,0,0,0,1 @ F,0,0,1,0,0,0,1 @ F,0,0,1,0,0,0,1 @ F,0,0,1,0,0,0,1 @ F,0,0,1,0,0,0,1 | F,0,0,1,0,0,0,1 @ F,0,0,1,0,0,0,1 @ F,0,0,1,0,0,0,1 @ F,0,0,1,0,0,0,1 @ F,0,0,1,0,0,0,1 @ F,0,0,1,0,0,0,1 | F,0,0,1,0,0,0,1 @ F,0,0,1,0,0,0,1 @ F,0,0,1,0,0,0,1 @ F,0,0,1,0,0,0,1 @ F,0,0,1,0,0,0,1 @ F,0,0,1,0,0,0,1 | F,0,0,1,0,0,0,1 @ F,0,0,1,0,0,0,1 @ F,0,0,1,0,0,0,1 @ F,0,0,1,0,0,0,1 @ F,0,0,1,0,0,0,1 @ F,0,0,1,0,0,0,1 | F,0,0,1,0,0,0,1 @ F,0,0,1,0,0,0,1 @ F,0,0,1,0,0,0,1 @ F,0,0,1,0,0,0,1 @ F,0,0,1,0,0,0,1 @ F,0,0,1,0,0,0,1 @ F,0,0,1,0,0,0,1 @ F,0,0,1,0,0,0,1 @ F,0,0,1,0,0,0,1 @ F,0,0,1,0,0,0,1 @ F,0,0,1,0,0,0,1 @ F,0,0,1,0,0,0,1 | F,0,0,1,0,0,0,1 @ F,0,0,1,0,0,0,1 @ F,0,0,1,0,0,0,1 @ F,0,0,1,0,0,0,1 @ F,0,0,1,0,0,0,1 @ F,0,0,1,0,0,0,1 @ F,0,0,1,0,0,0,1 @ F,0,0,1,0,0,0,1 @ F,0,0,1,0,0,0,1 @ F,0,0,1,0,0,0,1 @ F,0,0,1,0,0,0,1 @ F,0,0,1,0,0,0,1 @ F,0,0,1,0,0,0,1 @ F,0,0,1,0,0,0,1 @ F,0,0,1,0,0,0,1 @ F,0,0,1,0,0,0,1 @ F,0,0,1,0,0,0,1 @ F,0,0,1,0,0,0,1 @ F,0,0,1,0,0,0,1 @ F,0,0,1,0,0,0,1"
       radius="0"
       unit="px"
       method="auto"
       mode="F"
       chamfer_steps="1"
       flexible="false"
       use_knot_distance="true"
       apply_no_radius="true"
       apply_with_radius="true"
       only_selected="false"
       hide_knots="false" />
    <inkscape:path-effect
       effect="fillet_chamfer"
       id="path-effect3"
       is_visible="true"
       lpeversion="1"
       nodesatellites_param="F,0,0,1,0,0,0,1 @ F,0,0,1,0,0.79248153,0,1 @ F,0,0,1,0,0.94271687,0,1 @ F,0,0,1,0,0,0,1 @ F,0,0,1,0,0.73943061,0,1 @ F,0,0,1,0,0.78043929,0,1 @ F,0,0,1,0,0,0,1 @ F,0,0,1,0,0.81518022,0,1 @ F,0,0,1,0,0.82353385,0,1 @ F,0,0,1,0,0,0,1 @ F,0,0,1,0,0.72239757,0,1 @ F,0,0,1,0,0.71758732,0,1"
       radius="0"
       unit="px"
       method="auto"
       mode="F"
       chamfer_steps="1"
       flexible="false"
       use_knot_distance="true"
       apply_no_radius="true"
       apply_with_radius="true"
       only_selected="false"
       hide_knots="false" />
    <inkscape:path-effect
       effect="fillet_chamfer"
       id="path-effect2"
       is_visible="true"
       lpeversion="1"
       nodesatellites_param="F,0,0,1,0,0,0,1 @ F,0,0,1,0,0,0,1 @ F,0,0,1,0,0,0,1 @ F,0,0,1,0,0,0,1 @ F,0,0,1,0,0,0,1 @ F,0,0,1,0,0,0,1 @ F,0,0,1,0,0,0,1 @ F,0,0,1,0,0,0,1 @ F,0,0,1,0,0,0,1 @ F,0,0,1,0,0,0,1 @ F,0,0,1,0,0,0,1 @ F,0,0,1,0,0,0,1"
       radius="0"
       unit="px"
       method="auto"
       mode="F"
       chamfer_steps="1"
       flexible="false"
       use_knot_distance="true"
       apply_no_radius="true"
       apply_with_radius="true"
       only_selected="false"
       hide_knots="false" />
  </defs>
  <sodipodi:namedview
     id="namedview9"
     pagecolor="#ffffff"
     bordercolor="#000000"
     borderopacity="0.25"
     inkscape:showpageshadow="2"
     inkscape:pageopacity="0.0"
     inkscape:pagecheckerboard="0"
     inkscape:deskcolor="#d1d1d1"
     showgrid="false"
     inkscape:zoom="0.71875"
     inkscape:cx="437.56522"
     inkscape:cy="484.17391"
     inkscape:window-width="1920"
     inkscape:window-height="1168"
     inkscape:window-x="0"
     inkscape:window-y="0"
     inkscape:window-maximized="0"
     inkscape:current-layer="layer1" />
  <g
     inkscape:groupmode="layer"
     id="layer1"
     inkscape:label="Layer 1">
    <path
       style="fill:#d40000;stroke-width:1.3913"
       d="m 899.98913,319.25 c -60.16594,0.43114 -120.63878,41.7571 -135.01087,101.59239 -8.7298,33.21371 4.84453,67.62797 24.95048,93.88825 23.17331,32.00085 58.72972,60.10343 99.93253,60.07697 21.30044,1.19436 42.32868,-4.31481 60.88081,-14.67354 31.47669,-15.89623 57.66362,-43.64 69.95632,-76.84059 6.1871,-21.87652 2.8752,-45.41008 -2.4239,-67.15218 -8.0501,-27.13612 -21.86005,-53.21151 -44.16051,-71.28347 -20.1274,-17.75979 -47.59568,-25.85821 -74.12486,-25.60783 z m -2.91576,69.72826 c 10.43507,0.11644 10.02796,12.83481 9.98641,20.22283 1.38254,8.87689 -4.01379,21.87067 5.86685,26.79347 13.05818,1.45451 27.03216,-1.80166 39.67391,2.06522 9.02299,4.38332 6.04089,18.41884 -3.48913,19.76902 -12.93932,1.92575 -26.55496,-1.59145 -39.07337,2.19294 -6.12393,9.19871 -1.54125,21.35966 -3.18388,31.90014 1.92884,8.64196 -7.92202,14.95257 -15.20199,10.61072 -9.5707,-4.62352 -5.15106,-16.62806 -6.65359,-24.97114 -0.20608,-7.53742 1.58628,-20.88712 -9.4551,-20.56736 -10.67479,-1.23873 -22.75163,2.49631 -32.65489,-2.39627 -8.24713,-4.67162 -5.895,-19.56533 4.4076,-19.11142 11.33082,-2.04009 23.35148,1.42885 34.27718,-2.29076 6.70014,-11.30379 3.30717,-25.65444 5.24185,-38.22554 2.32479,-3.42439 5.92095,-6.20128 10.25815,-5.99185 z"
       id="path9" />
  </g>
  <g
     data-name="Buy-Ecommerce-Online Shopping-Purchase-Online"
     id="g8"
     transform="matrix(23.605384,0,0,23.605384,-47.210768,-47.210768)">
    <path
       id="rect4"
       d="m 19.167969,44.832031 c 0.499097,-0.122257 1.494749,0.252041 1.664062,-0.2 0,-2.488021 0,-4.976041 0,-7.464062 -0.499097,0.122257 -1.494749,-0.252041 -1.664062,0.2 0,2.488021 0,4.976041 0,7.464062 z" />
    <path
       id="rect5"
       d="m 23.195312,44.728516 c 0.51005,-0.05935 1.451495,0.436271 1.675223,0.0086 0.311384,-2.488536 0.622768,-4.977073 0.934153,-7.46561 -0.510088,0.05872 -1.451397,-0.437956 -1.675217,-0.01053 -0.311386,2.489188 -0.622772,4.978375 -0.934159,7.467563 z" />
    <path
       id="rect6"
       d="m 14.195312,37.271484 c 0.319662,2.554688 0.639323,5.109375 0.958985,7.664063 0.479665,-0.183505 1.514116,0.06425 1.625565,-0.405485 -0.311386,-2.489187 -0.622773,-4.978375 -0.934159,-7.467562 -0.55013,0.06966 -1.10026,0.139323 -1.650391,0.208984 z" />
    <path
       id="path6"
       d="m 17.167969,21 c -2.517881,0 -2.898833,0.295096 -1.110995,2.22666 1.239052,1.165776 1.875634,2.097462 3.177091,3.280728 0.949421,0.954462 1.404076,0.130887 2.677631,-1.069241 1.28144,-1.359083 2.0449,-2.071353 2.87932,-3.188147 0.663201,-1.02494 0.499369,-1.434642 -1.887266,-1.402634 -0.396583,-2.96107 -0.07172,-4.857186 -0.07172,-6.679397 -0.268612,-0.777667 -1.303153,-1.002913 -1.663659,0.199999 0.02383,2.62743 -0.0482,3.651853 0.06845,6.275596 -0.01291,2.092482 1.487177,1.860845 1.487177,1.860845 0,0 -2.159674,2.18675 -2.721809,2.694057 -0.651971,-0.648775 -2.097919,-2.143673 -2.746629,-2.795719 1.260214,-0.04042 1.618933,-0.797436 1.576473,-1.507434 v -6.727344 c -0.344112,-0.830781 -1.416802,-0.731355 -1.664062,0.2 V 21 Z"
       sodipodi:nodetypes="scccccccccccccccs" />
    <path
       id="path7"
       d="m 39.261719,14.222656 c -3.232951,0.293897 -5.985975,3.194353 -6.06721,6.477233 -0.184092,3.107574 2.023535,6.159761 5.067632,6.878841 3.078637,0.897686 6.605645,-0.773355 7.905303,-3.695644 1.466834,-2.92587 0.35418,-6.774454 -2.377059,-8.544453 -1.325211,-0.891902 -2.930996,-1.271874 -4.528666,-1.115977 z m -0.220703,1.705078 c 5.155815,-0.974782 6.514655,4.522862 5.93953,6.420593 -0.839847,2.771229 -6.16859,6.506669 -9.767655,0.581361 -1.855463,-3.054735 0.701051,-6.410735 3.828125,-7.001954 z"
       sodipodi:nodetypes="ccccccssss" />
    <path
       id="path8"
       d="M 6.8863064,2.2491225 C 4.2162242,2.231524 1.924305,4.7757502 2.1609888,7.4249032 2.1432896,22.073488 2.1286192,36.723016 2.1604097,51.371045 c 0.1391116,2.474443 2.3893615,4.630087 4.8848632,4.505056 3.1129531,0.07266 6.2289551,-0.0032 9.3433771,0.02732 h 13.177344 c 1.243997,2.143058 3.471409,6.052584 3.471409,6.052584 0.408749,0.733912 1.893265,0.306311 1.559647,-0.751258 0,0 -2.992637,-4.937862 -4.333791,-7.564998 -0.491515,-1.461221 0.987775,-3.096471 2.496973,-2.721227 1.379976,0.281394 1.838232,1.813098 2.514001,2.855784 0.455634,0.711889 0.74566,1.647443 1.48512,2.105678 0.683789,0.179494 1.24593,-0.596138 1.050758,-1.223047 0.01611,-5.659624 -0.04193,-11.322494 0.03909,-16.980078 0.225176,-1.474231 2.163072,-2.300459 3.363704,-1.376064 1.150074,0.752841 0.941926,2.292685 0.932906,3.475282 0.01765,4.176094 -0.04663,8.356121 0.04519,12.529688 0.19598,0.861478 1.716678,0.686529 1.579958,-0.255609 0.190658,-1.624698 -0.203199,-3.312137 0.240354,-4.900641 0.594175,-1.322861 2.5586,-1.668684 3.534552,-0.572832 0.925946,1.046976 0.525439,2.554114 0.599518,3.822351 0.03609,0.750483 -0.154795,1.620063 0.260461,2.275872 0.567835,0.521871 1.577485,-0.03968 1.408045,-0.807276 0.102118,-1.34241 -0.306443,-2.835722 0.400549,-4.061865 0.825117,-1.181882 2.822161,-1.186208 3.565394,0.08912 0.653932,1.098446 0.268813,2.438701 0.351866,3.645642 -0.09283,0.622992 0.240308,1.497762 1.010474,1.33555 0.911702,-0.264334 0.648719,-1.40341 0.656441,-2.113968 -0.09207,-1.073391 0.289413,-2.3662 1.426201,-2.719923 1.278135,-0.496627 2.889605,0.476258 2.88542,1.893687 0.107933,1.607343 -0.01609,3.224262 0.03585,4.835907 l 0.02507,6.564687 c 0.172141,0.971417 1.778473,0.88551 1.664191,-0.2 0,0 0.04679,-7.657206 -0.08948,-11.760722 -0.332666,-2.142603 -2.741737,-3.63949 -4.810715,-2.993809 -0.37457,0.01221 -0.797631,0.60502 -1.125,0.267578 C 55.80245,33.314855 55.83442,19.959564 55.78632,6.6183909 55.611915,4.0264311 53.041863,1.9562214 50.474978,2.2393302 35.945417,2.2354246 21.415864,2.2388737 6.8863064,2.2491225 Z M 40.060134,3.9034193 c 3.782935,0.019211 7.567942,-0.019365 11.34961,0.035156 1.707513,0.2137156 2.951007,1.9473239 2.736328,3.6324219 V 10.239357 H 3.8062283 C 3.9479657,8.5655981 3.4070483,6.65459 4.4507595,5.1827162 5.2230735,4.1130027 6.6147744,3.7692568 7.8722439,3.9033397 18.601541,3.9025859 29.330837,3.9002384 40.060134,3.9034193 Z M 3.8941189,11.903419 H 54.146072 v 33.984375 c -1.444828,-0.954676 -3.490646,-0.793776 -4.777344,0.361328 -0.965481,-1.760011 -3.385063,-2.559114 -5.157472,-1.552674 -0.399296,0.216159 -0.557361,-0.300083 -0.401122,-0.59381 -0.06509,-2.320474 0.143959,-4.658584 -0.136719,-6.966797 -0.497292,-2.245422 -3.265267,-3.580384 -5.319615,-2.516122 -1.462607,0.694921 -2.331957,2.289622 -2.203822,3.893075 -0.119073,0.446277 -0.490711,-0.0857 -0.466082,-0.331759 -0.607312,-1.414303 -2.019808,-2.249522 -2.988996,-3.396756 1.081811,-0.484135 1.205715,-1.793282 1.127048,-2.829065 0.09701,-1.036613 -0.196099,-2.418852 -1.412204,-2.620154 -1.28755,-0.300179 -2.63613,0.106782 -3.916547,-0.168098 -0.613943,-0.285256 -1.119656,-0.809309 -1.844345,-0.847464 -1.182981,-0.21267 -2.353837,0.17874 -3.262546,0.919859 -2.294722,-0.01238 -4.606403,0.03366 -6.890625,-0.03125 -1.343548,-1.218118 -3.576749,-1.25877 -4.947266,-0.06641 -0.959899,0.251631 -1.9723309,0.0083 -2.9534987,0.08773 -0.9733732,-0.08493 -2.1621124,0.318257 -2.3550942,1.400551 -0.1898335,0.972741 -0.1159589,2.049761 0.02021,3.039266 0.1801018,0.493079 0.5576123,0.836405 0.9954151,1.109171 -1.0411933,1.24673 -2.6540611,2.146763 -3.1132813,3.785157 -0.3058108,0.37987 -0.4190867,-0.344349 -0.3456266,-0.570392 0.031745,-8.695513 0.00452,-17.393356 0.013595,-26.089765 z M 16.048415,31.481544 c 0.536057,2.111272 -1.539627,2.591904 -2.715255,2.357836 -0.885058,-0.176216 -1.689511,-1.659176 -1.208381,-2.422651 1.476698,-2.343279 3.601731,-1.203014 3.923636,0.06481 z m 11.30826,-0.933499 c 0.740826,0.59013 0.890156,2.26847 0.133591,2.838281 -0.946754,0.713052 -2.996804,1.256619 -3.367529,-1.141416 -0.341247,-2.207359 2.113511,-2.589379 3.233938,-1.696865 z m 2.41635,0.339749 c 0.787682,0.0364 1.582578,0.0053 2.373047,0.01563 v 2.326172 c -0.70249,0.202602 -1.382693,-0.175795 -1.772697,-0.746182 -0.471772,-0.360178 -0.837604,-0.989065 -0.678475,-1.57413 l 0.0332,-0.03125 z m -21.8007811,0.01563 h 2.3320311 c 0.06792,0.7129 -0.3339698,1.345187 -0.8888458,1.749181 -0.3274053,0.430642 -1.011501,0.873664 -1.5076384,0.485194 -0.2693317,-0.647832 0.00783,-1.375473 -0.109375,-2.054687 -2.227e-4,-0.09659 0.065849,-0.19866 0.1738281,-0.179688 z m 9.7539061,0 h 4.601562 c -0.216024,0.760052 -0.218908,1.576131 0,2.335938 h -4.71289 c 0.254845,-0.753717 0.255087,-1.582239 0,-2.335938 h 0.1 z m 11.728515,2.996094 c 1.544797,1.587303 3.196904,3.085032 4.655532,4.747823 0.601526,1.005053 -0.951942,2.272688 -1.770345,1.366666 -1.612872,-1.427251 -3.048746,-3.047334 -4.607843,-4.538317 0.669012,-0.389102 1.259762,-0.979477 1.648438,-1.648438 l 0.07165,0.06976 z m -18.824218,0.01172 c 0.379199,0.654947 0.955876,1.166907 1.591797,1.566406 -1.630683,1.565112 -3.1336807,3.277862 -4.8574219,4.734369 -1.0011955,0.543855 -2.2353827,-0.976924 -1.3307095,-1.776779 1.4299126,-1.61064 3.0435267,-3.05188 4.5377404,-4.606034 l 0.05812,0.08137 z m 11.078125,0.992187 c 0.598855,0.06395 1.277904,-0.103751 1.830921,0.0926 0.653487,0.548534 1.495081,0.788685 2.299938,0.924976 1.158132,1.215612 2.459047,2.348725 3.517578,3.623047 -0.359412,2.327855 -0.603099,4.679866 -1.050781,6.990235 -0.445607,0.972247 -1.709195,0.667144 -2.560156,0.705308 -4.451041,-0.02204 -8.909475,0.06183 -13.35586,-0.05687 -1.016818,-0.312336 -0.894726,-1.599496 -1.049792,-2.435172 -0.222524,-1.778479 -0.585138,-3.58192 -0.694348,-5.348031 1.190466,-1.171715 2.343511,-2.403495 3.568359,-3.525391 0.883269,-0.05349 1.665727,-0.474301 2.382813,-0.970703 1.703776,-7.04e-4 3.407552,-0.0033 5.111328,0 z m 14.396484,4.59961 c 0.09707,2.949166 0.01266,5.912896 0.04102,8.867578 -0.006,1.200348 0.01227,2.401076 -0.0098,3.601172 -0.689588,-1.681988 -2.500315,-3.009745 -4.3743,-2.632553 -2.061326,0.298533 -3.628772,2.511897 -3.061247,4.554428 -0.07165,0.603065 -0.87596,0.271937 -1.275481,0.337821 -6.958737,0.0038 -13.920856,0.041 -20.8788153,-0.02727 -1.7075985,-0.213715 -2.950833,-1.947323 -2.7364663,-3.632421 0.00179,-3.651179 -0.013765,-7.302437 0.019669,-10.953516 0.3981159,-0.214294 0.3985857,0.574412 0.5476985,0.790488 0.7529555,1.659593 3.2176055,2.053673 4.4933171,0.773965 0.5254945,-0.0623 0.3363486,0.763465 0.4160157,1.076172 0.398113,1.744968 0.2822177,3.63651 1.0068733,5.2789 0.722041,1.249662 2.306373,1.504509 3.625549,1.365856 4.598711,-0.01705 9.200605,0.05174 13.797265,-0.04905 1.506273,-0.219574 2.452603,-1.743691 2.448458,-3.187641 0.223129,-1.566979 0.444495,-3.134212 0.66873,-4.701031 1.129335,1.300804 3.412544,1.336257 4.449219,-0.0957 0.34437,-0.506508 0.513756,-1.104812 0.77539,-1.654297 0.01563,0.0957 0.03125,0.191407 0.04687,0.28711 z"
       sodipodi:nodetypes="ccccccccccccccccccccccccccccccccccccccccccccccccccccccccccccccccccccccccccaasccsccccccccccccccccccccccscccccscccccsccccccccccssccccccccccccccccccccccc" />
    <path
       style="fill:#1a1a1a;stroke-width:0.0474525"
       d="m 40.74276,20.183758 h 1.368031 a 0.79355943,0.79355943 44.961061 0 1 0.793559,0.792481 0.8517853,0.8517853 141.37182 0 1 -0.941694,0.752503 l -1.221793,0 v 1.180269 a 0.73943061,0.73943061 135 0 1 -0.739431,0.739431 h -0.0075 a 0.78043929,0.78043929 45 0 1 -0.780439,-0.780439 v -1.207087 h -1.214609 a 0.81629674,0.81629674 44.960789 0 1 -0.816296,-0.815179 0.77203132,0.77203132 138.83887 0 1 0.82255,-0.719103 l 1.206577,0 0.02399,-1.22808 A 0.73411311,0.73411311 135.65828 0 1 39.9722,18.178783 l 0.01107,3.8e-5 a 0.73529259,0.73529259 44.499238 0 1 0.732598,0.719903 z"
       id="path2"
       sodipodi:nodetypes="ccccccccccccc"
       inkscape:path-effect="#path-effect3"
       inkscape:original-d="m 40.74276,20.183758 h 2.160513 l 0.0021,1.544984 h -2.16451 v 1.9197 h -1.527378 v -1.987526 h -2.029789 l -0.0021,-1.534282 h 2.030111 l 0.0381,-1.95034 1.451044,0.005 z" />
    <circle
       style="fill:#1a1a1a;stroke-width:0.0594759"
       id="path3"
       cx="7.4278989"
       cy="7.2381845"
       r="1.3150977" />
    <circle
       style="fill:#1a1a1a;stroke-width:0.0594759"
       id="path3-7"
       cx="19.337151"
       cy="7.2381845"
       r="1.3150977" />
    <circle
       style="fill:#1a1a1a;stroke-width:0.0594759"
       id="path3-5"
       cx="13.382524"
       cy="7.2381845"
       r="1.3150977" />
  </g>
</svg>
