<?xml version="1.0" encoding="UTF-8" standalone="no"?>
<svg
   version="1.1"
   x="0px"
   y="0px"
   viewBox="0 0 264.45224 302.65887"
   xml:space="preserve"
   id="svg4"
   sodipodi:docname="bulb_person.svg"
   width="264.45224"
   height="302.65887"
   inkscape:version="1.3.2 (091e20ef0f, 2023-11-25)"
   xmlns:inkscape="http://www.inkscape.org/namespaces/inkscape"
   xmlns:sodipodi="http://sodipodi.sourceforge.net/DTD/sodipodi-0.dtd"
   xmlns="http://www.w3.org/2000/svg"
   xmlns:svg="http://www.w3.org/2000/svg"><defs
     id="defs4" /><sodipodi:namedview
     id="namedview4"
     pagecolor="#ffffff"
     bordercolor="#000000"
     borderopacity="0.25"
     inkscape:showpageshadow="2"
     inkscape:pageopacity="0.0"
     inkscape:pagecheckerboard="0"
     inkscape:deskcolor="#d1d1d1"
     showgrid="false"
     inkscape:zoom="3.7988776"
     inkscape:cx="89.631737"
     inkscape:cy="141.75239"
     inkscape:window-width="2560"
     inkscape:window-height="1371"
     inkscape:window-x="0"
     inkscape:window-y="0"
     inkscape:window-maximized="1"
     inkscape:current-layer="layer1" /><g
     inkscape:groupmode="layer"
     id="layer1"
     inkscape:label="Layer 1"
     transform="translate(100.22809,119.32388)"><path
       style="fill:#d40000;stroke-width:0.525835"
       d="m 31.502512,102.05253 c -6.862205,3.82105 -14.072232,7.17293 -20.721325,11.28167 -0.9405072,2.74272 2.865894,4.87662 3.854449,7.30701 2.696749,3.236 4.551157,7.61799 7.806286,10.10181 6.546243,-0.14419 13.204223,0.28734 19.680948,-0.21504 3.972084,-4.61384 7.404901,-10.07047 10.853132,-15.25349 1.044608,-2.9921 -3.206381,-3.48225 -4.790578,-4.90539 -5.312889,-2.81064 -10.574711,-5.98171 -16.018235,-8.34667 -0.182596,0.24446 -0.476788,-0.18252 -0.664677,0.03 z"
       id="path4" /><path
       style="fill:#d40000;stroke-width:0.459972"
       d="m 24.340487,132.00595 c -3.543257,15.19424 -6.274095,30.69161 -9.611878,45.941 0.34523,2.62121 3.987996,1.59843 5.841756,1.91634 9.338274,-0.0213 18.775084,0.26372 28.049762,-0.13275 1.828056,-1.68758 -0.532779,-4.79979 -0.436768,-7.01702 -2.880114,-13.47835 -5.295652,-27.1495 -8.465783,-40.50777 -2.075323,-1.32335 -5.233943,-0.19134 -7.70794,-0.56752 -2.510263,0.21637 -5.299327,-0.45179 -7.669149,0.36772 z"
       id="path5" /></g><g
     id="g3"
     transform="matrix(4.9462827,0,0,4.9462827,-26.05493,-6.9571714)"><path
       id="path1"
       d="M 31.033203,1.4296875 C 24.712841,1.7051248 18.716488,5.4922015 15.706692,11.048994 13.26853,15.405959 12.749934,20.820803 14.25,25.525391 c 1.107132,3.574285 3.424078,6.917345 6.409553,9.186902 1.436303,1.122132 3.05342,1.995565 4.744744,2.666613 v 2.126953 c -2.952991,0.591848 -5.95888,1.030278 -8.86082,1.724656 -3.759352,1.046613 -6.9384737,4.057292 -8.2505082,7.664016 -0.7930495,2.376354 -1.1038714,4.881251 -1.6819556,7.314074 L 5.2675781,62.595703 H 58.732422 C 57.810547,58.330238 56.982234,54.042754 56.001953,49.791016 54.750864,45.305905 50.808901,41.735273 46.220703,40.935547 43.714942,40.46235 41.133,39.982453 38.595703,39.505859 v -2.128906 c 5.03685,-1.913912 9.092343,-6.030432 10.904946,-11.114189 1.747009,-4.740255 1.391229,-10.41634 -1.066606,-14.949863 C 45.41271,5.4973146 39.129366,1.5445302 32.566938,1.419079 32.055459,1.3909524 31.544669,1.4171953 31.033203,1.4296875 Z M 32,2.5957031 c 5.933647,-0.052944 11.733575,3.2098258 14.810255,8.2762709 3.229252,5.115191 3.453541,11.941497 0.561596,17.255729 -2.048612,3.910011 -5.65323,6.924029 -9.817163,8.360578 -0.334721,-4.028042 -0.680146,-7.360168 -1.015341,-11.38817 0.102314,-0.631574 -0.313536,-0.784528 -0.946804,-0.717968 l 0.0032,-4.78644 c 1.601908,-0.06069 3.472754,0.327567 4.759793,-0.887301 1.732252,-1.395936 1.601781,-4.371955 -0.244847,-5.612436 -1.716207,-1.345002 -4.515116,-0.615779 -5.367652,1.388768 -0.567094,1.226246 -0.259564,2.61653 -0.3387,3.919563 h -4.808594 c -0.06069,-1.601908 0.327567,-3.472754 -0.887301,-4.759793 -1.395936,-1.732252 -4.371955,-1.601781 -5.612436,0.244847 -1.345002,1.716207 -0.615779,4.515116 1.388768,5.367652 1.226246,0.567094 2.61653,0.259564 3.919563,0.3387 v 4.808594 c -0.673802,-0.09718 -1.182355,-0.01478 -1.019506,0.797241 -0.313069,3.762255 -0.626882,7.524449 -0.939479,11.286743 C 21.571087,34.824883 17.49973,30.948328 15.714567,26.104895 13.517455,20.454682 14.627239,13.700489 18.495492,9.035921 21.736817,5.0062402 26.823942,2.5650677 32,2.5957031 Z M 26,13.595703 c 1.454527,-0.04347 2.610208,1.393602 2.404297,2.804297 v 2.004297 c -1.246571,-0.114019 -2.649881,0.314998 -3.763672,-0.421875 -1.390322,-0.872109 -1.372716,-3.138394 0.0332,-3.986328 C 25.064594,13.736303 25.53082,13.595729 26,13.595703 Z m 12,0 c 1.661288,-0.06841 2.928078,1.858549 2.207031,3.355469 -0.450126,1.144787 -1.759253,1.608155 -2.907031,1.453125 -0.526969,-0.07446 -1.347056,0.144192 -1.704297,-0.1 0.109466,-1.302472 -0.364527,-2.855804 0.627612,-3.921443 C 36.668713,13.885103 37.332709,13.594297 38,13.595703 Z m -8,6 h 4.404297 v 4.808594 h -4.808594 v -4.808594 z m -1.080078,6 h 6.53125 c 0.300272,3.587173 0.597636,7.17459 0.898437,10.761719 h -8.699218 c 0.300806,-3.587128 0.598162,-7.174546 0.898437,-10.761719 z M 27,37.548828 h 10.404297 c -0.04219,0.763581 0.08679,1.588808 -0.06376,2.313368 -1.539814,1.847476 -3.079198,3.695313 -4.619837,5.542101 -0.637032,-0.08448 -1.484413,0.279915 -1.818607,-0.451792 -1.435332,-1.72256 -2.871722,-3.44424 -4.306393,-5.167349 v -2.236328 h 0.404297 z m -1.082031,3.283203 c 1.478342,1.774884 2.958135,3.548561 4.435547,5.324219 -1.995447,0.999338 -4.817492,2.90761 -6.200767,2.717197 -1.383276,-0.190412 -1.344957,-4.922231 -2.123452,-7.521885 1.245608,-0.232829 2.491349,-0.465014 3.736328,-0.701171 0.05078,0.06055 0.101563,0.121093 0.152344,0.18164 z m 12.548828,-0.138672 c 1.16855,0.219118 2.337772,0.434676 3.505859,0.65625 -0.618125,2.854306 -1.215822,6.27417 -2.319074,7.177879 -1.287113,0.477054 -4.011663,-1.371876 -6.007098,-2.371238 1.528385,-1.836045 3.0576,-3.671404 4.587891,-5.505859 0.07747,0.01432 0.154948,0.02865 0.232422,0.04297 z m 5.041015,0.945313 c 2.277518,0.402184 4.659384,0.752797 6.60376,2.109212 2.809942,1.771265 4.652304,4.839093 5.14408,8.099622 0.66963,3.185673 1.342241,6.370721 2.009973,9.556791 h -7.75 c -0.28809,-2.030178 -0.579687,-4.059859 -0.869141,-6.089844 -0.61426,0.0969 -1.493286,-0.0045 -1.078808,0.862897 0.249102,1.74229 0.496693,3.484797 0.746777,5.226947 H 36.488281 c -0.61628,-3.08677 -1.235272,-6.172999 -1.851562,-9.259766 0.755406,-1.009287 1.512077,-2.017637 2.269531,-3.02539 1.155057,0.575297 2.186039,1.633469 3.313027,1.00496 1.33304,-0.743422 2.006455,-5.459967 2.931114,-8.553789 0.11914,0.02279 0.238281,0.04557 0.357421,0.06836 z m -22.554687,0.283203 c 0,0 1.313902,7.338824 2.164007,7.98865 0.972971,0.743745 2.865069,-0.248611 3.976618,-0.789431 0.75725,1.007255 1.514262,2.014699 2.269531,3.023437 -0.616292,3.086767 -1.23528,6.172997 -1.851562,9.259766 H 15.685547 c 0.283345,-1.972542 0.564985,-3.94533 0.847656,-5.917969 -0.616848,-0.08012 -1.433562,-0.427062 -1.278715,0.523038 -0.256455,1.798346 -0.515043,3.596389 -0.770113,5.394931 h -7.75 C 7.547128,57.647035 8.2708752,53.867937 9.1425781,50.125 c 1.1584279,-4.157921 4.8772339,-7.429222 9.1425259,-8.07087 0.85478,-0.16091 1.710139,-0.318768 2.564505,-0.481864 0.03451,0.116536 0.06901,0.233073 0.103516,0.349609 z m 11.228516,4.833984 c 1.212826,0.607551 2.426311,1.213788 3.638671,1.822266 -0.704703,0.942825 -1.412093,1.883639 -2.117187,2.826172 h -3.40625 C 29.591794,50.461755 28.884377,49.52096 28.179688,48.578125 29.452481,47.93882 30.727319,47.303588 32,46.664062 c 0.06055,0.0306 0.121094,0.0612 0.181641,0.0918 z m -1.361329,5.839844 h 2.691407 c 0.586762,2.936293 1.17307,5.872679 1.761719,8.808594 h -6.546876 c 0.588642,-2.935916 1.174961,-5.8723 1.761719,-8.808594 z"
       sodipodi:nodetypes="cccccccccccccccccccccccccccccccccccccccccccccccccccccccccccccccccccccccccccczcccsccccsscccccccccccscccsccccccccccccscccccsscccccc" /><path
       id="path2"
       d="M 31.410156,5.4179688 C 25.540288,5.6002034 20.0424,9.694031 18.191406,15.267578 c -0.3163,0.82977 0.918859,1.098388 1.165123,0.277147 1.74347,-5.112441 6.840061,-8.8316464 12.239174,-8.9412094 0.760531,-0.241077 0.511437,-1.1743487 -0.185547,-1.1855468 z"
       sodipodi:nodetypes="ccccc" /></g><circle
     style="fill:#1a1a1a;stroke-width:0.749127"
     id="path6"
     cx="63.832344"
     cy="81.571106"
     r="2.8611326" /></svg>
