<?xml version="1.0" encoding="UTF-8" standalone="no"?>
<svg
   version="1.1"
   x="0px"
   y="0px"
   viewBox="0 0 83.999947 57"
   enable-background="new 0 0 100 100"
   xml:space="preserve"
   id="svg11"
   sodipodi:docname="devices.svg"
   width="83.999947"
   height="57"
   inkscape:version="1.3.2 (091e20ef0f, 2023-11-25)"
   xmlns:inkscape="http://www.inkscape.org/namespaces/inkscape"
   xmlns:sodipodi="http://sodipodi.sourceforge.net/DTD/sodipodi-0.dtd"
   xmlns="http://www.w3.org/2000/svg"
   xmlns:svg="http://www.w3.org/2000/svg"><defs
     id="defs11" /><sodipodi:namedview
     id="namedview11"
     pagecolor="#ffffff"
     bordercolor="#000000"
     borderopacity="0.25"
     inkscape:showpageshadow="2"
     inkscape:pageopacity="0.0"
     inkscape:pagecheckerboard="0"
     inkscape:deskcolor="#d1d1d1"
     inkscape:zoom="9.32"
     inkscape:cx="33.154506"
     inkscape:cy="75.912017"
     inkscape:window-width="2560"
     inkscape:window-height="1371"
     inkscape:window-x="0"
     inkscape:window-y="0"
     inkscape:window-maximized="1"
     inkscape:current-layer="svg11" /><g
     id="g7"
     transform="translate(-10.00005,-21)"><g
       id="g4"><g
         id="g1"><path
           fill="none"
           stroke="#000000"
           stroke-miterlimit="10"
           d="M 87,69"
           id="path1" /></g><g
         id="g2"><path
           fill="none"
           stroke="#000000"
           stroke-miterlimit="10"
           d="m 23,69.5 h -4.5 c -1.65,0 -3,-1.85 -3,-3.5 V 24.5 c 0,-1.65 1.35,-3 3,-3 H 84 c 1.65,0 2.5,1.35 2.5,3 V 50"
           id="path2" /></g><line
         fill="none"
         stroke="#000000"
         stroke-miterlimit="10"
         x1="78"
         y1="66.5"
         x2="71"
         y2="66.5"
         id="line2" /><polyline
         fill="none"
         stroke="#000000"
         stroke-miterlimit="10"
         points="23,66.5 18.5,66.5 18.5,26.5 84.5,26.5 84.5,51   "
         id="polyline2" /><circle
         cx="51.375"
         cy="24.125"
         r="1.125"
         id="circle2" /><line
         fill="none"
         stroke="#000000"
         stroke-linecap="round"
         stroke-linejoin="round"
         stroke-miterlimit="10"
         x1="78"
         y1="73.5"
         x2="72"
         y2="73.5"
         id="line3" /><line
         fill="none"
         stroke="#000000"
         stroke-linecap="round"
         stroke-linejoin="round"
         stroke-miterlimit="10"
         x1="72"
         y1="69.5"
         x2="78"
         y2="69.5"
         id="line4" /><polyline
         fill="none"
         stroke="#000000"
         stroke-linecap="round"
         stroke-linejoin="round"
         stroke-miterlimit="10"
         points="22,73.5     13.5,73.5 10.5,69.5 22,69.5   "
         id="polyline4" /></g><g
       id="g6"><g
         id="g5"><path
           fill="none"
           stroke="#000000"
           stroke-miterlimit="10"
           d="m 93.5,74.5 c 0,1.657 -1.343,3 -3,3 h -9 c -1.657,0 -3,-1.343 -3,-3 v -21 c 0,-1.657 1.343,-3 3,-3 h 9 c 1.657,0 3,1.343 3,3 z"
           id="path4" /></g><rect
         x="80.5"
         y="54.5"
         fill="none"
         stroke="#000000"
         stroke-miterlimit="10"
         width="11"
         height="19"
         id="rect5" /><circle
         cx="85.885002"
         cy="75.412003"
         r="1.051"
         id="circle5" /><line
         fill="none"
         stroke="#000000"
         stroke-linecap="round"
         stroke-miterlimit="10"
         x1="86"
         y1="52.5"
         x2="86"
         y2="52.5"
         id="line5" /></g></g><g
     id="g10"
     transform="translate(-10.00005,-21)"><g
       id="g9"><g
         id="g8"><path
           fill="none"
           stroke="#000000"
           stroke-miterlimit="10"
           d="m 71.5,74.5 c 0,1.657 -1.343,3 -3,3 h -43 c -1.657,0 -3,-1.343 -3,-3 v -28 c 0,-1.657 1.343,-3 3,-3 h 43 c 1.657,0 3,1.343 3,3 z"
           id="path7" /></g><rect
         x="25.5"
         y="45.5"
         fill="none"
         stroke="#000000"
         stroke-miterlimit="10"
         width="39"
         height="30"
         id="rect8" /><circle
         cx="23.830999"
         cy="60.652"
         r="0.63300002"
         id="circle8" /><circle
         cx="67.148003"
         cy="59.970001"
         r="1.34"
         id="circle9" /></g></g></svg>
