<?xml version="1.0" encoding="UTF-8" standalone="no"?>
<svg
   data-name="Layer 1"
   viewBox="0 0 1367.8045 1247.4679"
   x="0px"
   y="0px"
   version="1.1"
   id="svg2"
   sodipodi:docname="devices.svg"
   width="1367.8044"
   height="1247.4679"
   inkscape:version="1.3.2 (091e20ef0f, 2023-11-25)"
   xmlns:inkscape="http://www.inkscape.org/namespaces/inkscape"
   xmlns:sodipodi="http://sodipodi.sourceforge.net/DTD/sodipodi-0.dtd"
   xmlns="http://www.w3.org/2000/svg"
   xmlns:svg="http://www.w3.org/2000/svg"
   xmlns:rdf="http://www.w3.org/1999/02/22-rdf-syntax-ns#"
   xmlns:cc="http://creativecommons.org/ns#"
   xmlns:dc="http://purl.org/dc/elements/1.1/">
  <sodipodi:namedview
     id="namedview2"
     pagecolor="#ffffff"
     bordercolor="#000000"
     borderopacity="0.25"
     inkscape:showpageshadow="2"
     inkscape:pageopacity="0.0"
     inkscape:pagecheckerboard="0"
     inkscape:deskcolor="#d1d1d1"
     showgrid="false"
     inkscape:zoom="0.73280158"
     inkscape:cx="684.35988"
     inkscape:cy="575.18981"
     inkscape:window-width="2560"
     inkscape:window-height="1371"
     inkscape:window-x="0"
     inkscape:window-y="0"
     inkscape:window-maximized="1"
     inkscape:current-layer="layer1" />
  <defs
     id="defs1">
    <style
       id="style1">.cls-1{fill-rule:evenodd;}</style>
  </defs>
  <title
     id="title1">a</title>
  <path
     id="path1"
     style="stroke-width:15.2862"
     class="cls-1"
     d="m 878.69114,0.00820648 c -271.67147,0.003 -543.343,-0.002 -815.014429,0.007 -8.30257,0.0482 -16.58348,1.76879002 -24.24143,4.96952002 -0.6589,0.28332 -1.58873,0.68001 -2.34091,1.03676 -5.10462,2.35628 -10.04622,5.5663995 -14.2333,9.0999595 -11.38029,9.58097 -19.3228198,23.19612 -21.8529598,37.87235 -0.90578995,4.98371 -1.07672995,10.06263 -0.98687995,15.11671 0.004,192.231224 -0.003,384.462544 0.008,576.693724 0.0101,0.89416 0.0317,1.82436 0.0788,2.60558 0.0456,1.02116 0.13235,2.07693 0.23919,3.18039 0.10582,0.97675 0.22567,2.01593 0.36139,2.8714 1.89836995,13.05302 7.96618995,25.45057 17.10801975,34.95901 8.06721,8.42158 18.43938,14.64548 29.72004,17.64225 1.24663,0.34093 2.73034,0.69923 4.09057,0.96006 2.12068,0.42984 4.46146,0.74448 6.49146,0.94033 1.19524,0.10966 2.46049,0.18969 3.60742,0.24414 4.52468,0.13024 9.0527,0.0111 13.57891,0.0508 h 5.82539 V 982.5746 c -15.76574,0.0134 -31.5326,-0.0366 -47.29764,0.0352 -5.49392,0.30064 -10.43392,4.84126 -11.0961,10.32145 -0.28884,2.96205 -0.0707,5.94592 -0.13769,8.91715 0.0116,21.3094 -0.0326,42.6193 0.0329,63.9284 0.0376,2.1691 0.18727,4.3348 0.40279,6.4931 0.0951,0.8574 0.22532,2.0005 0.3644,2.9642 2.09606,14.9586 8.45941,29.2864 18.18008,40.8507 10.64621,12.7515 25.24635,22.1717 41.3039,26.4682 7.8185,2.1151 15.94405,2.9855 24.034419,2.8146 h 589.41993 c 0.0115,20.055 -0.0326,40.1107 0.0317,60.1654 0.0858,2.4184 0.37946,4.829 0.87459,7.1979 0.10404,0.506 0.29551,1.3435 0.45937,1.9716 2.71353,10.6964 9.66876,20.2369 19.03837,26.0707 6.89431,4.355 15.02602,6.7165 23.18423,6.6848 62.05586,0.012 124.1126,0 186.16881,0.01 55.05735,-0.01 110.11492,0 165.17212,-0.02 8.9772,-0.1431 17.8715,-3.182 25.0767,-8.5358 0.2754,-0.2195 0.9233,-0.6964 1.328,-1.0329 8.7751,-7.0176 14.7238,-17.5162 16.0037,-28.7001 0.1826,-1.4999 0.2873,-3.0846 0.3271,-4.4862 0.014,-19.7693 8e-4,-39.5402 0.01,-59.3101 51.1941,0 102.3884,0.012 153.5824,-0.02 0.7425,-0.01 1.6935,-0.039 2.3046,-0.066 6.566,-0.2769 13.2662,-1.4284 19.4568,-3.2624 11.4959,-3.3781 22.2002,-9.371 31.1348,-17.3496 0.3825,-0.3605 1.0302,-0.9265 1.5071,-1.3865 11.3711,-10.651 19.6373,-24.5986 23.3671,-39.7365 1.8487,-7.381 2.5755,-15.0137 2.4189,-22.6137 -0.01,-22.3503 0.029,-44.7015 -0.028,-67.05126 -0.2647,-5.43282 -4.6642,-10.34992 -10.0576,-11.14409 -2.8765,-0.36201 -5.7852,-0.10295 -8.6756,-0.17929 h -39.7704 V 230.6685 c -0.1307,-15.38732 -4.3222,-30.71726 -12.0785,-44.0106 -9.9764,-17.18536 -25.8143,-30.90147 -44.2996,-38.21559 -5.2761,-2.10271 -10.7567,-3.68597 -16.3351,-4.74962 -1.1274,-0.21357 -2.5033,-0.44741 -3.7352,-0.62566 -1.9262,-0.28268 -3.7442,-0.48512 -5.718,-0.65168 -3.9871,-0.34733 -7.8655,-0.29337 -11.8902,-0.29492 -90.3745,-1e-5 -180.749,0 -271.12339,0 -0.0115,-26.51369 0.0314,-53.027834 -0.0258,-79.541244 -0.0252,-1.42783 -0.12719,-3.05204 -0.24764,-4.35134 -0.10348,-1.05602 -0.22165,-2.13687 -0.36441,-3.07635 -1.914,-13.64134 -8.38057,-26.59361 -18.15819,-36.30042 C 915.92153,9.4379665 903.58879,3.0432465 890.4946,0.89861648 c -3.89698,-0.65613 -7.85236,-0.95301 -11.80368,-0.89045 z M 64.040751,24.262106 c 272.144119,0.004 544.288319,-0.002 816.432389,0.007 11.133,0.10027 22.0893,5.18262 29.39992,13.57321 6.58601,7.45509 10.21203,17.43647 9.92942,27.38237 0.001,145.211584 0.003,290.423174 0.004,435.634764 h -44.24219 c -0.005,-140.52769 0.005,-281.05555 -0.01,-421.583154 -0.10329,-5.38821 -4.27613,-10.38682 -9.57709,-11.40321 -2.79233,-0.50342 -5.64256,-0.18 -8.46165,-0.26949 -259.08449,0.003 -518.16904,-0.004 -777.253489,0.006 -5.34275,0.0595 -10.33881,4.11564 -11.45407,9.34914 -0.57881,2.79911 -0.22502,5.67352 -0.32016,8.50787 0.003,181.124194 -0.004,362.248484 0.006,543.372634 0.0675,5.30209 4.05708,10.25913 9.23424,11.43065 2.8383,0.62092 5.76011,0.24941 8.63792,0.34751 203.323819,-10e-6 406.647649,0 609.971479,0 v 43.40234 c -210.9091,-0.004 -421.81827,0.002 -632.727309,-0.007 -11.16932,-0.0976 -22.15841,-5.21677 -29.47125,-13.65219 -6.54129,-7.44526 -10.14098,-17.39 -9.86004,-27.2991 0.002,-193.14699 -0.006,-386.29406 0.002,-579.441004 0.0909,-11.06794 5.10334,-21.96686 13.40433,-29.28053 7.17715,-6.40621 16.72984,-10.08097 26.35551,-10.0777 z m 30.68555,67.64063 H 851.33958 V 500.85977 c -37.16652,0.002 -74.33414,-0.0131 -111.49998,0.0188 -8.71051,0.74449 -17.53033,2.9032 -24.88283,7.80148 -0.49683,0.33933 -1.25611,0.86817 -1.83344,1.31453 -6.63896,5.00307 -11.09868,12.42185 -13.61879,20.25341 -1.1471,3.48133 -1.95846,7.06461 -2.58098,10.67424 -0.0554,0.38781 -0.18595,1.18624 -0.27013,1.73123 -1.60333,10.83872 -1.54184,21.90793 -1.23963,32.7883 0.3801,13.21922 1.31269,26.4363 0.86548,39.66663 -0.082,0.54842 0.26871,1.53921 -0.62759,1.25525 H 92.726301 V 91.902696 h 2 z M 1220.4665,166.36758 c 15.0108,0.076 29.9148,5.59176 41.366,15.2962 11.684,9.81512 19.7827,23.83309 22.2751,38.90206 0.854,4.92243 1.0046,9.93051 0.9175,14.9158 v 747.09298 h -151.0176 v -68.19727 c 22.552,-0.0115 45.1048,0.0317 67.6563,-0.0293 5.4691,-0.29651 10.4107,-4.77384 11.1143,-10.22809 0.3137,-2.89373 0.08,-5.81297 0.1513,-8.71761 V 250.18518 c -0.059,-5.41725 -4.245,-10.46665 -9.5735,-11.48764 -2.7987,-0.50783 -5.6555,-0.18164 -8.4812,-0.27137 H 944.06769 v -72.06445 c 92.13411,-0.003 184.26821,-0.001 276.40231,0.006 z M 946.05638,262.6664 h 242.66602 v 627.47267 h -54.6992 c -8e-4,-115.4743 0.01,-230.9488 -0.017,-346.42297 -0.1314,-11.11808 -4.7568,-22.09886 -12.6317,-29.95067 -6.6695,-6.74107 -15.5742,-11.25732 -24.9884,-12.49355 -0.4361,-0.058 -1.0184,-0.12657 -1.5556,-0.17769 -4.2045,-0.42914 -8.436,-0.16193 -12.6534,-0.23442 H 944.05608 V 262.6664 h 2 z m 144.50392,262.41798 c 7.2312,-0.0642 14.2628,4.36996 17.3329,10.91647 1.6049,3.25186 2.0738,6.93797 1.9053,10.52806 v 657.79449 c -0.056,7.1157 -4.472,13.9596 -10.9013,16.9944 -3.2557,1.6056 -6.9454,2.0748 -10.5394,1.9072 -116.36465,0 -232.72949,0.01 -349.09405,-0.01 -7.11564,-0.1335 -13.91317,-4.622 -16.87951,-11.0847 -1.53689,-3.2079 -1.977,-6.8205 -1.81665,-10.3435 0.003,-219.25646 -0.003,-438.51303 0.005,-657.76947 0.0582,-7.11585 4.4732,-13.96373 10.90667,-16.99434 3.28242,-1.62879 7.01007,-2.07247 10.63403,-1.90725 h 70.58477 c 5.71723,15.28627 11.45673,30.56526 17.13922,45.86361 1.36057,4.95939 6.19595,8.73764 11.35843,8.74926 3.42097,0.0517 6.84368,-0.005 10.26563,0.0199 46.01656,-0.003 92.03356,0.009 138.04983,-0.0199 4.90141,-0.19613 9.43125,-3.73384 10.86193,-8.41972 5.7656,-15.39824 11.5104,-30.80431 17.2644,-46.20689 23.3769,-0.005 46.7539,-0.0105 70.1308,-0.0156 0.8284,-0.0719 1.8891,0.007 2.795,-0.006 z m -249.23635,0.0156 h 150.55079 c -3.79424,10.14674 -7.58901,20.29328 -11.38477,30.43945 H 849.82591 c -3.79576,-10.14617 -7.59054,-20.29271 -11.38477,-30.43945 z M 107.3845,708.25821 h 70.04883 c 0.003,64.86568 -0.0139,129.73167 0.0174,194.59715 0.17518,5.45062 4.51676,10.44534 9.91121,11.31586 2.8641,0.40472 5.76763,0.12573 8.64907,0.20613 h 500.32657 v 68.19727 H 105.38445 V 708.25821 h 2 z m 96.30274,0 H 696.33763 V 890.13907 H 201.68724 V 708.25821 Z m 748.74804,44.8125 c -3.43093,0.0857 -6.71106,1.77857 -8.92698,4.37228 -31.2002,31.20371 -62.41206,62.3963 -93.59425,93.61768 -3.33634,3.61068 -3.99917,9.32026 -1.6873,13.63913 1.62837,3.18125 4.7234,5.56288 8.23527,6.26544 30.49738,8.13535 60.97885,16.33078 91.46936,24.49219 -26.94946,26.9594 -53.91478,53.90449 -80.86756,80.8596 -3.42254,3.74038 -4.07165,9.69495 -1.50909,14.07695 2.32482,4.12181 7.19052,6.67263 11.90897,6.05333 3.13394,-0.3365 6.04641,-1.9813 8.08411,-4.36607 31.60344,-31.60864 63.22198,-63.20282 94.80524,-94.83124 3.46107,-3.70385 4.07506,-9.66135 1.54159,-14.03597 -1.6888,-3.06367 -4.76727,-5.27334 -8.18988,-5.96663 -30.4283,-8.17373 -60.85714,-16.34545 -91.2851,-24.52044 26.59914,-26.60386 53.21278,-53.19476 79.79259,-79.81701 3.38616,-3.96829 3.69567,-10.17924 0.73315,-14.47268 -2.2889,-3.4147 -6.38608,-5.56559 -10.51012,-5.36656 z M 50.837631,1006.8129 H 696.33763 v 114.3164 c -197.67159,0 -395.34329,0.01 -593.01481,-0.01 -14.047529,-0.1393 -27.943169,-5.7331 -38.193629,-15.3361 -10.79108,-9.9881 -17.54687,-24.2623 -18.19718,-38.9719 -0.20556,-5.1765 -0.0449,-10.3596 -0.0944,-15.539 v -44.4605 c 1.33715,0 2.66294,-0.01 4,0 z m 1085.169869,0 h 207.5333 c -0.014,19.6197 0.037,39.2402 -0.035,58.8595 -0.4006,14.1119 -6.3149,27.9612 -16.1833,38.0507 -10.0325,10.3766 -24.1031,16.7721 -38.5419,17.3202 -5.0173,0.1647 -10.0387,0.018 -15.0579,0.07 h -139.7149 v -114.3008 h 2 z"
     sodipodi:nodetypes="ccccccccccccccccccccccccccccccccccccccccccccccccccccccccccccccccccccccccccccccccccccccccccccccccccccccccccccccccccccccccccccccccccccccccccccccccccccccccccccccccccccccccccccccccccccccccccccccccccccccccccccccccccccccccccc" />
  <metadata
     id="metadata2">
    <rdf:RDF>
      <cc:Work
         rdf:about="">
        <dc:title>a</dc:title>
      </cc:Work>
    </rdf:RDF>
  </metadata>
  <g
     inkscape:groupmode="layer"
     id="layer1"
     inkscape:label="Layer 1"
     transform="translate(-3.9787788,-3.9917935)">
    <path
       style="fill:#d40000;stroke-width:1.36463"
       d="m 482.67244,216.07465 c -58.84129,0.58314 -113.8933,44.82218 -126.60903,102.36027 -13.02984,52.32498 9.25443,111.35541 54.44378,141.11084 25.59938,16.99912 56.90869,26.55927 87.73742,22.55499 25.87805,-2.04634 50.92335,-12.89996 71.19085,-28.90637 29.06473,-24.43304 49.6849,-60.66153 49.07323,-99.3245 3.49736,-50.09421 -26.80704,-99.41771 -70.90565,-122.30626 -19.8556,-10.58835 -42.42535,-16.02631 -64.9306,-15.48897 z m 71.01652,76.35242 c 8.70701,0.16309 14.74305,12.40729 7.19626,18.36114 -29.13352,31.1012 -59.58815,61.07252 -90.29718,90.59837 -3.86739,5.00999 -11.51685,7.23338 -16.09033,1.95899 -16.15576,-15.43807 -33.11096,-30.48295 -46.85571,-48.14838 -4.46858,-9.65109 10.31119,-20.44618 17.40431,-11.36211 13.10084,10.52642 23.93,23.96209 36.79959,34.42216 29.04088,-27.54818 56.20711,-57.38366 86.08337,-84.16437 1.77516,-0.93332 3.73217,-1.65726 5.75969,-1.6658 z"
       id="path2" />
    <path
       id="path1-6"
       style="fill-rule:evenodd;stroke-width:15.2862"
       d="m 483.96657,192.53364 c -2.0521,0.0342 -4.13484,0.082 -6.09862,0.18779 -5.4711,0.26168 -10.9335,0.82841 -16.3001,1.65202 -16.64413,2.56743 -32.86057,7.86043 -47.82588,15.58207 -17.94814,9.25043 -34.23406,22.10837 -47.3944,37.51833 -14.92109,17.39429 -25.94283,38.10855 -32.01002,60.20937 -2.20416,7.98088 -3.76765,16.13649 -4.70691,24.36214 -0.0606,0.63408 -0.1634,1.59195 -0.24018,2.35025 -0.74342,7.47249 -0.91486,15.14272 -0.56842,22.5521 0.0948,1.8577 0.20802,3.77532 0.35967,5.53346 0.32059,3.86577 0.77605,7.64754 1.37504,11.44472 0.71112,4.5498 1.69534,9.33635 2.81607,13.79916 1.02612,4.07485 2.21522,8.11076 3.54726,12.0384 5.68746,16.81832 14.32999,32.82756 25.36717,46.8301 7.99446,10.19013 17.28178,19.35995 27.5387,27.26627 0.60438,0.45999 1.47737,1.13228 2.08929,1.58209 8.72529,6.49203 18.12435,12.07858 28.00641,16.62103 1.1364,0.5021 2.48643,1.13468 3.72212,1.65044 11.21294,4.83386 22.99277,8.35123 35.02007,10.45894 9.81895,1.72379 19.97581,2.51131 30.0088,2.31289 1.78498,-0.0312 3.53232,-0.0922 5.24645,-0.18952 2.21955,-0.11672 4.4682,-0.28336 6.5995,-0.48915 7.40208,-0.69646 14.74927,-1.94653 21.97923,-3.67524 0.93779,-0.24311 2.14677,-0.52389 3.18399,-0.80805 8.95947,-2.35793 17.70681,-5.5151 26.11484,-9.40484 0.78163,-0.37041 1.82403,-0.85469 2.70036,-1.28472 8.1407,-3.95851 15.93394,-8.62813 23.26644,-13.93598 1.31183,-0.96106 2.79437,-2.05217 4.14086,-3.10753 6.69363,-5.18753 12.96526,-10.9194 18.73414,-17.11904 1.17321,-1.26566 2.47161,-2.70586 3.65339,-4.07565 1.82894,-2.10963 3.60949,-4.2851 5.27549,-6.43676 4.10495,-5.25866 7.91089,-10.89317 11.2801,-16.56571 9.16225,-15.48073 15.7019,-32.70378 19.05946,-50.4499 3.7232,-19.50346 3.67674,-39.71073 -0.0849,-59.2044 -0.35195,-1.81502 -0.77751,-3.8252 -1.21358,-5.70405 -3.2751,-14.13031 -8.50488,-27.80861 -15.53251,-40.49907 -4.7987,-8.67875 -10.52224,-17.03254 -16.92843,-24.6863 -1.22904,-1.46081 -2.35356,-2.75583 -3.62616,-4.18032 -8.57091,-9.5417 -18.30064,-18.04099 -28.91416,-25.24276 -0.67519,-0.45004 -1.59366,-1.06796 -2.36967,-1.57219 -5.36961,-3.49785 -11.01533,-6.68981 -16.71885,-9.46733 -21.80659,-10.67261 -46.12565,-16.14122 -70.40132,-15.85325 l -0.1,1.3e-4 z m 0.79297,24.20313 c 23.54736,-0.1722 47.11668,6.02871 67.48256,17.86323 23.30502,13.4651 42.34779,34.1902 53.73208,58.58597 9.55044,20.33492 13.77111,43.12605 12.18785,65.53351 -1.57327,23.19068 -9.4116,45.91306 -22.46032,65.14897 -11.99099,17.73642 -28.31872,32.51875 -47.19094,42.63692 -23.6357,12.7075 -51.18222,18.01144 -77.8437,14.92276 -23.06904,-2.61599 -45.38345,-11.45035 -64.02363,-25.28696 -18.52465,-13.71468 -33.37773,-32.34175 -42.56203,-53.48677 -8.58389,-19.5998 -12.34496,-41.29275 -10.78047,-62.63682 1.6469,-23.08152 9.43966,-45.69388 22.40706,-64.86353 11.43935,-16.96035 26.8742,-31.19004 44.68774,-41.24611 19.3713,-10.98022 41.54705,-16.94796 63.81365,-17.16274 0.18339,-0.003 0.36677,-0.006 0.55015,-0.008 z m 68.27539,74.7832 c -3.59593,8.7e-4 -7.00476,1.83239 -9.33362,4.51332 -27.38684,27.38748 -54.77364,54.77501 -82.16052,82.16246 -11.92057,-11.90342 -23.79975,-23.84973 -35.75783,-35.7147 -3.96547,-3.51186 -10.30188,-3.89505 -14.6561,-0.87122 -3.74078,2.49383 -5.90592,7.16127 -5.26749,11.62956 0.38083,3.09282 2.06026,5.91949 4.39003,7.95211 14.43296,14.41675 28.82872,28.87191 43.29579,43.25379 4.017,3.65239 10.58774,4.02457 14.96398,0.79378 2.30279,-1.78907 4.19152,-4.03851 6.30095,-6.04115 29.16465,-29.17143 58.34485,-58.32792 87.48897,-87.5195 3.46559,-3.78522 4.04896,-9.84559 1.37658,-14.22729 -2.16464,-3.6666 -6.36482,-6.07421 -10.64074,-5.93116 z" />
  </g>
  <circle
     style="fill:#d40000;stroke:#000000;stroke-width:19.8138;stroke-dasharray:none;stroke-opacity:1"
     id="path3"
     cx="921.81274"
     cy="1145.1744"
     r="50.647522" />
</svg>
