<?xml version="1.0" encoding="UTF-8" standalone="no"?>
<svg
   version="1.1"
   x="0px"
   y="0px"
   viewBox="0 0 696.95978 697.13245"
   enable-background="new 0 0 66 66"
   xml:space="preserve"
   id="svg11"
   sodipodi:docname="web_browser.svg"
   width="696.95978"
   height="697.13245"
   inkscape:version="1.3.2 (091e20ef0f, 2023-11-25)"
   xmlns:inkscape="http://www.inkscape.org/namespaces/inkscape"
   xmlns:sodipodi="http://sodipodi.sourceforge.net/DTD/sodipodi-0.dtd"
   xmlns="http://www.w3.org/2000/svg"
   xmlns:svg="http://www.w3.org/2000/svg"><defs
     id="defs11" /><sodipodi:namedview
     id="namedview11"
     pagecolor="#ffffff"
     bordercolor="#000000"
     borderopacity="0.25"
     inkscape:showpageshadow="2"
     inkscape:pageopacity="0.0"
     inkscape:pagecheckerboard="0"
     inkscape:deskcolor="#d1d1d1"
     showgrid="false"
     inkscape:zoom="1.971328"
     inkscape:cx="360.92421"
     inkscape:cy="228.01888"
     inkscape:window-width="2560"
     inkscape:window-height="1371"
     inkscape:window-x="0"
     inkscape:window-y="0"
     inkscape:window-maximized="1"
     inkscape:current-layer="g10" /><g
     id="g10"
     transform="matrix(11.065594,0,0,11.065594,-16.684703,-16.598391)"><path
       d="M 6.5078,59.5 V 35.4014 c 0,-0.2764 -0.2236,-0.5 -0.5,-0.5 -0.2764,0 -0.5,0.2236 -0.5,0.5 0.2219,24.9008 -0.4675,25.0986 0.5,25.0986 8.4717,-0.1983 9.5537,0.4389 9.5537,-0.5 0,-0.9353 -1.1169,-0.304 -9.0537,-0.5 z"
       id="path1" /><path
       d="M 59.4922,52.7168 V 59.5 C 21.2197,59.7276 21.8867,59.0211 21.8867,60 c 0,0.9799 -0.7436,0.272 38.1055,0.5 0.9421,0 0.3135,-1.2931 0.5,-7.7832 0,-0.662 -1,-0.6613 -1,0 z"
       id="path2" /><path
       d="m 44.1279,13.2285 c -0.2764,0 -0.5,0.2236 -0.5,0.5 0,0.2764 0.2236,0.5 0.5,0.5 h 15.3643 c 0.2225,30.0901 -0.474,30.248 0.5,30.248 0.9729,0 0.2748,0.2115 0.5,-30.748 0,-0.9625 -0.8552,-0.288 -16.3643,-0.5 z"
       id="path3" /><path
       d="m 6.0078,27.9258 c 0.2764,0 0.5,-0.2236 0.5,-0.5 V 14.2285 h 30.042 c 0.2764,0 0.5,-0.2236 0.5,-0.5 0,-0.2764 -0.2236,-0.5 -0.5,-0.5 H 6.0078 c -0.2764,0 -0.5,0.2236 -0.5,0.5 v 13.6973 c 0,0.2763 0.2237,0.5 0.5,0.5 z"
       id="path4" /><path
       d="M 59.9922,1.5 H 6.0078 c -2.4814,0 -4.5,2.0186 -4.5,4.5 0,16.4074 0,37.5652 0,54 0,2.4814 2.0186,4.5 4.5,4.5 h 53.9844 c 2.4814,0 4.5,-2.0186 4.5,-4.5 0,-16.4348 0,-37.5926 0,-54 0,-2.4814 -2.0186,-4.5 -4.5,-4.5 z m 0,62 H 6.0078 c -1.9297,0 -3.5,-1.5703 -3.5,-3.5 V 10.2285 H 63.4922 V 60 c 0,1.9297 -1.5703,3.5 -3.5,3.5 z m 3.5,-54.2715 H 2.5078 V 6 c 0,-1.9297 1.5703,-3.5 3.5,-3.5 h 53.9844 c 1.9297,0 3.5,1.5703 3.5,3.5 z"
       id="path5" /><path
       id="path6"
       style="stroke-width:1.4606"
       d="M 8.5039062,3.7167969 C 6.8307641,3.7888227 5.9117629,6.0776438 7.0788189,7.2868049 8.0731429,8.4960568 10.288145,8.1131871 10.75189,6.5866282 11.25482,5.1614349 10.052183,3.5141427 8.5039062,3.7167969 Z" /><path
       id="path7"
       style="stroke-width:1.4606"
       d="m 14.143155,3.7167969 c -1.669218,0.068922 -2.59564,2.3529068 -1.43246,3.5649808 0.980023,1.1827111 3.135339,0.8616672 3.651789,-0.6154093 0.563313,-1.44671 -0.621414,-3.1489946 -2.219329,-2.9495715 z m 0.232422,0.7285156 C 15.6889,4.3813535 16.290883,6.3568488 15.160734,7.0410156 13.793709,8.0633143 12.042323,5.8751844 13.41464,4.7988281 13.681058,4.5708174 14.024062,4.4366691 14.375577,4.4453125 Z" /><path
       id="path8"
       style="stroke-width:1.4606"
       d="m 19.811056,3.7167969 c -1.673198,0.068681 -2.591934,2.3621968 -1.425087,3.570008 0.996612,1.2137993 3.217677,0.8216861 3.676717,-0.7080745 0.498039,-1.4222458 -0.708521,-3.0704391 -2.25163,-2.8619335 z" /><path
       d="M 55.7266,5.3643 H 33.4854 c -0.2764,0 -0.5,0.2236 -0.5,0.5 0,0.2764 0.2236,0.5 0.5,0.5 h 22.2412 c 0.2764,0 0.5,-0.2236 0.5,-0.5 0,-0.2764 -0.2237,-0.5 -0.5,-0.5 z"
       id="path9" /><path
       d="m 33.0046,55.0406 c 10.0586,-0.0037 18.1751,-8.1583 18.1751,-18.1715 0,-9.9846 -8.0955,-18.1776 -18.1751,-18.1813 -0.0012,0 -0.0024,-4e-4 -0.0036,-4e-4 0,0 -7e-4,10e-5 -10e-4,10e-5 0,0 -0.0013,-10e-5 -0.0019,-10e-5 -10.0694,0 -18.1496,8.1826 -18.1702,18.1443 -8e-4,0.0113 -0.0065,0.0209 -0.0065,0.0324 0,0.0106 0.0053,0.0193 0.006,0.0297 0.0135,10.0062 8.1242,18.1472 18.1707,18.1472 0.0043,0 0.0061,-4e-4 0.0065,-4e-4 z M 20.3447,48.4442 c 1.4624,-0.7468 3.1918,-1.3406 5.0786,-1.7789 0.9731,3.1324 2.402,5.5945 4.1193,7.014 -3.6508,-0.7438 -6.7648,-2.5715 -9.1979,-5.2351 z m 9.1986,-28.3947 c -1.7176,1.4201 -3.1469,3.8839 -4.1201,7.0186 -1.8887,-0.4368 -3.6183,-1.0291 -5.0779,-1.7738 2.5229,-2.7697 5.7885,-4.5457 9.198,-5.2448 z m 16.1177,5.2456 c -1.4606,0.7447 -3.19,1.3369 -5.0779,1.7736 -0.9731,-3.1332 -2.4022,-5.5966 -4.1196,-7.0171 3.6961,0.7631 6.8381,2.6617 9.1975,5.2435 z m -9.1968,28.382 c 1.7171,-1.4198 3.1458,-3.8815 4.1188,-7.0125 1.8858,0.4382 3.6151,1.032 5.0779,1.7785 -2.4944,2.7222 -5.6947,4.5089 -9.1967,5.234 z M 26.3992,46.452 c 1.9171,-0.377 3.9783,-0.5875 6.0989,-0.6172 v 8.1512 c -2.5359,-0.3444 -4.7558,-3.2421 -6.0989,-7.534 z m 6.0989,-26.7095 v 8.1512 c -2.1219,-0.0295 -4.1829,-0.2388 -6.0986,-0.6135 1.3429,-4.2939 3.5629,-7.193 6.0986,-7.5377 z m 1,26.0919 c 2.1235,0.0286 4.1882,0.2392 6.109,0.617 -1.3449,4.2957 -3.5687,7.1948 -6.109,7.5355 z m 0,-0.9993 v -7.4709 h 7.4561 c -0.0394,2.9578 -0.4258,5.7255 -1.0767,8.1285 -2.0091,-0.4011 -4.1634,-0.6283 -6.3794,-0.6576 z m 0,-8.4708 v -7.4708 c 2.2173,-0.029 4.3715,-0.2549 6.3791,-0.6539 0.6505,2.4021 1.0367,5.1685 1.0768,8.1247 z m 0,-8.47 v -8.1525 c 2.5401,0.3408 4.7639,3.2414 6.1088,7.539 -1.9194,0.3756 -3.984,0.5851 -6.1088,0.6135 z m -1,0.9986 v 7.4714 h -7.4452 c 0.0401,-2.9565 0.4263,-5.7231 1.0764,-8.1253 2.0038,0.398 4.1545,0.6237 6.3688,0.6539 z m 0,8.4714 v 7.4714 c -2.213,0.0304 -4.3638,0.2573 -6.3691,0.6577 -0.6507,-2.4032 -1.0368,-5.1711 -1.0762,-8.1292 h 7.4453 z m 9.4558,0 h 8.2039 c -0.1092,3.765 -1.4528,7.3929 -3.8255,10.3159 -1.5676,-0.8295 -3.4208,-1.4975 -5.464,-1.9769 0.6636,-2.4668 1.0469,-5.3001 1.0856,-8.339 z m -3e-4,-1 c -0.0393,-3.0369 -0.4224,-5.8685 -1.0854,-8.334 2.0457,-0.4777 3.899,-1.1439 5.4639,-1.9714 2.3708,2.9196 3.7139,6.5439 3.8251,10.3054 z M 19.6742,26.0587 c 1.5642,0.8272 3.4174,1.4933 5.464,1.971 -0.6628,2.4656 -1.0457,5.2974 -1.085,8.3346 h -8.2046 c 0.1109,-3.7712 1.4538,-7.3952 3.8256,-10.3056 z m 4.3788,11.3056 c 0.0386,3.0392 0.4218,5.8727 1.0853,8.3396 -2.0444,0.4796 -3.8979,1.1474 -5.4648,1.977 -2.3729,-2.9131 -3.7164,-6.5415 -3.8253,-10.3166 z"
       id="path10" /><path
       id="path14"
       style="fill:#ffd42a;stroke-width:0.103413"
       d="m 14.260431,4.3377238 c -0.09616,0.00241 -0.232843,0.021962 -0.339835,0.056231 -0.718822,0.2156414 -1.243784,1.005468 -1.093302,1.7533303 0.04866,0.2426205 0.187426,0.4534876 0.319357,0.6577839 0.492185,0.668116 1.58052,0.7954016 2.192203,0.221623 C 15.549945,6.8146665 15.75144,6.576296 15.826365,6.279307 16.007015,5.6680357 15.761059,4.9356845 15.196011,4.6149616 14.925727,4.4235403 14.592445,4.3182409 14.260431,4.3377238 Z" /><path
       id="path14-6"
       style="fill:#d40000;stroke-width:1.14433"
       d="m -237.62978,-285.47673 c -1.06412,0.0267 -2.57655,0.24302 -3.76048,0.62223 -7.95419,2.3862 -13.76321,11.1261 -12.09803,19.40164 0.53849,2.68474 2.07397,5.01811 3.53387,7.27877 5.44632,7.3931 17.48939,8.80159 24.25803,2.45239 2.33584,-2.34619 4.56551,-4.9839 5.39459,-8.27026 1.99901,-6.76408 -0.72264,-14.86798 -6.97524,-18.41697 -2.99085,-2.11819 -6.67881,-3.28339 -10.35274,-3.0678 z"
       transform="matrix(0.09037021,0,0,0.09037021,30.154043,30.153338)" /><path
       id="path14-5"
       style="fill:#55d400;stroke-width:0.103413"
       d="m 19.93457,4.3291378 c -0.09616,0.00241 -0.232843,0.021962 -0.339835,0.056231 -0.718822,0.2156414 -1.243785,1.005468 -1.093302,1.7533303 0.04866,0.2426205 0.187425,0.4534876 0.319357,0.6577839 0.492185,0.668116 1.580519,0.7954016 2.192203,0.221623 0.21109,-0.2120255 0.412586,-0.450396 0.48751,-0.747385 C 21.681154,5.6594497 21.435198,4.9270985 20.870149,4.6063756 20.599865,4.4149543 20.266584,4.3096549 19.93457,4.3291378 Z" /></g><g
     inkscape:groupmode="layer"
     id="layer1"
     inkscape:label="Layer 1"
     transform="translate(316.98769,317.06621)" /></svg>
