<?xml version="1.0" encoding="UTF-8" standalone="no"?>
<svg
   version="1.1"
   x="0px"
   y="0px"
   viewBox="0 0 90.016937 78.181252"
   xml:space="preserve"
   id="svg40"
   sodipodi:docname="sent.svg"
   width="90.016937"
   height="78.181252"
   inkscape:version="1.3.2 (091e20ef0f, 2023-11-25)"
   xmlns:inkscape="http://www.inkscape.org/namespaces/inkscape"
   xmlns:sodipodi="http://sodipodi.sourceforge.net/DTD/sodipodi-0.dtd"
   xmlns="http://www.w3.org/2000/svg"
   xmlns:svg="http://www.w3.org/2000/svg"><defs
     id="defs40" /><sodipodi:namedview
     id="namedview40"
     pagecolor="#ffffff"
     bordercolor="#000000"
     borderopacity="0.25"
     inkscape:showpageshadow="2"
     inkscape:pageopacity="0.0"
     inkscape:pagecheckerboard="0"
     inkscape:deskcolor="#d1d1d1"
     showgrid="false"
     inkscape:zoom="7.36"
     inkscape:cx="43.682065"
     inkscape:cy="52.98913"
     inkscape:window-width="1920"
     inkscape:window-height="1168"
     inkscape:window-x="0"
     inkscape:window-y="0"
     inkscape:window-maximized="0"
     inkscape:current-layer="svg40" /><g
     id="g39"
     transform="translate(-6.2830653,-9.5)"><path
       d="m 89.6,11.3 c 2.2,-0.6 4.5,-1.3 6.7,-1.8 -0.9,1.6 -1.7,3.2 -2.5,4.8 -6.3,12.3 -12.7,24.5 -19,36.7 -1.3,-1.1 -2.5,-2.3 -3.8,-3.5 -2.9,-2.6 -5.7,-5.3 -8.5,-7.9 -2,1.2 -4,2.4 -6,3.6 C 56,39.8 55.6,36.4 55.2,33 50.7,30.1 46.3,27.1 41.9,24.2 57.8,19.9 73.7,15.6 89.6,11.3 m -42,12.9 c 4.5,0 9,0 13.5,0 2.9,0 5.7,0.1 8.6,0.1 6.9,-3.9 13.7,-7.8 20.6,-11.6 -14.2,3.7 -28.4,7.6 -42.7,11.5 m 26.1,2.9 c 0.4,6.8 0.9,13.6 1.3,20.4 6,-11.7 12,-23.3 18.1,-35 -6.5,4.9 -13,9.8 -19.4,14.6 m -3.6,-1.9 c 0.2,1 0.3,2 0.5,3 6,-4.5 11.9,-9 17.9,-13.4 -6.1,3.4 -12.2,6.9 -18.4,10.4 M 45.8,25.1 c 3.4,2.3 6.9,4.6 10.3,6.9 4,-2.3 7.9,-4.5 11.9,-6.7 -7.4,-0.2 -14.8,-0.1 -22.2,-0.2 m 10.8,7.7 c 0.3,2.5 0.7,5 1,7.5 0.8,-1.3 1.6,-2.6 2.4,-3.9 0.2,-0.4 0.7,-0.6 1,-0.9 2.9,-2.2 5.9,-4.4 8.8,-6.7 -0.1,-1 -0.3,-2.1 -0.5,-3.1 -4.3,2.4 -8.5,4.8 -12.7,7.1 m 4.6,3.7 c 4.2,4 8.6,7.9 12.8,12 -0.4,-6.9 -0.9,-13.7 -1.3,-20.6 -3.8,2.8 -7.6,5.7 -11.5,8.6 m -2.4,3.7 c 1,-0.6 1.9,-1.2 2.9,-1.7 -0.4,-0.3 -0.8,-0.7 -1.2,-1.1 -0.6,0.9 -1.2,1.8 -1.7,2.8 z"
       id="path1" /><path
       d="m 21.5,34.5 c 0.8,-0.3 1.8,0.5 1.6,1.4 -0.1,0.8 -1,1.4 -1.7,0.9 -1,-0.5 -0.9,-2 0.1,-2.3 z"
       id="path2" /><path
       d="m 25.8,34.8 c 0.9,-0.3 1.8,0.6 1.5,1.5 -0.2,0.8 -1.3,1.2 -1.9,0.5 -0.7,-0.5 -0.5,-1.8 0.4,-2 z"
       id="path3" /><path
       d="m 17.1,35.2 c 0.8,-0.4 1.8,0.3 1.7,1.2 0,0.9 -1.2,1.5 -1.9,0.9 -0.7,-0.5 -0.6,-1.8 0.2,-2.1 z"
       id="path4" /><path
       d="m 29.8,36.1 c 0.9,-0.4 1.9,0.6 1.5,1.5 -0.2,0.8 -1.3,1.1 -1.9,0.6 -0.7,-0.5 -0.5,-1.8 0.4,-2.1 z"
       id="path5" /><path
       d="m 13.3,37.1 c 0.8,-0.4 1.8,0.3 1.7,1.2 0,0.9 -1.2,1.4 -1.9,0.9 -0.8,-0.6 -0.6,-1.8 0.2,-2.1 z"
       id="path6" /><path
       d="m 34,38.5 c 0.9,-0.2 1.7,0.7 1.4,1.6 -0.3,0.9 -1.5,1.1 -2.1,0.4 -0.6,-0.7 -0.2,-1.9 0.7,-2 z"
       id="path7" /><path
       d="m 10.2,39.9 c 0.7,-0.3 1.5,0.2 1.6,0.9 0.3,0.9 -0.9,1.8 -1.8,1.3 -0.8,-0.4 -0.7,-1.9 0.2,-2.2 z"
       id="path8" /><path
       d="m 36.6,41.2 c 0.8,-0.4 1.8,0.4 1.7,1.2 0,0.9 -1.1,1.4 -1.8,1 -0.3,-0.3 -0.6,-0.7 -0.6,-1.2 0,-0.4 0.3,-0.8 0.7,-1 z"
       id="path9" /><path
       d="m 7.9,43.7 c 0.8,-0.5 1.9,0.2 1.8,1.1 0,0.9 -1.1,1.4 -1.8,1 -0.8,-0.4 -0.8,-1.7 0,-2.1 z"
       id="path10" /><path
       d="m 52.2,44.2 c 0.9,-0.2 1.8,0.8 1.3,1.7 -0.3,0.8 -1.6,1 -2.1,0.2 -0.5,-0.7 -0.1,-1.8 0.8,-1.9 z"
       id="path11" /><path
       d="m 39,44.7 c 0.7,-0.5 1.7,0 1.8,0.8 0.3,0.9 -0.9,1.8 -1.7,1.3 -0.8,-0.3 -0.9,-1.6 -0.1,-2.1 z"
       id="path12" /><path
       d="m 48.7,47.3 c 0.6,-0.2 1.4,0.1 1.6,0.7 0.3,0.6 0,1.3 -0.6,1.5 -0.6,0.3 -1.5,0 -1.7,-0.7 -0.2,-0.5 0.1,-1.3 0.7,-1.5 z"
       id="path13" /><path
       d="m 7.2,47.8 c 0.8,-0.3 1.6,0.5 1.5,1.3 0,0.9 -1.1,1.6 -1.8,1 -0.8,-0.5 -0.7,-2 0.3,-2.3 z"
       id="path14" /><path
       d="m 40.9,48.6 c 0.9,-0.4 1.9,0.4 1.7,1.4 -0.2,0.9 -1.4,1.2 -2,0.6 -0.7,-0.6 -0.5,-1.7 0.3,-2 z"
       id="path15" /><path
       d="m 45.7,50.1 c 0.8,-0.4 1.8,0.5 1.6,1.4 -0.1,0.6 -0.9,1.1 -1.5,0.9 -0.7,-0.2 -1.1,-0.9 -0.8,-1.6 0.1,-0.3 0.3,-0.6 0.7,-0.7 z"
       id="path16" /><path
       d="M 7.7,52 C 8.5,51.7 9.5,52.5 9.3,53.4 9.2,54.3 8,54.7 7.3,54.1 6.6,53.5 6.9,52.3 7.7,52 Z"
       id="path17" /><path
       d="m 42.6,52.8 c 0.9,-0.3 1.8,0.7 1.4,1.6 -0.3,0.8 -1.5,1.1 -2.1,0.3 -0.6,-0.6 -0.2,-1.7 0.7,-1.9 z"
       id="path18" /><path
       d="m 38.7,55.4 c 0.6,-0.4 1.5,0 1.7,0.7 0.3,0.7 -0.3,1.5 -1,1.6 -0.6,0.1 -1.1,-0.3 -1.3,-0.9 -0.2,-0.6 0.1,-1.2 0.6,-1.4 z"
       id="path19" /><path
       d="m 8.9,56.2 c 0.7,-0.5 1.7,0 1.8,0.8 C 10.9,57.9 9.8,58.8 9,58.3 8.2,57.9 8.1,56.6 8.9,56.2 Z"
       id="path20" /><path
       d="m 41.9,57 c 0.9,-0.2 1.7,0.8 1.3,1.6 -0.2,0.9 -1.5,1.1 -2,0.4 -0.6,-0.7 -0.1,-1.9 0.7,-2 z"
       id="path21" /><path
       d="m 35.4,57.9 c 0.9,-0.4 1.9,0.5 1.6,1.4 -0.2,0.9 -1.4,1.2 -2,0.6 -0.6,-0.6 -0.4,-1.7 0.4,-2 z"
       id="path22" /><path
       d="m 11.3,59.7 c 0.8,-0.5 1.8,0.2 1.8,1.1 0,0.8 -1,1.5 -1.7,1 -1,-0.3 -1,-1.7 -0.1,-2.1 z"
       id="path23" /><path
       d="m 31.7,60 c 0.8,-0.3 1.8,0.5 1.6,1.4 -0.1,0.9 -1.4,1.3 -2,0.6 -0.7,-0.5 -0.3,-1.7 0.4,-2 z"
       id="path24" /><path
       d="m 40.5,61.2 c 0.8,-0.4 1.8,0.2 1.7,1.1 0.1,0.9 -1.1,1.5 -1.9,1 -0.7,-0.5 -0.6,-1.8 0.2,-2.1 z"
       id="path25" /><path
       d="m 27.6,61.4 c 0.8,-0.4 1.9,0.4 1.7,1.3 -0.1,0.9 -1.3,1.3 -2,0.7 -0.7,-0.5 -0.5,-1.7 0.3,-2 z"
       id="path26" /><path
       d="m 14.9,62 c 0.7,-0.3 1.6,0.3 1.6,1 0.1,0.9 -1,1.7 -1.8,1.2 C 13.9,63.7 14,62.3 14.9,62 Z"
       id="path27" /><path
       d="m 23.4,62.2 c 0.4,-0.1 0.8,-0.1 1.1,0.1 0.7,0.5 0.6,1.6 -0.1,2.1 -0.6,0.4 -1.5,0.1 -1.8,-0.6 -0.2,-0.6 0.2,-1.3 0.8,-1.6 z"
       id="path28" /><path
       d="m 19.1,62.8 c 0.7,-0.4 1.7,0.2 1.7,1.1 0.1,0.6 -0.5,1.2 -1.1,1.2 -0.6,0.1 -1.2,-0.5 -1.3,-1.1 -0.1,-0.6 0.2,-1 0.7,-1.2 z"
       id="path29" /><path
       d="m 38.7,64.8 c 0.9,-0.2 1.7,0.8 1.3,1.7 -0.3,0.8 -1.5,1 -2,0.3 -0.6,-0.7 -0.2,-1.8 0.7,-2 z"
       id="path30" /><path
       d="m 35.9,68.3 c 0.9,-0.4 1.9,0.6 1.6,1.5 -0.2,0.8 -1.4,1.1 -2,0.4 -0.7,-0.5 -0.4,-1.6 0.4,-1.9 z"
       id="path31" /><path
       d="m 33,71.6 c 0.9,-0.4 1.9,0.6 1.6,1.5 -0.3,0.8 -1.5,1.1 -2,0.4 C 32,72.9 32.3,71.8 33,71.6 Z"
       id="path32" /><path
       d="m 29.8,74.7 c 0.8,-0.5 2,0.3 1.8,1.2 -0.1,0.8 -1.2,1.3 -1.9,0.8 -0.7,-0.5 -0.6,-1.6 0.1,-2 z"
       id="path33" /><path
       d="m 26.8,77.3 c 0.8,-0.3 1.7,0.5 1.5,1.3 0,0.9 -1.3,1.4 -2,0.7 -0.7,-0.5 -0.4,-1.8 0.5,-2 z"
       id="path34" /><path
       d="m 23.1,79.8 c 0.8,-0.4 1.9,0.4 1.7,1.3 -0.1,0.9 -1.3,1.3 -2,0.7 -0.6,-0.5 -0.5,-1.7 0.3,-2 z"
       id="path35" /><path
       d="m 19.3,81.9 c 0.7,-0.4 1.8,0.1 1.8,1 0.1,0.9 -1,1.6 -1.8,1.1 -0.8,-0.4 -0.9,-1.7 0,-2.1 z"
       id="path36" /><path
       d="m 15.4,83.5 c 0.9,-0.5 2,0.5 1.7,1.4 -0.2,0.9 -1.4,1.2 -2,0.5 -0.7,-0.5 -0.5,-1.6 0.3,-1.9 z"
       id="path37" /><path
       d="m 11.2,84.7 c 0.7,-0.4 1.6,0.1 1.7,0.9 0.3,1 -1.1,1.9 -1.9,1.2 -0.7,-0.5 -0.6,-1.7 0.2,-2.1 z"
       id="path38" /><path
       d="m 7.1,85.3 c 0.7,-0.3 1.7,0.4 1.6,1.2 0,0.9 -1.1,1.5 -1.8,1 C 6,87 6.1,85.5 7.1,85.3 Z"
       id="path39" /></g></svg>
