<?xml version="1.0" encoding="UTF-8" standalone="no"?>
<svg
   xml:space="preserve"
   version="1.1"
   style="image-rendering:optimizeQuality;shape-rendering:geometricPrecision;text-rendering:geometricPrecision"
   viewBox="0 0 58718.234 46178.262"
   x="0px"
   y="0px"
   fill-rule="evenodd"
   clip-rule="evenodd"
   id="svg2"
   sodipodi:docname="plane.svg"
   width="58718.234"
   height="46178.262"
   inkscape:version="1.3.2 (091e20ef0f, 2023-11-25)"
   xmlns:inkscape="http://www.inkscape.org/namespaces/inkscape"
   xmlns:sodipodi="http://sodipodi.sourceforge.net/DTD/sodipodi-0.dtd"
   xmlns="http://www.w3.org/2000/svg"
   xmlns:svg="http://www.w3.org/2000/svg"><sodipodi:namedview
     id="namedview2"
     pagecolor="#ffffff"
     bordercolor="#000000"
     borderopacity="0.25"
     inkscape:showpageshadow="2"
     inkscape:pageopacity="0.0"
     inkscape:pagecheckerboard="0"
     inkscape:deskcolor="#d1d1d1"
     inkscape:zoom="0.015533333"
     inkscape:cx="45000"
     inkscape:cy="30611.588"
     inkscape:window-width="2560"
     inkscape:window-height="1371"
     inkscape:window-x="0"
     inkscape:window-y="0"
     inkscape:window-maximized="1"
     inkscape:current-layer="svg2" /><defs
     id="defs1"><style
       type="text/css"
       id="style1">
   
    .fil0 {fill:black;fill-rule:nonzero}
   
  </style></defs><g
     id="g1"
     transform="translate(-640.88003,-6910.8666)"><path
       class="fil0"
       d="m 14217.45,16520.25 c -83.94,-56.9 -146.42,-145.54 -167.8,-252.85 -43.15,-216.6 97.46,-427.17 314.06,-470.32 l 44517.3,-8878.43 c 216.6,-43.15 427.17,97.46 470.32,314.06 25.62,128.58 -13.54,255.04 -94.89,345.61 L 39767.19,32814.4 c -134.61,174.31 -385.07,206.49 -559.38,71.88 -20.49,-15.82 -39,-33.26 -55.52,-51.98 l -5.07,5.33 -5945.96,-5651.64 -6909.58,4590.04 -0.05,-0.07 c -114.48,75.62 -264.91,90.16 -396.82,25.07 -129.55,-63.93 -209.04,-188.78 -220.96,-322.88 L 24245.52,20736.84 14302,16578.07 c -32.94,-13.68 -61.38,-33.6 -84.55,-57.82 z m 11774.38,16115.57 c 114.66,-261.29 -72.11,-554.3 -357.44,-561.32 -162.75,-2.68 -308.41,89.87 -374.62,238.7 -195.01,441.2 -395.31,878.52 -603.31,1313.75 l -60.95,126.43 c -107.31,223.25 10.41,487.67 247.91,557.93 188.15,54.65 386.97,-33.69 472.49,-210.03 l 61.87,-128.37 c 194.87,-407.72 383.57,-818.23 567.21,-1231.13 z M 11096.16,52999.98 c 221.14,177.35 549.19,78.29 634.1,-192.73 47.74,-157.33 -2.9,-324.88 -130.48,-428.85 l -53.07,-43.24 -41.92,-34.85 -41.41,-35.05 -40.92,-35.23 -40.46,-35.44 -39.99,-35.65 -39.48,-35.78 -39.02,-36.01 -38.59,-36.2 -38.06,-36.33 -37.62,-36.55 -37.18,-36.73 -36.71,-36.89 -36.28,-37.09 -35.81,-37.23 -35.35,-37.4 -34.9,-37.55 -34.46,-37.73 -34.05,-37.92 -33.61,-38.07 -33.18,-38.22 -32.72,-38.36 -32.29,-38.5 -31.88,-38.66 -31.46,-38.84 -31.04,-38.96 -30.63,-39.13 -30.19,-39.22 -20.93,-27.68 c -174.46,-230.37 -524.24,-208.18 -668.13,42.74 -78.08,139.1 -67.67,309.33 28.09,437.22 l 24.93,32.96 34.29,44.56 34.75,44.37 35.2,44.2 35.7,44.04 36.16,43.88 36.65,43.7 37.14,43.52 37.6,43.32 38.07,43.13 38.57,42.94 39.06,42.77 39.58,42.59 40.05,42.36 40.55,42.17 41.02,41.93 41.53,41.75 42.04,41.53 42.54,41.31 43.08,41.13 43.53,40.84 44.06,40.65 44.6,40.44 45.07,40.15 45.58,39.94 46.12,39.71 46.65,39.47 47.14,39.21 z m -2307.11,-3480.3 c 84.97,284.77 436.04,381.95 655.38,180.99 111.92,-104.33 154.84,-259.54 112.16,-406.53 l -16.67,-57.12 -12.31,-43.44 -12.03,-43.52 -11.75,-43.52 -11.44,-43.54 -11.19,-43.6 -10.88,-43.53 -10.6,-43.55 -10.32,-43.59 -10.06,-43.61 -9.77,-43.54 -9.49,-43.56 -9.24,-43.57 -8.95,-43.54 -8.71,-43.57 -8.43,-43.54 -8.18,-43.51 -7.91,-43.43 -7.65,-43.49 -7.41,-43.42 -7.14,-43.42 -6.9,-43.37 -6.64,-43.3 -6.41,-43.37 -6.16,-43.24 -5.92,-43.22 -5.68,-43.17 -5.43,-43.08 -5.2,-43.08 -4.98,-43.04 -4.75,-42.98 -4.51,-42.89 -4.29,-42.81 -4.41,-46.68 c -25.7,-288.31 -338.31,-454.68 -592.12,-315.26 -138.76,77.52 -218.36,226.46 -204.84,384.98 l 5.15,54.62 4.69,46.89 4.95,46.95 5.19,47.02 5.44,47.1 5.7,47.18 5.97,47.34 6.24,47.35 6.48,47.44 6.78,47.54 7.03,47.51 7.3,47.68 7.6,47.71 7.86,47.76 8.15,47.84 8.43,47.87 8.73,47.99 9.02,47.99 9.31,48 9.59,48.05 9.91,48.14 10.2,48.15 10.51,48.2 10.83,48.26 11.12,48.23 11.44,48.27 11.76,48.33 12.08,48.35 12.39,48.32 12.72,48.36 13.05,48.38 13.37,48.38 13.73,48.44 z m -230.78,-4136.64 c -29.8,195.64 86.11,382.58 274.71,442.55 234.48,73.27 477.98,-77.59 515.91,-320.35 49.47,-323.59 113.01,-642.5 197.42,-958.84 45.89,-169.85 97.04,-340.4 161.78,-504.13 l -0.74,1.84 c 101.47,-253.68 -71.63,-530.67 -344.65,-549.61 -173.09,-10.6 -330.89,88.44 -396.69,248.91 -48.5,120.79 -89.63,245.25 -127.78,369.64 -125.55,415.4 -214.41,841.24 -279.96,1269.99 z m 1469.11,-3841.75 c -137.12,253.07 27.02,561.62 313.53,590.03 160.22,14.51 311.02,-65.71 388.63,-206.65 252.61,-463.88 515.92,-923.68 785.71,-1377.79 122.08,-207.81 36.6,-472.44 -183.68,-570.13 -185.89,-80.93 -401.15,-11.64 -504.8,162.69 -136.47,231.08 -271.62,462.82 -404.99,695.7 l -53.97,-20.43 c -367.73,-141.2 -728.89,-290.25 -1089.81,-448.01 l -113.03,-50.03 c -255.36,-112.06 -541.21,60.22 -561.74,338.48 -10.38,168.81 82.19,323.12 236.66,392.5 l 116.13,51.39 c 340.07,148.67 680.41,289.87 1026.25,424.58 l 45.27,17.38 z m 2027.56,-3461.38 c -143.4,247.09 8.17,558.44 291.19,598.37 160.99,21.29 317.03,-54.32 399.37,-194.49 272.61,-465.62 538.38,-933.69 791.09,-1410.47 137.76,-262.89 -46.43,-578.21 -343.48,-586.77 -153.43,-3.17 -291.51,77.85 -363.9,213.13 -247.27,466.56 -507.51,924.6 -774.27,1380.23 z m 1739.36,-3514 c -79.21,222.14 47.29,461.97 275.22,522.44 200.8,52.24 406.91,-56.57 477.54,-251.6 177.14,-494.46 324.25,-991.68 436.37,-1507.25 l 14.54,-69.12 3.66,-18.02 c 56.1,-285.01 -198.9,-532.66 -482.36,-468.07 -153.74,36.33 -271.03,156.43 -302.18,311.57 -99.26,474.64 -231.96,937.82 -392.63,1395.87 z m 584.73,-3761.49 c 20.53,294.28 339.32,465.29 596.49,320.94 134.1,-77.27 211.87,-220.28 201.67,-375.06 -7.43,-105.41 -16.12,-209.8 -26.32,-314.97 -46.87,-444.93 -124.54,-900.73 -232.78,-1334.89 -42.99,-168.62 -188.01,-288.9 -361.42,-300.93 -271.75,-16.64 -480.33,233.42 -414.04,497.55 l 20.45,84.5 c 81.75,351.94 143.71,705.82 184.55,1064.89 12.59,119.62 22.93,237.99 31.4,357.97 z m -3433.89,-6513.23 c 241.13,139.94 544.57,0.4 595.97,-273.74 29.07,-166.78 -45.57,-330.1 -191.43,-416.44 l -147.9,-86.14 c -413.33,-226.09 -813.43,-389.16 -1277.76,-514.7 l -100.97,-25.22 -67.44,-15.47 c -288.02,-62.61 -541.95,195.61 -475,482.89 36.29,150.24 152.58,265.11 303.66,298.55 l 52.44,12.03 c 416.11,103.87 793.58,251.72 1174.21,459.94 l 81.14,46.49 z m -3568.98,-542.03 c 285.73,-64.63 407.66,-401.13 230.03,-634.34 -96.26,-123.39 -251.08,-180.36 -404.23,-146.46 l -40.15,8.63 c -541.51,125.19 -1055.76,305.47 -1555.53,542.52 -269.12,130.52 -305.63,497.09 -67.94,679.07 121.15,90.55 278.89,107.16 415.54,41.47 441.66,-209.42 905.85,-372.13 1382.13,-482.26 z m -3309.17,1764.86 c 132.08,-121.02 168.17,-310.35 90.45,-471.6 -118.29,-239.84 -430.2,-299.12 -628.57,-120.38 l -17.53,15.74 -81.58,75.07 -80.79,76.12 c -345.5,333.44 -660.19,681.49 -953.17,1059.15 -175.74,230.59 -57.44,563.13 224.02,632.3 154.74,36.56 313.89,-19.75 411,-145.74 l 45.88,-59.12 64,-80.5 c 280.99,-344.71 581.55,-664.29 908.76,-965.3 z M 1895.61,28614.7 c 100.9,-255.97 -78.63,-533.84 -353.58,-547.31 -171.31,-6.99 -326.2,92.71 -389.94,252.07 l -5.86,14.48 -41.56,106.69 c -176.41,471.51 -310.75,942.64 -407.35,1439.8 l -9.65,53.78 c -44.88,266.15 176.72,496.42 444.28,464.75 175.74,-23.05 313.35,-154.58 344.16,-329.19 81.89,-456.47 213.55,-909.93 375.94,-1343.78 l 37.7,-96.81 z m -459.29,3716.35 c -43.76,-280.07 -353.14,-427.84 -598.41,-284.86 -141.33,84.53 -216.78,241.6 -192.55,404.8 l 4.04,28.14 19.32,120.98 c 74.47,422.72 171.61,806.62 305.84,1214.34 l 42.17,121.5 44.32,121.5 9.6,25.05 c 87.51,222.01 346.32,318.4 558,208.33 181.04,-95.37 261.17,-309.69 186.78,-500.41 l -5.06,-13.19 c -169.87,-465.58 -292.08,-930.15 -370.01,-1418.04 z m 1484.11,3456.58 c -111.69,-146.54 -305.74,-197.94 -475.42,-126.5 -239.83,103.08 -319.14,401.42 -162.1,609.8 l 49.14,65.81 90.37,117.43 c 293.67,370.57 591.77,703.85 924.42,1039.81 l 27.18,26.73 c 121.73,117.81 302.36,146.36 454.61,72.31 248.81,-123.27 300.94,-452.29 102.61,-646.33 l -19.68,-19.35 c -337.79,-341.13 -649.84,-694.19 -941.99,-1073.9 z m 2808.12,2640.63 c -243.66,-166.24 -575.51,-22.36 -621.64,269.01 -22.94,152.96 41.87,302.88 169.22,390.77 l 75.63,52.48 c 428.9,290.62 858.94,557.99 1307.79,815.82 252.39,142.46 565.86,-20.28 595.64,-308.55 15.01,-157.93 -62.61,-308.61 -200.68,-387.15 -377.39,-216.82 -739.48,-439.51 -1102.45,-679.7 l -147.88,-100.2 z m 7138.38,3139.7 c -275.66,-56.66 -521.16,178.87 -476.37,456.82 28.05,164.21 150.18,291.58 313.15,326.36 l 50.42,10.68 c 494.98,101.4 991.93,177.4 1495.59,222.06 l 89.82,7.24 c 272.69,17.97 482,-233.38 415.16,-498.5 -43.94,-167.95 -186.77,-286.85 -359.94,-299.6 0.54,0.04 -994.47,-115.35 -1477.41,-214.38 z m 3815.04,112.01 c -284.26,54.84 -417.95,382.75 -253.51,621.08 90.48,130.18 248.14,194.08 403.79,164.67 558.09,-109.4 1086.41,-267.7 1608.51,-482.31 184.29,-77.43 283.4,-276.26 233.4,-469.91 -62.06,-235.63 -315.81,-361.87 -540.96,-268.61 -433.04,178.06 -856.21,308.93 -1313.93,407.49 l -68.49,14.1 z m 3403.45,-1609.07 c -214.05,173.58 -192.8,506.8 41.93,651.68 146.15,88.81 327.87,77.24 461.37,-29.82 l 25.5,-20.47 61.58,-50.25 c 397.1,-329.01 769.29,-683.9 1121.33,-1060.57 192.65,-209.16 114.34,-544.97 -151.79,-646.52 -153.35,-57.17 -322.52,-17.34 -434.39,102.12 l -47.68,51 c -331.05,349.55 -679.36,678.13 -1052.35,982.36 z m 2570.57,-2889.45 c -160.54,239.7 -25.39,564 258.68,617.49 157.68,28.37 313.73,-37.02 404.04,-169.39 l 17.16,-25.26 c 287.93,-427.87 559.48,-864.14 820.18,-1309.66 l 26.2,-45.18 c 148.08,-257.14 -24.93,-579.73 -321.1,-599.31 -152.22,-9.44 -295.15,67.39 -371.68,199.25 l -24.68,42.54 -48.75,83.31 c -236.45,400.7 -483.13,794.93 -742.89,1180.95 z m 32686.43,-26531.84 -335.22,-370.98 370.98,-335.21 335.22,370.98 z m -5935.83,5363.38 -335.22,-370.98 370.99,-335.21 335.22,370.98 z m 1483.96,-1340.85 -335.22,-370.98 370.99,-335.21 335.22,370.98 z m 1483.96,-1340.85 -335.22,-370.98 370.99,-335.21 335.22,370.98 z m 1483.96,-1340.84 -335.22,-370.98 370.99,-335.21 335.22,370.98 z M 32607.79,26623.9 30073.02,24214.6 27082.03,30294.68 Z m -8165.14,-6345.6 c 16.49,-8.98 33.74,-16.87 51.64,-23.51 L 54528.13,8602.32 15253.72,16435.12 Z M 39218.8,32219.6 57440.28,8625.11 30415.43,23852 Z m -14149.01,-11332.78 1223.57,9203.22 3225.73,-6557.25 c 33.57,-77.31 91.75,-144.67 170.94,-189.05 L 53908.83,9697.9 Z m -11474.16,4912.53 c 74.96,115.41 42.17,269.76 -73.24,344.72 -115.41,74.96 -269.76,42.17 -344.72,-73.24 -2.93,-4.52 -7.26,-10.51 -12.82,-17.8 -39.38,-51.54 -93.18,-83.15 -150.24,-92.88 -57.65,-9.84 -119.67,2.19 -174.8,38 -4.49,2.92 -10.56,7.29 -18.24,13.16 -65.6,50.12 -107.15,125.13 -121.27,205.84 -14.11,80.66 -0.67,164.71 43.65,232.95 10.44,16.07 22.61,33.18 36.37,51.2 118.64,155.29 282.23,250.72 456.75,280.51 175.12,29.89 362.27,-5.88 527.35,-113.11 15.95,-10.36 33.33,-22.7 52.09,-37.04 183.19,-139.97 298.67,-346.4 337.26,-566.95 38.58,-220.5 0.15,-452.82 -124.43,-644.62 -17.95,-27.64 -37.99,-55.9 -59.96,-84.65 -197.9,-259 -471.25,-418.27 -763.21,-468.1 -292.54,-49.94 -604.83,9.57 -879.84,188.21 -27.43,17.81 -56.12,38.13 -85.98,60.95 -300.79,229.83 -490.2,567.66 -553.26,928.07 -63.06,360.34 0.36,740.93 205.19,1056.27 25.47,39.21 53.37,78.6 83.51,118.06 277.16,362.73 660.3,585.84 1069.72,655.72 410.01,69.98 847.42,-13.28 1232.39,-263.33 38.88,-25.25 78.86,-53.54 119.83,-84.84 418.36,-319.66 681.72,-788.93 769.25,-1289.18 87.52,-500.19 -0.88,-1029.04 -285.96,-1467.92 -74.96,-115.41 -42.17,-269.76 73.24,-344.72 115.41,-74.96 269.76,-42.17 344.72,73.24 356.91,549.46 468.41,1206.8 360.18,1825.34 -108.22,618.5 -436.36,1200.62 -958.69,1599.72 -47.85,36.56 -98.29,72.03 -151.09,106.32 -494.61,321.27 -1058.26,427.94 -1587.85,337.55 -530.2,-90.49 -1025.33,-378.09 -1382.22,-845.16 -35.34,-46.26 -70.37,-96.02 -104.99,-149.32 -276.66,-425.92 -363.18,-935 -279.41,-1413.69 83.75,-478.65 337.94,-929.35 742.7,-1238.61 36.76,-28.09 75.91,-55.59 117.24,-82.43 384.64,-249.86 823.17,-332.78 1235.3,-262.43 412.74,70.44 798.09,294.2 1075.71,657.54 27.16,35.53 54.33,74.18 81.44,115.91 196.41,302.39 257.94,663.18 198.65,1002.04 -59.28,338.8 -239.54,658.09 -526.7,877.49 -25.64,19.59 -53.48,39.12 -83.35,58.52 -274.71,178.44 -588.1,237.63 -882.81,187.33 -295.3,-50.4 -570.89,-210.33 -769.25,-469.95 -18.96,-24.82 -38.26,-52.31 -57.85,-82.46 -116.16,-178.83 -152.69,-391.37 -117.87,-590.37 34.81,-198.96 141.14,-386.83 310.71,-516.38 14.52,-11.09 31.09,-22.67 49.5,-34.64 164.76,-107.02 353.03,-142.47 530.26,-112.22 177.82,30.34 343.62,126.42 462.74,282.32 10.79,14.14 22.23,30.46 34.3,49.06 z"
       id="path1" /></g></svg>
