<?xml version="1.0" encoding="UTF-8" standalone="no"?>
<svg
   xml:space="preserve"
   version="1.1"
   style="image-rendering:optimizeQuality;shape-rendering:geometricPrecision;text-rendering:geometricPrecision"
   viewBox="0 0 570.52246 777.2943"
   x="0px"
   y="0px"
   fill-rule="evenodd"
   clip-rule="evenodd"
   id="svg2"
   sodipodi:docname="finger_up.svg"
   width="570.52246"
   height="777.29431"
   inkscape:version="1.3.2 (091e20ef0f, 2023-11-25)"
   xmlns:inkscape="http://www.inkscape.org/namespaces/inkscape"
   xmlns:sodipodi="http://sodipodi.sourceforge.net/DTD/sodipodi-0.dtd"
   xmlns="http://www.w3.org/2000/svg"
   xmlns:svg="http://www.w3.org/2000/svg"><sodipodi:namedview
     id="namedview2"
     pagecolor="#ffffff"
     bordercolor="#000000"
     borderopacity="0.25"
     inkscape:showpageshadow="2"
     inkscape:pageopacity="0.0"
     inkscape:pagecheckerboard="0"
     inkscape:deskcolor="#d1d1d1"
     inkscape:zoom="1.28"
     inkscape:cx="341.40625"
     inkscape:cy="400.39063"
     inkscape:window-width="2560"
     inkscape:window-height="1371"
     inkscape:window-x="0"
     inkscape:window-y="0"
     inkscape:window-maximized="1"
     inkscape:current-layer="svg2" /><defs
     id="defs1"><style
       type="text/css"
       id="style1">
   
    .fil0 {fill:black;fill-rule:nonzero}
   
  </style></defs><g
     id="g1"
     transform="matrix(0.02139152,0,0,0.02139152,-356.35876,-253.22404)"><path
       class="fil0"
       d="m 23775.55,15385.16 c 0,138.07 -111.93,250 -250,250 -138.07,0 -250,-111.93 -250,-250 v -3297.57 c 0,-138.07 111.93,-250 250,-250 138.07,0 250,111.93 250,250 z m 11101.34,22951.16 c 16.71,-136.99 141.33,-234.49 278.32,-217.78 136.99,16.71 234.49,141.33 217.78,278.32 l -189.9,1553.7 c -16.71,136.99 -141.33,234.49 -278.32,217.78 -136.99,-16.71 -234.49,-141.33 -217.78,-278.32 z m -1264.79,-18.21 c 45.84,-129.98 188.38,-198.18 318.36,-152.34 129.98,45.84 198.18,188.38 152.34,318.36 l -448.84,1260.22 c -45.84,129.98 -188.38,198.18 -318.36,152.34 -129.98,-45.84 -198.18,-188.38 -152.34,-318.36 z m 6323.21,5799.4 c 118.11,-70.11 270.71,-31.19 340.82,86.92 70.11,118.11 31.19,270.71 -86.92,340.82 -1016.2,604.77 -1777.41,397.51 -2541.47,189.45 l -32.33,-8.8 c -384.11,-104.5 -769.58,-205.84 -1174.99,-177.12 -402.44,28.51 -845.84,184.51 -1369.31,592.36 -108.4,84.67 -264.94,65.43 -349.61,-42.97 -84.67,-108.4 -65.43,-264.94 42.97,-349.61 614.58,-478.84 1148.41,-662.94 1640.79,-697.82 489.45,-34.67 916.51,77.25 1341.01,192.74 l 32.33,8.8 c 663.4,180.65 1324.32,360.6 2156.71,-134.77 z m -2413.61,1375.84 c 133.21,36.13 211.91,173.43 175.78,306.64 -36.13,133.21 -173.43,211.91 -306.64,175.78 -223.52,-60.81 -447.39,-120.07 -668.57,-125.68 -214.93,-5.45 -445.63,37.48 -706.97,175.71 -121.88,64.18 -272.73,17.39 -336.91,-104.49 -64.18,-121.88 -17.39,-272.73 104.49,-336.91 346.14,-183.09 657.59,-239.79 951.11,-232.35 287.27,7.28 538.29,73.44 787.71,141.3 z m 5068.81,1827.17 c 41.42,216.6 -100.59,425.77 -317.19,467.19 -216.6,41.42 -425.77,-100.59 -467.19,-317.19 -1221.21,-6321.61 -1059.63,-6958.97 158.88,-11765.29 125.08,-493.39 260.74,-1028.44 372.06,-1475.57 146.48,-588.36 236.8,-1057.78 174.62,-1443.65 -35.2,-218.46 -125.11,-423.01 -291,-626.59 -0.51,-0.62 -0.94,-1.15 -1.46,-1.76 -283.2,-331.76 -855.83,-714.37 -1535.24,-1041.01 -664.75,-319.59 -1421.42,-578.18 -2103.86,-678.05 -615.48,-90.08 -1149.78,-51.36 -1445.95,197.09 -70.38,59.04 -127.51,130.78 -168.71,216.49 -471.36,980.3 -866.24,1858.76 -1243.04,2767.22 l -3.61,8.71 c -1.46,3.52 -2.53,6.58 -3.6,10.24 l -634.01,2169.78 c -1.66,5.73 -3.46,11.37 -5.35,16.96 l 0.67,0.23 c -142.42,419.31 -58.55,744.61 125.84,932.45 66.08,67.32 146.33,117.99 233.82,149.25 84.86,30.32 175.81,41.29 266.12,30.27 242.48,-29.59 489.96,-222.43 635.64,-628.62 255.16,-707.45 488.63,-1334.27 713.39,-1909.05 227.1,-580.77 461.57,-1150.53 719.07,-1744.69 169.69,-391.53 465.49,-412.25 867.93,-237.84 157.66,68.32 330.7,169.94 528.75,286.22 478.06,280.71 1122.77,659.26 1735.42,654.85 220.05,-0.86 399.14,176.83 400,396.88 0.86,220.05 -176.83,399.14 -396.88,400 -829.95,5.98 -1583.14,-436.28 -2141.66,-764.23 -93.62,-54.96 -181.02,-106.28 -258.56,-149.38 -25.69,-14.28 -53.29,-16.73 -81.09,-7.17 -27.8,9.56 -48.07,28.44 -59.55,55.5 -190.62,449.14 -378.03,910.38 -569.67,1400.48 -239.65,612.84 -469.77,1229.03 -707.15,1887.19 -263.39,734.42 -771.49,1090.5 -1288.76,1153.62 -215.74,26.33 -431.57,0.62 -631.76,-70.91 -197.53,-70.59 -380.68,-186.97 -533.82,-342.99 -64.37,-65.57 -123.23,-137.92 -175.34,-216.5 -18.33,-27.64 -46.26,-43.35 -79.39,-44.65 -33.14,-1.31 -62.22,12.16 -82.67,38.27 -269.83,344.56 -619.3,524.8 -973.07,567.97 -215.74,26.33 -431.57,0.62 -631.76,-70.91 -197.55,-70.59 -380.68,-186.98 -533.83,-343 -377.93,-385.02 -566.37,-1003.11 -313.33,-1748.08 l 1418.73,-4176.65 0.29,0.1 c 44.66,-153.5 90.94,-302.36 139.06,-447 14.63,-43.97 -1.88,-90.71 -40.88,-115.73 -39,-25.03 -88.37,-20.57 -122.24,11.05 l -367.39,342.9 -0.24,-0.26 c -10.74,9.96 -22.1,19.45 -34.14,28.38 -606.61,448.03 -1221.73,522.7 -1708.89,369.88 -239.62,-75.18 -448.3,-205.3 -611.85,-374.33 -167.31,-172.92 -287.22,-385.39 -345.21,-621.01 -71.94,-292.24 -49.56,-616.48 95.69,-938.49 6.47,-14.34 9.21,-27.88 8.82,-43.6 -15.37,-612.23 -67.48,-2056.17 -346.25,-3256.43 -245.71,-1057.91 -667.49,-1913.31 -1394.18,-1518.77 -3.73,2.02 -2.87,10.21 -18.01,33.65 -25.92,40.12 -48.26,89.79 -61.83,143.03 -18.01,70.68 -24.91,143.54 -24.85,209.89 0.08,85.16 10.04,157.7 22.35,201.48 263.32,936.06 196.48,1624.18 129.63,2312.28 -36.49,375.57 -72.95,751.16 -44.91,1165.8 0.4,5.96 1.18,11.01 2.59,16.81 l 97.88,403.66 c 320.24,1319.64 430.06,1772.23 389.99,3328.35 -36.05,1399.22 195.38,2797.09 622.9,4150.72 473.63,1499.62 1187.33,2941.37 2044.83,4268.77 1123.14,1738.6 1614.08,3159.34 2269.9,5057.28 163.41,472.94 337.72,977.35 558.47,1587.22 75.07,207.1 -31.96,435.87 -239.06,510.94 -207.1,75.07 -435.87,-31.96 -510.94,-239.06 -194.35,-536.94 -383.88,-1085.39 -561.59,-1599.72 -636.23,-1841.23 -1112.49,-3219.51 -2188.66,-4885.4 -894.94,-1385.35 -1640.21,-2891.35 -2135.45,-4459.41 -451.57,-1429.79 -695.82,-2914.2 -657.28,-4410.1 37.36,-1451.16 -66.18,-1877.88 -368.11,-3122.09 -20.23,-83.37 -42.48,-175.07 -109.05,-453.1 -4.97,-20.91 -8.18,-41.82 -9.75,-62.59 l -1.19,0.09 c -36.69,-485.27 4.49,-909.23 45.67,-1333.17 59.56,-613.11 119.12,-1226.26 -104.63,-2021.66 -27.84,-98.96 -50.3,-251.23 -50.47,-417.1 -0.13,-131.9 12.84,-273.8 46.73,-406.77 35.02,-137.36 94.7,-268.7 164.95,-377.41 85.55,-132.39 195.2,-240.79 308.63,-302.39 1451.11,-787.86 2183.54,447.51 2553.56,2040.65 176.76,761.03 267.02,1609.19 314.41,2303.63 2.75,40.32 27.51,73.26 65.47,87.12 37.96,13.86 78.12,4.62 106.2,-24.43 l 1534.4,-1587.32 c 22.39,-23.16 31.79,-52.63 26.96,-84.48 -595.22,-3959.42 -340.53,-5589.67 287.51,-9609.06 l 2.73,-17.49 c 0.17,-1.09 0.3,-2.02 0.44,-3.12 1.84,-14.88 4.55,-29.81 8.16,-44.74 153.74,-637.03 478.71,-1033.33 839.04,-1209.86 194.38,-95.22 398.37,-128.2 595.93,-102.63 199.85,25.87 388.15,109.52 548.76,247.27 298.16,255.73 503.16,702.13 486.08,1303 -44.58,1567.53 -46.39,2726.64 13.94,3896.58 57.92,1123.06 172.77,2252.73 361.6,3758.67 4.75,37.9 28.5,67.92 64.29,81.27 297.04,110.75 575.19,312.69 843.75,600.89 1.37,1.47 2.58,2.7 4.03,4.09 14.82,14.17 28.75,29.66 41.59,46.48 1040.94,1366.21 1727.89,2191.87 2487.74,2933.22 763.21,744.62 1611.91,1416.88 2971.73,2471.93 610.04,473.3 896.79,951.68 986.59,1509.05 84.41,523.85 -17.85,1079.38 -187.12,1759.27 -155.33,623.86 -267.93,1067.94 -372.06,1478.71 -1180.53,4656.52 -1337.08,5274.02 -149.5,11421.53 z M 39073.16,29526.65 c -97.76,-90.88 -193.69,-182.2 -288.55,-274.74 -792.18,-772.89 -1498.02,-1619.63 -2557.49,-3009.74 -2.16,-2.83 -4.12,-5.15 -6.55,-7.75 -257.04,-274.47 -505.81,-424.55 -760.95,-439.31 -268.68,-15.55 -577.59,109.65 -945.1,386.75 -4.38,3.3 -7.89,6.41 -11.7,10.35 l -3336.45,3451.5 c -1.51,1.56 -2.77,2.93 -4.18,4.58 -206.77,242.27 -263.79,483.45 -215.73,678.67 23.82,96.77 73.18,184.15 142.09,255.37 72.67,75.11 167.26,133.52 277.47,168.09 260.52,81.72 605.52,31.53 971.68,-230.06 3.73,-2.66 6.75,-5.15 10.1,-8.28 l 3087.63,-2881.78 c 161.37,-150.15 413.92,-141.06 564.07,20.31 150.15,161.37 141.06,413.92 -20.31,564.07 l -415.01,387.34 c -2.83,2.64 -5.11,5.02 -7.63,7.95 -353.67,411.76 -645.47,839.78 -893.05,1314.69 -255.04,489.18 -461.92,1024.26 -639.61,1638.01 -1.66,5.73 -3.46,11.37 -5.35,16.96 l 0.67,0.23 -1418.73,4176.65 c -142.43,419.32 -58.55,744.6 125.83,932.44 66.09,67.33 146.33,118 233.83,149.26 84.86,30.32 175.81,41.29 266.12,30.27 242.48,-29.59 489.97,-222.44 635.64,-628.63 395.46,-1096.44 750.59,-2028.75 1123.03,-2926.71 373.75,-901.11 774.67,-1791.65 1261.78,-2804.72 93.82,-195.17 220.67,-355.79 374.97,-485.23 491.87,-412.63 1247.27,-496.22 2074.07,-375.21 95.53,13.98 192.31,30.73 289.95,50.01 44.51,8.79 87.82,-12.23 108.45,-52.64 20.62,-40.41 12.24,-87.81 -20.99,-118.7 z m -5075.18,-3953.96 c 356.14,-273.96 691.11,-448.07 1013.29,-527.22 49.49,-12.16 81.66,-58.86 75.38,-109.43 -179.23,-1445.5 -289.35,-2548.09 -345.66,-3640.01 -61.19,-1186.62 -59.29,-2364.53 -13.94,-3959.08 9.57,-336.67 -78.5,-563.83 -207.96,-674.86 -41.99,-36.01 -86.54,-57.29 -130,-62.91 -45.76,-5.92 -95.64,3 -145.93,27.63 -161.89,79.31 -317.17,293.34 -409.86,664.78 -0.76,3.04 -1.29,5.67 -1.77,8.77 l -1.24,7.92 c -572.16,3661.81 -827.6,5297.91 -394.41,8606.12 5.08,39.01 30.41,69.66 67.75,82.03 37.35,12.36 75.99,2.86 103.34,-25.43 l 347.26,-359.24 c 13.47,-13.82 28.02,-26.92 43.75,-39.07 z M 27604.73,13458.98 c 104.09,-90.07 261.5,-78.7 351.57,25.39 90.07,104.09 78.7,261.5 -25.39,351.57 l -2442.8,2119.05 c -104.09,90.07 -261.5,78.7 -351.57,-25.39 -90.07,-104.09 -78.7,-261.5 25.39,-351.57 z m -8814.71,376.96 c -104.09,-90.07 -115.46,-247.48 -25.39,-351.57 90.07,-104.09 247.48,-115.46 351.57,-25.39 l 2442.81,2119.05 c 104.09,90.07 115.46,247.48 25.39,351.57 -90.07,104.09 -247.48,115.46 -351.57,25.39 z m 7232.34,4289.61 c -138.07,0 -250,-111.93 -250,-250 0,-138.07 111.93,-250 250,-250 h 3822.16 c 138.07,0 250,111.93 250,250 0,138.07 -111.93,250 -250,250 z m -5233.03,-743.67 c 138.07,0 250,111.93 250,250 0,138.07 -111.93,250 -250,250 h -3880.45 c -138.07,0 -250,-111.93 -250,-250 0,-138.07 111.93,-250 250,-250 z"
       id="path1" /></g></svg>
