<?xml version="1.0" encoding="UTF-8" standalone="no"?>
<svg
   xml:space="preserve"
   version="1.1"
   style="image-rendering:optimizeQuality;shape-rendering:geometricPrecision;text-rendering:geometricPrecision"
   viewBox="0 0 999.99982 372.53015"
   x="0px"
   y="0px"
   fill-rule="evenodd"
   clip-rule="evenodd"
   id="svg2"
   sodipodi:docname="success.svg"
   width="999.99982"
   height="372.53015"
   inkscape:version="1.3.2 (091e20ef0f, 2023-11-25)"
   xmlns:inkscape="http://www.inkscape.org/namespaces/inkscape"
   xmlns:sodipodi="http://sodipodi.sourceforge.net/DTD/sodipodi-0.dtd"
   xmlns="http://www.w3.org/2000/svg"
   xmlns:svg="http://www.w3.org/2000/svg"><sodipodi:namedview
     id="namedview2"
     pagecolor="#ffffff"
     bordercolor="#000000"
     borderopacity="0.25"
     inkscape:showpageshadow="2"
     inkscape:pageopacity="0.0"
     inkscape:pagecheckerboard="0"
     inkscape:deskcolor="#d1d1d1"
     showgrid="false"
     inkscape:zoom="0.35147921"
     inkscape:cx="1539.2091"
     inkscape:cy="-402.58427"
     inkscape:window-width="2560"
     inkscape:window-height="1371"
     inkscape:window-x="0"
     inkscape:window-y="0"
     inkscape:window-maximized="1"
     inkscape:current-layer="svg2" /><defs
     id="defs1"><style
       type="text/css"
       id="style1">
   
    .fil0 {fill:black;fill-rule:nonzero}
   
  </style></defs><g
     id="g1"
     transform="matrix(0.01716417,0,0,0.01716417,-14.824515,-328.76092)"><path
       class="fil0"
       d="m 18245.95,35319.17 1121.04,-6347.47 c 17.69,-100.15 43.25,-193.4 76.49,-280.13 L 4271.88,22233.91 c -202.79,-86.29 -297.23,-320.65 -210.94,-523.44 86.29,-202.79 320.65,-297.23 523.44,-210.94 l 15401.96,6555.71 c 115.74,-67.06 244.74,-119.01 386.48,-157.27 l 12.5,-3.1 6086.93,-1440.18 -24228.08,-5867.35 c -26.06,-6.3 -50.88,-15.05 -74.31,-25.91 -130.46,-57.6 -239.28,-77.38 -325.65,-69.08 -65.88,6.33 -115.36,30.31 -146.52,64.71 -19.92,21.99 -36.38,38.79 -36.47,39.53 -3.18,23.81 14.78,73.74 70.87,170.77 L 8800.7,32994.14 c 158.58,274.29 321.34,461.63 495.49,529.12 152.21,58.98 347.18,25.64 600.62,-125.16 l 5411.93,-3220.32 -0.82,-1.37 c 246.98,-148.88 518.24,-275.55 787.22,-332.43 219.23,-46.35 436.89,-45.97 642.01,23.3 220.87,74.58 412.07,220.01 556.07,458.89 85.38,141.63 153.29,317.92 199.08,534.51 1.09,5.22 2.03,10.44 2.9,15.66 l 0.22,-0.04 z m 7185.9,4219.62 -31.83,-8.23 -111.98,-29.82 -112.06,-30.68 -112.11,-31.53 -112.14,-32.4 -112.24,-33.28 -112.29,-34.14 -112.33,-35.02 -112.41,-35.9 -112.47,-36.77 -112.52,-37.67 -112.56,-38.54 -112.64,-39.44 -112.72,-40.34 -112.72,-41.22 -112.8,-42.14 -112.88,-43.04 -112.91,-43.94 -112.97,-44.86 -113.02,-45.76 -113.08,-46.68 -113.14,-47.61 -113.18,-48.52 -113.24,-49.46 -113.29,-50.38 -113.34,-51.32 -113.42,-52.26 -113.43,-53.18 -113.5,-54.14 -113.54,-55.08 -113.59,-56.03 -113.65,-56.99 -113.7,-57.94 -365.56,711.6 118.34,60.3 118.31,59.33 118.31,58.35 118.28,57.38 118.28,56.42 118.25,55.44 118.22,54.48 118.2,53.52 118.19,52.56 118.16,51.6 118.14,50.66 118.12,49.69 118.08,48.76 118.06,47.8 118.03,46.86 118.01,45.92 117.96,44.98 117.94,44.06 117.94,43.12 117.86,42.18 117.84,41.28 117.82,40.34 117.78,39.41 117.73,38.51 117.69,37.58 117.67,36.68 117.63,35.76 117.56,34.86 117.56,33.96 117.49,33.05 117.44,32.16 117.42,31.26 31.83,8.23 z m 33289.07,-2370.61 c -361.02,210.54 -725.09,415.5 -1094.56,610.87 l 373.24,707.6 c 379.76,-201.03 753.82,-411.33 1124.98,-627.77 z m -3228.82,1589.67 c -337.36,127.36 -677.57,240.25 -1024.49,338.63 -186.5,52.02 -372.46,99.08 -561.36,141.57 -184.28,40.55 -367.69,75.89 -553.93,106.19 -167.58,26.47 -333.97,48.32 -502.72,65.82 -106.13,10.43 -211.64,19.05 -318.06,25.96 -264.04,15.73 -526.49,19.94 -790.85,9.77 l -32.74,799.32 c 275.33,10.61 548.36,7.12 823.45,-7.67 150.2,-8.92 298.78,-21.05 448.44,-36.6 150.59,-16.45 299.43,-35.97 449.18,-58.81 168,-26.47 333.82,-56.64 500.43,-90.73 168.78,-35.4 335.42,-74.21 502.53,-116.79 204.2,-52.99 405.36,-110.66 606.76,-173.46 247.45,-78.27 491.83,-162.61 734.64,-254.28 z m -5993.68,273.87 c -359.74,-118.59 -709.38,-260.34 -1053.47,-418.41 -179.79,-83.56 -356.07,-170.83 -531.8,-262.62 -183.22,-96.73 -362.97,-196.8 -541.89,-301.27 -204.44,-120.36 -404.7,-244.67 -603.76,-373.72 -120.59,-78.82 -239.93,-158.75 -358.78,-240.17 -107.03,-73.75 -213.22,-148.43 -318.79,-224.26 l -467.3,649.34 c 110.23,79.15 221.08,157.12 332.83,234.12 194.16,133.05 389.61,262.03 588.56,387.81 174.32,109.31 349.47,215.03 527.61,318 155.35,88.97 311.26,174.86 469.58,258.43 187.77,98.08 376.07,191.24 568.16,280.56 l 102.62,46.83 c 338.3,151.51 681.61,288.31 1033.75,404.4 z m -5241,-3300.43 c -954.42,-856 -1843.49,-1784.66 -2660.48,-2772.57 -19.6,-23.77 -39.24,-47.51 -58.72,-71.38 l -619.58,506.1 c 283.96,345.78 575.31,683.4 875.86,1014.87 215.51,237.02 434.91,470.16 658.32,699.28 l -106.07,78.98 -96.05,70.95 -96.22,70.57 -96.37,70.17 -96.53,69.76 -96.68,69.36 -96.82,68.95 -96.96,68.52 -97.13,68.12 -97.28,67.7 -97.41,67.27 -97.57,66.85 -97.72,66.43 -97.86,65.99 -98,65.57 -98.14,65.11 -98.3,64.69 -98.43,64.24 -98.58,63.8 -98.71,63.35 -98.84,62.89 -99.01,62.45 -99.12,61.99 -99.26,61.51 -99.41,61.07 -99.56,60.61 -99.67,60.13 -117.68,70.25 406.22,689.18 123.32,-73.59 102.45,-61.81 102.28,-62.27 102.13,-62.73 101.98,-63.21 101.82,-63.67 101.63,-64.11 101.5,-64.57 101.31,-65.03 101.16,-65.46 100.99,-65.92 100.82,-66.35 100.66,-66.79 100.5,-67.23 100.32,-67.65 100.16,-68.09 99.99,-68.51 99.83,-68.93 99.64,-69.36 99.49,-69.76 99.32,-70.2 99.14,-70.59 98.96,-71 98.79,-71.4 98.63,-71.81 98.44,-72.19 98.29,-72.61 98.1,-73 104.57,-78.39 c 228.18,220.25 460.38,436.44 696.74,648.43 z m -4122.11,-4739.86 c -365.62,-552.4 -703.68,-1121.3 -1007.89,-1709.84 l -44.13,-86.25 -43.27,-85.85 -42.4,-85.4 -41.54,-84.97 -40.68,-84.55 -39.84,-84.11 -38.98,-83.68 -38.14,-83.27 -37.31,-82.84 -36.47,-82.39 -35.62,-81.94 -34.81,-81.56 -34,-81.1 -33.15,-80.65 -32.36,-80.26 -31.55,-79.81 -30.74,-79.38 -29.93,-78.93 -29.15,-78.53 -28.34,-78.06 -27.56,-77.66 -11.08,-31.94 -756.8,259.36 13,37.44 29.48,83.1 30.32,83.48 31.11,83.83 31.93,84.21 32.76,84.58 33.57,84.95 34.4,85.3 35.23,85.69 36.06,86.06 36.89,86.4 37.74,86.82 38.59,87.17 39.41,87.52 40.28,87.91 41.12,88.28 41.98,88.67 42.84,89.01 43.7,89.41 44.58,89.78 45.43,90.13 46.31,90.53 c 317.88,614.36 669.76,1207.53 1051.51,1784.3 z m -2250.74,-5696.42 c -6.51,-101.5 -10.85,-201.9 -13.41,-303.58 -1.23,-81.11 -1.28,-161.39 -0.08,-242.5 1.97,-78.94 5.1,-156.99 9.49,-235.83 5.06,-76.76 11.26,-152.54 18.76,-229.1 6.08,-56.03 12.7,-111.59 19.98,-167.48 12.88,-91.16 27.41,-180.49 44.22,-271 10.42,-52.84 21.34,-105.17 32.91,-157.76 19.94,-85.98 41.38,-169.98 65.12,-254.99 14.5,-49.72 29.43,-98.87 45.05,-148.25 26.6,-80.93 54.49,-159.76 84.75,-239.4 30.59,-77.85 62.34,-153.54 96.45,-229.92 34.44,-74.79 69.9,-147.42 107.71,-220.57 38.18,-71.81 77.22,-141.43 118.61,-211.44 41.8,-68.86 84.31,-135.53 129.16,-202.45 45.26,-65.93 91.13,-129.69 139.29,-193.53 38.83,-50.36 78.02,-99.44 118.5,-148.48 l -0.71,0.84 -608.58,-519.26 c -111,131.66 -213.19,269.47 -310.6,411.39 -42.48,63.39 -83.34,126.66 -123.65,191.45 -29.83,49.17 -58.87,98.28 -87.58,148.11 -47.45,84.59 -92.12,168.64 -135.68,255.3 -34.35,70.34 -67.05,140.31 -98.97,211.79 -31.45,72.61 -61.23,144.76 -90.17,218.41 -21.26,55.94 -41.7,111.68 -61.67,168.09 -32.79,96 -62.79,190.96 -91.19,288.34 -16.54,59.21 -32.3,118.15 -47.51,177.72 -19.71,80.88 -37.82,161.05 -54.81,242.55 -12.23,62.05 -23.7,123.75 -34.56,186.05 -13.82,84.6 -26.09,168.38 -37.15,253.38 -10.35,86.7 -19.19,172.54 -26.77,259.53 -6.81,88.76 -12.14,176.63 -16.19,265.56 -2.38,67.83 -4.05,135.26 -5.06,203.13 -0.54,115.89 1.23,230.12 5.29,345.94 2.9,65.22 6.27,130.11 10.45,195.26 z m 2783.67,-4769.5 c 116.85,-52.52 233.67,-100.53 353.38,-146.13 109.93,-40.88 219.25,-78.49 331.03,-114 80.55,-24.89 160.74,-48.29 242.03,-70.65 131.66,-35.15 262.2,-66.2 395.55,-94.28 117.74,-23.87 234.47,-44.84 353.15,-63.46 119.55,-17.91 238.07,-32.95 358.28,-45.64 103.58,-10.17 206.34,-18.43 310.21,-24.9 139.35,-7.72 276.99,-11.91 416.55,-12.77 122.4,0.12 243.4,2.75 365.69,7.99 122.45,6.09 243.37,14.67 365.46,25.86 69.6,6.89 138.79,14.46 208.23,22.8 l -0.62,-0.08 103.7,-793.24 c -173.76,-22.42 -349.33,-37.17 -524.15,-48.33 -115.92,-6.56 -230.84,-11.08 -346.92,-13.63 -96.57,-1.44 -192.44,-1.51 -289.01,-0.26 -135.1,2.71 -268.57,8.21 -403.44,16.63 -115.18,8.01 -229.09,17.97 -343.91,30.08 -114.41,12.89 -227.46,27.7 -341.33,44.73 -94.43,14.83 -187.9,30.9 -281.85,48.51 -131.11,25.55 -259.97,53.69 -389.79,85.16 -92.08,23.06 -183,47.29 -274.32,73.2 -90.85,26.53 -180.44,54.19 -270.41,83.57 -89.44,30 -177.53,61.11 -265.95,93.99 -134.25,51.15 -265.57,104.96 -396.62,163.87 z m 5877.04,109.05 c 159.16,74.65 313.38,154.01 467.04,239.37 99.24,56.03 196.21,113.46 293.05,173.54 95.91,60.42 189.51,122.19 282.78,186.6 118.76,83.2 233.35,168.41 347.16,258.26 74.81,59.9 147.83,120.55 220.41,183.14 95.69,83.7 187.89,168.58 279.11,257.14 67.38,66.4 132.82,133.3 197.65,202.19 85.3,92.01 166.74,184.78 246.93,281.27 l 58.64,72.31 c 148.02,186.99 284.23,378.88 408.28,582.67 l 685.16,-412.98 c -96.2,-158.07 -198.65,-309.49 -307.58,-459.02 -63.11,-85.24 -127.18,-168.2 -193.67,-250.83 -67.28,-82.3 -135.39,-162.35 -205.84,-241.96 -71.24,-79.26 -143.2,-156.29 -217.41,-232.78 -75,-76.13 -150.59,-150.02 -228.37,-223.31 -91.76,-85.17 -184.24,-167.25 -279.65,-248.3 -68.66,-57.47 -137.61,-113.51 -207.9,-168.98 -113.74,-88.44 -228.1,-172.88 -346.1,-255.56 -104.06,-71.87 -208.46,-140.73 -315.44,-208.16 -107.83,-66.91 -215.82,-130.86 -326.33,-193.24 -47.54,-26.4 -95.1,-52.42 -143,-78.16 -123.15,-65.15 -246.62,-127.19 -372.76,-186.35 z m 3512.41,4518.61 c 7.42,78.22 13.24,155.42 17.57,233.87 3.57,78.75 5.55,156.41 6,235.24 -0.34,79.81 -2.25,158.45 -5.73,238.19 -4.37,80.81 -10.24,160.38 -17.79,240.96 -8.46,81.83 -18.44,162.32 -30.14,243.75 -12.71,82.78 -26.88,164.14 -42.82,246.36 -17.1,83.73 -35.57,165.99 -55.88,249 -21.58,84.64 -44.49,167.74 -69.29,251.5 -26.21,85.53 -53.69,169.45 -83.06,253.94 -30.95,86.35 -63.12,171.05 -97.21,256.2 -35.84,87.16 -72.82,172.62 -111.76,258.44 -40.83,87.89 -82.77,174.04 -126.66,260.44 -45.97,88.59 -92.99,175.41 -141.96,262.38 -51.25,89.22 -103.48,176.66 -157.67,264.13 l -30.58,48.48 674.9,429.56 c 60.14,-95.37 118.13,-190.82 175.11,-288.11 44.6,-77.66 87.91,-155.29 130.53,-234.06 51.35,-96.91 100.53,-193.6 148.48,-292.24 46.04,-96.82 89.85,-193.33 132.4,-291.73 24.51,-58.13 48.38,-116.17 71.83,-174.73 37.63,-96.55 73.07,-192.55 107.12,-290.42 32.5,-96.28 62.81,-191.9 91.64,-289.34 27.42,-95.94 52.67,-191.12 76.39,-288.04 17.91,-76.41 34.58,-152.32 50.27,-229.22 18.46,-95.09 34.84,-189.22 49.54,-284.96 8.14,-56.68 15.68,-113.1 22.71,-169.93 10.67,-94.09 19.41,-187.02 26.36,-281.45 5.96,-93.33 10.01,-185.43 12.26,-278.92 1.28,-92.47 0.79,-183.6 -1.58,-276.05 l -4.41,-109.55 c -4.92,-88.94 -11.38,-176.67 -19.79,-265.35 z m -2421.32,5328.78 -94.11,97.64 -85.99,88.76 -86.2,88.54 -86.4,88.31 -86.58,88.06 -86.78,87.82 -86.98,87.59 -87.17,87.35 -87.37,87.09 -87.56,86.85 -87.75,86.6 -87.94,86.33 -88.12,86.08 -88.34,85.82 -88.5,85.56 -88.7,85.28 -88.89,85.02 -89.07,84.74 -89.26,84.46 -89.45,84.19 -89.62,83.9 -89.82,83.62 -90,83.34 -90.17,83.03 -90.35,82.74 -90.55,82.45 -90.72,82.15 -90.9,81.85 -91.07,81.53 -91.24,81.21 -91.45,80.93 -105.56,92.81 525.82,602.92 109.06,-95.89 93.15,-82.43 92.98,-82.75 92.77,-83.07 92.58,-83.35 92.38,-83.65 92.19,-83.95 92.01,-84.24 91.81,-84.55 91.6,-84.82 91.4,-85.1 91.22,-85.38 91.01,-85.67 90.82,-85.94 90.63,-86.22 90.41,-86.48 90.22,-86.74 90.02,-87.02 89.8,-87.26 89.62,-87.52 89.42,-87.79 89.21,-88.04 89,-88.27 88.79,-88.53 88.61,-88.77 88.38,-89.01 88.18,-89.24 87.98,-89.48 87.76,-89.71 87.56,-89.92 87.35,-90.16 95.45,-99.04 z m -10036.52,7599.68 -126.76,60.16 -102.67,48.02 -102.8,47.49 -102.93,46.95 -103.02,46.41 -103.13,45.85 -103.26,45.31 -103.36,44.74 -103.49,44.2 -103.59,43.64 -103.68,43.07 -103.79,42.49 -103.92,41.94 -104.02,41.37 -104.12,40.78 -104.25,40.23 -104.34,39.64 -104.42,39.05 -104.55,38.47 -104.66,37.89 -104.74,37.28 -104.85,36.7 -104.95,36.1 -105.06,35.51 -105.16,34.91 -105.24,34.3 -105.35,33.69 -105.45,33.08 -105.53,32.46 -105.66,31.86 -105.72,31.24 -105.84,30.61 -105.93,30 -106,29.36 -101.11,27.38 206.92,772.78 105.51,-28.58 110.44,-30.58 110.31,-31.24 110.18,-31.87 110.06,-32.52 109.92,-33.14 109.81,-33.78 109.67,-34.42 109.55,-35.03 109.42,-35.66 109.28,-36.27 109.16,-36.89 109.03,-37.5 108.89,-38.12 108.76,-38.72 108.62,-39.33 108.49,-39.91 108.38,-40.53 108.22,-41.12 108.07,-41.69 107.96,-42.3 107.8,-42.87 107.68,-43.44 107.55,-44.05 107.4,-44.61 107.25,-45.18 107.11,-45.74 106.98,-46.32 106.82,-46.87 106.71,-47.43 106.54,-47.99 106.39,-48.53 106.26,-49.09 106.13,-49.64 130.18,-61.78 z m -5972.36,1832.8 -62.73,8.25 -108.07,13.51 -108.17,12.81 -108.25,12.12 -108.33,11.42 -108.4,10.71 -108.47,10.01 -108.56,9.3 -108.64,8.59 -108.7,7.87 -108.79,7.16 -108.87,6.43 -108.94,5.72 -109,4.99 -109.09,4.25 -109.16,3.54 -109.22,2.79 -109.32,2.06 -109.38,1.31 -109.44,0.58 -109.53,-0.18 -109.61,-0.91 -109.65,-1.67 -109.74,-2.43 -109.82,-3.18 -109.89,-3.94 -109.96,-4.7 -110.03,-5.47 -110.07,-6.23 -110.14,-7.01 -110.26,-7.79 -110.29,-8.55 -110.36,-9.35 -110.46,-10.11 -110.47,-10.9 -113.05,-12 -92.52,794.64 124.17,13.2 116.11,11.46 115.98,10.63 115.92,9.81 115.87,8.99 115.76,8.17 115.72,7.37 115.65,6.55 115.55,5.73 115.46,4.94 115.39,4.14 115.3,3.34 115.24,2.55 115.15,1.75 115.07,0.97 114.97,0.18 114.9,-0.6 114.8,-1.39 114.72,-2.16 114.64,-2.93 114.54,-3.7 114.43,-4.47 114.38,-5.23 114.26,-6 114.15,-6.75 114.07,-7.5 113.98,-8.25 113.88,-9.01 113.78,-9.74 113.69,-10.49 113.58,-11.23 113.49,-11.96 113.37,-12.7 113.27,-13.41 113.19,-14.15 62.73,-8.25 z m -13790.1,-3330.84 -5203.77,-3887.9 -2330.55,1386.79 c -485.87,289.1 -910.52,333.28 -1294.38,184.54 -361.92,-140.26 -651.81,-446 -898.61,-872.88 L 1041.47,21167.36 c -156.23,-270.25 -195.86,-486.9 -170.87,-673.89 28.29,-211.56 125.63,-348.4 236.47,-470.79 160.31,-177.01 385.86,-297.51 662.14,-324.09 207.54,-19.97 442.71,14.47 696.1,121.9 l 24740.51,5991.44 c 248.35,60.15 413.3,152.55 513.43,260.63 123.1,132.89 163.96,281.2 140.66,435.58 -18.82,124.69 -81.19,234.68 -174.64,327.57 -129.09,128.31 -342.4,234.01 -555.44,284.4 l -6555.23,1550.96 c -126.12,34.6 -224.06,84.81 -290.94,153.74 -63.4,65.34 -106.98,158.74 -129.17,284.39 l -1183.42,6700.73 c -59.26,337.03 -155.02,881.33 -653.69,937.31 -206.12,23.12 -361.92,-44.7 -479.99,-163.65 z m -4460.32,-4330.29 4052.81,3027.99 -721.08,-4268.54 c -25.53,-116.81 -59.45,-206.89 -99.96,-274.08 -38.76,-64.3 -81.02,-100.35 -124.81,-115.13 -59.53,-20.1 -137.85,-17.02 -226.39,1.7 -167.1,35.33 -355.74,126.15 -537.22,235.55 l -0.84,-1.39 z m 1062.58,-3003.86 316.84,-509.52 509.52,316.83 -316.84,509.52 z m -6114.31,-3801.98 316.84,-509.52 509.53,316.83 -316.84,509.52 z m 2038.11,1267.33 316.84,-509.52 509.52,316.83 -316.84,509.52 z m 2038.1,1267.33 316.84,-509.52 509.52,316.83 -316.84,509.52 z"
       id="path1" /></g></svg>
