<?xml version="1.0" encoding="UTF-8" standalone="no"?>
<svg
   width="339.22171"
   height="74.469856"
   version="1.1"
   id="svg11"
   sodipodi:docname="postgresql.svg"
   inkscape:version="1.3.2 (091e20ef0f, 2023-11-25)"
   xmlns:inkscape="http://www.inkscape.org/namespaces/inkscape"
   xmlns:sodipodi="http://sodipodi.sourceforge.net/DTD/sodipodi-0.dtd"
   xmlns="http://www.w3.org/2000/svg"
   xmlns:svg="http://www.w3.org/2000/svg">
  <defs
     id="defs11" />
  <sodipodi:namedview
     id="namedview11"
     pagecolor="#ffffff"
     bordercolor="#000000"
     borderopacity="0.25"
     inkscape:showpageshadow="2"
     inkscape:pageopacity="0.0"
     inkscape:pagecheckerboard="0"
     inkscape:deskcolor="#d1d1d1"
     inkscape:zoom="2.9123961"
     inkscape:cx="125.49804"
     inkscape:cy="59.229582"
     inkscape:window-width="2560"
     inkscape:window-height="1371"
     inkscape:window-x="0"
     inkscape:window-y="0"
     inkscape:window-maximized="1"
     inkscape:current-layer="svg11" />
  <style
     id="style1"><![CDATA[.B{stroke-width:.866}.C{stroke:#fff}.D{stroke-linecap:round}.E{stroke-linejoin:round}]]></style>
  <g
     id="g2"
     transform="translate(-3.2308377,-2.4953288)">
    <path
       d="M 99.556696,35.840895 H 86.985519 V 23.197469 h 13.255121 c 4.85026,0 7.2778,2.167444 7.2778,6.420452 0,4.149452 -2.65391,6.225382 -7.959335,6.225382 m 9.035835,-12.792739 c -1.72192,-1.541293 -4.1326,-2.31194 -7.23204,-2.31194 l -18.004238,0.09633 V 51.08284 h 3.626857 l -0.03372,-12.877024 h 13.397211 c 3.35954,0 6.00382,-0.770647 7.93285,-2.31194 1.92903,-1.541294 2.89474,-3.684656 2.89474,-6.420452 0,-2.735797 -0.86216,-4.879158 -2.58407,-6.420452 z m 23.47342,21.684076 a 6.1651752,6.1651752 0 0 1 -1.72191,2.57203 c -1.62559,1.58946 -4.1037,2.37697 -7.46564,2.37697 -3.01034,0 -5.2982,-0.77065 -6.93583,-2.31194 -1.63762,-1.5413 -2.42031,-3.60518 -2.42031,-6.189259 0,-1.348632 0.21193,-2.540727 0.63338,-3.583508 a 7.0321529,7.0321529 0 0 1 1.8351,-2.639466 c 1.66652,-1.517211 3.96401,-2.280633 6.88766,-2.280633 6.50233,0 9.71255,2.834536 9.71255,8.501199 0,1.348627 -0.18543,2.528687 -0.5539,3.549787 m 0.65746,-11.157517 c -2.21079,-2.015723 -5.48363,-3.024789 -9.81852,-3.024789 -4.09406,0 -7.26094,1.03074 -9.49341,3.089812 -2.01572,1.864002 -3.02238,4.378238 -3.02238,7.542707 0,3.142797 1.04037,5.678707 3.12112,7.610137 1.14875,1.04037 2.48774,1.79416 4.01459,2.25896 1.52684,0.4648 3.32341,0.72248 5.38008,0.72248 4.33489,0 7.59569,-0.99702 9.87391,-2.99107 2.01572,-1.82066 3.02238,-4.34452 3.02238,-7.574016 0,-3.251167 -1.0187,-5.787077 -3.0585,-7.610138 z m 27.4543,12.034137 c 0,4.09406 -3.64854,6.10737 -10.94319,6.10737 -2.23006,0 -4.10851,-0.14449 -5.63536,-0.42385 -1.52684,-0.27936 -2.76469,-0.75379 -3.71837,-1.40643 a 5.5631073,5.5631073 0 0 1 -1.75322,-1.92662 c -0.43349,-0.77787 -0.71525,-1.80621 -0.84289,-3.02238 l 3.37158,-0.0313 c 0,1.6015 0.59484,2.78155 1.78212,3.54016 1.27638,0.91032 3.53293,1.36549 6.77447,1.36549 5.09831,0 7.64867,-1.27639 7.64867,-3.83397 0,-1.49313 -0.85494,-2.52146 -2.56481,-3.08259 -0.34679,-0.10837 -2.40827,-0.39496 -6.18926,-0.859751 -3.78099,-0.464797 -6.13146,-0.883836 -7.06346,-1.252301 -2.01332,-0.801955 -3.01997,-2.239693 -3.01997,-4.32044 a 4.8647085,4.8647085 0 0 1 2.69726,-4.549225 c 0.89106,-0.409406 1.99887,-0.729706 3.33305,-0.958492 1.33418,-0.228785 2.87788,-0.341974 4.63351,-0.341974 7.02252,0 10.53378,2.203568 10.53378,6.610705 h -3.22708 c 0,-3.097037 -2.46848,-4.647964 -7.40544,-4.647964 -2.51182,0 -4.38305,0.313075 -5.61849,0.963309 -1.23545,0.650233 -1.85437,1.589459 -1.85437,2.889926 0,1.213768 0.83326,2.090379 2.49978,2.63224 0.97535,0.281768 3.21505,0.606885 6.7239,0.97535 3.14038,0.281768 5.29338,0.681541 6.4638,1.204136 2.23006,0.866978 3.37158,2.336021 3.37158,4.416771 z m 13.33219,5.53902 -1.37994,0.19266 -0.86216,0.065 c -2.2108,0 -3.80507,-0.3203 -4.78042,-0.96331 -0.97535,-0.64301 -1.44497,-1.76285 -1.44497,-3.37158 V 33.268861 h -4.02181 v -2.030173 h 3.99773 l 0.0313,-6.5216 h 3.09463 v 6.5216 h 5.38971 v 2.063888 l -5.38971,-0.03372 V 46.69979 c 0,0.99943 0.24083,1.6906 0.79473,2.07111 0.5539,0.38051 1.47868,0.57076 2.84176,0.57076 0.19266,0.0241 0.40941,0.0144 0.65023,-0.0241 0.24083,-0.0385 0.59485,-0.12041 1.07168,-0.24564 l 0.0337,2.07111 z m 21.4023,-4.60462 a 9.1755146,9.1755146 0 0 1 -2.88992,1.59187 c -1.08372,0.36847 -2.32639,0.5539 -3.73282,0.5539 -6.47343,0 -9.70533,-2.64909 -9.70533,-8.019539 0,-2.487745 0.82844,-4.436036 2.48052,-5.842467 1.65207,-1.406431 3.98809,-2.109646 6.99602,-2.109646 3.02961,0 5.32951,0.708032 6.8997,2.126504 1.57019,1.418472 2.35529,3.31619 2.35529,5.69797 0,2.596118 -0.80195,4.575718 -2.40346,6.006228 m 5.49809,-15.316605 h -3.09463 l -0.0337,3.41252 c -1.36308,-1.384756 -2.33602,-2.263775 -2.92364,-2.629832 -1.73396,-0.951267 -3.97365,-1.428105 -6.7239,-1.428105 -4.02903,0 -7.1044,0.91996 -9.22367,2.759879 -2.01332,1.68579 -3.01998,4.135002 -3.01998,7.338003 0,1.57983 0.25528,2.99348 0.76343,4.23856 0.50814,1.24507 1.2523,2.2999 2.22765,3.16447 2.1265,1.77489 5.12961,2.66355 9.01175,2.66355 4.66241,0 7.94729,-1.27639 9.92208,-3.85324 v 3.53293 c 0,2.25174 -0.71044,3.99774 -2.12892,5.23077 -1.41847,1.23304 -3.75208,1.85437 -7.00084,1.85437 -3.05369,0 -5.23077,-0.42145 -6.50233,-1.26193 -0.97535,-0.64542 -1.64726,-1.76768 -2.01332,-3.36436 h -3.16687 c 0.34679,2.22765 1.28842,3.84119 2.82731,4.83581 1.7773,1.14634 4.77801,1.71951 9.00212,1.71951 8.08216,0 12.12324,-3.00312 12.12324,-9.01176 V 31.204972 Z m 16.73749,2.010906 a 16.183585,16.183585 0 0 0 -2.59612,-0.226377 c -5.08627,0 -7.62941,2.788778 -7.62941,8.368743 v 9.700513 h -3.0585 l -0.0337,-19.851377 3.09463,0.03131 v 3.54016 h 0.16135 c 0.52019,-1.396798 1.34141,-2.456437 2.46848,-3.174102 1.23304,-0.722482 3.07296,-1.047598 5.51976,-1.047598 h 2.07834 v 2.656323 z m 2.88029,6.661279 c 0.39014,-2.25655 1.26675,-4.002547 2.62983,-5.240398 0.89106,-0.715257 1.89531,-1.252302 3.01997,-1.613542 1.12467,-0.361241 2.39383,-0.537045 3.80026,-0.537045 2.75024,0 4.99475,0.753789 6.73834,2.263775 1.74359,1.509987 2.63706,3.217451 2.63706,5.129619 h -18.80138 m 19.10482,-6.124235 a 9.9220788,9.9220788 0 0 0 -4.03145,-2.41068 c -1.60391,-0.522595 -3.47754,-0.782688 -5.62331,-0.782688 -4.00977,0 -7.11885,0.932001 -9.32965,2.793595 -2.21079,1.861594 -3.31619,4.399912 -3.31619,7.610138 0,3.210221 1.05964,5.779851 3.18374,7.639041 2.29508,2.08074 5.53421,3.12112 9.71738,3.12112 1.66652,0 3.21022,-0.19267 4.62869,-0.56595 1.41848,-0.37328 2.65874,-0.91514 3.72078,-1.6015 1.86401,-1.339 3.04165,-2.98626 3.54016,-4.9514 h -3.37158 c -1.14874,3.37158 -4.00495,5.09108 -8.57344,5.09108 -3.22709,0 -5.70761,-0.82844 -7.46565,-2.49015 -1.49312,-1.44496 -2.23969,-3.26562 -2.23969,-5.529392 h 22.05977 c 0,-3.366764 -0.96331,-6.008638 -2.95736,-7.947297 z"
       fill="#231f20"
       id="path1"
       style="stroke-width:2.40827" />
    <path
       d="m 274.78253,42.97179 c 0,5.89304 -4.75392,8.83835 -14.25696,8.83835 -5.69556,0 -9.85465,-1.01147 -12.47485,-3.04646 -2.16745,-1.66893 -3.21505,-4.21448 -3.21505,-7.634221 h 3.85324 c 0,5.502901 3.94957,8.253151 11.86074,8.253151 3.79062,0 6.53364,-0.56354 8.22184,-1.6858 1.43051,-0.99461 2.16744,-2.55276 2.16744,-4.67204 0,-2.100014 -0.97535,-3.571468 -2.92605,-4.416771 -1.1078,-0.481655 -3.80507,-1.028332 -8.09179,-1.721915 -5.39453,-0.823628 -8.89375,-1.644849 -10.49525,-2.46607 -2.31676,-1.21136 -3.47754,-3.268024 -3.47754,-6.169991 0,-2.704489 0.96331,-4.720213 2.95735,-6.039945 2.11928,-1.44978 5.763,-2.17467 10.91911,-2.17467 9.32001,0 13.9752,3.094629 13.9752,9.283887 h -3.88213 c 0,-4.635922 -3.46069,-6.95268 -10.35557,-6.95268 -3.46791,0 -6.00623,0.467205 -7.61014,1.396798 -1.51721,0.997024 -2.27582,2.456437 -2.27582,4.387871 0,2.015723 0.97535,3.434195 2.92605,4.257824 1.03556,0.476837 4.09407,1.136704 9.16589,1.984415 4.76837,0.715257 7.98342,1.548519 9.63308,2.504603 2.27582,1.17042 3.41252,3.195776 3.41252,6.078474 z m 31.08597,3.01034 a 14.931284,14.931284 0 0 1 -4.84544,2.57925 c -1.80139,0.57317 -3.81711,0.85976 -6.04958,0.85976 -4.57571,0 -8.23629,-1.20414 -11.04433,-3.68466 -2.80804,-2.48052 -4.21447,-5.724459 -4.21447,-9.811296 0,-4.26264 1.39198,-7.57883 4.17835,-9.958203 2.78637,-2.379372 6.50233,-3.569058 11.07805,-3.569058 4.66241,0 8.3278,1.242668 10.99375,3.732821 1.40884,1.21136 2.44922,2.649098 3.12353,4.250599 0.67432,1.601501 1.01148,3.467911 1.01148,5.546249 0,4.238558 -1.41125,7.590868 -4.22893,10.056938 m 2.03499,2.00609 c 1.99405,-1.40643 3.46791,-3.13075 4.424,-5.11276 0.95608,-1.982003 1.43292,-4.334885 1.43292,-6.931001 0,-4.69613 -1.56056,-8.462667 -4.68168,-11.318877 -1.66893,-1.558151 -3.68466,-2.71653 -6.02068,-3.472727 -2.33602,-0.756198 -5.05737,-1.136704 -8.09179,-1.136704 -5.89304,0 -10.51933,1.428105 -13.87887,4.286723 -3.35954,2.858618 -5.03811,6.731119 -5.03811,11.622318 0,4.761153 1.69302,8.602348 5.05737,11.523578 3.36436,2.92123 8.01955,4.38306 13.89091,4.38306 2.29509,0 4.29877,-0.15654 6.01105,-0.4648 1.71228,-0.30826 3.16206,-0.78751 4.35416,-1.43051 l 5.65462,3.91825 2.3601,-2.16744 -5.474,-3.71356 z m 34.51053,3.08982 H 316.26742 V 20.796422 l 3.59555,-0.06502 V 48.54694 h 22.58959 l -0.0337,2.52868 z"
       fill="#367faf"
       id="path2"
       style="stroke-width:2.40827" />
  </g>
  <g
     id="g1"
     transform="translate(-3.2308377,-0.03151936)">
    <path
       d="m 57.271092,54.26854 c 0.47443,-3.949565 0.33234,-4.52755 3.27525,-3.88695 l 0.72248,0.06502 c 2.26377,0.103556 5.21872,-0.361241 6.9599,-1.17042 3.74005,-1.733955 5.95807,-4.633514 2.271,-3.8725 -8.4145,1.733955 -8.99248,-1.112622 -8.99248,-1.112622 8.88652,-13.182878 12.59526,-29.917957 9.39226,-34.012019 -8.74203,-11.17437974 -23.88042,-5.8882237 -24.13088,-5.7509517 l -0.0795,0.01445 c -1.66171,-0.344383 -3.52331,-0.553902 -5.61128,-0.58521 -3.80507,-0.06261 -6.69499,0.997025 -8.9106,2.66114 0,0 -27.0015417,-11.126214 -25.7685067,13.9920577 0.26491,5.341546 7.6583067,40.425246 16.4725767,29.828851 3.22227,-3.877317 6.33375,-7.152566 6.33375,-7.152566 1.54611,1.028332 3.37158,1.550927 5.33914,1.363082 l 0.14932,-0.127639 a 5.8520999,5.8520999 0 0 0 0.0602,1.507578 c -2.271,2.53591 -1.60391,2.986257 -6.1411,3.918258 -4.59257,0.946451 -1.89531,2.632241 -0.13245,3.072955 2.13614,0.534636 7.08032,1.290833 10.41577,-3.383622 l -0.13245,0.534636 c 0.89106,0.712849 0.83085,5.122394 0.95608,8.272413 0.12523,3.150019 0.33716,6.092927 0.98017,7.826883 0.64301,1.733955 1.3968,6.198891 7.36931,4.920098 4.98512,-1.069272 8.79982,-2.605749 9.14661,-16.913291"
       fill="#231f20"
       stroke="#231f20"
       stroke-width="6.25669"
       id="path3" />
    <path
       d="m 70.518992,45.403693 c -8.4145,1.733955 -8.99249,-1.112622 -8.99249,-1.112622 8.88653,-13.182878 12.59526,-29.917957 9.39226,-34.014427 -8.74202,-11.17437974 -23.88042,-5.8882237 -24.13088,-5.7509527 l -0.0819,0.01445 c -1.66171,-0.344383 -3.5233,-0.553902 -5.61127,-0.58521 -3.80507,-0.06262 -6.69499,0.997024 -8.9106,2.66114 0,0 -27.0015457,-11.126214 -25.7685107,13.9920577 0.26491,5.346362 7.6583007,40.425246 16.4725807,29.828851 3.22226,-3.877317 6.33375,-7.152566 6.33375,-7.152566 1.54611,1.028332 3.39566,1.550927 5.33673,1.363081 l 0.15172,-0.127638 c -0.0482,0.481654 -0.0241,0.951267 0.0602,1.507578 -2.271,2.53591 -1.60391,2.986257 -6.14109,3.918258 -4.59257,0.94645 -1.89531,2.632241 -0.13245,3.072954 2.13613,0.534637 7.08031,1.290834 10.41577,-3.383621 l -0.13246,0.534636 c 0.89106,0.712848 1.51722,4.635923 1.40884,8.188123 -0.10837,3.552201 -0.17339,5.996596 0.52982,7.903947 0.70322,1.907352 1.3968,6.198891 7.36931,4.920099 4.98513,-1.069272 7.57161,-3.838785 7.93044,-8.457849 0.25528,-3.284883 0.83326,-2.798412 0.86698,-5.731687 l 0.46239,-1.389572 c 0.53463,-4.455303 0.0843,-5.888224 3.15483,-5.218725 l 0.72248,0.06502 c 2.26378,0.103556 5.22114,-0.36124 6.95991,-1.170419 3.74005,-1.733956 5.95806,-4.633515 2.271,-3.872501 z"
       fill="#417ba2"
       id="path4"
       style="stroke-width:2.40827" />
    <g
       fill="none"
       class="C B"
       id="g9"
       transform="matrix(2.4082715,0,0,2.4082715,-105.08254,-12.093791)">
      <g
         class="D"
         id="g6">
        <path
           d="m 59.96,24.935 c -0.096,3.44 0.024,6.903 0.36,7.745 0.336,0.842 1.057,2.48 3.536,1.948 2.07,-0.444 2.824,-1.303 3.15,-3.2 l 0.765,-6.063 M 57,7.692 c 0,0 -11.22,-4.586 -10.7,5.842 0.1,2.22 3.18,16.787 6.84,12.387 1.338,-1.6 2.547,-2.87 2.547,-2.87 M 63.05,6.855 c -0.4,0.122 6.24,-2.423 10.008,2.4 1.33,1.7 -0.2,8.65 -3.9,14.124"
           class="E"
           id="path5" />
        <path
           d="m 69.157,23.37 c 0,0 0.24,1.183 3.735,0.462 1.53,-0.316 0.6,0.887 -0.943,1.608 -1.274,0.59 -4.13,0.743 -4.178,-0.074 -0.12,-2.11 1.504,-1.468 1.386,-1.996 -0.106,-0.476 -0.832,-0.943 -1.312,-2.107 -0.42,-1.017 -5.75,-8.812 1.48,-7.654 0.265,-0.055 -1.886,-6.877 -8.652,-6.988 -6.766,-0.111 -6.542,8.32 -6.542,8.32"
           stroke-linejoin="bevel"
           id="path6" />
      </g>
      <g
         class="E"
         id="g8">
        <path
           d="m 58.066,24.09 c -0.943,1.053 -0.666,1.24 -2.55,1.627 -1.907,0.393 -0.787,1.093 -0.055,1.276 0.887,0.222 2.94,0.536 4.325,-1.405 0.422,-0.59 -0.002,-1.534 -0.582,-1.775 -0.28,-0.116 -0.655,-0.26 -1.136,0.277 z"
           id="path7" />
        <path
           d="m 58.004,24.072 c -0.095,-0.62 0.204,-1.356 0.523,-2.22 0.48,-1.294 1.6,-2.588 0.703,-6.692 -0.66,-3.058 -5.098,-0.637 -5.1,-0.222 -0.002,0.415 0.2,2.102 -0.074,4.067 -0.36,2.564 1.63,4.733 3.923,4.51"
           class="D"
           id="path8" />
      </g>
    </g>
    <g
       fill="#ffffff"
       class="C"
       id="g10"
       transform="matrix(2.4082715,0,0,2.4082715,-105.08254,-12.093791)">
      <path
         d="m 56.948,14.877 c -0.02,0.142 0.26,0.52 0.623,0.57 0.363,0.05 0.675,-0.245 0.694,-0.386 0.019,-0.141 -0.26,-0.298 -0.624,-0.35 -0.364,-0.052 -0.675,0.023 -0.694,0.165 z"
         stroke-width="0.289"
         id="path9" />
      <path
         d="m 68.022,14.588 c 0.02,0.142 -0.26,0.52 -0.623,0.57 -0.363,0.05 -0.675,-0.245 -0.695,-0.386 -0.02,-0.141 0.26,-0.298 0.624,-0.348 0.364,-0.05 0.675,0.023 0.695,0.165 z"
         stroke-width="0.144"
         id="path10" />
    </g>
    <path
       d="m 61.866072,20.677968 c 0.1445,2.673182 -0.57799,4.498652 -0.66709,7.345229 -0.13486,4.142227 1.97478,8.879297 -1.20414,13.623592"
       fill="none"
       class="B C D E"
       id="path11" />
  </g>
</svg>
