<?xml version="1.0" encoding="UTF-8" standalone="no"?>
<svg
   id="LOGOS"
   viewBox="0 0 312.38 74.120003"
   version="1.1"
   sodipodi:docname="Terraform_PrimaryLogo_Color_RGB.svg"
   width="312.38"
   height="74.120003"
   inkscape:version="1.3.2 (091e20ef0f, 2023-11-25)"
   xmlns:inkscape="http://www.inkscape.org/namespaces/inkscape"
   xmlns:sodipodi="http://sodipodi.sourceforge.net/DTD/sodipodi-0.dtd"
   xmlns="http://www.w3.org/2000/svg"
   xmlns:svg="http://www.w3.org/2000/svg">
  <sodipodi:namedview
     id="namedview12"
     pagecolor="#ffffff"
     bordercolor="#000000"
     borderopacity="0.25"
     inkscape:showpageshadow="2"
     inkscape:pageopacity="0.0"
     inkscape:pagecheckerboard="0"
     inkscape:deskcolor="#d1d1d1"
     inkscape:zoom="5.2860963"
     inkscape:cx="156.54274"
     inkscape:cy="37.929691"
     inkscape:window-width="2560"
     inkscape:window-height="1371"
     inkscape:window-x="0"
     inkscape:window-y="0"
     inkscape:window-maximized="1"
     inkscape:current-layer="LOGOS" />
  <defs
     id="defs1">
    <style
       id="style1">.cls-1{fill:#7b42bc;fill-rule:evenodd;}</style>
  </defs>
  <path
     d="M 98.46,30.46 H 87.21 v -6.72 h 30.12 v 6.72 h -11.25 v 33.6 h -7.62 z"
     id="path1" />
  <path
     d="m 125.29,58.59 a 30.77,30.77 0 0 0 9,-1.39 l 1.15,5.56 a 31.65,31.65 0 0 1 -10.86,1.88 c -9.25,0 -12.46,-4.3 -12.46,-11.38 v -7.8 c 0,-6.23 2.78,-11.49 12.22,-11.49 9.44,0 11.56,5.5 11.56,11.85 v 6.3 h -16.32 v 1.51 c 0,3.57 1.23,4.96 5.71,4.96 z m -5.71,-12.4 h 9.38 v -1.46 c 0,-2.78 -0.85,-4.71 -4.48,-4.71 -3.63,0 -4.9,1.93 -4.9,4.71 z"
     id="path2" />
  <path
     d="m 155.66,40.74 a 56.66,56.66 0 0 0 -7.81,4.3 v 19.02 h -7.38 V 34.57 h 6.23 l 0.49,3.27 a 32.66,32.66 0 0 1 7.74,-3.87 z"
     id="path3" />
  <path
     d="m 173.68,40.74 a 57.14,57.14 0 0 0 -7.8,4.3 V 64.06 H 158.5 V 34.57 h 6.23 l 0.48,3.27 a 32.75,32.75 0 0 1 7.75,-3.87 z"
     id="path4" />
  <path
     d="m 198.36,64.06 h -6.05 l -0.54,-2 a 16.15,16.15 0 0 1 -8.77,2.6 c -5.39,0 -7.69,-3.69 -7.69,-8.77 0,-6 2.61,-8.29 8.59,-8.29 h 7.08 v -3.11 c 0,-3.26 -0.9,-4.41 -5.62,-4.41 a 41.47,41.47 0 0 0 -8.17,0.9 l -0.91,-5.62 a 38.32,38.32 0 0 1 10.1,-1.39 c 9.26,0 12,3.26 12,10.64 z M 190.98,52.9 h -5.4 c -2.42,0 -3.09,0.67 -3.09,2.91 0,2 0.67,3 3,3 a 11.68,11.68 0 0 0 5.56,-1.51 z"
     id="path5" />
  <path
     d="m 221.05,27.86 a 21.16,21.16 0 0 0 -4.24,-0.49 c -2.9,0 -3.32,1.27 -3.32,3.51 v 3.69 h 7.5 l -0.41,5.87 h -7.07 v 23.62 h -7.38 V 40.44 h -4.72 v -5.87 h 4.72 v -4.11 c 0,-6.11 2.84,-9.14 9.37,-9.14 a 23.5,23.5 0 0 1 6.35,0.85 z"
     id="path6" />
  <path
     d="m 235.44,64.64 c -10.1,0 -12.86,-5.58 -12.86,-11.58 v -7.48 c 0,-6 2.72,-11.61 12.82,-11.61 10.1,0 12.83,5.56 12.83,11.61 v 7.48 c 0.04,6 -2.65,11.58 -12.79,11.58 z m 0,-24.38 c -3.93,0 -5.44,1.75 -5.44,5.08 v 7.92 c 0,3.33 1.51,5.09 5.44,5.09 3.93,0 5.45,-1.76 5.45,-5.09 v -7.92 c 0,-3.28 -1.51,-5.08 -5.45,-5.08 z"
     id="path7" />
  <path
     d="m 267.26,40.74 a 57.14,57.14 0 0 0 -7.8,4.3 v 19.02 h -7.38 V 34.57 h 6.23 l 0.48,3.27 a 32.94,32.94 0 0 1 7.79,-3.87 z"
     id="path8" />
  <path
     d="m 287.58,64.06 v -20.6 c 0,-1.57 -0.67,-2.36 -2.36,-2.36 -1.69,0 -5,1.09 -7.68,2.49 v 20.47 h -7.39 V 34.57 h 5.63 l 0.73,2.48 a 29.59,29.59 0 0 1 11.79,-3.08 c 2.85,0 4.6,1.15 5.57,3.14 a 29,29 0 0 1 11.86,-3.14 c 4.9,0 6.65,3.44 6.65,8.71 V 64.06 H 305 v -20.6 c 0,-1.57 -0.67,-2.36 -2.36,-2.36 a 19.42,19.42 0 0 0 -7.68,2.49 v 20.47 z"
     id="path9" />
  <polygon
     class="cls-1"
     points="70.72,77.58 51.62,66.55 51.62,44.49 70.72,55.52 "
     id="polygon9"
     transform="translate(-30.42,-27.94)" />
  <polygon
     class="cls-1"
     points="91.92,66.55 91.92,44.49 72.81,55.52 72.81,77.58 "
     id="polygon10"
     transform="translate(-30.42,-27.94)" />
  <polygon
     class="cls-1"
     points="49.52,65.27 49.52,43.21 30.42,32.18 30.42,54.24 "
     id="polygon11"
     transform="translate(-30.42,-27.94)" />
  <polygon
     class="cls-1"
     points="70.72,80.14 70.72,80 51.62,68.97 51.62,91.03 70.72,102.06 "
     id="polygon12"
     transform="translate(-30.42,-27.94)" />
  <path
     d="M 95.02,13.78 V 8.12 h -5.17 v 5.66 H 87.21 V 0.19 h 2.64 v 5.7 h 5.17 v -5.7 h 2.64 v 13.59 z m 12.33,0 h -2.1 l -0.19,-0.67 a 5.69,5.69 0 0 1 -3,0.87 c -1.86,0 -2.66,-1.23 -2.66,-2.92 0,-2 0.9,-2.76 3,-2.76 h 2.45 v -1 c 0,-1.09 -0.31,-1.47 -2,-1.47 a 14.94,14.94 0 0 0 -2.83,0.3 L 99.71,4.26 a 13.9,13.9 0 0 1 3.5,-0.46 c 3.2,0 4.15,1.08 4.15,3.54 z m -2.56,-3.72 h -1.89 c -0.83,0 -1.06,0.23 -1.06,1 0,0.77 0.23,1 1,1 a 4,4 0 0 0 1.93,-0.51 z m 7.91,3.91 a 12.59,12.59 0 0 1 -3.52,-0.56 l 0.36,-1.88 a 11.5,11.5 0 0 0 3,0.43 c 1.13,0 1.3,-0.25 1.3,-1 0,-0.75 -0.13,-0.91 -1.78,-1.29 -2.5,-0.58 -2.79,-1.19 -2.79,-3.08 0,-1.89 0.9,-2.83 3.81,-2.83 a 14,14 0 0 1 3.06,0.34 l -0.21,1.96 a 18.84,18.84 0 0 0 -2.81,-0.28 c -1.11,0 -1.3,0.24 -1.3,0.84 0,0.79 0.07,0.85 1.45,1.19 2.85,0.73 3.12,1.09 3.12,3.1 0,2.01 -0.61,3.07 -3.69,3.07 z m 11.71,-0.2 V 6.94 c 0,-0.53 -0.23,-0.79 -0.82,-0.79 a 7.12,7.12 0 0 0 -2.66,0.83 v 6.8 h -2.56 V 0 l 2.56,0.38 v 4.34 a 9.34,9.34 0 0 1 3.73,-0.94 c 1.7,0 2.3,1.14 2.3,2.89 v 7.11 z m 4.7,-11.19 v -2.4 h 2.56 v 2.4 z m 0,11.19 v -9.8 h 2.56 v 9.8 z m 4.6,-9.72 c 0,-2.46 1.49,-3.89 5,-3.89 a 16.47,16.47 0 0 1 3.79,0.45 l -0.29,2.19 a 21.49,21.49 0 0 0 -3.42,-0.34 c -1.82,0 -2.41,0.6 -2.41,2 v 5.15 c 0,1.43 0.59,2 2.41,2 a 21.49,21.49 0 0 0 3.42,-0.34 l 0.29,2.2 a 16.47,16.47 0 0 1 -3.79,0.44 c -3.48,0 -5,-1.43 -5,-3.89 z m 14.41,9.92 c -3.5,0 -4.44,-1.85 -4.44,-3.87 V 7.64 c 0,-2 0.94,-3.86 4.44,-3.86 3.5,0 4.46,1.85 4.46,3.86 v 2.47 c 0,2.02 -1,3.87 -4.46,3.87 z m 0,-8.11 c -1.36,0 -1.89,0.58 -1.89,1.69 v 2.64 c 0,1.1 0.53,1.69 1.89,1.69 1.36,0 1.89,-0.59 1.89,-1.69 V 7.56 c 0,-1.11 -0.53,-1.69 -1.89,-1.69 z m 11.64,0.16 a 20.53,20.53 0 0 0 -2.7,1.43 v 6.32 h -2.56 v -9.8 h 2.16 l 0.17,1.08 a 11.54,11.54 0 0 1 2.68,-1.28 z m 10.22,4.49 c 0,2.17 -1,3.46 -3.37,3.46 a 14.85,14.85 0 0 1 -2.73,-0.28 v 4 l -2.55,0.38 V 3.98 h 2 l 0.25,0.82 a 5.54,5.54 0 0 1 3.23,-1 c 2.05,0 3.14,1.16 3.14,3.4 z m -6.1,1.1 a 12,12 0 0 0 2.27,0.27 c 0.92,0 1.28,-0.43 1.28,-1.31 V 7.12 c 0,-0.81 -0.32,-1.25 -1.26,-1.25 a 3.73,3.73 0 0 0 -2.29,0.88 z"
     id="path12" />
</svg>
