<?xml version="1.0" encoding="UTF-8" standalone="no"?>
<svg
   version="1.1"
   x="0px"
   y="0px"
   viewBox="0 0 357.96689 383.53595"
   xml:space="preserve"
   id="svg8"
   sodipodi:docname="basket2.svg"
   inkscape:version="1.3.2 (091e20ef0f, 2023-11-25)"
   width="357.96689"
   height="383.53595"
   xmlns:inkscape="http://www.inkscape.org/namespaces/inkscape"
   xmlns:sodipodi="http://sodipodi.sourceforge.net/DTD/sodipodi-0.dtd"
   xmlns="http://www.w3.org/2000/svg"
   xmlns:svg="http://www.w3.org/2000/svg"><defs
     id="defs8" /><sodipodi:namedview
     id="namedview8"
     pagecolor="#ffffff"
     bordercolor="#000000"
     borderopacity="0.25"
     inkscape:showpageshadow="2"
     inkscape:pageopacity="0.0"
     inkscape:pagecheckerboard="0"
     inkscape:deskcolor="#d1d1d1"
     showgrid="false"
     inkscape:zoom="2.032932"
     inkscape:cx="179.29768"
     inkscape:cy="199.71155"
     inkscape:window-width="1920"
     inkscape:window-height="1168"
     inkscape:window-x="0"
     inkscape:window-y="0"
     inkscape:window-maximized="0"
     inkscape:current-layer="svg8" /><path
     style="fill:#ff0000;stroke-width:0.555849"
     d="m 178.4417,5.5997488 c -21.20273,-0.14986 -41.77294,11.2339402 -53.3716,28.8999802 -6.58671,10.06336 -11.26263,21.91954 -10.40124,34.133528 -0.27991,8.273382 0.062,16.753119 3.63474,24.385714 6.43539,17.353699 20.63064,31.420929 37.93345,37.907389 20.40671,7.95271 44.6291,4.22355 61.94461,-9.10854 12.56264,-9.21468 21.03704,-23.457197 24.35532,-38.562031 2.35304,-14.322229 1.10301,-29.57385 -5.96561,-42.47361 C 225.64935,19.380879 202.67913,4.7960288 178.4417,5.5997488 Z m -2.85524,33.7548102 c 4.91094,0.14006 10.20355,-0.30695 14.88199,0.33546 0.62146,5.62497 -1.78554,12.78775 2.80639,17.3616 4.88669,3.191125 11.14781,1.21001 16.47572,1.78371 0.20966,7.600702 0.49022,15.595285 -0.14223,22.964608 -5.62497,0.621456 -12.78775,-1.785545 -17.3616,2.80639 -3.27861,4.865461 -1.03436,11.224921 -1.91398,16.515883 -7.64297,0.17758 -15.23777,0.30446 -22.76702,-0.0416 -0.63284,-5.172813 1.16337,-10.949491 -1.50159,-15.736096 -3.60955,-5.509321 -11.20671,-2.946739 -16.53093,-3.528441 -2.76149,0.193621 -0.93662,-4.313252 -1.50133,-6.219835 0.1283,-5.540841 -0.33099,-11.460002 0.32665,-16.766679 5.62497,-0.62146 12.78775,1.785542 17.3616,-2.80639 3.19112,-4.88669 1.21001,-11.14781 1.78371,-16.47572 2.68835,-0.2082 5.38848,-0.17224 8.08261,-0.19324 z"
     id="path8" /><g
     id="g7"
     style="fill:#1a1a1a"
     transform="matrix(6.3922656,0,0,6.3922656,-25.569062,-12.784531)"><path
       d="M 58,28 H 50.306 L 59.598,11.907 C 60.425,10.474 59.932,8.636 58.499,7.809 57.067,6.982 55.228,7.475 54.401,8.907 L 43.378,28 H 20.622 L 9.599,8.907 C 8.771,7.474 6.932,6.981 5.5,7.809 4.067,8.636 3.575,10.475 4.401,11.907 L 13.694,28 H 6 c -1.103,0 -2,0.897 -2,2 v 4 c 0,1.103 0.897,2 2,2 H 7.077 L 8.943,59.24 C 9.066,60.788 10.38,62 11.933,62 h 40.135 c 1.553,0 2.866,-1.212 2.99,-2.76 L 56.923,36 H 58 c 1.103,0 2,-0.897 2,-2 v -4 c 0,-1.103 -0.897,-2 -2,-2 z m -10,4 c 0,1.103 -0.897,2 -2,2 -1.103,0 -2,-0.897 -2,-2 0,-1.103 0.897,-2 2,-2 1.103,0 2,0.897 2,2 z m -32,0 c 0,-1.103 0.897,-2 2,-2 1.103,0 2,0.897 2,2 0,1.103 -0.897,2 -2,2 -1.103,0 -2,-0.897 -2,-2 z m 5.444,-2 H 42.557 C 42.212,30.591 42,31.268 42,32 c 0,0.732 0.212,1.409 0.556,2 H 21.444 C 21.788,33.409 22,32.732 22,32 22,31.268 21.788,30.591 21.444,30 Z M 56.134,9.907 c 0.275,-0.478 0.889,-0.642 1.366,-0.366 0.478,0.275 0.642,0.888 0.366,1.366 L 47.997,28 h -2.309 z m -50,1 C 5.858,10.429 6.023,9.816 6.5,9.541 6.977,9.265 7.59,9.429 7.866,9.907 L 18.312,28 H 16.003 Z M 6,30 h 8.556 C 14.212,30.591 14,31.268 14,32 c 0,0.732 0.212,1.409 0.556,2 H 6 Z m 3.405,10 h 1.703 c 0.53,0 0.969,0.415 0.999,0.945 l 0.778,14 c 0.016,0.277 -0.081,0.542 -0.272,0.743 C 12.422,55.889 12.164,56 11.886,56 H 10.689 Z M 53.311,56 H 52.5 c -0.278,0 -0.536,-0.111 -0.727,-0.313 -0.191,-0.202 -0.288,-0.465 -0.272,-0.742 l 0.778,-14 C 52.308,40.415 52.747,40 53.277,40 h 1.318 z m 1.445,-18 h -1.479 c -1.591,0 -2.907,1.245 -2.996,2.833 l -0.778,14 c -0.045,0.819 0.252,1.631 0.816,2.228 C 50.884,57.658 51.679,58 52.5,58 h 0.651 l -0.087,1.081 C 53.022,59.596 52.585,60 52.067,60 H 11.933 c -0.518,0 -0.955,-0.404 -0.997,-0.92 L 10.849,58 h 1.036 c 0.821,0 1.615,-0.342 2.179,-0.938 0.564,-0.596 0.862,-1.408 0.816,-2.229 l -0.778,-14 C 14.015,39.245 12.699,38 11.108,38 H 9.244 L 9.083,36 H 54.916 Z M 49.444,34 C 49.788,33.409 50,32.732 50,32 50,31.268 49.788,30.591 49.444,30 H 58 l 10e-4,4 z"
       id="path1"
       style="fill:#1a1a1a" /><path
       d="m 20,38 c -1.654,0 -3,1.346 -3,3 v 14 c 0,1.654 1.346,3 3,3 1.654,0 3,-1.346 3,-3 V 41 c 0,-1.654 -1.346,-3 -3,-3 z m 1,17 c 0,0.551 -0.449,1 -1,1 -0.551,0 -1,-0.449 -1,-1 V 41 c 0,-0.551 0.449,-1 1,-1 0.551,0 1,0.449 1,1 z"
       id="path2"
       style="fill:#1a1a1a" /><path
       d="m 28,38 c -1.654,0 -3,1.346 -3,3 v 14 c 0,1.654 1.346,3 3,3 1.654,0 3,-1.346 3,-3 V 41 c 0,-1.654 -1.346,-3 -3,-3 z m 1,17 c 0,0.551 -0.449,1 -1,1 -0.551,0 -1,-0.449 -1,-1 V 41 c 0,-0.551 0.449,-1 1,-1 0.551,0 1,0.449 1,1 z"
       id="path3"
       style="fill:#1a1a1a" /><path
       d="m 36,38 c -1.654,0 -3,1.346 -3,3 v 14 c 0,1.654 1.346,3 3,3 1.654,0 3,-1.346 3,-3 V 41 c 0,-1.654 -1.346,-3 -3,-3 z m 1,17 c 0,0.551 -0.449,1 -1,1 -0.551,0 -1,-0.449 -1,-1 V 41 c 0,-0.551 0.449,-1 1,-1 0.551,0 1,0.449 1,1 z"
       id="path4"
       style="fill:#1a1a1a" /><path
       d="m 41,41 v 14 c 0,1.654 1.346,3 3,3 1.654,0 3,-1.346 3,-3 V 41 c 0,-1.654 -1.346,-3 -3,-3 -1.654,0 -3,1.346 -3,3 z m 4,0 v 14 c 0,0.551 -0.449,1 -1,1 -0.551,0 -1,-0.449 -1,-1 V 41 c 0,-0.551 0.449,-1 1,-1 0.551,0 1,0.449 1,1 z"
       id="path5"
       style="fill:#1a1a1a" /><path
       d="m 27,16 h 2 v 2 c 0,0.552 0.448,1 1,1 h 4 c 0.552,0 1,-0.448 1,-1 v -2 h 2 c 0.552,0 1,-0.448 1,-1 v -4 c 0,-0.552 -0.448,-1 -1,-1 H 35 V 8 C 35,7.448 34.552,7 34,7 h -4 c -0.552,0 -1,0.448 -1,1 v 2 h -2 c -0.552,0 -1,0.448 -1,1 v 4 c 0,0.552 0.448,1 1,1 z m 1,-4 h 2 c 0.552,0 1,-0.448 1,-1 V 9 h 2 v 2 c 0,0.552 0.448,1 1,1 h 2 v 2 h -2 c -0.552,0 -1,0.448 -1,1 v 2 h -2 v -2 c 0,-0.552 -0.448,-1 -1,-1 h -2 z"
       id="path6"
       style="fill:#1a1a1a" /><path
       d="M 32,24 C 38.065,24 43,19.065 43,13 43,6.935 38.065,2 32,2 25.935,2 21,6.935 21,13 c 0,6.065 4.935,11 11,11 z M 32,4 c 4.962,0 9,4.038 9,9 0,4.962 -4.038,9 -9,9 -4.962,0 -9,-4.038 -9,-9 0,-4.962 4.038,-9 9,-9 z"
       id="path7"
       style="fill:#1a1a1a" /></g></svg>
